<svg width="4727" height="2881" viewBox="0 0 4727 2881" fill="none" xmlns="http://www.w3.org/2000/svg">
<path d="M447.134 2H725.757C732.022 2 738.059 4.35246 742.672 8.59163L813.218 73.4155C818.569 78.3329 825.572 81.0618 832.84 81.0618L4725 81.0618V2878.5H2V81.0618H415.164C425.109 81.0618 433.17 72.9961 433.164 63.0506L433.134 16.0087C433.13 8.27331 439.399 2 447.134 2Z" fill="#ABFFFF" stroke="#3D3D3D" stroke-width="4"/>
<path d="M566.98 53L560.713 32.36V32.2H565.247L570.313 49.16H570.953L575.967 32.2H580.287V32.36L574.02 53H566.98ZM589.995 53.3733C587.791 53.3733 585.951 52.9378 584.475 52.0667C583.018 51.1778 581.924 49.9244 581.195 48.3067C580.484 46.6889 580.129 44.7867 580.129 42.6C580.129 40.3956 580.484 38.4933 581.195 36.8933C581.924 35.2756 583.018 34.0311 584.475 33.16C585.951 32.2711 587.791 31.8267 589.995 31.8267C592.218 31.8267 594.058 32.2711 595.515 33.16C596.973 34.0311 598.058 35.2756 598.769 36.8933C599.498 38.4933 599.862 40.3956 599.862 42.6C599.862 44.7867 599.498 46.6889 598.769 48.3067C598.058 49.9244 596.973 51.1778 595.515 52.0667C594.058 52.9378 592.218 53.3733 589.995 53.3733ZM589.995 50.0133C591.791 50.0133 593.107 49.3733 593.942 48.0933C594.795 46.7956 595.222 44.9644 595.222 42.6C595.222 40.2178 594.795 38.3867 593.942 37.1067C593.107 35.8267 591.791 35.1867 589.995 35.1867C588.2 35.1867 586.875 35.8267 586.022 37.1067C585.187 38.3867 584.769 40.2178 584.769 42.6C584.769 44.9644 585.187 46.7956 586.022 48.0933C586.875 49.3733 588.2 50.0133 589.995 50.0133ZM605.649 53V35.72H599.489V32.2H616.289V35.72H610.129V53H605.649ZM618.482 53V32.2H632.668V35.72H622.908V40.3067H630.428V43.56H622.908V49.48H632.828V53H618.482Z" fill="#3D3D3D"/>
</svg>
