<svg width="4727" height="2881" viewBox="0 0 4727 2881" fill="none" xmlns="http://www.w3.org/2000/svg">
<path d="M828.629 2H1105.74C1112.02 2 1118.07 4.36591 1122.69 8.62681L1192.8 73.319C1198.16 78.2617 1205.18 81.0061 1212.46 81.0061L4725 81.0062V2878.5L2 2878.5V81.0061H796.658C806.604 81.0061 814.664 72.9405 814.658 62.995L814.629 16.0086C814.625 8.27329 820.894 2 828.629 2Z" fill="#5CFFC3" stroke="#3D3D3D" stroke-width="4"/>
<path d="M917.82 53.4C914.798 53.4 912.451 52.4489 910.78 50.5467C909.127 48.6444 908.3 45.9956 908.3 42.6C908.3 39.24 909.118 36.6 910.753 34.68C912.389 32.76 914.736 31.8 917.793 31.8C919.624 31.8 921.189 32.1467 922.487 32.84C923.784 33.5156 924.798 34.4578 925.527 35.6667C926.256 36.8756 926.682 38.2622 926.807 39.8267H922.353C922.211 38.3689 921.74 37.2311 920.94 36.4133C920.14 35.5778 919.1 35.16 917.82 35.16C916.202 35.16 914.984 35.8089 914.167 37.1067C913.349 38.4044 912.94 40.2444 912.94 42.6267C912.94 45.0978 913.358 46.9556 914.193 48.2C915.047 49.4267 916.247 50.04 917.793 50.04C919.127 50.04 920.184 49.6133 920.967 48.76C921.767 47.9067 922.229 46.7778 922.353 45.3733H926.807C926.682 46.9378 926.256 48.3244 925.527 49.5333C924.798 50.7422 923.784 51.6933 922.487 52.3867C921.207 53.0622 919.651 53.4 917.82 53.4ZM937.527 53.3733C935.322 53.3733 933.482 52.9378 932.007 52.0667C930.549 51.1778 929.456 49.9244 928.727 48.3067C928.016 46.6889 927.66 44.7867 927.66 42.6C927.66 40.3956 928.016 38.4933 928.727 36.8933C929.456 35.2756 930.549 34.0311 932.007 33.16C933.482 32.2711 935.322 31.8267 937.527 31.8267C939.749 31.8267 941.589 32.2711 943.047 33.16C944.504 34.0311 945.589 35.2756 946.3 36.8933C947.029 38.4933 947.393 40.3956 947.393 42.6C947.393 44.7867 947.029 46.6889 946.3 48.3067C945.589 49.9244 944.504 51.1778 943.047 52.0667C941.589 52.9378 939.749 53.3733 937.527 53.3733ZM937.527 50.0133C939.322 50.0133 940.638 49.3733 941.473 48.0933C942.327 46.7956 942.753 44.9644 942.753 42.6C942.753 40.2178 942.327 38.3867 941.473 37.1067C940.638 35.8267 939.322 35.1867 937.527 35.1867C935.731 35.1867 934.407 35.8267 933.553 37.1067C932.718 38.3867 932.3 40.2178 932.3 42.6C932.3 44.9644 932.718 46.7956 933.553 48.0933C934.407 49.3733 935.731 50.0133 937.527 50.0133ZM949.59 53V32.2H957.484L961.35 49.48H962.31L966.177 32.2H974.07V53H969.91V35.88H969.217L965.43 53H958.017L954.23 35.88H953.537V53H949.59ZM977.482 53V32.2H986.175C988.842 32.2 990.788 32.7689 992.015 33.9067C993.242 35.0267 993.855 36.5378 993.855 38.44C993.855 40.3422 993.242 41.8622 992.015 43C990.806 44.1378 988.859 44.7067 986.175 44.7067H981.908V53H977.482ZM981.908 41.3467H985.508C986.717 41.3467 987.659 41.1422 988.335 40.7333C989.028 40.3067 989.375 39.5511 989.375 38.4667C989.375 37.4 989.028 36.6533 988.335 36.2267C987.659 35.7822 986.717 35.56 985.508 35.56H981.908V41.3467ZM996.029 53V32.2H1010.22V35.72H1000.46V40.3067H1007.98V43.56H1000.46V49.48H1010.38V53H996.029ZM1017.92 53V35.72H1011.76V32.2H1028.56V35.72H1022.4V53H1017.92ZM1030.75 53V32.2H1044.94V35.72H1035.18V40.3067H1042.7V43.56H1035.18V49.48H1045.1V53H1030.75Z" fill="#3D3D3D"/>
</svg>
