<svg width="4733" height="2881" viewBox="0 0 4733 2881" fill="none" xmlns="http://www.w3.org/2000/svg">
<path d="M1200.83 2H1479.44C1485.71 2 1491.75 4.35222 1496.36 8.591L1566.9 73.4092C1572.25 78.3262 1579.26 81.0547 1586.52 81.0547H4731V2878.5H2V81.0547L1168.85 81.0547C1178.8 81.0547 1186.86 72.9891 1186.85 63.0436L1186.83 16.0087C1186.82 8.27331 1193.09 2 1200.83 2Z" fill="#FFC2DE" stroke="#3D3D3D" stroke-width="4"/>
<path d="M1257.53 52V31.2H1262.01V48.48H1270.7V52H1257.53ZM1272.89 52V31.2H1287.07V34.72H1277.31V39.3067H1284.83V42.56H1277.31V48.48H1287.23V52H1272.89ZM1288.03 52V51.84L1294.29 31.2H1301.31L1307.6 51.84V52H1303.01L1297.97 34.6667H1297.33L1292.24 52H1288.03ZM1293.23 46.8L1294.16 43.44H1301.15L1302.08 46.8H1293.23ZM1309.2 52V31.2H1316.61C1320.31 31.2 1323 32.1156 1324.67 33.9467C1326.34 35.76 1327.17 38.3111 1327.17 41.6C1327.17 44.8889 1326.34 47.4489 1324.67 49.28C1323 51.0933 1320.31 52 1316.61 52H1309.2ZM1313.68 48.5333H1316.35C1317.72 48.5333 1318.85 48.3289 1319.76 47.92C1320.68 47.4933 1321.38 46.7822 1321.84 45.7867C1322.3 44.7733 1322.53 43.3778 1322.53 41.6C1322.53 39.8222 1322.3 38.4356 1321.84 37.44C1321.38 36.4267 1320.68 35.7156 1319.76 35.3067C1318.85 34.88 1317.72 34.6667 1316.35 34.6667H1313.68V48.5333ZM1329.37 52V31.2H1343.56V34.72H1333.8V39.3067H1341.32V42.56H1333.8V48.48H1343.72V52H1329.37ZM1346.33 52V31.2H1355.15C1356.93 31.2 1358.37 31.4578 1359.47 31.9733C1360.59 32.4711 1361.41 33.1644 1361.93 34.0533C1362.46 34.9244 1362.73 35.9378 1362.73 37.0933C1362.73 38.4089 1362.38 39.5467 1361.69 40.5067C1360.99 41.4667 1359.97 42.1511 1358.62 42.56L1363.29 51.84V52H1358.54L1354.3 43.2H1350.75V52H1346.33ZM1350.75 39.9467H1354.51C1355.67 39.9467 1356.57 39.7511 1357.21 39.36C1357.86 38.9689 1358.19 38.2667 1358.19 37.2533C1358.19 36.2222 1357.86 35.52 1357.21 35.1467C1356.55 34.7556 1355.65 34.56 1354.51 34.56H1350.75V39.9467ZM1365.16 52V31.2H1373.32C1375.91 31.2 1377.79 31.6711 1378.94 32.6133C1380.1 33.5556 1380.68 34.8267 1380.68 36.4267C1380.68 37.4578 1380.43 38.2933 1379.93 38.9333C1379.43 39.5733 1378.68 40.0444 1377.66 40.3467V40.9867C1379.01 41.2889 1380.04 41.8222 1380.73 42.5867C1381.44 43.3511 1381.8 44.4622 1381.8 45.92C1381.8 47.7511 1381.19 49.2267 1379.98 50.3467C1378.79 51.4489 1376.82 52 1374.06 52H1365.16ZM1369.42 48.8H1373.48C1374.83 48.8 1375.8 48.5333 1376.41 48C1377.01 47.4489 1377.32 46.7022 1377.32 45.76C1377.32 44.7111 1376.98 43.9467 1376.3 43.4667C1375.63 42.9689 1374.68 42.72 1373.48 42.72H1369.42V48.8ZM1369.42 39.5733H1373C1374.01 39.5733 1374.81 39.3689 1375.4 38.96C1376 38.5333 1376.3 37.8756 1376.3 36.9867C1376.3 35.2622 1375.2 34.4 1373 34.4H1369.42V39.5733ZM1392.62 52.3733C1390.42 52.3733 1388.58 51.9378 1387.1 51.0667C1385.65 50.1778 1384.55 48.9244 1383.82 47.3067C1383.11 45.6889 1382.76 43.7867 1382.76 41.6C1382.76 39.3956 1383.11 37.4933 1383.82 35.8933C1384.55 34.2756 1385.65 33.0311 1387.1 32.16C1388.58 31.2711 1390.42 30.8267 1392.62 30.8267C1394.85 30.8267 1396.69 31.2711 1398.14 32.16C1399.6 33.0311 1400.69 34.2756 1401.4 35.8933C1402.13 37.4933 1402.49 39.3956 1402.49 41.6C1402.49 43.7867 1402.13 45.6889 1401.4 47.3067C1400.69 48.9244 1399.6 50.1778 1398.14 51.0667C1396.69 51.9378 1394.85 52.3733 1392.62 52.3733ZM1392.62 49.0133C1394.42 49.0133 1395.74 48.3733 1396.57 47.0933C1397.42 45.7956 1397.85 43.9644 1397.85 41.6C1397.85 39.2178 1397.42 37.3867 1396.57 36.1067C1395.74 34.8267 1394.42 34.1867 1392.62 34.1867C1390.83 34.1867 1389.5 34.8267 1388.65 36.1067C1387.82 37.3867 1387.4 39.2178 1387.4 41.6C1387.4 43.9644 1387.82 45.7956 1388.65 47.0933C1389.5 48.3733 1390.83 49.0133 1392.62 49.0133ZM1402.34 52V51.84L1408.61 31.2H1415.62L1421.92 51.84V52H1417.33L1412.29 34.6667H1411.65L1406.56 52H1402.34ZM1407.54 46.8L1408.48 43.44H1415.46L1416.4 46.8H1407.54ZM1423.52 52V31.2H1432.34C1434.12 31.2 1435.56 31.4578 1436.66 31.9733C1437.78 32.4711 1438.6 33.1644 1439.12 34.0533C1439.65 34.9244 1439.92 35.9378 1439.92 37.0933C1439.92 38.4089 1439.57 39.5467 1438.88 40.5067C1438.18 41.4667 1437.16 42.1511 1435.81 42.56L1440.48 51.84V52H1435.73L1431.49 43.2H1427.94V52H1423.52ZM1427.94 39.9467H1431.7C1432.86 39.9467 1433.76 39.7511 1434.4 39.36C1435.05 38.9689 1435.38 38.2667 1435.38 37.2533C1435.38 36.2222 1435.05 35.52 1434.4 35.1467C1433.74 34.7556 1432.84 34.56 1431.7 34.56H1427.94V39.9467ZM1442.35 52V31.2H1449.76C1453.46 31.2 1456.14 32.1156 1457.81 33.9467C1459.48 35.76 1460.32 38.3111 1460.32 41.6C1460.32 44.8889 1459.48 47.4489 1457.81 49.28C1456.14 51.0933 1453.46 52 1449.76 52H1442.35ZM1446.83 48.5333H1449.49C1450.86 48.5333 1452 48.3289 1452.91 47.92C1453.83 47.4933 1454.52 46.7822 1454.99 45.7867C1455.45 44.7733 1455.68 43.3778 1455.68 41.6C1455.68 39.8222 1455.45 38.4356 1454.99 37.44C1454.52 36.4267 1453.83 35.7156 1452.91 35.3067C1452 34.88 1450.86 34.6667 1449.49 34.6667H1446.83V48.5333Z" fill="#3D3D3D"/>
</svg>
