<svg width="47" height="67" viewBox="0 0 47 67" fill="none" xmlns="http://www.w3.org/2000/svg">
<rect x="5.33641" y="5.09366" width="36.9643" height="56.25" rx="4.01786" transform="rotate(0.646513 5.33641 5.09366)" fill="#53C1FF" stroke="#043E5F" stroke-width="1.60714" stroke-linecap="round" stroke-linejoin="round"/>
<path fill-rule="evenodd" clip-rule="evenodd" d="M5.81815 58.6548C6.30957 59.7764 7.42343 60.5656 8.72745 60.5803L37.6542 60.9068C39.4293 60.9268 40.8845 59.504 40.9045 57.7289L41.4486 9.51772C41.4633 8.21379 40.6995 7.08246 39.5894 6.56581C39.7669 6.97099 39.8632 7.41953 39.8579 7.89061L39.2957 57.7089C39.2857 58.5964 38.5581 59.3078 37.6705 59.2978L7.13677 58.9532C6.66561 58.9479 6.21927 58.8415 5.81815 58.6548Z" fill="#2387BF"/>
<path d="M38.2717 6.26894L9.34494 5.94252C7.56985 5.92249 6.11462 7.34524 6.09459 9.12033L5.6231 50.9034L41.3225 20.7686L41.4495 9.51928C41.4695 7.7442 40.0468 6.28897 38.2717 6.26894Z" fill="#81D1FF"/>
<path d="M5.85035 30.8188L26.1427 12.9376L5.89569 26.8012L5.85035 30.8188Z" fill="#53C1FF"/>
<path d="M36.6435 7.86157L9.32384 7.55329C8.43629 7.54328 7.70868 8.25465 7.69866 9.1422L7.17277 55.7464" stroke="#BEE7FF" stroke-width="1.60714" stroke-linecap="round" stroke-linejoin="round"/>
<path d="M7.6543 13.1523L7.56363 21.1875" stroke="#FFFDFA" stroke-width="1.60714" stroke-linecap="round" stroke-linejoin="round"/>
<path d="M15.3312 30.9893C15.0414 31.0447 14.8052 31.2543 14.7159 31.5355C14.6267 31.8168 14.6987 32.1243 14.9036 32.3366L18.5799 36.147L17.6051 40.8083C17.5422 41.1091 17.6564 41.4194 17.8993 41.6078C18.1421 41.7961 18.4711 41.8294 18.7468 41.6936L23.4323 39.3857L28.0645 41.7988C28.337 41.9408 28.6667 41.9149 28.9137 41.732C29.1607 41.5492 29.2819 41.2416 29.2258 40.9394L28.3564 36.2573L32.1178 32.5308C32.3274 32.3232 32.4064 32.0174 32.3235 31.7342C32.2406 31.4511 32.0092 31.2361 31.7208 31.1743L27.0594 30.1747L24.282 25.361C24.1401 25.115 23.879 24.9622 23.5951 24.959C23.3111 24.9558 23.0466 25.1027 22.8992 25.3454L21.3639 27.8728L20.0139 30.0952L15.3312 30.9893Z" fill="#67DBFF" stroke="#2481B6" stroke-width="1.60714" stroke-linecap="round" stroke-linejoin="round"/>
<path d="M18.6877 32.5377L21.9109 31.7705L23.5496 28.9763" stroke="#E5FDFF" stroke-width="1.60714" stroke-linecap="round" stroke-linejoin="round"/>
<circle cx="9.30031" cy="9.52353" r="1.60714" transform="rotate(0.646513 9.30031 9.52353)" fill="#81D1FF" stroke="#4BB3EE" stroke-width="1.60714" stroke-linejoin="round"/>
<circle cx="8.76516" cy="56.9376" r="1.60714" transform="rotate(0.646513 8.76516 56.9376)" fill="#53C1FF" stroke="#2387BF" stroke-width="1.60714" stroke-linejoin="round"/>
<circle cx="38.228" cy="9.85165" r="1.60714" transform="rotate(0.646513 38.228 9.85165)" fill="#81D1FF" stroke="#4BB3EE" stroke-width="1.60714" stroke-linejoin="round"/>
<circle cx="37.6948" cy="57.2618" r="1.60714" transform="rotate(0.646513 37.6948 57.2618)" fill="#53C1FF" stroke="#2387BF" stroke-width="1.60714" stroke-linejoin="round"/>
</svg>
