<svg width="71" height="71" viewBox="0 0 71 71" fill="none" xmlns="http://www.w3.org/2000/svg">
<rect x="0.519282" y="-0.899422" width="33.7813" height="51.4062" rx="3.67188" transform="matrix(-0.965926 0.258819 0.258819 0.965926 41.2732 6.44433)" fill="#53C1FF" stroke="#043E5F" stroke-width="1.46875" stroke-linecap="round" stroke-linejoin="round"/>
<path fill-rule="evenodd" clip-rule="evenodd" d="M52.2031 53.4317C51.9658 54.4549 51.1861 55.3171 50.1007 55.6079L24.564 62.4504C22.997 62.8703 21.3862 61.9403 20.9664 60.3733L9.56214 17.8122C9.14225 16.2451 10.0722 14.6344 11.6393 14.2145L11.74 14.1875C11.6347 14.6416 11.6362 15.1274 11.7653 15.609L23.1695 58.1702C23.5894 59.7372 25.2001 60.6672 26.7672 60.2473L52.2031 53.4317Z" fill="#9BDBFF"/>
<rect x="29.1423" y="8.73678" width="33.7813" height="51.4062" rx="3.67188" transform="rotate(7.30662 29.1423 8.73678)" fill="#A6FF35" stroke="#345E00" stroke-width="1.46875" stroke-linecap="round" stroke-linejoin="round"/>
<path fill-rule="evenodd" clip-rule="evenodd" d="M23.8398 57.2081C24.1081 58.3721 25.0755 59.3015 26.3296 59.4623L52.5524 62.8246C54.1616 63.0309 55.6333 61.8937 55.8396 60.2846L61.4435 16.5799C61.6373 15.0681 60.6452 13.6775 59.19 13.3438C59.266 13.6733 59.2859 14.0217 59.2403 14.3768L53.6365 58.0814C53.4302 59.6906 51.9584 60.8278 50.3493 60.6215L24.1265 57.2592C24.0291 57.2467 23.9335 57.2296 23.8398 57.2081Z" fill="#6EC500"/>
<rect x="19.8672" y="13.6094" width="33.7813" height="51.4062" rx="3.67188" fill="#FFBA35" stroke="#501D01" stroke-width="1.46875" stroke-linecap="round" stroke-linejoin="round"/>
<path fill-rule="evenodd" clip-rule="evenodd" d="M20.8672 62.5647C21.33 63.5792 22.3532 64.2843 23.5411 64.2843H49.9786C51.6009 64.2843 52.9161 62.9691 52.9161 61.3468V17.2843C52.9161 16.0854 52.1978 15.0542 51.1681 14.5977C51.3374 14.9687 51.4317 15.3811 51.4317 15.8156V61.3468C51.4317 62.158 50.7741 62.8156 49.963 62.8156H22.0567C21.6333 62.8156 21.2308 62.726 20.8672 62.5647Z" fill="#CB8C12"/>
<path d="M49.9766 14.3438H23.5391C21.9167 14.3438 20.6016 15.6589 20.6016 17.2812V55.4687L52.9141 27.5625V17.2812C52.9141 15.6589 51.5989 14.3438 49.9766 14.3438Z" fill="#FFCD6B"/>
<path d="M20.6016 37.1121L38.9609 20.5625L20.6016 33.4402V37.1121Z" fill="#FFBA35"/>
<path d="M48.5039 15.8164H23.5352C22.724 15.8164 22.0664 16.474 22.0664 17.2852V59.8789" stroke="#FFE6B5" stroke-width="1.46875" stroke-linecap="round" stroke-linejoin="round"/>
<path d="M22.0664 20.9531V28.2969" stroke="#FFFDFA" stroke-width="1.46875" stroke-linecap="round" stroke-linejoin="round"/>
<path d="M29.2682 37.174C29.0039 37.2276 28.7903 37.4216 28.7116 37.6795C28.633 37.9374 28.702 38.2177 28.8914 38.4096L32.2902 41.8537L31.4475 46.1234C31.3931 46.399 31.5006 46.6814 31.7245 46.851C31.9484 47.0206 32.2493 47.0477 32.4999 46.9207L36.7578 44.7634L41.0157 46.9207C41.2663 47.0477 41.5673 47.0206 41.7911 46.851C42.015 46.6814 42.1225 46.399 42.0681 46.1234L41.2254 41.8537L44.6243 38.4096C44.8137 38.2177 44.8826 37.9374 44.804 37.6795C44.7253 37.4216 44.5117 37.2276 44.2474 37.174L39.9774 36.3086L37.3897 31.9383C37.2575 31.7151 37.0173 31.5781 36.7578 31.5781C36.4983 31.5781 36.2581 31.7151 36.1259 31.9383L34.7489 34.2639L33.5382 36.3086L29.2682 37.174Z" fill="#FFCC45" stroke="#C37808" stroke-width="1.46875" stroke-linecap="round" stroke-linejoin="round"/>
<path d="M32.3516 38.5547L35.2891 37.8203L36.7578 35.25" stroke="#FFF8E5" stroke-width="1.46875" stroke-linecap="round" stroke-linejoin="round"/>
<circle cx="23.5234" cy="17.625" r="1.46875" fill="#FFE6B5" stroke="#F0AA23" stroke-width="1.46875" stroke-linejoin="round"/>
<circle cx="23.5234" cy="60.9531" r="1.46875" fill="#FFBA35" stroke="#CB8C12" stroke-width="1.46875" stroke-linejoin="round"/>
<circle cx="49.9609" cy="17.625" r="1.46875" fill="#FFE6B5" stroke="#F0AA23" stroke-width="1.46875" stroke-linejoin="round"/>
<circle cx="49.9609" cy="60.9531" r="1.46875" fill="#FFBA35" stroke="#CB8C12" stroke-width="1.46875" stroke-linejoin="round"/>
</svg>
