<svg width="40" height="40" viewBox="0 0 40 40" fill="none" xmlns="http://www.w3.org/2000/svg">
<path d="M10.625 3.125C9.24429 3.125 8.125 4.24429 8.125 5.625V16.25H5.625C4.24429 16.25 3.125 17.3693 3.125 18.75V34.375C3.125 35.7557 4.24429 36.875 5.625 36.875H35C36.3807 36.875 37.5 35.7557 37.5 34.375V18.75C37.5 17.3693 36.3807 16.25 35 16.25H33.125V5.625C33.125 4.24429 32.0057 3.125 30.625 3.125H10.625Z" fill="#372A4D"/>
<path d="M2.21213 5.40232C2.43264 4.86589 3.19236 4.86589 3.41287 5.40232L3.65504 5.9914C3.72095 6.15174 3.84826 6.27905 4.00861 6.34496L4.59768 6.58713C5.13411 6.80764 5.13411 7.56736 4.59768 7.78787L4.00861 8.03004C3.84826 8.09595 3.72095 8.22326 3.65504 8.38361L3.41287 8.97268C3.19236 9.50911 2.43264 9.50911 2.21213 8.97268L1.96996 8.38361C1.90405 8.22326 1.77674 8.09595 1.6164 8.03004L1.02732 7.78787C0.490894 7.56736 0.490894 6.80764 1.02732 6.58713L1.6164 6.34496C1.77674 6.27905 1.90405 6.15174 1.96996 5.99139L2.21213 5.40232Z" fill="#372A4D"/>
<path d="M35.9527 2.28363C36.1767 1.73879 36.9483 1.73879 37.1723 2.28363L37.2262 2.41471C37.2931 2.57757 37.4224 2.70687 37.5853 2.77382L37.7164 2.82771C38.2612 3.05169 38.2612 3.82331 37.7164 4.04729L37.5853 4.10118C37.4224 4.16813 37.2931 4.29744 37.2262 4.46029L37.1723 4.59137C36.9483 5.13621 36.1767 5.13621 35.9527 4.59137L35.8988 4.46029C35.8319 4.29744 35.7026 4.16813 35.5397 4.10118L35.4086 4.04729C34.8638 3.82331 34.8638 3.05169 35.4086 2.82771L35.5397 2.77382C35.7026 2.70687 35.8319 2.57757 35.8988 2.41471L35.9527 2.28363Z" fill="#372A4D"/>
<path d="M8.47332 17.9977L21.1784 26.5254C24.272 28.6019 27.4311 30.5903 30.5884 32.5776C32.1704 33.5734 33.7521 34.5689 35.3248 35.5751C35.2212 35.6029 35.1123 35.6177 35 35.6177H8.75C8.05964 35.6177 7.5 35.0581 7.5 34.3677V18.5167C7.5 18.0166 8.0581 17.719 8.47332 17.9977Z" fill="#FFD059"/>
<path d="M36.25 34.3677C36.25 34.4687 36.238 34.5669 36.2154 34.661L23.088 26.2627L35.3346 19.8381C35.7508 19.6197 36.25 19.9216 36.25 20.3915V34.3677Z" fill="#FFD059"/>
<path fill-rule="evenodd" clip-rule="evenodd" d="M11.25 5.625C11.25 4.93464 11.8096 4.375 12.5 4.375H30.625C31.3154 4.375 31.875 4.93464 31.875 5.625V20.2415L21.875 25.4876L11.25 18.356V5.625ZM16.25 8.59375C15.8185 8.59375 15.4688 8.94353 15.4688 9.375C15.4688 9.80647 15.8185 10.1562 16.25 10.1562H21.25C21.6815 10.1562 22.0312 9.80647 22.0312 9.375C22.0312 8.94353 21.6815 8.59375 21.25 8.59375H16.25ZM15.4688 13.125C15.4688 12.6935 15.8185 12.3438 16.25 12.3438H27.5C27.9315 12.3438 28.2812 12.6935 28.2812 13.125C28.2812 13.5565 27.9315 13.9062 27.5 13.9062H16.25C15.8185 13.9062 15.4688 13.5565 15.4688 13.125ZM16.25 16.0938C15.8185 16.0938 15.4688 16.4435 15.4688 16.875C15.4688 17.3065 15.8185 17.6562 16.25 17.6562H27.5C27.9315 17.6562 28.2812 17.3065 28.2812 16.875C28.2812 16.4435 27.9315 16.0938 27.5 16.0938H16.25Z" fill="#FFDE89"/>
</svg>
