<svg width="58" height="72" viewBox="0 0 58 72" fill="none" xmlns="http://www.w3.org/2000/svg">
<g clip-path="url(#clip0_5647_74276)">
<rect x="4.87211" y="14.8102" width="35.65" height="54.25" rx="3.875" transform="rotate(-14.6951 4.87211 14.8102)" fill="#A6FF35" stroke="#345E00" stroke-width="1.55" stroke-linecap="round" stroke-linejoin="round"/>
<path fill-rule="evenodd" clip-rule="evenodd" d="M18.9995 64.5048C19.743 65.4206 20.979 65.8691 22.1943 65.5504L49.1816 58.4728C50.8377 58.0385 51.8282 56.3439 51.3938 54.6879L39.5979 9.7089C39.2787 8.49177 38.2788 7.63419 37.1137 7.4375C37.3834 7.76967 37.5883 8.16333 37.7039 8.60414L49.893 55.0824C50.1102 55.9104 49.615 56.7577 48.7869 56.9749L20.3003 64.4456C19.8613 64.5608 19.4197 64.5758 18.9995 64.5048Z" fill="#6EC500"/>
<path d="M35.8043 7.49934L8.81696 14.5769C7.16088 15.0112 6.17044 16.7058 6.60475 18.3619L16.8279 57.3436L42.3417 20.2066L39.5893 9.71154C39.155 8.05546 37.4604 7.06502 35.8043 7.49934Z" fill="#DBFF8F"/>
<circle cx="48.2822" cy="55.0726" r="1.55" transform="rotate(-14.6951 48.2822 55.0726)" fill="#A6FF35" stroke="#6EC500" stroke-width="1.55" stroke-linejoin="round"/>
<path d="M11.9149 38.6009L26.2256 16.7921L10.9319 34.8526L11.9149 38.6009Z" fill="#A6FF35"/>
<path d="M34.7003 9.3912L9.21219 16.0756C8.38415 16.2927 7.88893 17.14 8.10609 17.968L19.5088 61.4477" stroke="#F2FFCD" stroke-width="1.55" stroke-linecap="round" stroke-linejoin="round"/>
<path d="M9.08984 21.7148L11.0558 29.2113" stroke="#FFFDFA" stroke-width="1.55" stroke-linecap="round" stroke-linejoin="round"/>
<path d="M20.7795 36.3454C20.5241 36.4708 20.358 36.7261 20.3467 37.0104C20.3355 37.2948 20.4809 37.5624 20.7256 37.7076L25.1172 40.3135L25.4 44.8976C25.4182 45.1934 25.6036 45.4529 25.8775 45.5661C26.1514 45.6793 26.4659 45.6263 26.6877 45.4297L30.4566 42.0876L35.3807 43.1499C35.6704 43.2124 35.9704 43.1042 36.1535 42.8712C36.3366 42.6381 36.3708 42.321 36.2415 42.0543L34.2383 37.9214L36.7858 33.4957C36.9277 33.2491 36.9231 32.9446 36.7738 32.7024C36.6244 32.4602 36.3544 32.3193 36.0703 32.3353L31.4798 32.5951L27.6683 28.8267C27.4736 28.6341 27.1917 28.5586 26.9268 28.6281C26.662 28.6976 26.4534 28.9017 26.3782 29.165L25.5952 31.9075L24.9067 34.3189L20.7795 36.3454Z" fill="#CAFF58" stroke="#64B300" stroke-width="1.55" stroke-linecap="round" stroke-linejoin="round"/>
<path d="M24.2948 36.9281L27.0968 35.3921L27.9081 32.3751" stroke="white" stroke-width="1.55" stroke-linecap="round" stroke-linejoin="round"/>
<circle cx="9.69625" cy="17.9202" r="1.55" transform="rotate(-14.6951 9.69625 17.9202)" fill="#DBFF8F" stroke="#8BE31B" stroke-width="1.55" stroke-linejoin="round"/>
<circle cx="21.2978" cy="62.1507" r="1.55" transform="rotate(-14.6951 21.2978 62.1507)" fill="#A6FF35" stroke="#6EC500" stroke-width="1.55" stroke-linejoin="round"/>
<circle cx="36.6845" cy="10.8421" r="1.55" transform="rotate(-14.6951 36.6845 10.8421)" fill="#DBFF8F" stroke="#8BE31B" stroke-width="1.55" stroke-linejoin="round"/>
</g>
<defs>
<clipPath id="clip0_5647_74276">
<rect width="43.4" height="62" fill="white" transform="translate(0 11.6523) rotate(-14.6951)"/>
</clipPath>
</defs>
</svg>
