<svg width="63" height="63" viewBox="0 0 63 63" fill="none" xmlns="http://www.w3.org/2000/svg">
<path d="M18.3526 18.7788C18.2504 15.5799 17.6238 12.5637 17.1179 10.8771C16.956 10.3377 17.1564 9.75506 17.6159 9.42929C18.0754 9.10353 18.6915 9.10725 19.147 9.43853C19.2352 9.50266 19.4414 9.61881 19.8722 9.85471L19.9275 9.88494C21.4675 10.7278 24.6285 12.4577 26.5712 15.6556C28.5027 15.2867 30.5841 15.0938 32.8125 15.0938C40.4765 15.0938 46.405 17.3806 50.4263 21.2237C54.448 25.0672 56.4375 30.3498 56.4375 36.0938C56.4375 41.5501 54.1004 46.4928 50.316 50.2014L52.1832 51.9798C53.4954 53.2296 53.5459 55.3066 52.2961 56.6188C52.0974 56.8274 51.8779 57.004 51.6439 57.1487C51.3511 58.0331 50.7452 58.8176 49.875 59.32C47.9917 60.4073 45.5836 59.762 44.4963 57.8788L42.8888 55.0945C39.8281 56.3784 36.4112 57.0938 32.8125 57.0938C30.4601 57.0938 28.2712 56.8787 26.2499 56.4686C26.2332 58.2665 24.7706 59.7188 22.9688 59.7188C22.588 59.7188 22.2224 59.6539 21.8824 59.5347C20.7839 60 19.4878 59.9625 18.375 59.32C16.4917 58.2327 15.8465 55.8245 16.9338 53.9412L17.5474 52.8784C13.8574 50.3189 11.3774 46.7585 10.1309 42.6563H9.1875C7.01288 42.6563 5.25 40.8934 5.25 38.7188V33.4688C5.25 31.2941 7.01288 29.5313 9.1875 29.5313H10.1309C11.4665 25.1359 14.2175 21.3644 18.3526 18.7788Z" fill="#021024" fill-opacity="0.1"/>
<path d="M40.5975 48.1313C39.8101 47.3814 39.7798 46.1352 40.5297 45.3479C41.2796 44.5605 42.5258 44.5302 43.3131 45.2801L49.9658 51.6166C50.7531 52.3665 50.7835 53.6127 50.0336 54.4C49.2837 55.1874 48.0375 55.2177 47.2502 54.4678L40.5975 48.1313Z" fill="#38B550"/>
<path fill-rule="evenodd" clip-rule="evenodd" d="M44.2185 44.3314L50.8712 50.6679C52.1834 51.9178 52.2339 53.9948 50.9841 55.307C49.7343 56.6192 47.6573 56.6697 46.3451 55.4199L39.6924 49.0834C38.3802 47.8335 38.3296 45.7566 39.5795 44.4443C40.8293 43.1321 42.9063 43.0816 44.2185 44.3314ZM40.5298 45.3496C39.7799 46.1369 39.8103 47.3831 40.5976 48.133L47.2503 54.4695C48.0376 55.2194 49.2838 55.1891 50.0337 54.4017C50.7836 53.6144 50.7533 52.3682 49.966 51.6183L43.3132 45.2818C42.5259 44.5319 41.2797 44.5622 40.5298 45.3496Z" fill="#218523"/>
<path d="M19.6875 45.9375C19.6875 44.8502 20.5689 43.9688 21.6562 43.9688C22.7436 43.9688 23.625 44.8502 23.625 45.9375V55.125C23.625 56.2123 22.7436 57.0938 21.6562 57.0938C20.5689 57.0938 19.6875 56.2123 19.6875 55.125V45.9375Z" fill="#38B550"/>
<path fill-rule="evenodd" clip-rule="evenodd" d="M24.9375 45.9375V55.125C24.9375 56.9372 23.4684 58.4062 21.6562 58.4062C19.8441 58.4062 18.375 56.9372 18.375 55.125V45.9375C18.375 44.1253 19.8441 42.6562 21.6562 42.6562C23.4684 42.6562 24.9375 44.1253 24.9375 45.9375ZM21.6562 43.9688C20.5689 43.9688 19.6875 44.8502 19.6875 45.9375V55.125C19.6875 56.2123 20.5689 57.0938 21.6562 57.0938C22.7436 57.0938 23.625 56.2123 23.625 55.125V45.9375C23.625 44.8502 22.7436 43.9688 21.6562 43.9688Z" fill="#218523"/>
<path fill-rule="evenodd" clip-rule="evenodd" d="M24.5761 15.8266C22.9076 12.4189 19.6081 10.6125 17.9294 9.69346C17.5393 9.47985 17.2367 9.31419 17.0625 9.1875C17.6375 11.1042 18.3469 14.5884 18.3665 18.2013C13.8594 20.7877 11.0017 24.8027 9.81643 29.5313H7.875C6.42525 29.5313 5.25 30.7065 5.25 32.1563V37.4063C5.25 38.856 6.42525 40.0313 7.875 40.0313H9.81643C10.9688 44.6285 13.702 48.5513 17.9949 51.1425L16.7579 53.285C16.0331 54.5405 16.4632 56.1459 17.7188 56.8708C18.9743 57.5957 20.5797 57.1655 21.3046 55.91L22.8277 53.2718C25.3673 54.0461 28.2589 54.4688 31.5 54.4688C35.3448 54.4688 38.9625 53.6107 42.1206 52.0997L44.3204 55.91C45.0453 57.1655 46.6507 57.5957 47.9062 56.8708C49.1618 56.146 49.5919 54.5405 48.8671 53.285L46.5674 49.302C51.0204 45.7027 53.8125 40.5297 53.8125 34.7813C53.8125 23.9082 46.302 15.0938 31.5 15.0938C28.9804 15.0938 26.6721 15.3492 24.5761 15.8266Z" fill="#55CF6C"/>
<path fill-rule="evenodd" clip-rule="evenodd" d="M18.6681 10.1035C20.4474 11.1151 23.1269 12.8669 24.5761 15.8266C26.6721 15.3492 28.9804 15.0938 31.5 15.0938C46.302 15.0938 53.8125 23.9082 53.8125 34.7813C53.8125 40.5297 51.0204 45.7027 46.5674 49.302L48.8671 53.285C49.5919 54.5405 49.1618 56.146 47.9062 56.8708C46.6507 57.5957 45.0453 57.1655 44.3204 55.91L42.1206 52.0997C38.9625 53.6107 35.3448 54.4688 31.5 54.4688C28.2589 54.4688 25.3673 54.0461 22.8277 53.2718L21.3046 55.91C20.5797 57.1655 18.9743 57.5957 17.7188 56.8708C16.4632 56.1459 16.0331 54.5405 16.7579 53.285L17.9949 51.1425C13.702 48.5513 10.9688 44.6285 9.81643 40.0313H7.875C6.42525 40.0313 5.25 38.856 5.25 37.4063V32.1563C5.25 30.7065 6.42525 29.5313 7.875 29.5313H9.81643C11.0017 24.8027 13.8594 20.7877 18.3665 18.2013C18.352 15.5241 17.9587 12.9175 17.522 10.967C17.4935 10.84 17.4649 10.7157 17.4362 10.5944C17.3108 10.0648 17.1837 9.59137 17.0625 9.1875C17.2367 9.31419 17.5393 9.47985 17.9294 9.69346C18.1501 9.81427 18.3988 9.95042 18.6681 10.1035ZM17.0401 17.4663C16.9379 14.2674 16.3113 11.2512 15.8054 9.56464C15.6435 9.02516 15.8439 8.44256 16.3034 8.11679C16.7629 7.79103 17.379 7.79475 17.8345 8.12603C17.9227 8.19016 18.1289 8.30631 18.5597 8.54221C18.5779 8.55215 18.5963 8.56223 18.615 8.57244C20.155 9.41525 23.316 11.1452 25.2587 14.3431C27.1902 13.9742 29.2716 13.7813 31.5 13.7813C39.164 13.7813 45.0925 16.0681 49.1138 19.9112C53.1355 23.7547 55.125 29.0373 55.125 34.7813C55.125 40.5906 52.4757 45.8178 48.251 49.593L50.0037 52.6288C51.091 54.512 50.4458 56.9202 48.5625 58.0075C46.6792 59.0948 44.2711 58.4495 43.1838 56.5663L41.5763 53.782C38.5156 55.0659 35.0987 55.7813 31.5 55.7813C28.5599 55.7813 25.8752 55.4453 23.4537 54.8126L22.4412 56.5662C21.3539 58.4495 18.9458 59.0948 17.0625 58.0075C15.1792 56.9202 14.534 54.512 15.6213 52.6287L16.2349 51.5659C12.5449 49.0064 10.0649 45.446 8.81845 41.3438H7.875C5.70038 41.3438 3.9375 39.5809 3.9375 37.4063V32.1563C3.9375 29.9816 5.70038 28.2188 7.875 28.2188H8.81845C10.154 23.8234 12.905 20.0519 17.0401 17.4663Z" fill="#218523"/>
<path fill-rule="evenodd" clip-rule="evenodd" d="M21.7472 12.2344C22.3215 12.9003 22.8444 13.6561 23.2641 14.5132C23.42 14.4777 23.5771 14.4434 23.7354 14.4104C23.141 13.5687 22.453 12.8489 21.7472 12.2344ZM47.8177 20.4978C50.9326 23.9618 52.5004 28.5 52.5004 33.4679C52.5004 39.2163 49.7083 44.3893 45.2554 47.9886L47.555 51.9716C48.2799 53.2272 47.8497 54.8326 46.5942 55.5575C45.827 56.0004 44.9292 56.0121 44.1815 55.6677L44.3209 55.9091C45.0457 57.1647 46.6512 57.5948 47.9067 56.87C49.1622 56.1451 49.5924 54.5397 48.8675 53.2841L46.5679 49.3011C51.0208 45.7018 53.8129 40.5288 53.8129 34.7804C53.8129 29.1575 51.8044 24.0853 47.8177 20.4978ZM41.6838 52.3025L40.8085 50.7864C37.6505 52.2973 34.0328 53.1554 30.1879 53.1554C26.9468 53.1554 24.0553 52.7328 21.5156 51.9585L19.9925 54.5966C19.3116 55.7759 17.8539 56.227 16.639 55.6768C16.8572 56.1612 17.224 56.584 17.7192 56.8699C18.9747 57.5948 20.5801 57.1646 21.305 55.9091L22.8281 53.271C25.3678 54.0453 28.2593 54.4679 31.5004 54.4679C35.169 54.4679 38.6308 53.6867 41.6838 52.3025ZM16.5025 50.1415L16.6828 49.8291C15.6561 49.2094 14.7187 48.5135 13.8707 47.7505C14.651 48.6183 15.5284 49.4186 16.5025 50.1415ZM8.88245 40.0304C8.74169 39.5996 8.61566 39.1619 8.50437 38.7179H6.56293C6.17776 38.7179 5.81195 38.6349 5.48242 38.4859C5.89431 39.3967 6.81086 40.0304 7.87543 40.0304H8.88245Z" fill="#38B550"/>
<path fill-rule="evenodd" clip-rule="evenodd" d="M32.3375 18.9437C30.6193 18.8066 28.8471 18.9365 26.4665 19.3255C25.7511 19.4424 25.0764 18.9573 24.9595 18.2419C24.8426 17.5265 25.3278 16.8518 26.0432 16.7349C28.5339 16.3278 30.5365 16.1666 32.5463 16.327C34.5561 16.4874 36.5078 16.9642 38.9025 17.7612C39.5902 17.9901 39.9622 18.7332 39.7333 19.421C39.5044 20.1088 38.7613 20.4808 38.0735 20.2519C35.7848 19.4902 34.0556 19.0808 32.3375 18.9437Z" fill="#38B550"/>
<path fill-rule="evenodd" clip-rule="evenodd" d="M28.1866 43.302C36.2332 43.0317 42.6563 37.5574 42.6563 30.8437C42.6563 23.9574 37.5756 18.375 27.5625 18.375C17.5494 18.375 12.4688 23.9574 12.4688 30.8437C12.4688 35.145 14.4509 38.9376 18.3792 41.1789C19.1828 39.701 20.7173 38.7187 22.9688 38.7187C26.1803 38.7187 27.933 40.7173 28.1866 43.302Z" fill="#71EB88"/>
<path d="M40.6875 31.5C40.6875 35.8492 37.1617 39.375 32.8125 39.375C27.5883 39.375 24.9375 35.8492 24.9375 31.5C24.9375 27.1508 27.5883 23.625 32.8125 23.625C38.0367 23.625 40.6875 27.1508 40.6875 31.5Z" fill="#B1FFC0"/>
<path d="M23.625 24.6094C23.625 26.2403 22.009 27.5625 20.0156 27.5625C17.6212 27.5625 16.4062 26.2403 16.4062 24.6094C16.4062 22.9784 17.6212 21.6562 20.0156 21.6562C22.4101 21.6562 23.625 22.9784 23.625 24.6094Z" fill="#B1FFC0"/>
<path fill-rule="evenodd" clip-rule="evenodd" d="M19.6536 20.1353C19.7688 20.479 19.5837 20.8509 19.24 20.9661C17.8979 21.4161 14.5488 23.6777 13.1026 29.0459C13.0083 29.3959 12.6482 29.6031 12.2982 29.5088C11.9482 29.4146 11.741 29.0544 11.8353 28.7045C13.389 22.9371 17.0399 20.3195 18.8228 19.7217C19.1664 19.6065 19.5384 19.7917 19.6536 20.1353Z" fill="#71FA8B"/>
<path fill-rule="evenodd" clip-rule="evenodd" d="M56.3839 22.1147C57.5273 22.7612 58.5129 24.0142 58.9349 26.1469C59.3681 28.3359 59.0532 30.0561 58.318 31.2757C58.815 33.0167 58.4753 34.4891 57.7566 35.5867C57.0048 36.7349 55.8444 37.4621 54.8573 37.6574C54.5018 37.7278 54.1565 37.4966 54.0861 37.141C54.0158 36.7855 54.247 36.4402 54.6025 36.3699C55.2249 36.2467 56.0894 35.737 56.6586 34.8677C57.0534 34.2648 57.3103 33.4819 57.224 32.5213C56.9838 32.7096 56.728 32.8697 56.4607 33.0012C54.6812 33.8766 52.3266 33.4052 51.6129 31.3698C51.333 30.5715 51.5562 29.7925 52.0062 29.2055C52.4505 28.626 53.1345 28.1986 53.8911 28.0234C54.6564 27.8461 55.5227 27.9211 56.3153 28.3863C56.8037 28.6729 57.2413 29.094 57.6045 29.6571C57.8544 28.822 57.9139 27.7486 57.6474 26.4017C57.2857 24.5741 56.4907 23.6828 55.7379 23.2572C54.9586 22.8166 54.1322 22.8218 53.6508 22.9486C53.3003 23.0408 52.9414 22.8315 52.8491 22.481C52.7568 22.1305 52.9662 21.7716 53.3166 21.6793C54.0815 21.4779 55.2669 21.4831 56.3839 22.1147ZM56.857 31.0599C56.5218 30.2395 56.0798 29.7698 55.651 29.5182C55.1782 29.2408 54.6612 29.1922 54.1872 29.302C53.7045 29.4138 53.2931 29.6841 53.0478 30.0041C52.8082 30.3166 52.7475 30.639 52.8515 30.9355C53.2235 31.9964 54.5679 32.4696 55.8813 31.8235C56.2227 31.6555 56.5609 31.4044 56.857 31.0599Z" fill="#218523"/>
<path fill-rule="evenodd" clip-rule="evenodd" d="M16.6781 25.7182C16.9718 25.5059 17.3821 25.5719 17.5944 25.8656C17.8798 26.2605 18.4382 26.7334 19.1478 26.8681C19.8139 26.9946 20.7405 26.847 21.8586 25.7761C22.1204 25.5254 22.5358 25.5344 22.7865 25.7961C23.0372 26.0579 23.0282 26.4733 22.7665 26.724C21.4028 28.0301 20.0623 28.3777 18.9029 28.1576C17.7869 27.9457 16.9612 27.2301 16.5307 26.6345C16.3184 26.3407 16.3844 25.9305 16.6781 25.7182Z" fill="#218523"/>
<path fill-rule="evenodd" clip-rule="evenodd" d="M19.2235 11.3485C19.4797 11.0922 19.8953 11.0922 20.1515 11.3485L20.156 11.353C20.6464 11.8433 21.3144 12.5114 21.9433 13.224C22.5667 13.9306 23.188 14.721 23.5557 15.4565C23.7178 15.7807 23.5864 16.1749 23.2622 16.337C22.9381 16.4991 22.5439 16.3677 22.3818 16.0435C22.0933 15.4665 21.5661 14.7804 20.9591 14.0924C20.3594 13.4127 19.7171 12.7702 19.2235 12.2765C18.9672 12.0203 18.9672 11.6047 19.2235 11.3485Z" fill="#71FA8B"/>
<path fill-rule="evenodd" clip-rule="evenodd" d="M23.3748 40.8282C23.6595 41.0524 23.7086 41.465 23.4843 41.7498C22.3788 43.1537 21.2409 43.8917 20.1101 44.264C19.0131 44.6251 17.9643 44.6251 17.094 44.625C17.0835 44.625 17.073 44.625 17.0625 44.625C16.7001 44.625 16.4062 44.3312 16.4062 43.9688C16.4062 43.6063 16.7001 43.3125 17.0625 43.3125C17.958 43.3125 18.8166 43.308 19.6997 43.0173C20.5622 42.7333 21.4915 42.1589 22.4532 40.9378C22.6774 40.653 23.09 40.604 23.3748 40.8282Z" fill="#218523"/>
<path fill-rule="evenodd" clip-rule="evenodd" d="M30.4861 27.1584C31.1951 26.7153 32.0589 26.5781 32.8125 26.5781C33.5483 26.5781 34.1743 26.6697 34.7367 26.8946C35.307 27.1228 35.7435 27.4608 36.1336 27.8508C36.518 28.2352 36.518 28.8585 36.1336 29.2429C35.7491 29.6274 35.1259 29.6274 34.7415 29.2429C34.4752 28.9767 34.2555 28.8226 34.0055 28.7226C33.7476 28.6194 33.3892 28.5469 32.8125 28.5469C32.2536 28.5469 31.805 28.6558 31.5295 28.8279C31.314 28.9626 31.1719 29.1453 31.1719 29.5313C31.1719 29.9172 31.314 30.0999 31.5295 30.2346C31.805 30.4067 32.2536 30.5156 32.8125 30.5156C33.5661 30.5156 34.43 30.6528 35.1389 31.0959C35.9078 31.5765 36.4219 32.3781 36.4219 33.4688C36.4219 34.5594 35.9078 35.361 35.1389 35.8416C34.43 36.2847 33.5661 36.4219 32.8125 36.4219C31.2526 36.4219 30.0974 35.8334 29.4518 35.1071C29.0906 34.7008 29.1272 34.0786 29.5335 33.7174C29.9399 33.3562 30.5621 33.3928 30.9232 33.7991C31.1526 34.0572 31.7475 34.4531 32.8125 34.4531C33.3714 34.4531 33.8201 34.3442 34.0955 34.1721C34.311 34.0374 34.4531 33.8547 34.4531 33.4688C34.4531 33.0828 34.311 32.9001 34.0955 32.7654C33.8201 32.5933 33.3714 32.4844 32.8125 32.4844C32.0589 32.4844 31.1951 32.3472 30.4861 31.9041C29.7172 31.4235 29.2031 30.6219 29.2031 29.5313C29.2031 28.4406 29.7172 27.639 30.4861 27.1584Z" fill="#218523"/>
<path fill-rule="evenodd" clip-rule="evenodd" d="M32.8125 25.2656C33.3562 25.2656 33.7969 25.7063 33.7969 26.25V27.5625C33.7969 28.1062 33.3562 28.5469 32.8125 28.5469C32.2688 28.5469 31.8281 28.1062 31.8281 27.5625V26.25C31.8281 25.7063 32.2688 25.2656 32.8125 25.2656Z" fill="#218523"/>
<path fill-rule="evenodd" clip-rule="evenodd" d="M32.8125 34.4531C33.3562 34.4531 33.7969 34.8938 33.7969 35.4375V36.75C33.7969 37.2937 33.3562 37.7344 32.8125 37.7344C32.2688 37.7344 31.8281 37.2937 31.8281 36.75V35.4375C31.8281 34.8938 32.2688 34.4531 32.8125 34.4531Z" fill="#218523"/>
</svg>
