<svg width="40" height="40" viewBox="0 0 40 40" fill="none" xmlns="http://www.w3.org/2000/svg">
<path fill-rule="evenodd" clip-rule="evenodd" d="M22.5001 1.25H26.2501V1.2558C26.7737 1.25872 27.305 1.37268 27.8195 1.62074C28.9251 2.15374 29.5284 3.14396 29.7124 4.2133C29.8942 5.26985 29.6756 6.4252 29.136 7.40172L28.7311 8.13466C27.9347 9.57633 27.0696 11.1423 26.4594 12.2367C27.4257 12.2042 28.3266 12.4234 29.1081 12.8869C30.1429 13.5005 30.909 14.5071 31.3425 15.7887C32.5114 15.9415 33.5029 16.2028 34.2961 16.6969C35.2189 17.2718 35.8089 18.1199 36.1462 19.2908C36.4964 20.5062 36.1449 21.7349 35.5928 22.7118L29.9728 32.6548L29.5062 33.588C28.4989 35.6025 26.4401 36.8749 24.1879 36.8749L5.08374 36.8749C3.21413 36.8749 1.98742 34.9205 2.80024 33.2369L4.88675 28.9148C5.42073 27.8087 6.4837 27.1421 7.61551 27.0562C6.20195 25.232 5.39983 22.9634 5.39984 20.5805L5.39985 16.2514C5.39986 14.5059 6.81494 13.0908 8.56052 13.0908L12.947 13.0908L18.4611 3.56642C19.2768 2.15748 20.8675 1.1589 22.5001 1.26319V1.25Z" fill="#372A4D"/>
<path d="M9.71219 4.77731C9.9327 4.2409 10.6924 4.2409 10.9129 4.77731L11.1551 5.36639C11.221 5.52672 11.3483 5.65404 11.5087 5.71995L12.0977 5.96211C12.6342 6.18263 12.6342 6.94233 12.0977 7.16285L11.5087 7.40501C11.3483 7.47092 11.221 7.59824 11.1551 7.75857L10.9129 8.34765C10.6924 8.88406 9.9327 8.88406 9.71219 8.34765L9.47002 7.75857C9.40411 7.59823 9.2768 7.47092 9.11646 7.40501L8.52738 7.16285C7.99095 6.94233 7.99096 6.18263 8.52738 5.96211L9.11646 5.71995C9.2768 5.65404 9.40411 5.52672 9.47002 5.36639L9.71219 4.77731Z" fill="#372A4D"/>
<path d="M35.3423 2.27389C35.5609 1.74204 36.3142 1.74204 36.5328 2.27389L36.9604 3.31406C37.0258 3.47303 37.152 3.59926 37.311 3.66461L38.3512 4.09222C38.883 4.31086 38.883 5.0641 38.3512 5.28274L37.311 5.71035C37.152 5.7757 37.0258 5.90193 36.9604 6.0609L36.5328 7.10107C36.3142 7.63292 35.5609 7.63292 35.3423 7.10107L34.9147 6.0609C34.8493 5.90193 34.7231 5.7757 34.5641 5.71035L33.524 5.28274C32.9921 5.0641 32.9921 4.31086 33.524 4.09222L34.5641 3.66461C34.7231 3.59926 34.8493 3.47303 34.9147 3.31406L35.3423 2.27389Z" fill="#372A4D"/>
<path d="M35.3278 31.0336C35.5517 30.4888 36.3234 30.4888 36.5474 31.0336L36.6012 31.1647C36.6682 31.3276 36.7975 31.4569 36.9604 31.5238L37.0914 31.5777C37.6363 31.8017 37.6363 32.5733 37.0914 32.7973L36.9604 32.8511C36.7975 32.9181 36.6682 33.0474 36.6012 33.2103L36.5474 33.3413C36.3234 33.8862 35.5517 33.8862 35.3278 33.3413L35.2739 33.2103C35.2069 33.0474 35.0776 32.9181 34.9148 32.8511L34.7837 32.7973C34.2389 32.5733 34.2389 31.8017 34.7837 31.5777L34.9148 31.5238C35.0776 31.4569 35.2069 31.3276 35.2739 31.1647L35.3278 31.0336Z" fill="#372A4D"/>
<path d="M10.6856 16.2501C10.6856 15.2343 11.5091 14.4108 12.5249 14.4108H16.1324L15.0571 16.2242C14.871 16.5381 14.9746 16.9434 15.2884 17.1295C15.6023 17.3156 16.0076 17.212 16.1937 16.8982L17.8606 14.0871L23.569 4.22715C24.3635 2.85481 25.9872 2.20275 27.246 2.80965C27.9036 3.12665 28.2861 3.71302 28.4105 4.43606C28.5372 5.17189 28.3868 6.02471 27.9798 6.76136L27.5776 7.48949C26.4048 9.61243 25.0936 11.986 24.6587 12.7408L24.01 13.714C23.8076 14.0176 23.8896 14.4278 24.1932 14.6302C24.4968 14.8326 24.907 14.7506 25.1094 14.447L25.6275 13.6698C26.7364 13.4239 27.6886 13.5797 28.4345 14.0221C29.1767 14.4622 29.7779 15.2237 30.1217 16.3037L29.4312 17.4758C29.2459 17.7902 29.3506 18.1952 29.665 18.3804C29.9794 18.5656 30.3844 18.4609 30.5696 18.1466L31.1865 17.0996C32.2653 17.2421 33.0364 17.4674 33.5978 17.8171C34.197 18.1904 34.6135 18.7413 34.8769 19.6553C35.0928 20.4047 34.8968 21.257 34.4428 22.0602L27.939 33.5668C27.3971 34.5257 26.1772 34.8588 25.2231 34.3083L15.3128 28.5909C12.4496 26.939 10.6855 23.8847 10.6855 20.5792L10.6856 16.2501Z" fill="#ABFFFF"/>
<path d="M10.0404 29.488C10.542 28.449 11.8217 28.0563 12.8197 28.6352L23.6836 34.9362C23.9756 35.1056 23.8555 35.5523 23.5178 35.5523L8.1654 35.5523C7.67827 35.5523 7.35865 35.0431 7.57043 34.6044L10.0404 29.488Z" fill="#00E0E0"/>
</svg>
