<svg width="22" height="22" viewBox="0 0 22 22" fill="none" xmlns="http://www.w3.org/2000/svg">
<rect x="14.2852" y="3.83203" width="2.25695" height="6.85186" rx="1.12847" transform="rotate(-45 14.2852 3.83203)" fill="#3D3D3D" stroke="#3D3D3D" stroke-width="0.5"/>
<rect x="-0.353553" width="2.25695" height="6.85186" rx="1.12847" transform="matrix(-0.707107 -0.707107 -0.707107 0.707107 6.54488 4.50391)" fill="#3D3D3D" stroke="#3D3D3D" stroke-width="0.5"/>
<rect x="15.2051" y="2.91406" width="2.25695" height="6.85186" rx="1.12847" transform="rotate(-45 15.2051 2.91406)" fill="white" stroke="#3D3D3D" stroke-width="0.5"/>
<circle cx="10.5687" cy="12.763" r="8.02085" fill="#3D3D3D" stroke="#3D3D3D" stroke-width="0.5"/>
<rect x="-0.353553" width="2.25695" height="6.85186" rx="1.12847" transform="matrix(-0.707107 -0.707107 -0.707107 0.707107 7.46383 2.66406)" fill="white" stroke="#3D3D3D" stroke-width="0.5"/>
<circle cx="11.4876" cy="11.8412" r="8.02085" fill="#3D3D3D" stroke="#3D3D3D" stroke-width="0.5"/>
<path d="M16.8074 14.2102C17.1153 14.3472 17.2563 14.7096 17.0908 15.0031C16.7145 15.6703 16.2212 16.2665 15.6329 16.7622C15.0446 17.258 14.3734 17.6431 13.6521 17.9008C13.3347 18.0142 13.0015 17.8138 12.9187 17.4872C12.8358 17.1606 13.0353 16.832 13.35 16.7116C13.8934 16.5037 14.3995 16.2058 14.8465 15.8291C15.2936 15.4524 15.673 15.0041 15.9699 14.5038C16.1419 14.2141 16.4996 14.0732 16.8074 14.2102Z" fill="white"/>
<path d="M11.2388 6.34976C11.2496 6.22051 11.3576 6.12109 11.4873 6.12109C11.617 6.12109 11.7251 6.22051 11.7359 6.34976L12.0809 10.4899C12.1098 10.8372 11.8358 11.135 11.4873 11.135C11.1389 11.135 10.8649 10.8372 10.8938 10.4899L11.2388 6.34976Z" fill="white" stroke="white" stroke-width="0.5"/>
<path d="M9.00301 15.2083C8.9041 15.2964 8.75458 15.2951 8.65715 15.2055C8.55971 15.1158 8.54608 14.9669 8.6256 14.861L10.5711 12.271C10.7778 11.9958 11.1769 11.9593 11.4301 12.1923C11.6833 12.4253 11.68 12.8261 11.4229 13.0548L9.00301 15.2083Z" fill="white" stroke="white" stroke-width="0.5"/>
<circle cx="11.4859" cy="11.8433" r="1.12847" fill="#3D3D3D" stroke="white" stroke-width="0.5"/>
</svg>
