<svg width="1698" height="660" viewBox="0 0 1698 660" fill="none" xmlns="http://www.w3.org/2000/svg">
<g filter="url(#filter0_d_7273_76766)">
<path fill-rule="evenodd" clip-rule="evenodd" d="M878.748 29.8027L29.7579 29.8338L29.7732 626.491L730.12 626.584L730.119 632.584L29.7734 632.491L29.7734 632.533L23.7734 632.533L23.7578 27.1198H23.7617L23.7616 23.834L878.748 23.8027L878.748 29.8027ZM818.246 633.007L1671.45 632.951L1671.45 628.521H1671.45L1671.43 30.4082H1671.44V24.4082L967.748 24.4121V30.4121L1665.43 30.4082L1665.45 626.951L818.246 627.007L818.246 633.007Z" fill="white"/>
</g>
<g filter="url(#filter1_d_7273_76766)">
<path fill-rule="evenodd" clip-rule="evenodd" d="M0.00803886 6.0039L0.00755353 6.0039L0.00803888 5.65433L0.00803893 4.5144H0.00962156L0.015884 0.00390625L1106.52 1.54018V1.49601L1695.03 1.0625L1695.04 7.0625L1695.03 7.0625V650.547H1695.03L1695.03 656.547L768.971 656.962L768.931 657.089L768.519 656.962L561.173 657.055V656.998L0 656.961L0.000396075 650.961H0.00801069L0.00803886 6.0039ZM1689.03 650.55L770.825 650.961L823.888 479.224L826.83 469.7L819.12 476.018L787.172 502.196L817.315 417.683L811.664 415.667L777.891 510.356L774.262 520.531L782.618 513.684L815.212 486.976L764.544 650.964L562.922 651.054V650.998L6.00801 650.961L6.00804 6.01223L927.9 7.29219L881.605 125.625L878.079 134.637L886.084 129.2L921.337 105.255L874.03 239.71L879.69 241.701L930.022 98.6462L933.048 90.0464L925.507 95.1689L890.718 118.799L934.34 7.30113L1114.14 7.55078L1114.14 7.4904L1689.03 7.06692V650.55Z" fill="#272727"/>
</g>
<g filter="url(#filter2_d_7273_76766)">
<path fill-rule="evenodd" clip-rule="evenodd" d="M796.265 401.008C834.13 431.779 889.737 425.939 920.466 387.957C951.194 349.975 945.403 294.241 907.538 263.47L910.261 260.105C949.984 292.386 956.054 350.85 923.825 390.686C891.596 430.523 833.267 436.654 793.543 404.373L796.265 401.008Z" fill="white"/>
</g>
<g filter="url(#filter3_d_7273_76766)">
<path fill-rule="evenodd" clip-rule="evenodd" d="M900.774 258.131C862.846 227.435 807.251 233.386 776.599 271.431C745.948 309.476 751.852 365.2 789.78 395.895L787.064 399.266C747.275 367.064 741.087 308.61 773.235 268.708C805.383 228.806 863.7 222.558 903.489 254.76L900.774 258.131Z" fill="#272727"/>
</g>
<mask id="path-5-outside-1_7273_76766" maskUnits="userSpaceOnUse" x="797.465" y="298.938" width="98" height="61" fill="black">
<rect fill="white" x="797.465" y="298.938" width="98" height="61"/>
<path d="M817.04 355.938L801.218 303.824V303.42H812.664L825.457 346.242H827.072L839.73 303.42H850.638V303.824L834.815 355.938H817.04ZM872.66 356.947C868.575 356.947 865.119 356.409 862.291 355.332C859.508 354.209 857.241 352.751 855.491 350.955C853.785 349.16 852.506 347.207 851.653 345.097C850.845 342.943 850.374 340.833 850.239 338.768H860.742C860.832 340.384 861.326 341.933 862.224 343.414C863.121 344.895 864.468 346.107 866.264 347.05C868.059 347.993 870.303 348.464 872.996 348.464C875.914 348.464 878.069 347.88 879.46 346.713C880.896 345.501 881.615 343.93 881.615 342C881.615 340.16 880.986 338.656 879.729 337.489C878.517 336.322 876.902 335.402 874.882 334.729L867.273 332.17C864.85 331.362 862.515 330.375 860.271 329.208C858.072 327.996 856.254 326.425 854.817 324.495C853.381 322.52 852.663 320.006 852.663 316.954C852.663 313.812 853.448 311.163 855.019 309.009C856.635 306.854 858.835 305.216 861.618 304.094C864.446 302.972 867.677 302.41 871.313 302.41C875.981 302.41 879.662 303.196 882.355 304.767C885.048 306.338 887.001 308.335 888.213 310.759C889.47 313.138 890.233 315.63 890.502 318.233H879.999C879.909 316.976 879.55 315.787 878.921 314.664C878.338 313.497 877.395 312.555 876.094 311.837C874.792 311.118 873.041 310.759 870.842 310.759C868.373 310.759 866.533 311.276 865.321 312.308C864.154 313.34 863.57 314.642 863.57 316.213C863.57 317.919 864.176 319.288 865.388 320.32C866.645 321.353 868.306 322.228 870.371 322.946L877.979 325.505C880.448 326.312 882.782 327.322 884.981 328.534C887.181 329.746 888.976 331.362 890.367 333.382C891.804 335.357 892.522 337.961 892.522 341.192C892.522 346.085 890.771 349.945 887.27 352.773C883.814 355.556 878.944 356.947 872.66 356.947Z"/>
</mask>
<path d="M817.04 355.938L801.218 303.824V303.42H812.664L825.457 346.242H827.072L839.73 303.42H850.638V303.824L834.815 355.938H817.04ZM872.66 356.947C868.575 356.947 865.119 356.409 862.291 355.332C859.508 354.209 857.241 352.751 855.491 350.955C853.785 349.16 852.506 347.207 851.653 345.097C850.845 342.943 850.374 340.833 850.239 338.768H860.742C860.832 340.384 861.326 341.933 862.224 343.414C863.121 344.895 864.468 346.107 866.264 347.05C868.059 347.993 870.303 348.464 872.996 348.464C875.914 348.464 878.069 347.88 879.46 346.713C880.896 345.501 881.615 343.93 881.615 342C881.615 340.16 880.986 338.656 879.729 337.489C878.517 336.322 876.902 335.402 874.882 334.729L867.273 332.17C864.85 331.362 862.515 330.375 860.271 329.208C858.072 327.996 856.254 326.425 854.817 324.495C853.381 322.52 852.663 320.006 852.663 316.954C852.663 313.812 853.448 311.163 855.019 309.009C856.635 306.854 858.835 305.216 861.618 304.094C864.446 302.972 867.677 302.41 871.313 302.41C875.981 302.41 879.662 303.196 882.355 304.767C885.048 306.338 887.001 308.335 888.213 310.759C889.47 313.138 890.233 315.63 890.502 318.233H879.999C879.909 316.976 879.55 315.787 878.921 314.664C878.338 313.497 877.395 312.555 876.094 311.837C874.792 311.118 873.041 310.759 870.842 310.759C868.373 310.759 866.533 311.276 865.321 312.308C864.154 313.34 863.57 314.642 863.57 316.213C863.57 317.919 864.176 319.288 865.388 320.32C866.645 321.353 868.306 322.228 870.371 322.946L877.979 325.505C880.448 326.312 882.782 327.322 884.981 328.534C887.181 329.746 888.976 331.362 890.367 333.382C891.804 335.357 892.522 337.961 892.522 341.192C892.522 346.085 890.771 349.945 887.27 352.773C883.814 355.556 878.944 356.947 872.66 356.947Z" fill="white"/>
<path d="M817.04 355.938L814.279 356.776L814.901 358.823H817.04V355.938ZM801.218 303.824H798.332V304.253L798.457 304.663L801.218 303.824ZM801.218 303.42V300.535H798.332V303.42H801.218ZM812.664 303.42L815.429 302.594L814.813 300.535H812.664V303.42ZM825.457 346.242L822.692 347.068L823.307 349.128H825.457V346.242ZM827.072 346.242V349.128H829.228L829.84 347.06L827.072 346.242ZM839.73 303.42V300.535H837.574L836.963 302.602L839.73 303.42ZM850.638 303.42H853.523V300.535H850.638V303.42ZM850.638 303.824L853.399 304.663L853.523 304.253V303.824H850.638ZM834.815 355.938V358.823H836.955L837.576 356.776L834.815 355.938ZM819.801 355.099L803.979 302.986L798.457 304.663L814.279 356.776L819.801 355.099ZM804.103 303.824V303.42H798.332V303.824H804.103ZM801.218 306.306H812.664V300.535H801.218V306.306ZM809.899 304.246L822.692 347.068L828.221 345.416L815.429 302.594L809.899 304.246ZM825.457 349.128H827.072V343.356H825.457V349.128ZM829.84 347.06L842.498 304.238L836.963 302.602L824.305 345.424L829.84 347.06ZM839.73 306.306H850.638V300.535H839.73V306.306ZM847.752 303.42V303.824H853.523V303.42H847.752ZM847.877 302.986L832.054 355.099L837.576 356.776L853.399 304.663L847.877 302.986ZM834.815 353.052H817.04V358.823H834.815V353.052ZM862.291 355.332L861.212 358.008L861.238 358.018L861.264 358.028L862.291 355.332ZM855.491 350.955L853.399 352.943L853.412 352.956L853.425 352.97L855.491 350.955ZM851.653 345.097L848.951 346.111L848.964 346.145L848.978 346.179L851.653 345.097ZM850.239 338.768V335.883H847.159L847.36 338.956L850.239 338.768ZM860.742 338.768L863.624 338.608L863.472 335.883H860.742V338.768ZM866.264 347.05L867.605 344.495L867.605 344.495L866.264 347.05ZM879.46 346.713L881.314 348.924L881.321 348.919L879.46 346.713ZM879.729 337.489L877.728 339.568L877.747 339.586L877.766 339.604L879.729 337.489ZM874.882 334.729L873.962 337.464L873.969 337.466L874.882 334.729ZM867.273 332.17L868.193 329.435L868.186 329.433L867.273 332.17ZM860.271 329.208L858.879 331.735L858.909 331.752L858.94 331.768L860.271 329.208ZM854.817 324.495L852.484 326.192L852.493 326.205L852.503 326.217L854.817 324.495ZM855.019 309.009L852.711 307.277L852.699 307.293L852.688 307.309L855.019 309.009ZM861.618 304.094L860.553 301.412L860.546 301.415L860.539 301.418L861.618 304.094ZM882.355 304.767L880.901 307.26L880.901 307.26L882.355 304.767ZM888.213 310.759L885.632 312.05L885.646 312.079L885.662 312.107L888.213 310.759ZM890.502 318.233V321.118H893.702L893.372 317.936L890.502 318.233ZM879.999 318.233L877.121 318.439L877.312 321.118H879.999V318.233ZM878.921 314.664L876.341 315.955L876.371 316.015L876.404 316.074L878.921 314.664ZM876.094 311.837L874.7 314.363L874.7 314.363L876.094 311.837ZM865.321 312.308L863.45 310.111L863.429 310.129L863.409 310.147L865.321 312.308ZM865.388 320.32L863.517 322.517L863.537 322.534L863.557 322.55L865.388 320.32ZM870.371 322.946L869.423 325.671L869.437 325.676L869.451 325.681L870.371 322.946ZM877.979 325.505L877.059 328.24L877.07 328.243L877.081 328.247L877.979 325.505ZM890.367 333.382L887.991 335.019L888.012 335.049L888.034 335.079L890.367 333.382ZM887.27 352.773L889.08 355.021L889.083 355.018L887.27 352.773ZM872.66 354.062C868.811 354.062 865.725 353.552 863.318 352.635L861.264 358.028C864.512 359.266 868.339 359.833 872.66 359.833V354.062ZM863.37 352.655C860.887 351.654 858.979 350.399 857.557 348.941L853.425 352.97C855.504 355.102 858.129 356.765 861.212 358.008L863.37 352.655ZM857.583 348.968C856.105 347.412 855.034 345.761 854.328 344.016L848.978 346.179C849.978 348.653 851.466 350.908 853.399 352.943L857.583 348.968ZM854.355 344.084C853.635 342.165 853.233 340.333 853.119 338.581L847.36 338.956C847.515 341.333 848.055 343.72 848.951 346.111L854.355 344.084ZM850.239 341.654H860.742V335.883H850.239V341.654ZM857.861 338.929C857.979 341.05 858.631 343.053 859.756 344.91L864.691 341.919C864.021 340.813 863.685 339.719 863.624 338.608L857.861 338.929ZM859.756 344.91C860.969 346.912 862.742 348.46 864.922 349.605L867.605 344.495C866.194 343.754 865.274 342.879 864.691 341.919L859.756 344.91ZM864.922 349.605C867.245 350.824 869.983 351.349 872.996 351.349V345.578C870.623 345.578 868.873 345.161 867.605 344.495L864.922 349.605ZM872.996 351.349C876.207 351.349 879.169 350.723 881.314 348.924L877.606 344.502C876.968 345.038 875.621 345.578 872.996 345.578V351.349ZM881.321 348.919C883.427 347.142 884.5 344.754 884.5 342H878.729C878.729 343.107 878.366 343.861 877.599 344.508L881.321 348.919ZM884.5 342C884.5 339.423 883.584 337.131 881.693 335.375L877.766 339.604C878.388 340.182 878.729 340.897 878.729 342H884.5ZM881.731 335.411C880.139 333.877 878.117 332.765 875.794 331.991L873.969 337.466C875.686 338.039 876.896 338.767 877.728 339.568L881.731 335.411ZM875.801 331.994L868.193 329.435L866.354 334.905L873.962 337.464L875.801 331.994ZM868.186 329.433C865.905 328.672 863.711 327.744 861.602 326.648L858.94 331.768C861.32 333.006 863.794 334.052 866.361 334.908L868.186 329.433ZM861.664 326.68C859.81 325.659 858.312 324.356 857.132 322.772L852.503 326.217C854.196 328.493 856.334 330.333 858.879 331.735L861.664 326.68ZM857.151 322.797C856.155 321.427 855.548 319.55 855.548 316.954H849.777C849.777 320.462 850.608 323.612 852.484 326.192L857.151 322.797ZM855.548 316.954C855.548 314.31 856.201 312.286 857.351 310.709L852.688 307.309C850.696 310.041 849.777 313.313 849.777 316.954H855.548ZM857.328 310.74C858.593 309.054 860.345 307.718 862.697 306.77L860.539 301.418C857.325 302.714 854.678 304.655 852.711 307.277L857.328 310.74ZM862.682 306.776C865.112 305.812 867.972 305.296 871.313 305.296V299.525C867.382 299.525 863.779 300.132 860.553 301.412L862.682 306.776ZM871.313 305.296C875.706 305.296 878.816 306.043 880.901 307.26L883.809 302.275C880.508 300.349 876.257 299.525 871.313 299.525V305.296ZM880.901 307.26C883.185 308.592 884.707 310.2 885.632 312.05L890.794 309.469C889.295 306.471 886.912 304.085 883.809 302.275L880.901 307.26ZM885.662 312.107C886.751 314.169 887.402 316.304 887.632 318.53L893.372 317.936C893.064 314.955 892.189 312.108 890.764 309.411L885.662 312.107ZM890.502 315.347H879.999V321.118H890.502V315.347ZM882.877 318.027C882.756 316.339 882.27 314.739 881.439 313.255L876.404 316.074C876.829 316.834 877.062 317.614 877.121 318.439L882.877 318.027ZM881.502 313.374C880.622 311.614 879.227 310.27 877.488 309.31L874.7 314.363C875.563 314.84 876.054 315.381 876.341 315.955L881.502 313.374ZM877.488 309.31C875.603 308.27 873.312 307.874 870.842 307.874V313.645C872.771 313.645 873.981 313.967 874.7 314.363L877.488 309.31ZM870.842 307.874C868.047 307.874 865.404 308.446 863.45 310.111L867.192 314.505C867.661 314.105 868.699 313.645 870.842 313.645V307.874ZM863.409 310.147C861.617 311.732 860.685 313.823 860.685 316.213H866.456C866.456 315.461 866.691 314.949 867.233 314.469L863.409 310.147ZM860.685 316.213C860.685 318.696 861.611 320.893 863.517 322.517L867.259 318.124C866.742 317.682 866.456 317.142 866.456 316.213H860.685ZM863.557 322.55C865.15 323.858 867.14 324.877 869.423 325.671L871.319 320.221C869.472 319.578 868.14 318.847 867.22 318.09L863.557 322.55ZM869.451 325.681L877.059 328.24L878.899 322.769L871.29 320.211L869.451 325.681ZM877.081 328.247C879.385 329.001 881.552 329.94 883.589 331.062L886.374 326.007C884.011 324.705 881.511 323.624 878.876 322.762L877.081 328.247ZM883.589 331.062C885.405 332.063 886.86 333.377 887.991 335.019L892.744 331.745C891.092 329.347 888.956 327.43 886.374 326.007L883.589 331.062ZM888.034 335.079C889.011 336.423 889.636 338.375 889.636 341.192H895.408C895.408 337.546 894.596 334.291 892.701 331.685L888.034 335.079ZM889.636 341.192C889.636 345.3 888.215 348.301 885.457 350.528L889.083 355.018C893.328 351.59 895.408 346.87 895.408 341.192H889.636ZM885.461 350.525C882.693 352.754 878.554 354.062 872.66 354.062V359.833C879.334 359.833 884.935 358.358 889.08 355.021L885.461 350.525Z" fill="#272727" mask="url(#path-5-outside-1_7273_76766)"/>
<defs>
<filter id="filter0_d_7273_76766" x="23.7578" y="23.8027" width="1649.7" height="611.203" filterUnits="userSpaceOnUse" color-interpolation-filters="sRGB">
<feFlood flood-opacity="0" result="BackgroundImageFix"/>
<feColorMatrix in="SourceAlpha" type="matrix" values="0 0 0 0 0 0 0 0 0 0 0 0 0 0 0 0 0 0 127 0" result="hardAlpha"/>
<feOffset dx="2" dy="2"/>
<feComposite in2="hardAlpha" operator="out"/>
<feColorMatrix type="matrix" values="0 0 0 0 0.152941 0 0 0 0 0.152941 0 0 0 0 0.152941 0 0 0 1 0"/>
<feBlend mode="normal" in2="BackgroundImageFix" result="effect1_dropShadow_7273_76766"/>
<feBlend mode="normal" in="SourceGraphic" in2="effect1_dropShadow_7273_76766" result="shape"/>
</filter>
<filter id="filter1_d_7273_76766" x="0" y="0.00390625" width="1697.04" height="659.086" filterUnits="userSpaceOnUse" color-interpolation-filters="sRGB">
<feFlood flood-opacity="0" result="BackgroundImageFix"/>
<feColorMatrix in="SourceAlpha" type="matrix" values="0 0 0 0 0 0 0 0 0 0 0 0 0 0 0 0 0 0 127 0" result="hardAlpha"/>
<feOffset dx="2" dy="2"/>
<feComposite in2="hardAlpha" operator="out"/>
<feColorMatrix type="matrix" values="0 0 0 0 1 0 0 0 0 1 0 0 0 0 1 0 0 0 1 0"/>
<feBlend mode="normal" in2="BackgroundImageFix" result="effect1_dropShadow_7273_76766"/>
<feBlend mode="normal" in="SourceGraphic" in2="effect1_dropShadow_7273_76766" result="shape"/>
</filter>
<filter id="filter2_d_7273_76766" x="793.543" y="260.105" width="152.984" height="166.979" filterUnits="userSpaceOnUse" color-interpolation-filters="sRGB">
<feFlood flood-opacity="0" result="BackgroundImageFix"/>
<feColorMatrix in="SourceAlpha" type="matrix" values="0 0 0 0 0 0 0 0 0 0 0 0 0 0 0 0 0 0 127 0" result="hardAlpha"/>
<feOffset dx="2" dy="2"/>
<feComposite in2="hardAlpha" operator="out"/>
<feColorMatrix type="matrix" values="0 0 0 0 0.152941 0 0 0 0 0.152941 0 0 0 0 0.152941 0 0 0 1 0"/>
<feBlend mode="normal" in2="BackgroundImageFix" result="effect1_dropShadow_7273_76766"/>
<feBlend mode="normal" in="SourceGraphic" in2="effect1_dropShadow_7273_76766" result="shape"/>
</filter>
<filter id="filter3_d_7273_76766" x="752.652" y="234.166" width="152.836" height="167.1" filterUnits="userSpaceOnUse" color-interpolation-filters="sRGB">
<feFlood flood-opacity="0" result="BackgroundImageFix"/>
<feColorMatrix in="SourceAlpha" type="matrix" values="0 0 0 0 0 0 0 0 0 0 0 0 0 0 0 0 0 0 127 0" result="hardAlpha"/>
<feOffset dx="2" dy="2"/>
<feComposite in2="hardAlpha" operator="out"/>
<feColorMatrix type="matrix" values="0 0 0 0 1 0 0 0 0 1 0 0 0 0 1 0 0 0 1 0"/>
<feBlend mode="normal" in2="BackgroundImageFix" result="effect1_dropShadow_7273_76766"/>
<feBlend mode="normal" in="SourceGraphic" in2="effect1_dropShadow_7273_76766" result="shape"/>
</filter>
</defs>
</svg>
