<svg width="97" height="66" viewBox="0 0 97 66" fill="none" xmlns="http://www.w3.org/2000/svg">
<path d="M93.9586 61.9986C93.3133 62.6319 92.5558 63.1638 91.7171 63.5728C91.5428 63.4389 91.3404 63.338 91.122 63.2761C90.9037 63.2142 90.6737 63.1926 90.4459 63.2125C75.7685 63.2125 61.0891 63.2125 46.4077 63.2125C45.9264 63.2812 45.4333 63.2215 44.9891 63.0407C44.6818 62.2553 44.6518 61.4033 44.9031 60.6019C45.0259 60.092 45.5663 59.8869 46.1313 59.8869H49.4291C61.2815 59.8869 73.1401 59.8426 84.9925 59.8869C88.0017 59.8869 91.017 59.9423 94.0262 59.9811C94.1774 59.9699 94.3294 59.9699 94.4806 59.9811C95.0947 60.0753 95.1684 60.225 94.8245 60.6795C94.4722 61.0825 94.181 61.5261 93.9586 61.9986Z" fill="#3D3D3D"/>
<path d="M2.94426 10.0469C3.49758 9.45379 4.16549 8.95614 4.91557 8.57812C5.34546 8.87743 5.85517 8.73886 6.3219 8.73886C15.4722 8.73886 24.6225 8.73886 33.7729 8.73886C34.4423 8.73886 35.1362 8.68344 35.5108 9.3541C35.1825 10.4182 34.6091 11.4079 33.8281 12.2584C33.5886 12.5577 33.128 12.4912 32.7534 12.4968H26.2561C21.3432 12.4968 16.4917 12.4968 11.6156 12.4968C10.9059 12.5659 10.1917 12.5881 9.47845 12.5633C9.29316 12.3619 9.05079 12.2096 8.77717 12.1227C8.50355 12.0359 8.20894 12.0176 7.92474 12.07C5.93501 12.131 3.94527 11.9758 1.96168 12.1642C1.2186 12.2307 1.53794 11.8705 1.70989 11.6099C1.88184 11.5046 1.91869 11.3273 2.01695 11.1887C2.0538 10.8894 2.31787 10.7287 2.5021 10.5236C2.67625 10.3866 2.82546 10.2257 2.94426 10.0469Z" fill="#3D3D3D"/>
<path d="M93.0504 9.38672C94.3344 10.2789 95.3448 11.4522 95.9858 12.7954C96.0198 13.0093 96.1058 13.2137 96.2376 13.394L96.2929 13.7765C96.428 14.3308 95.992 14.2144 95.6788 14.1977C94.4505 14.1201 93.2776 14.1977 92.0862 14.1478C91.3784 14.1845 90.6767 14.2866 89.9921 14.4527C89.6737 14.3471 89.4006 14.153 89.2121 13.8984C88.7353 13.4289 88.1512 13.0583 87.5002 12.8124C86.8492 12.5664 86.1467 12.451 85.4415 12.474C78.5388 12.474 71.6362 12.474 64.7335 12.474C63.0508 12.474 61.97 11.5761 61.7305 9.99087C61.8314 9.81726 61.9847 9.67303 62.1728 9.57492C62.3608 9.47681 62.5758 9.42885 62.7929 9.4366C63.1491 9.4366 63.5114 9.4366 63.8676 9.4366C73.5174 9.4366 83.1692 9.4366 92.8231 9.4366C92.9015 9.4318 92.9783 9.41493 93.0504 9.38672Z" fill="#3D3D3D"/>
<path d="M64.1271 2.58824L64.2008 2.83766C64.471 3.23118 64.3052 3.42518 63.8385 3.4806C63.6346 3.50103 63.4295 3.51028 63.2243 3.50832C53.0546 3.50832 42.891 3.50832 32.7212 3.50832C32.6701 3.51136 32.6188 3.51136 32.5677 3.50832C32.0764 3.30324 32.494 3.08708 32.5677 2.87091C32.7028 2.7656 32.7458 2.59932 32.8625 2.47738C33.0823 1.89557 33.5156 1.39891 34.0907 1.06955C34.5452 0.83122 34.9996 0.55963 35.4663 0.360095C36.023 0.14633 36.6182 0.0261144 37.2227 0.00536617C44.7088 0.00536617 52.1948 0.00536617 59.6748 0.00536617C60.4135 -0.030145 61.1496 0.111073 61.8085 0.414735C62.4674 0.718396 63.0257 1.17373 63.427 1.73467C63.582 2.06532 63.822 2.35791 64.1271 2.58824Z" fill="#3D3D3D"/>
<path d="M44.9972 62.9922H91.7744C92.0384 63.225 91.3629 63.3358 91.713 63.5465L91.6331 63.6628C91.1909 63.7412 90.7834 63.9338 90.4602 64.2171C89.6064 64.764 88.5838 65.0548 87.537 65.0485C87.1705 65.1549 86.7851 65.1982 86.4008 65.176H45.9122C45.6083 65.215 45.2984 65.1865 45.0094 65.0929C44.8406 64.764 44.7522 64.4062 44.75 64.0437C44.7479 63.6813 44.8322 63.3227 44.9972 62.9922Z" fill="#3D3D3D"/>
<path d="M93.049 9.39109C92.9139 9.84005 92.5024 9.64606 92.2138 9.64606C82.867 9.64606 73.516 9.64606 64.161 9.64606C63.8294 9.64606 63.4978 9.64606 63.1662 9.64606C62.9189 9.60218 62.6631 9.61803 62.4248 9.692C62.1865 9.76596 61.974 9.89543 61.809 10.0673C61.809 10.0673 61.7475 10.0673 61.7353 10.0673C60.8668 9.04043 60.1981 7.88776 59.7578 6.65857C59.7578 6.07105 60.157 5.999 60.6606 5.99345C62.0239 5.99345 63.3913 5.99345 64.7628 5.99345C64.9757 6.01788 65.192 5.99535 65.3931 5.92777C65.5941 5.86019 65.7741 5.7496 65.9174 5.60547C66.2306 5.74958 66.1999 6.07659 66.3596 6.30384C66.4824 6.43686 66.5192 6.61977 66.6605 6.74171C66.9921 6.74171 67.3237 6.79159 67.6492 6.79159C73.5816 6.79159 79.5078 6.7528 85.4585 6.79159C87.8352 6.79159 90.1627 7.19066 92.1156 8.58187C92.4288 8.87563 92.7358 9.13059 93.049 9.39109Z" fill="#3D3D3D"/>
<path d="M53.302 17.7177C52.3958 17.5166 51.4771 17.3648 50.5507 17.2632C49.9534 17.1026 49.3234 17.0666 48.7084 17.1579C47.8732 17.1579 47.0257 17.0138 46.2089 17.2688C44.6992 17.4344 43.2156 17.7561 41.7873 18.2276C41.5106 18.3398 41.2123 18.4019 40.9091 18.4105C40.7433 18.477 40.5836 18.5934 40.4056 18.5436C38.8027 18.1002 37.163 18.3995 35.5479 18.3329C33.9328 18.2664 32.4773 18.3662 30.9666 18.2997C30.9285 18.2872 30.8939 18.2674 30.8652 18.2415C30.8366 18.2157 30.8146 18.1844 30.8008 18.15C30.8561 17.6955 31.3412 17.5958 31.6421 17.3574C31.8448 17.1912 32.072 17.047 32.2562 16.8697C32.306 16.8249 32.3617 16.7858 32.422 16.7533C32.9105 16.5724 33.3276 16.2635 33.6196 15.8665C34.1907 15.2623 35.0136 14.9741 35.7076 14.5196C35.8151 14.4555 35.9411 14.4213 36.0699 14.4213C36.1987 14.4213 36.3247 14.4555 36.4322 14.5196C37.1585 14.5544 37.8869 14.5229 38.6062 14.4254C45.2386 14.4254 51.8752 14.4254 58.5158 14.4254C59.1299 14.4254 59.7441 14.6637 60.4012 14.503C60.4918 14.45 60.5963 14.4196 60.7041 14.4148C60.8119 14.4099 60.9192 14.4308 61.0153 14.4753C62.1334 14.9945 63.1566 15.6656 64.049 16.4651C64.3315 16.6646 64.5894 16.8808 64.8596 17.0969C65.3018 17.4517 65.2281 17.6955 64.6508 17.8452C64.3526 17.9042 64.0466 17.9247 63.7419 17.9062H56.3787C55.5742 17.9062 54.7636 18.1334 53.9652 17.8396C53.7364 17.8493 53.5084 17.8074 53.302 17.7177Z" fill="#3D3D3D"/>
<path d="M65.9153 5.60399C66.0565 6.08065 65.8723 6.21922 65.3012 6.20259C63.7782 6.16934 62.2306 6.20259 60.7199 6.20259C60.1979 6.20259 59.9277 6.31344 59.8601 6.75686C59.7437 6.7706 59.6257 6.74472 59.5292 6.68427C59.4327 6.62382 59.3646 6.53312 59.3381 6.42984C59.1539 5.87558 58.724 5.87558 58.1897 5.87558H41.1112C40.4234 5.87558 39.7294 5.91437 39.0416 5.87558C38.707 5.8066 38.3565 5.83995 38.0453 5.97039C37.734 6.10082 37.4796 6.32094 37.3221 6.59612C37.0334 6.83445 36.7632 7.05616 36.3518 6.72914C36.0639 6.57425 35.7234 6.5191 35.3937 6.57395C34.1225 6.57395 32.8513 6.57395 31.5801 6.57395C30.6773 6.57395 30.6221 6.47972 30.88 5.69821L30.923 5.54302C31.0397 5.42108 31.0827 5.2548 31.1871 5.12732C31.3906 4.5612 31.7069 4.03338 32.1205 3.56984C32.1526 3.52401 32.197 3.48626 32.2497 3.4601C32.3023 3.43393 32.3614 3.4202 32.4214 3.42018C32.7464 3.2812 33.1099 3.23295 33.4654 3.28162C43.4796 3.28162 53.4958 3.28162 63.5141 3.28162C63.8334 3.28162 64.3616 3.47561 64.2081 2.84375C64.7301 3.12642 64.8222 3.66406 65.1231 4.09639C65.2308 4.24273 65.3292 4.39447 65.4179 4.55088C65.5284 4.92224 65.9276 5.18275 65.9153 5.60399Z" fill="#3D3D3D"/>
<path d="M52.518 52.2099L55.7421 51.3619C55.8772 51.628 55.7421 51.6778 55.5456 51.7C56.1469 51.5619 56.7695 51.5151 57.3879 51.5614C59.5987 51.5614 61.8095 51.5614 64.0204 51.5614C64.2461 51.5253 64.4778 51.5328 64.7001 51.5835C64.9224 51.6341 65.1303 51.7267 65.31 51.8552C65.364 51.9094 65.4039 51.9738 65.4267 52.0436C65.4267 52.343 65.1503 52.3707 64.9354 52.476C64.7204 52.5813 65.1258 52.5924 65.0091 52.7088C65.0091 52.7587 65.0091 52.8196 64.9784 52.8418C63.6143 53.9122 62.083 54.7955 60.4339 55.4635C59.6356 55.5133 58.9232 55.1531 58.1126 55.1586C52.26 55.1974 46.4075 55.1586 40.555 55.1586C40.3769 55.1586 40.1927 55.1586 40.0146 55.1586C39.4742 55.1309 39.2285 55.3415 39.2346 55.8459C39.2346 58.2015 38.9276 60.5461 39.0627 62.8961C39.0627 63.3174 39.0627 63.7386 39.0627 64.1599C39.1025 64.4489 39.0537 64.7422 38.9214 65.0079C38.8953 65.0414 38.8565 65.065 38.8123 65.0742C38.7681 65.0834 38.7217 65.0775 38.6819 65.0578C38.6819 61.2703 38.6656 57.4847 38.6328 53.7009C38.6328 52.5924 38.6328 51.445 38.6328 50.1758C42.1242 52.0047 46.1462 52.8393 50.172 52.5702C50.9617 52.495 51.7452 52.3747 52.518 52.2099Z" fill="#3D3D3D"/>
<path d="M30.8807 5.64844C30.7578 6.2027 30.9482 6.37452 31.6115 6.34127C32.8827 6.2803 34.16 6.30801 35.4313 6.34127C35.8734 6.34127 36.3831 6.14173 36.7148 6.67937C36.856 6.90662 36.8929 6.33018 37.1753 6.46875C37.3657 7.13941 36.7393 7.46642 36.4261 7.92092C36.3416 7.97649 36.2703 8.04683 36.2165 8.12776C36.1627 8.2087 36.1275 8.29858 36.1129 8.39204C35.9717 8.7634 35.9164 9.18464 35.4435 9.37863C35.2546 9.21502 35.0275 9.09174 34.7788 9.01787C34.5301 8.94401 34.2662 8.92145 34.0065 8.95185C24.6924 8.95185 15.3783 8.95185 6.06426 8.95185C5.70807 8.95185 5.35188 8.90197 5.00184 8.89088C4.38772 8.89088 5.00184 8.66363 4.94042 8.56387C4.94864 8.54611 4.96387 8.53174 4.98316 8.52354C5.00245 8.51535 5.02443 8.51392 5.04482 8.51952C5.45014 8.33108 5.75106 7.99852 6.18094 7.84332C6.57244 7.57371 7.04613 7.41895 7.53813 7.39991C7.69166 7.30014 7.88818 7.27797 8.04785 7.18375C10.3753 6.62948 12.752 6.77914 15.1225 6.77914C19.8204 6.77914 24.5184 6.77914 29.2471 6.77914C30.0332 6.77914 30.4753 6.59623 30.6964 5.89786C30.7433 5.80669 30.8055 5.72257 30.8807 5.64844Z" fill="#3D3D3D"/>
<path d="M4.58467 63.191C3.63962 62.7643 2.82549 62.1343 2.21418 61.3564C1.75528 60.8533 1.37887 60.2933 1.09649 59.6936C1.00437 59.0395 1.53251 58.9897 2.01152 58.9675C2.95726 58.9176 3.903 58.9675 4.84874 58.9675C6.14452 58.9675 7.45259 58.8622 8.71767 59.2114C9.33178 59.1448 9.79237 59.5217 10.3512 59.6104C10.678 59.6731 11.0132 59.6918 11.3461 59.6659C14.7913 59.6659 18.2426 59.6659 21.6939 59.6659C22.48 59.6659 22.7809 59.9042 22.7993 60.6026C22.7993 61.9383 22.7993 63.2741 22.7993 64.6154C22.7993 64.8538 22.9774 65.4635 22.2344 65.1309C22.0279 64.6322 21.9686 64.0935 22.0624 63.5679C22.0624 63.0136 21.8106 62.8307 21.2333 62.8307C16.1178 62.8307 11.0083 62.8307 5.88045 62.8307C5.41963 62.8387 4.97059 62.9635 4.58467 63.191Z" fill="#3D3D3D"/>
<path d="M11.5296 1.50781H23.2653C23.8035 1.50778 24.3199 1.69919 24.7028 2.04054C25.0856 2.3819 25.3039 2.84568 25.3103 3.33134C25.3103 4.59506 24.6962 5.39321 23.4311 5.41538C19.5192 5.49297 15.6012 5.45417 11.6892 5.41538C11.2892 5.39743 10.9076 5.25786 10.6066 5.01936C10.3055 4.78087 10.1027 4.45748 10.0311 4.10177C9.88302 3.67275 9.88555 3.21288 10.0384 2.7852C10.1912 2.35753 10.4868 1.98298 10.8848 1.71289C11.0854 1.61236 11.3034 1.54303 11.5296 1.50781Z" fill="#3D3D3D"/>
<path d="M39.4721 38.4419C38.6133 36.8099 38.3966 34.9623 38.858 33.2041C39.336 33.4702 39.8944 33.5943 40.4547 33.5589C42.8067 33.5589 45.1588 33.5256 47.5047 33.5589C48.3829 33.5589 49.1628 33.5589 49.6541 32.7773C50.0287 32.9104 49.9366 33.2208 49.9673 33.4757C50.0226 33.8803 49.8752 34.3016 50.0963 34.684C50.4055 34.9375 50.638 35.258 50.7718 35.6152C50.8209 36.1694 51.3859 36.2637 51.8035 36.4355L52.2027 36.502C52.5545 36.6016 52.9317 36.6016 53.2835 36.502C53.4187 36.502 53.5538 36.502 53.6889 36.4687C53.8718 36.4314 54.0435 36.3585 54.192 36.2551C54.3404 36.1517 54.4622 36.0203 54.5486 35.8701C54.825 35.5542 55.0154 35.1607 55.5066 35.0387C55.9514 35.1829 56.4222 35.2506 56.8945 35.2383C57.3306 35.2383 57.7543 35.3103 57.9078 35.7925C57.9593 36.043 57.986 36.2971 57.9877 36.5519C57.8157 36.9177 57.7789 37.3223 57.6131 37.6604L57.5517 38.1648C57.5276 38.1843 57.4991 38.1987 57.4681 38.2068C57.437 38.215 57.4044 38.2167 57.3725 38.212C57.3407 38.2072 57.3104 38.196 57.284 38.1791C57.2576 38.1623 57.2357 38.1404 57.22 38.1149C56.9314 37.5274 56.3726 37.5606 55.7953 37.5606C53.9038 37.5606 52.0062 37.4997 50.1208 37.5606C48.8743 37.6563 47.6298 37.3564 46.602 36.7126C46.479 36.6814 46.3489 36.6809 46.2256 36.7112C46.1023 36.7415 45.9904 36.8013 45.9019 36.8844C45.6372 37.051 45.3602 37.201 45.0728 37.3334C44.7166 37.472 44.6307 37.86 44.3052 38.0373C43.2835 38.1064 42.258 38.1193 41.2346 38.0761C40.6204 38.0432 40.0086 38.1701 39.4721 38.4419Z" fill="#3D3D3D"/>
<path d="M49.741 32.7952C49.6857 32.8395 49.5874 32.8839 49.5874 32.9393C49.5137 33.8538 48.8136 33.7762 48.089 33.7707C45.3132 33.7707 42.5619 33.743 39.7677 33.7707C39.2457 33.7707 38.9509 33.6488 38.8281 33.2164C38.9212 32.0291 39.4657 30.9072 40.3696 30.0405C40.8746 29.8742 41.4105 29.797 41.9478 29.8133H55.2311C55.6402 29.7696 56.0542 29.8412 56.4164 30.0183C56.7654 30.3606 57.0572 30.7472 57.2823 31.1657C57.4051 31.3319 57.3806 31.5647 57.5771 31.7199V31.9583C57.6323 32.1079 57.7797 32.2354 57.7736 32.3961C57.7674 32.5569 57.964 32.8783 57.7367 33.0391C57.5095 33.1998 57.3806 32.8783 57.184 32.8229C56.7296 32.6788 56.2322 32.8229 55.79 32.5957C55.6402 32.5524 55.5036 32.4784 55.3908 32.3795C55.2093 32.0887 54.9574 31.8386 54.6539 31.6479C54.5933 31.6134 54.5377 31.5725 54.4881 31.5259C53.4564 30.628 51.4175 30.8331 50.4042 31.9416C50.2875 32.0636 50.2077 32.2077 50.1033 32.3352C49.9989 32.4626 49.9375 32.6067 49.8392 32.7342L49.741 32.7952Z" fill="#3D3D3D"/>
<path d="M56.4207 29.9985H41.86C41.4575 29.9253 41.0391 29.9905 40.6871 30.1814C40.5028 30.3144 40.4291 30.1426 40.3984 29.9985C41.0126 28.6572 42.2408 27.8313 43.512 27.133C45.0867 26.2295 46.9369 25.797 48.7995 25.8969C50.173 25.9509 51.5172 26.272 52.7404 26.8384C53.9636 27.4047 55.0367 28.2028 55.8864 29.1782C56.04 29.411 56.0952 29.6937 56.3409 29.8821C56.3629 29.895 56.3814 29.9121 56.3952 29.9322C56.409 29.9524 56.4177 29.975 56.4207 29.9985Z" fill="#3D3D3D"/>
<path d="M4.58984 63.193C4.72495 62.7219 5.11798 62.6055 5.58471 62.6055C10.9521 62.6055 16.3174 62.6055 21.6807 62.6055C22.1535 62.6055 22.2948 62.7496 22.2948 63.1597C22.2948 63.8082 22.2948 64.4512 22.2948 65.0997C22.0307 65.3103 21.7114 65.2327 21.4166 65.2327C17.5354 65.2327 13.6562 65.2327 9.77912 65.2327C9.38911 65.2111 9.00127 65.1648 8.61844 65.0941C7.9277 64.9437 7.25962 64.7185 6.62871 64.4235C5.96546 63.9967 5.30222 63.5643 4.59599 63.193H4.58984Z" fill="#3D3D3D"/>
<path d="M45.005 62.9936V65.072C44.6795 65.072 44.6611 64.8171 44.6611 64.6286C44.6611 63.0545 44.5506 61.4749 44.7164 59.9063C44.7816 59.7886 44.8859 59.6923 45.0147 59.6307C45.1435 59.5691 45.2904 59.5453 45.4349 59.5627C46.5751 59.6855 47.729 59.6613 48.8616 59.4906C49.2688 59.4433 49.6796 59.4266 50.0899 59.4407H84.4803C84.8637 59.4287 85.2475 59.4417 85.6287 59.4795C85.9542 59.4795 86.2429 59.7788 86.6175 59.5627C87.7309 59.235 88.7373 58.6637 89.5468 57.8999C89.6918 57.7675 89.8783 57.6785 90.0811 57.6449C90.5479 57.4059 91.0736 57.2764 91.6102 57.268C92.906 57.2126 94.2079 57.2237 95.5037 57.268C95.9889 57.268 96.5047 57.3511 96.4249 57.9885C96.4415 58.0493 96.4361 58.1133 96.4096 58.1711C96.3831 58.2289 96.3368 58.2776 96.2775 58.31C96.0257 58.4153 96.124 58.5594 96.2222 58.7035C95.7372 59.946 94.9623 61.0801 93.95 62.0291C93.7412 61.7797 93.9193 61.6245 94.0913 61.4361C94.3983 61.1035 94.7054 60.7432 94.9572 60.4051C94.8343 60.1945 94.6317 60.2555 94.472 60.261C89.2336 60.3553 84.032 60.0837 78.7629 60.1058C67.9729 60.1446 57.1829 60.1058 46.3929 60.1058C45.2752 60.1058 44.9927 60.3553 44.9927 61.3529L45.005 62.9936Z" fill="#3D3D3D"/>
<path d="M28.7491 34.0129C29.0193 34.157 28.8904 34.3898 28.8904 34.5672C28.8904 42.8257 28.8904 51.0861 28.8904 59.3483C28.8904 61.122 28.8535 62.9012 28.8904 64.6748C28.8904 65.1903 28.7307 65.3566 28.1534 65.3399C26.3111 65.2734 24.524 65.412 22.7124 65.2734C22.6264 63.6938 22.7124 62.1141 22.7124 60.5345C22.7358 60.2169 22.6477 59.9008 22.4606 59.631C22.3801 59.3395 22.3511 59.0383 22.3746 58.7387C22.3746 50.7018 22.3746 42.6631 22.3746 34.6226C22.3746 34.218 22.1842 33.7247 22.7492 33.4531C23.0624 33.7025 22.9764 34.0462 22.9826 34.3566C22.9826 36.7399 22.9826 39.1232 22.9826 41.5121C22.9558 41.833 22.9911 42.1556 23.087 42.4655C23.2651 43.574 23.087 44.6825 23.1545 45.791C23.2037 46.7222 23.1115 47.6478 23.1545 48.5624C23.1975 49.6709 23.1545 50.7794 23.1545 51.888C23.1545 52.9965 23.1115 54.105 23.1545 55.2135C23.1914 56.4495 23.1545 57.6856 23.1545 58.9216C23.2774 60.6675 22.8598 62.4023 23.0071 64.0319C23.0071 63.4277 23.0071 62.7127 23.0071 61.9977C23.0071 61.0777 23.2774 60.8449 24.2784 60.8282C25.2794 60.8116 26.1698 60.8282 27.1156 60.8282C28.221 60.8282 28.3438 60.6841 28.3438 59.7197C28.3438 59.1654 28.3438 58.5668 28.3438 57.9904C28.3111 56.6269 28.3111 55.2634 28.3438 53.8999C28.3121 53.4595 28.3327 53.0173 28.4052 52.5808C28.5144 52.1541 28.5476 51.7144 28.5035 51.2783C28.5035 49.5434 28.5035 47.8141 28.5035 46.0793C28.5035 42.7537 28.5035 39.3671 28.5035 36.0138C28.5526 35.3376 28.2947 34.6392 28.7491 34.0129Z" fill="#3D3D3D"/>
<path d="M39.4844 38.4382C39.6563 37.9948 40.0064 37.884 40.5038 37.884C41.7996 37.9117 43.0954 37.884 44.3912 37.884C44.5815 38.2553 44.3543 38.7763 44.8886 39.0313C45.1398 39.2248 45.4186 39.387 45.7177 39.5135C45.9288 39.5997 46.1601 39.638 46.3914 39.6249C46.6226 39.6118 46.8468 39.5477 47.0443 39.4384C47.2419 39.329 47.4067 39.1776 47.5244 38.9975C47.6421 38.8173 47.7092 38.6139 47.7197 38.405C47.7197 38.1168 47.6644 37.8008 47.9469 37.5625C48.5242 37.5625 48.4136 37.9505 48.4505 38.2332C48.561 39.059 48.6408 39.1532 49.5804 39.1643C51.3614 39.1643 53.1423 39.1643 54.9294 39.1643C56.0164 39.1643 56.1576 39.3417 56.0471 40.3116C56.0471 40.4114 56.0041 40.4558 55.9181 40.489C55.4859 40.8373 55.0758 41.2074 54.6899 41.5975L54.5056 41.7416C50.9745 41.3426 47.4433 41.6918 43.9183 41.5754C43.626 41.5381 43.328 41.5686 43.0524 41.6641C43.3042 41.9634 43.6665 42.0409 43.9244 42.2682C44.1824 42.4954 44.1394 42.4622 43.9244 42.7559C42.7021 42.3137 41.6483 41.5609 40.8907 40.5888C40.3687 39.9126 39.687 39.2973 39.4844 38.4382Z" fill="#3D3D3D"/>
<path d="M65.465 52.2164C65.2316 51.8062 64.8509 51.7619 64.3657 51.7619C61.3443 51.7619 58.329 51.7619 55.2461 51.7619C55.418 51.5679 55.7804 51.6455 55.7497 51.3517C56.6217 50.9305 57.4999 50.5148 58.3658 50.0769C59.4834 49.4567 60.5581 48.7756 61.5838 48.0372C63.7147 47.6382 65.8826 47.8765 68.0136 47.8266C68.2181 47.8107 68.4237 47.8432 68.61 47.9209C68.7964 47.9987 68.957 48.119 69.076 48.27C69.2418 48.4917 69.1128 48.6968 69.0084 48.9019C68.3194 49.8978 67.4639 50.7915 66.4721 51.5513C66.2572 51.6996 66.081 51.8888 65.9563 52.1055C65.9329 52.1427 65.9014 52.1751 65.8636 52.201C65.8259 52.2268 65.7828 52.2455 65.7369 52.2558C65.691 52.2662 65.6432 52.268 65.5965 52.2613C65.5497 52.2545 65.505 52.2392 65.465 52.2164Z" fill="#3D3D3D"/>
<path d="M69.1027 48.4407C68.919 48.2856 68.7007 48.1677 68.4624 48.095C68.224 48.0224 67.9712 47.9966 67.721 48.0195C66.4436 48.0472 65.1601 48.0195 63.8827 48.0195C63.298 47.9964 62.7124 48.0373 62.1386 48.1414C61.9913 48.1747 61.6842 48.4074 61.5859 48.0361L61.7518 47.7756C61.9176 47.637 62.0772 47.4929 62.2246 47.3433L62.9554 46.789C63.1089 46.6061 63.2748 46.4232 63.4344 46.2347L65.8909 43.1696C66.3701 43.0121 66.8804 42.946 67.3893 42.9757C68.5623 42.9757 69.7352 42.9757 70.9021 42.9757C71.1699 42.9416 71.4428 42.9884 71.6782 43.1087C71.9136 43.2289 72.0984 43.416 72.204 43.6408C72.2797 43.7709 72.295 43.9228 72.2467 44.0631C72.1983 44.2034 72.0902 44.3206 71.9461 44.389C71.6943 44.4555 71.725 44.6218 71.7803 44.7992C71.4485 45.7828 70.9129 46.7006 70.202 47.504C69.8853 47.7311 69.6258 48.0164 69.4405 48.3409C69.4017 48.3935 69.354 48.4403 69.2992 48.4795C69.2661 48.4925 69.2293 48.4957 69.194 48.4887C69.1588 48.4818 69.1268 48.465 69.1027 48.4407Z" fill="#3D3D3D"/>
<path d="M90.0241 14.3593C90.6508 14.0028 91.3961 13.8557 92.1305 13.9436C93.4017 14.0157 94.6791 13.8272 95.9442 14.0545C96.1898 14.0988 96.2512 13.9492 96.2881 13.7773C96.6466 14.4692 96.801 15.2329 96.7364 15.9944C96.8143 16.292 96.8371 16.5991 96.8039 16.9034C96.8039 19.4198 96.8469 21.9306 96.8039 24.4469C96.2635 24.4469 96.4047 24.0479 96.3863 23.7984C96.3372 23.1167 96.3556 22.4294 96.3863 21.7421C96.3863 20.8719 96.3863 19.9962 96.3863 19.126C96.3863 18.3611 96.1837 18.1948 95.3362 18.1727C94.3168 18.1727 93.2973 18.1727 92.2656 18.1727C91.6515 18.1727 91.4611 18.3999 91.4734 18.9154C91.4734 19.7689 91.4734 20.617 91.4734 21.4705C91.5061 22.9486 91.5061 24.4118 91.4734 25.8603C91.5041 27.4677 91.5102 29.0806 91.4734 30.6935C91.5041 31.7577 91.5041 32.8219 91.4734 33.8916C91.4427 34.9613 91.5041 36.1973 91.4734 37.3502C91.4734 38.5862 91.5041 39.8167 91.4734 41.0527C91.4991 41.4102 91.4785 41.7692 91.412 42.1224C91.318 42.4572 91.2848 42.8035 91.3137 43.1478C91.3137 46.8669 91.3137 50.5916 91.3137 54.3162C91.3137 54.6488 91.4795 55.07 90.9452 55.2474C90.6985 54.8662 90.6155 54.4165 90.7119 53.9837C90.7119 43.1644 90.7119 32.347 90.7119 21.5315C90.7119 20.4729 90.7119 19.4087 90.7119 18.35C90.8264 17.1492 90.6156 15.9414 90.0978 14.8304C90.0449 14.7628 90.0107 14.6848 89.9979 14.6029C89.985 14.521 89.994 14.4375 90.0241 14.3593Z" fill="#3D3D3D"/>
<path d="M30.857 18.0742C32.0177 18.0742 33.1723 18.0742 34.3329 18.1075C35.4936 18.1407 36.7894 18.1075 38.0176 18.1075C39.0064 18.1075 40.0012 18.0188 40.947 18.4012C40.3881 18.9555 39.5529 19.0664 38.8835 19.4488C38.6132 19.6523 38.3057 19.8118 37.9746 19.9199C37.8395 20.0419 37.6307 20.0585 37.5079 20.2026C36.4326 20.8042 35.4497 21.531 34.5847 22.3642C34.5101 22.4555 34.4007 22.5187 34.2777 22.5416C34.2163 22.5748 34.0934 22.6247 34.075 22.5748C33.8171 21.8986 33.1907 22.0538 32.638 22.0483C31.2132 22.0483 29.7885 22.0483 28.3392 22.0483C27.4917 22.0483 27.3811 21.8155 27.7251 21.1171C28.4612 19.8763 29.54 18.8281 30.857 18.0742Z" fill="#3D3D3D"/>
<path d="M53.8738 17.6992L64.9954 17.6715V17.4442C64.5655 17.1006 63.976 16.8899 63.7058 16.4133C64.0128 16.2636 64.2585 16.4133 64.4734 16.574C65.9051 17.5062 67.1528 18.6492 68.1643 19.955C68.2384 20.2078 68.405 20.4305 68.6371 20.5869C68.7907 20.7698 68.981 20.9472 68.6801 21.1411C68.2848 21.3125 67.8459 21.3852 67.4089 21.3518H63.5031C62.9432 21.2935 62.3759 21.3601 61.8512 21.5458C61.6301 21.6511 61.4581 21.5458 61.2985 21.4183C61.1407 21.2888 60.9723 21.1703 60.7949 21.0636C59.7754 20.5093 58.7683 19.8885 57.7243 19.3509C57.0058 18.9851 56.2259 18.7135 55.4766 18.4031C55.0897 18.2091 54.623 18.198 54.2484 17.9985C54.2015 17.9814 54.1516 17.972 54.101 17.9708C53.9598 17.8932 53.837 17.8488 53.8738 17.6992Z" fill="#3D3D3D"/>
<path d="M72.1535 43.7335C71.6929 43.1293 71.0112 43.1792 70.3112 43.1792C69.2364 43.2069 68.1679 43.1792 67.0932 43.1792C66.7419 43.1184 66.3782 43.184 66.0799 43.3621C65.9448 43.4674 65.9018 43.2679 65.8711 43.1681C66.0615 42.2259 66.6572 41.4111 66.9397 40.4965C67.2359 39.7955 67.454 39.0695 67.5906 38.3294C67.6211 38.2513 67.6706 38.1805 67.7355 38.122C67.8003 38.0635 67.8788 38.0188 67.9652 37.9913C68.3416 37.805 68.7642 37.7077 69.1935 37.7086C70.3726 37.7086 71.5455 37.7086 72.7185 37.7086C72.9471 37.6812 73.1796 37.7142 73.3878 37.8038C73.5961 37.8933 73.771 38.0355 73.8914 38.213C74.0416 38.5316 74.0548 38.8893 73.9283 39.2162C73.6441 40.5441 73.2162 41.8436 72.6509 43.096C72.5158 43.3011 72.3746 43.5007 72.2272 43.7002L72.1535 43.7335Z" fill="#3D3D3D"/>
<path d="M8.78798 59.2405C8.75113 59.5287 8.5976 59.5398 8.38266 59.3735C8.04714 59.1598 7.63612 59.0651 7.22812 59.1075C5.49222 59.1075 3.75632 59.1075 2.02042 59.1075C1.56598 59.1075 1.20365 59.1851 1.10539 59.6618C0.406983 58.4657 0.0423069 57.1339 0.0429697 55.7819C0.149575 55.6097 0.312114 55.4712 0.508674 55.385C0.705233 55.2987 0.926359 55.269 1.14224 55.2997C2.3152 55.2997 3.4943 55.2498 4.66726 55.2997C5.3305 55.3385 5.51474 55.1168 5.49018 54.5625C5.49018 53.8919 5.49018 53.2268 5.49018 52.5561C5.49018 51.7746 5.49018 50.9931 5.49018 50.2171C5.49018 49.0642 5.44719 47.9169 5.49018 46.7696C5.49018 45.7497 5.44719 44.7299 5.49018 43.71C5.61288 42.4069 5.66207 41.099 5.63756 39.7914C5.63756 37.3526 5.63756 34.9139 5.63756 32.4751C5.63756 30.0363 5.63756 27.5976 5.63756 25.1588C5.63756 22.5815 5.63756 20.0097 5.63756 17.4379C5.60793 17.1152 5.63069 16.7903 5.70512 16.4735C5.77881 16.3571 5.84022 16.2241 6.04288 16.3072C6.25742 16.7023 6.32628 17.149 6.2394 17.582C6.2394 29.8756 6.2701 42.1692 6.2394 54.4628C6.18884 55.2802 6.36049 56.0964 6.7394 56.8402C7.11831 57.5841 7.69298 58.2331 8.41337 58.7306C8.60374 58.8802 8.80026 58.9911 8.78798 59.2405Z" fill="#3D3D3D"/>
<path d="M29.2091 31.3056C29.147 32.1836 29.0011 33.0552 28.7731 33.9106C28.6871 34.4649 28.3555 34.6145 27.7414 34.548C26.9517 34.5119 26.1606 34.5119 25.3709 34.548C24.4927 34.548 23.6084 34.4704 22.8653 35.0247C22.7609 34.3596 22.9267 33.6778 22.6872 33.0183C22.546 31.6492 22.9881 30.3522 23.3013 29.0386C23.3628 28.8003 23.4549 28.5453 23.7926 28.4844C24.0321 28.6562 23.9093 28.9112 23.9585 29.155C25.3821 28.9726 26.8237 28.9317 28.2573 29.0331C29.1662 29.0331 29.4118 29.2825 29.5408 30.0086C29.4903 30.4517 29.3789 30.8874 29.2091 31.3056Z" fill="#3D3D3D"/>
<path d="M73.8638 38.3385C73.7142 38.1721 73.518 38.0447 73.2956 37.9697C73.0732 37.8947 72.8326 37.8746 72.5987 37.9117C71.7389 37.9449 70.8792 37.9394 70.0194 37.9117C69.2884 37.8549 68.5527 37.9517 67.87 38.1943C67.6858 38.0059 67.7717 37.8064 67.87 37.6124C68.0317 36.0088 68.0461 34.396 67.913 32.7903C68.3429 32.7903 68.2999 33.0563 68.2937 33.3445C68.2937 34.1261 68.2937 34.902 68.2937 35.6835C68.2937 34.9796 68.2937 34.2757 68.2937 33.5718C68.2937 33.0896 68.5517 32.7958 69.0552 32.7903C70.4493 32.7903 71.8618 32.5741 73.2435 32.9178C73.569 33.0009 73.655 32.9178 73.6918 32.6573C73.6944 32.5757 73.716 32.4956 73.7552 32.4221C73.7943 32.3485 73.8501 32.2833 73.919 32.2305C74.3612 32.3358 74.4042 32.6794 74.4165 32.9954C74.4595 34.3367 74.4779 35.6724 74.4165 37.0082C74.4137 37.4969 74.2177 37.9686 73.8638 38.3385Z" fill="#3D3D3D"/>
<path d="M61.2852 21.4299C63.7416 20.7703 66.3332 21.4742 68.8265 21.0031C69.0537 20.8812 69.2318 21.0031 69.3546 21.1472C70.1279 21.9359 70.7281 22.85 71.1233 23.8409C71.1374 24.1798 71.266 24.5066 71.4918 24.7776C71.5091 24.8526 71.5091 24.9299 71.4918 25.0049C71.2952 25.4206 70.8776 25.3541 70.503 25.3596C69.2748 25.3596 68.0466 25.3596 66.8183 25.3596C66.3888 25.3074 65.9517 25.361 65.5533 25.5148C65.2094 25.6922 65.1234 25.3818 64.9391 25.282C64.8577 25.1308 64.7589 24.9878 64.6444 24.8552L64.1715 24.301C64.018 24.1957 64.0118 23.9906 63.8399 23.8908C63.0968 23.0206 62.0958 22.3056 61.2852 21.4299Z" fill="#3D3D3D"/>
<path d="M27.9663 21.0137C27.9663 21.2853 27.7329 21.4516 27.6346 21.6733C27.8953 21.8284 28.2101 21.8916 28.519 21.8507H33.481C33.9478 21.8507 34.482 21.7842 34.0951 22.4659L34.2855 22.549L31.3193 26.0021C29.3112 25.6363 27.2785 25.8247 25.258 25.8358C25.1955 25.8336 25.1351 25.8152 25.0839 25.7827C25.0327 25.7503 24.9929 25.7052 24.9694 25.6529C24.9477 25.586 24.9477 25.5148 24.9694 25.4479C25.164 25.213 25.2772 24.9314 25.2949 24.6386C25.6449 23.2918 26.5599 22.2276 27.432 21.1468C27.5671 21.0026 27.7329 20.8641 27.9663 21.0137Z" fill="#3D3D3D"/>
<path d="M73.8819 32.1845V33.4537C72.3282 32.5115 70.6946 33.0768 69.1348 32.9327C68.5207 32.8773 68.318 33.1932 68.3303 33.7032C68.3616 34.4137 68.3102 35.1252 68.1768 35.826V33.5147C68.1768 33.2431 68.2382 32.9604 67.882 32.7886L67.839 32.2344C67.6978 32.0071 67.7715 31.7189 67.5934 31.5027C67.6363 30.8709 67.2065 30.3332 67.1451 29.718C67.3539 29.4409 66.9915 29.3411 66.9301 29.1637C66.8687 28.9864 66.9608 28.9587 67.0468 28.8755C67.1657 28.7853 67.3152 28.7345 67.4705 28.7314C69.3497 28.7314 71.2289 28.5596 73.102 28.8423C73.1905 28.8406 73.2771 28.866 73.3476 28.9143C73.8451 29.9674 74.3056 31.0427 73.8819 32.1845Z" fill="#3D3D3D"/>
<path d="M96.7112 24.4733L96.7481 16.8633H96.8279C96.8645 17.0186 96.8891 17.176 96.9016 17.3344C96.9016 21.4803 96.9016 25.628 96.9016 29.7776C96.9016 29.894 96.9016 30.0049 96.8647 30.1213C96.9545 30.362 96.9777 30.6189 96.9323 30.8695V44.6818C96.9323 45.9788 96.9323 47.2813 96.9323 48.5617C96.9323 50.557 96.9323 52.5524 96.9323 54.5477C96.9685 54.7528 96.9452 54.9628 96.8647 55.1574C96.9814 55.7117 96.7051 56.205 96.6928 56.7371C96.2445 56.8701 96.2506 56.5431 96.2015 56.3158C96.1659 55.9729 96.1887 55.6271 96.269 55.2904C96.3673 54.459 96.1278 54.1819 95.1821 54.1819C94.2363 54.1819 93.1493 54.1819 92.1115 54.1819C91.7676 54.1819 91.393 54.2318 91.1166 53.9602C91.0675 52.8184 91.0736 51.6822 91.1166 50.5404C91.2274 50.4456 91.361 50.3752 91.507 50.3349C91.653 50.2945 91.8073 50.2851 91.9579 50.3076C93.0265 50.3076 94.0951 50.3076 95.1636 50.3076C96.2322 50.3076 96.6068 50.7011 96.6129 51.6711C96.6129 52.2253 96.6129 52.7242 96.6129 53.0734C96.6718 52.2546 96.6244 51.4324 96.4717 50.6235C96.4717 49.5704 96.4717 48.5118 96.4717 47.4587C96.4717 46.073 96.4717 44.6873 96.4717 43.3072C96.5147 41.6444 96.4717 39.9816 96.4717 38.3189C96.4717 37.299 96.4717 36.2736 96.4717 35.2482C96.4717 33.724 96.4717 32.1998 96.4717 30.6755C96.4717 28.9684 96.4717 27.2668 96.4717 25.5652C96.393 25.187 96.4788 24.796 96.7112 24.4733Z" fill="#3D3D3D"/>
<path d="M73.1158 28.8863C73.0114 29.3076 72.8272 28.8863 72.6921 28.8863L67.2572 28.9196C67.1582 28.9378 67.0643 28.9736 66.9808 29.0249C66.8764 29.0249 66.858 28.9307 66.8027 28.8808L66.6369 28.4817C66.574 28.2783 66.4832 28.0828 66.3667 27.8997C66.0354 26.973 65.5665 26.0911 64.9727 25.2781C65.1385 25.206 65.2306 25.5663 65.5192 25.2781C65.8079 24.9898 66.4343 25.1672 66.9071 25.1617C68.209 25.1617 69.511 25.1617 70.8129 25.1617C71.1507 25.1617 71.427 25.1617 71.427 24.7404C71.6542 24.7016 71.7402 24.8568 71.8139 24.9899C72.2435 25.6298 72.5741 26.3198 72.7965 27.0406C72.8004 27.304 72.8855 27.5611 73.0421 27.7833C73.0904 27.8745 73.1236 27.9716 73.1404 28.0716C73.1281 28.3487 73.3431 28.6203 73.1158 28.8863Z" fill="#3D3D3D"/>
<path d="M25.051 25.7259C26.5801 25.4321 28.1215 25.6649 29.6691 25.5873C29.9603 25.5352 30.2611 25.5456 30.547 25.6178C30.8329 25.6901 31.096 25.822 31.3149 26.003C30.7008 27.3277 30.0867 28.6524 29.62 30.0215C29.5831 30.088 29.5463 30.088 29.4972 30.0215C29.4183 29.7351 29.2192 29.4876 28.9418 29.3314C28.6644 29.1752 28.3306 29.1226 28.011 29.1845C26.7275 29.251 25.4256 29.0404 24.1482 29.3231C24.0024 29.3627 23.859 29.409 23.7183 29.4616C23.4972 29.1346 23.878 28.8242 23.8043 28.4861C23.7528 28.4366 23.7166 28.3757 23.6994 28.3095C23.6821 28.2434 23.6844 28.1743 23.706 28.1092C23.8448 27.8823 23.9265 27.6307 23.9455 27.3721C24.0213 26.9746 24.191 26.5966 24.443 26.2635C24.6149 26.0585 24.7132 25.7869 25.051 25.7259Z" fill="#3D3D3D"/>
<path d="M6.0077 16.3046L5.85418 16.4542C5.65152 16.9531 5.93401 17.4963 5.69451 17.9951C5.43658 17.9618 5.38131 17.7734 5.35674 17.596C5.28919 17.1027 4.94528 16.9531 4.46013 16.942C3.39157 16.942 2.32915 16.942 1.26059 16.942C0.781579 16.942 0.566639 17.1249 0.566639 17.5572C0.566639 18.2667 0.566639 18.9761 0.566639 19.6856C0.566639 20.7332 0.566639 21.7696 0.566639 22.8116C0.611733 23.5251 0.591192 24.2407 0.505227 24.9511C0.439609 25.1736 0.404547 25.4026 0.400827 25.6329C0.400827 28.9584 0.400827 32.284 0.400827 35.6096C0.357839 39.2955 0.400827 42.9813 0.400827 46.6672C0.400827 47.7757 0.400827 48.8842 0.400827 49.9928C0.400827 50.2644 0.517509 50.6191 0.0507812 50.7244C0.0507812 50.5193 0.0507812 50.3087 0.0507812 50.1036V16.3877C0.0507812 16.2713 0.0507812 16.1605 0.0507812 16.0441C0.222939 15.5801 0.301966 15.0921 0.284145 14.603C0.284145 14.3924 0.284145 14.1928 0.529792 14.0764C0.844398 13.9296 1.19515 13.8571 1.54922 13.8658C2.90847 13.8658 4.26362 13.8658 5.61467 13.8658C5.81907 13.8418 6.02684 13.8597 6.22249 13.9183C6.41814 13.9768 6.59663 14.0744 6.74464 14.2039C6.80315 14.2566 6.84176 14.3246 6.85499 14.3982C6.86822 14.4719 6.8554 14.5474 6.81834 14.6141C6.60954 14.8469 6.14895 14.9799 6.43759 15.4122C6.45179 15.5813 6.42006 15.751 6.34514 15.9065C6.27023 16.062 6.1544 16.1986 6.0077 16.3046Z" fill="#3D3D3D"/>
<path d="M43.9275 42.7649C44.1793 42.3658 43.7003 42.3714 43.5407 42.2661C43.1695 42.0763 42.8163 41.8594 42.4844 41.6176C42.5803 41.5218 42.7016 41.4496 42.837 41.4079C42.9724 41.3662 43.1174 41.3563 43.2582 41.3793C46.6542 41.3793 50.0134 41.3793 53.4402 41.3793C53.9253 41.3793 54.1341 41.6841 54.4903 41.8116C53.7781 42.5234 52.838 43.0174 51.8005 43.225C51.5364 43.4744 51.0943 43.3635 50.8241 43.6129C49.7918 43.8613 48.7195 43.9457 47.6552 43.8624C46.7246 43.8528 45.8126 43.6256 45.0084 43.2028C44.9286 43.031 44.8119 43.103 44.6952 43.164C44.4105 43.0822 44.1487 42.9461 43.9275 42.7649Z" fill="#3D3D3D"/>
<path d="M22.9213 35.0115C23.0502 34.424 23.474 34.291 24.0819 34.3076C25.4576 34.3519 26.8332 34.3076 28.1965 34.3907C28.7369 34.424 28.4606 33.9362 28.7676 33.9141C28.7705 33.9473 28.7705 33.9806 28.7676 34.0138V35.9815C28.5711 36.6244 28.7676 37.2895 28.6448 37.9325C28.393 38.1154 28.1105 38.0322 27.8403 38.0156C26.6981 37.9602 25.5558 38.0156 24.4074 38.0156C24.2742 37.9961 24.1379 38.0014 24.007 38.0312C23.8762 38.0611 23.7534 38.1148 23.6464 38.189C23.5394 38.2633 23.4504 38.3565 23.3848 38.463C23.3192 38.5695 23.2785 38.687 23.2652 38.8082C23.2283 38.9911 23.3082 39.3625 22.8291 39.2239C22.8291 37.9657 22.8291 36.7076 22.8291 35.4494C22.823 35.3108 22.7739 35.1445 22.9213 35.0115Z" fill="#3D3D3D"/>
<path d="M56.0394 40.3835C55.9965 40.256 55.8921 40.123 55.9105 39.9955C55.9596 39.5077 55.6771 39.4412 55.2165 39.4412C53.3742 39.4412 51.5318 39.4412 49.6404 39.4412C48.2525 39.4412 48.2525 39.4412 48.2218 38.2052C48.2218 37.845 48.2218 37.845 47.9024 37.7951C47.3436 37.6565 47.0979 37.141 46.6128 36.9138C46.5022 36.8029 46.3057 36.7364 46.3794 36.5313C46.5946 36.5154 46.8108 36.5474 47.0089 36.6248C47.2071 36.7021 47.3811 36.8223 47.5155 36.9748C47.6914 37.1221 47.9003 37.2335 48.1282 37.3014C48.356 37.3693 48.5974 37.3921 48.8359 37.3683C50.9791 37.3683 53.1347 37.3683 55.2657 37.3683C56.1377 37.3683 57.151 37.0912 57.544 38.1886C57.215 39.0058 56.7028 39.753 56.0394 40.3835Z" fill="#3D3D3D"/>
<path d="M91.1965 53.9844H95.3234C96.3612 53.9844 96.7543 54.3945 96.5516 55.3312C96.4666 55.6957 96.4254 56.0673 96.4288 56.4398C96.4219 56.4794 96.4242 56.5198 96.4356 56.5586C96.4469 56.5973 96.4671 56.6335 96.4949 56.6648C96.5226 56.6961 96.5573 56.7218 96.5967 56.7403C96.636 56.7588 96.6793 56.7697 96.7236 56.7723C96.7321 57.1963 96.6355 57.6167 96.4411 58.0028C96.4364 57.9251 96.4147 57.849 96.3771 57.779C96.3396 57.7089 96.287 57.6463 96.2225 57.5947C96.1579 57.5432 96.0827 57.5037 96.0011 57.4786C95.9195 57.4535 95.8331 57.4433 95.7471 57.4485C94.1197 57.504 92.4862 57.31 90.8342 57.5649C90.4964 57.6148 90.2692 57.8975 89.9069 57.8365C89.7104 57.443 90.085 57.2823 90.2876 57.0162C90.3791 56.9529 90.447 56.8659 90.4821 56.7669C90.5172 56.6678 90.518 56.5614 90.4842 56.4619C90.4824 56.1551 90.59 55.8558 90.7912 55.6084C90.9189 55.4871 91.0145 55.3413 91.0708 55.182C91.1272 55.0227 91.1429 54.8539 91.1167 54.6883C91.0727 54.4514 91.1003 54.2083 91.1965 53.9844Z" fill="#3D3D3D"/>
<path d="M5.70177 52.6047C5.70177 53.4305 5.70177 54.2675 5.70177 55.0878C5.70177 55.4481 5.70177 55.6421 5.1245 55.5811C3.65677 55.4758 2.17675 55.5368 0.702871 55.509C0.408095 55.509 0.297555 55.7917 0.0273438 55.7917V55.6531C0.297555 54.8218 0.125602 53.9904 0.174731 53.1312C0.174731 52.843 0.0887553 52.5326 0.322119 52.2721C0.618579 52.133 0.954327 52.0771 1.28628 52.1114C2.39783 52.1114 3.51552 52.1114 4.62707 52.1114C5.07537 52.1114 5.52368 52.1779 5.70177 52.6047Z" fill="#3D3D3D"/>
<path d="M6.75396 14.3739C6.38456 14.1715 5.95755 14.0713 5.52573 14.0857C4.2975 14.1134 3.06927 14.0857 1.79191 14.0857C1.36283 14.0732 0.93415 14.1199 0.520689 14.2242C0.464518 14.1658 0.433594 14.091 0.433594 14.0136C0.433594 13.9362 0.464518 13.8615 0.520689 13.803C0.701479 12.9777 1.12582 12.2117 1.74892 11.5859L1.66909 11.9684C4.12555 11.7578 6.58201 11.9684 9.07532 11.852C9.80612 11.8243 9.27798 12.2788 9.46836 12.4395C9.47907 12.4844 9.47553 12.5311 9.45815 12.5742C9.44077 12.6174 9.41025 12.6552 9.3701 12.6834C8.51237 13.1397 7.72731 13.6991 7.03646 14.3462C6.99628 14.3729 6.94897 14.3896 6.89935 14.3944C6.84973 14.3993 6.79957 14.3922 6.75396 14.3739Z" fill="#3D3D3D"/>
<path d="M44.8677 59.8156V64.6267C44.8677 64.7874 44.8677 64.9537 45.015 65.0701H86.4064H87.5548C87.4046 65.1787 87.2307 65.2576 87.0445 65.3015C86.8583 65.3455 86.6639 65.3535 86.474 65.325C85.0185 65.325 83.5631 65.325 82.1076 65.325H45.6906C45.359 65.325 45.0273 65.325 44.6957 65.325C44.5989 65.2197 44.5275 65.0972 44.4863 64.9655C44.445 64.8337 44.4348 64.6957 44.4562 64.5601C44.4562 63.0304 44.4562 61.5062 44.493 59.9764C44.5122 59.8903 44.5475 59.8078 44.5974 59.7325C44.7571 59.5884 44.8247 59.6383 44.8677 59.8156Z" fill="#3D3D3D"/>
<path d="M44.6935 59.8108C44.6935 61.6454 44.6935 63.4856 44.6935 65.3202H43.1582C42.194 65.2093 41.2299 65.3202 40.2657 65.2703C39.7848 65.3064 39.3016 65.234 38.8594 65.0597V64.2338C38.874 64.2147 38.8863 64.1943 38.8962 64.1729C39.0375 63.0643 39.0375 63.0643 40.3578 63.0643C41.2729 63.0643 42.2002 63.0643 43.1029 63.0643C44.0057 63.0643 44.1346 62.8648 44.1408 62.111C44.2217 61.5186 44.201 60.9185 44.0794 60.3318C44.0342 60.2229 44.0229 60.1049 44.0467 59.9905C44.0705 59.8762 44.1285 59.77 44.2145 59.6833C44.4356 59.5614 44.5584 59.7055 44.6935 59.8108Z" fill="#3D3D3D"/>
<path d="M22.5784 59.6374C22.6991 59.8688 22.7459 60.1261 22.7135 60.3802C22.7135 62.0097 22.7135 63.6429 22.7135 65.2798C22.5931 65.3108 22.4697 65.3313 22.345 65.3408H10.032C9.92146 65.2521 9.64511 65.3408 9.68809 65.0914H22.2836C22.5293 65.1856 22.5907 65.0914 22.5907 64.8752C22.5907 63.3787 22.5907 61.8822 22.5907 60.3857C22.5907 59.8314 22.1669 59.8314 21.7432 59.8314H10.5847C10.509 59.8405 10.4319 59.8348 10.3588 59.8147C10.2857 59.7947 10.2183 59.7607 10.161 59.715C10.4312 59.4324 10.8058 59.4712 11.1558 59.4712C14.6501 59.4712 18.1445 59.4712 21.6326 59.4712C21.9598 59.4198 22.2965 59.479 22.5784 59.6374Z" fill="#3D3D3D"/>
<path d="M55.755 32.3764C56.1343 32.4915 56.5348 32.5385 56.9341 32.5149C57.2964 32.4761 57.6035 32.5149 57.6588 32.9971C57.8675 32.5648 57.6158 32.2544 57.6096 31.9219C57.9105 32.0882 57.8491 32.3819 57.929 32.6313C58.2957 33.7071 58.3943 34.8427 58.2176 35.9569C58.2176 36.1343 58.1255 36.3117 58.1193 36.5112C58.1127 36.5302 58.1012 36.5476 58.0857 36.5618C58.0703 36.5761 58.0514 36.5869 58.0305 36.5934C58.0096 36.5999 57.9873 36.6018 57.9654 36.5991C57.9435 36.5964 57.9226 36.589 57.9044 36.5777C57.7535 36.3576 57.6927 36.0968 57.7324 35.8405C57.7346 35.4125 57.7059 34.9848 57.6465 34.5602C57.6465 34.2165 57.3701 34.078 57.0324 34.0946C56.5679 34.1078 56.1161 33.9566 55.7734 33.6734C55.6899 33.5874 55.6262 33.4872 55.5861 33.3787C55.5461 33.2702 55.5304 33.1555 55.5401 33.0415C55.522 32.9232 55.5318 32.8028 55.5688 32.6882C55.6059 32.5736 55.6693 32.4673 55.755 32.3764Z" fill="#3D3D3D"/>
<path d="M96.9062 44.7048C96.9062 39.8384 96.9062 34.9719 96.9062 30.1055C97.0464 30.2108 96.9855 30.3604 96.9855 30.4879C96.9855 35.0661 96.9855 39.6462 96.9855 44.2281C96.9742 44.3879 96.9539 44.547 96.9245 44.7048H96.9062Z" fill="#3D3D3D"/>
<path d="M0.337744 52.3217C0.337744 53.1531 0.337744 53.9845 0.337744 54.8104C0.349795 55.1118 0.245611 55.4076 0.0429688 55.6473V50.659C0.350027 50.1878 0.15351 49.6779 0.178074 49.1846C0.214921 48.3366 0.178074 47.4886 0.178074 46.6405C0.199314 46.6301 0.222676 46.6238 0.246738 46.6218C0.2708 46.6198 0.29506 46.6222 0.31804 46.629C0.34102 46.6357 0.36224 46.6466 0.380408 46.661C0.398576 46.6754 0.413313 46.6929 0.423721 46.7126C0.712355 47.6105 0.515838 48.5306 0.552685 49.4396C0.614096 50.1435 0.577249 50.8474 0.577249 51.5513C0.606476 51.8261 0.521073 52.1008 0.337744 52.3217Z" fill="#3D3D3D"/>
<path d="M46.2266 17.2595C46.7977 16.877 50.0525 16.877 50.5254 17.2595H46.2266Z" fill="#3D3D3D"/>
<path d="M96.8867 55.1778C96.8867 52.9607 96.8867 50.7825 96.8867 48.582C97.0177 50.779 97.0177 52.9808 96.8867 55.1778Z" fill="#3D3D3D"/>
<path d="M58.0305 36.5361C58.2944 35.2503 58.2588 33.929 57.9261 32.6562C58.4665 32.95 58.2393 33.4932 58.3191 33.8923C58.4689 34.9331 58.4127 35.9897 58.1533 37.0128C58.1533 37.107 57.9936 37.179 57.9077 37.2566C57.6313 36.9573 57.8892 36.7578 58.0305 36.5361Z" fill="#3D3D3D"/>
<path d="M38.8602 65.0625C40.1454 65.2045 41.4413 65.2527 42.7352 65.2066C42.811 65.1975 42.888 65.2032 42.9611 65.2233C43.0342 65.2434 43.1017 65.2774 43.159 65.323C41.8202 65.323 40.4814 65.323 39.1427 65.323C38.9584 65.323 38.6329 65.4339 38.7005 65.0625H38.8602Z" fill="#3D3D3D"/>
<path d="M4.58984 63.1992C5.41573 63.362 6.14229 63.8018 6.62257 64.4297C5.82069 64.2184 5.11074 63.7886 4.58984 63.1992Z" fill="#3D3D3D"/>
<path d="M96.9062 48.5869V44.707C97.0162 45.9984 97.0162 47.2955 96.9062 48.5869Z" fill="#3D3D3D"/>
<path d="M54.6562 41.6476C54.7536 41.3904 54.9149 41.1568 55.1278 40.9647C55.3407 40.7725 55.5995 40.6269 55.8845 40.5391C55.6422 41.0337 55.2042 41.4289 54.6562 41.6476Z" fill="#3D3D3D"/>
<path d="M90.457 64.2453C90.488 64.1361 90.544 64.034 90.6214 63.9456C90.6989 63.8573 90.7961 63.7846 90.9067 63.7323C91.0173 63.68 91.1389 63.6494 91.2635 63.6422C91.3881 63.6351 91.513 63.6517 91.63 63.691C91.3317 64.004 90.912 64.2023 90.457 64.2453Z" fill="#3D3D3D"/>
<path d="M52.5289 52.2031C51.8166 52.6465 50.9875 52.5357 50.1953 52.5856C50.9573 52.3889 51.739 52.2608 52.5289 52.2031Z" fill="#3D3D3D"/>
<path d="M58.0285 36.5391L57.9057 37.2374C57.8443 37.4093 57.9057 37.6476 57.6109 37.6919C57.6109 37.2873 57.4881 36.8605 57.8996 36.5391H58.0285Z" fill="#3D3D3D"/>
<path d="M35.4755 0.359375C35.1007 0.709363 34.6202 0.952216 34.0938 1.05775C34.2567 0.860202 34.464 0.695897 34.7021 0.575559C34.9402 0.455222 35.2037 0.381557 35.4755 0.359375Z" fill="#3D3D3D"/>
<path d="M6.17908 7.85547C6.04882 8.03052 5.8813 8.18044 5.68626 8.29653C5.49121 8.41262 5.27255 8.49255 5.04297 8.53167C5.15938 8.34574 5.32311 8.18745 5.52065 8.06988C5.71819 7.9523 5.94387 7.87881 6.17908 7.85547Z" fill="#3D3D3D"/>
<path d="M0.325484 14.6388C0.294778 15.1155 0.497436 15.6365 0.0307082 16.0411C-0.098256 15.5533 0.221084 15.1155 0.214943 14.6443C0.25179 14.5778 0.288637 14.5778 0.325484 14.6388Z" fill="#3D3D3D"/>
<path d="M29.504 30.0273H29.6269C29.5946 30.4793 29.4498 30.9188 29.2031 31.3132C29.2062 30.8707 29.3085 30.4332 29.504 30.0273Z" fill="#3D3D3D"/>
<path d="M9.68798 65.0736L10.0319 65.323C9.54252 65.3423 9.05538 65.2529 8.61328 65.0625L9.68798 65.0736Z" fill="#3D3D3D"/>
<path d="M54.2109 17.9688C54.6562 17.9888 55.0843 18.1298 55.4392 18.3734C55.0031 18.2902 54.5241 18.3457 54.2109 17.9688Z" fill="#3D3D3D"/>
<path d="M64.1337 2.5853C63.9341 2.53216 63.7585 2.42283 63.6325 2.27327C63.5066 2.12371 63.4369 1.94174 63.4336 1.75391C63.7289 1.98369 63.9675 2.26695 64.1337 2.5853Z" fill="#3D3D3D"/>
<path d="M0.325161 14.6355H0.21462C0.21462 14.3417 -0.0248851 13.9759 0.466407 13.793V14.2142C0.337443 14.3306 0.349725 14.4913 0.325161 14.6355Z" fill="#3D3D3D"/>
<path d="M67.5909 31.5312C68.0146 31.6864 67.855 31.9913 67.8366 32.2629C67.5479 32.08 67.5479 31.8028 67.5909 31.5312Z" fill="#3D3D3D"/>
<path d="M56.3646 29.8836C55.9286 29.8005 55.9163 29.4901 55.9102 29.1797C56.0349 29.263 56.1396 29.3684 56.2177 29.4894C56.2958 29.6104 56.3458 29.7446 56.3646 29.8836Z" fill="#3D3D3D"/>
<path d="M67.8316 37.6133C67.8316 37.8073 67.8316 38.0013 67.8316 38.1953L67.5614 38.3338C67.5429 38.0622 67.5429 37.7906 67.8316 37.6133Z" fill="#3D3D3D"/>
<path d="M50.8242 43.595C51.033 43.2237 51.4813 43.3456 51.8007 43.207C51.5857 43.5895 51.1558 43.4786 50.8242 43.595Z" fill="#3D3D3D"/>
<path d="M66.7937 28.9062L66.9718 29.0504L67.0701 29.2C67.1056 29.2237 67.1345 29.2546 67.1544 29.2902C67.1744 29.3259 67.1847 29.3652 67.1847 29.4051C67.1847 29.445 67.1744 29.4843 67.1544 29.5199C67.1345 29.5556 67.1056 29.5865 67.0701 29.6102C66.6525 29.4882 66.8183 29.1668 66.7937 28.9062Z" fill="#3D3D3D"/>
<path d="M32.4227 3.42145C32.3906 3.46727 32.3462 3.50502 32.2936 3.53119C32.241 3.55735 32.1819 3.57108 32.1218 3.5711C32.1154 3.42953 32.1521 3.28908 32.2279 3.165C32.3037 3.04091 32.4157 2.93792 32.5517 2.86719L32.4227 3.42145Z" fill="#3D3D3D"/>
<path d="M53.8764 17.7031L54.0667 17.947C53.9264 17.9863 53.7759 17.9844 53.6368 17.9416C53.4978 17.8988 53.3774 17.8172 53.293 17.7087L53.8764 17.7031Z" fill="#3D3D3D"/>
<path d="M67.0898 29.6094V29.1992C67.3846 29.3489 67.704 29.4985 67.1635 29.7535L67.0898 29.6094Z" fill="#3D3D3D"/>
<path d="M96.2292 58.7007C96.0081 58.6674 95.916 58.5566 96.0081 58.3626C96.1002 58.1686 96.1555 58.163 96.2845 58.3071L96.2292 58.7007Z" fill="#3D3D3D"/>
<path d="M44.707 43.1428C44.707 42.9821 44.8299 42.8879 45.0202 42.9267C45.1123 42.9267 45.2229 42.9876 45.2045 43.0985C45.186 43.2094 45.0816 43.1539 45.0202 43.1816L44.707 43.1428Z" fill="#3D3D3D"/>
<path d="M11.5394 1.50881C11.4603 1.59163 11.3607 1.6564 11.2486 1.69782C11.1366 1.73924 11.0152 1.75614 10.8945 1.74715C10.9989 1.42567 11.2691 1.47556 11.5394 1.50881Z" fill="#3D3D3D"/>
<path d="M63.4323 46.2383C63.4132 46.3605 63.359 46.476 63.2749 46.5732C63.1908 46.6705 63.0799 46.7462 62.9532 46.7926C62.9471 46.4877 63.1805 46.3602 63.4323 46.2383Z" fill="#3D3D3D"/>
<path d="M57.5838 31.6871C57.1908 31.6427 57.3136 31.3656 57.2891 31.1328C57.3769 31.2026 57.4483 31.2877 57.4989 31.3829C57.5495 31.4781 57.5784 31.5816 57.5838 31.6871Z" fill="#3D3D3D"/>
<path d="M60.793 21.0664C61.0386 21.1218 61.2843 21.1717 61.2904 21.4655C61.0202 21.3768 60.793 21.2881 60.793 21.0664Z" fill="#3D3D3D"/>
<path d="M8.04487 7.21233C7.97118 7.47838 7.76238 7.46729 7.53516 7.42849C7.59657 7.14027 7.81151 7.1569 8.04487 7.21233Z" fill="#3D3D3D"/>
<path d="M96.2277 13.3955C95.8285 13.3068 95.9943 13.0186 95.9759 12.7969C96.1171 12.9742 96.2891 13.1461 96.2277 13.3955Z" fill="#3D3D3D"/>
<path d="M2.93826 10.043C2.94505 10.0998 2.93878 10.1573 2.91986 10.2118C2.90093 10.2663 2.86974 10.3168 2.82825 10.36C2.78675 10.4031 2.73584 10.4381 2.67869 10.4627C2.62154 10.4873 2.55938 10.5011 2.49609 10.503C2.59435 10.3146 2.63734 10.0762 2.93826 10.043Z" fill="#3D3D3D"/>
<path d="M96.8376 16.8536H96.7578V16C96.8505 16.1244 96.9064 16.2681 96.9204 16.4174C96.9343 16.5668 96.9059 16.7169 96.8376 16.8536Z" fill="#3D3D3D"/>
<path d="M2.01031 11.168C2.01031 11.373 2.01031 11.5837 1.70325 11.5892C1.70097 11.4992 1.72913 11.4106 1.78398 11.3354C1.83884 11.2601 1.91778 11.2017 2.01031 11.168Z" fill="#3D3D3D"/>
<path d="M64.6576 24.8867C64.9524 24.92 64.9831 25.0973 64.9524 25.3135C64.7988 25.2026 64.59 25.1195 64.6576 24.8867Z" fill="#3D3D3D"/>
<path d="M62.2229 47.3516C62.2109 47.4616 62.1574 47.5647 62.0714 47.6434C61.9853 47.7221 61.8718 47.7717 61.75 47.7839C61.7736 47.6781 61.831 47.5808 61.915 47.5041C61.999 47.4273 62.106 47.3743 62.2229 47.3516Z" fill="#3D3D3D"/>
<path d="M66.654 6.74256C66.5539 6.71442 66.4684 6.65467 66.4131 6.57425C66.3579 6.49383 66.3366 6.39813 66.3531 6.30469C66.6356 6.34903 66.6418 6.54856 66.654 6.74256Z" fill="#3D3D3D"/>
<path d="M31.1896 5.08203C31.1896 5.26494 31.1896 5.46447 30.9255 5.49773C30.8703 5.28711 31.0238 5.1818 31.1896 5.08203Z" fill="#3D3D3D"/>
<path d="M37.4922 20.2111C37.5843 20.0282 37.7071 19.8896 37.9589 19.9284C37.9159 20.1723 37.7194 20.2111 37.4922 20.2111Z" fill="#3D3D3D"/>
<path d="M63.8672 23.9453C63.9678 23.9663 64.0568 24.0193 64.1177 24.0946C64.1786 24.17 64.2074 24.2625 64.1988 24.3555C63.9102 24.3278 63.8672 24.1559 63.8672 23.9453Z" fill="#3D3D3D"/>
<path d="M65.4144 4.54434C65.314 4.51186 65.2294 4.44853 65.1755 4.36543C65.1216 4.28234 65.1019 4.18478 65.1196 4.08984C65.4021 4.14527 65.4328 4.32818 65.4144 4.54434Z" fill="#3D3D3D"/>
<path d="M32.8747 2.46484C32.8747 2.65329 32.8747 2.85283 32.5799 2.85837C32.5431 2.64775 32.6904 2.54244 32.8747 2.46484Z" fill="#3D3D3D"/>
<path d="M66.356 27.9219C66.4612 27.9826 66.5435 28.0708 66.5918 28.1748C66.6401 28.2788 66.6521 28.3936 66.6262 28.5039C66.5255 28.4392 66.4469 28.3504 66.3992 28.2476C66.3515 28.1448 66.3365 28.032 66.356 27.9219Z" fill="#3D3D3D"/>
<path d="M40.8587 12.7558C42.1976 12.32 43.6008 12.066 45.0224 12.002C48.3972 11.6515 51.813 11.8088 55.1307 12.4676C55.3954 12.5364 55.6524 12.6274 55.8984 12.7392C56.2423 13.0274 56.7397 12.9498 57.1266 13.1494C57.3415 13.3544 57.6854 13.2547 57.9188 13.4154C57.9362 13.4028 57.9579 13.396 57.9802 13.396C58.0025 13.396 58.0242 13.4028 58.0416 13.4154C58.6557 13.7147 59.2699 13.9697 59.9392 14.2136C59.9485 14.21 59.9584 14.2082 59.9685 14.2082C59.9785 14.2083 59.9884 14.2102 59.9977 14.2138C60.0069 14.2174 60.0151 14.2227 60.022 14.2294C60.0288 14.236 60.0341 14.2438 60.0375 14.2524C60.1827 14.3579 60.3468 14.4404 60.5227 14.4962C60.6271 14.9396 60.2524 14.7955 60.0498 14.79C52.7418 14.4796 45.4338 14.7401 38.132 14.6625C37.7021 14.6625 37.2722 14.7623 36.8485 14.79C36.609 14.79 36.3081 14.8731 36.2344 14.5295C36.3633 14.4242 36.5476 14.3909 36.6827 14.2856L36.8424 14.2524C37.1633 14.1556 37.4688 14.0214 37.7512 13.8533C37.7575 13.8437 37.7659 13.8353 37.7759 13.8287C37.7858 13.822 37.7972 13.8173 37.8092 13.8147C37.8212 13.8121 37.8337 13.8118 37.8459 13.8136C37.8581 13.8155 37.8698 13.8195 37.8802 13.8256C38.1995 13.5928 38.6663 13.6648 38.9672 13.3988C39.1357 13.3417 39.2965 13.2673 39.4462 13.1771L39.7226 13.1216C40.1182 13.0477 40.5005 12.9246 40.8587 12.7558Z" fill="#3D3D3D"/>
<path d="M30.9141 17.9718C31.2679 17.466 31.7936 17.0772 32.4125 16.8633C32.0368 17.3513 31.518 17.7351 30.9141 17.9718Z" fill="#3D3D3D"/>
<path d="M32.4141 16.849C32.7851 16.4663 33.2527 16.1697 33.7774 15.9844C33.6342 16.2098 33.4379 16.4042 33.2023 16.5536C32.9667 16.703 32.6976 16.8038 32.4141 16.849Z" fill="#3D3D3D"/>
<path d="M54.9519 57.4281C53.3624 57.7173 51.7543 57.9153 50.1372 58.0212C48.9509 58.1774 47.7448 58.1643 46.563 57.9824C44.7207 57.672 44.6839 57.6665 44.7207 59.3126C44.7207 59.4512 44.7207 59.5898 44.7637 59.7283C44.7447 59.7582 44.722 59.7861 44.6961 59.8115C44.6354 59.8141 44.575 59.8021 44.5211 59.7768C44.4671 59.7515 44.4216 59.7137 44.3891 59.6674C44.1002 59.4364 43.7247 59.3135 43.3389 59.3237C42.2458 59.3237 41.1465 59.3237 40.0534 59.3237C39.4393 59.3237 39.2366 59.5399 39.2489 60.0664C39.2489 60.8036 39.2489 61.5408 39.2489 62.2835C39.2489 62.5551 39.3288 62.9098 38.8743 63.0096C38.7576 60.5209 39.0647 58.0212 39.0156 55.5547C39.0156 55.1002 39.1814 54.9672 39.6788 54.9672C46.1147 54.9672 52.5527 54.9672 58.9928 54.9672C59.2507 54.9672 59.5516 54.934 59.7174 55.1169C60.0183 55.4439 60.3315 55.3164 60.6816 55.2499C59.6314 55.9815 58.3602 56.2974 57.1688 56.763C56.7574 56.9238 56.3213 57.0291 55.8976 57.1621C55.5967 57.3007 55.2651 57.2619 54.9519 57.4281Z" fill="#3D3D3D"/>
<path d="M38.8711 62.9931C39.2089 62.2837 38.9939 61.541 39.0062 60.8204C39.0492 59.1133 39.0062 59.1133 40.8793 59.1133C41.8496 59.1133 42.8199 59.1133 43.7902 59.1133C44.2692 59.1133 44.4534 59.2574 44.4043 59.6675C44.3213 59.7237 44.2624 59.8042 44.2378 59.8951C44.2132 59.9861 44.2243 60.082 44.2692 60.1664C44.6499 60.8869 44.3244 61.6296 44.3981 62.3557C44.4595 62.982 44.0972 63.2813 43.3971 63.2703C42.2487 63.2703 41.1065 63.2703 39.9642 63.2703C39.3501 63.2703 38.8895 63.2703 39.0185 64.0185C39.0185 64.085 38.9264 64.1737 38.8834 64.2513L38.8711 62.9931Z" fill="#3D3D3D"/>
<path d="M65.4586 52.2266C65.4335 52.3259 65.3764 52.4163 65.2944 52.4864C65.2124 52.5564 65.1093 52.603 64.998 52.6201L64.4883 52.7476C64.5816 52.5889 64.7215 52.4564 64.8926 52.3645C65.0637 52.2726 65.2595 52.2249 65.4586 52.2266Z" fill="#3D3D3D"/>
<path d="M36.2804 7.85938C36.2804 8.05891 36.2804 8.25844 35.9795 8.30833C35.9649 8.26098 35.9611 8.21144 35.9685 8.16274C35.9759 8.11405 35.9943 8.06723 36.0225 8.02518C36.0507 7.98312 36.0881 7.94672 36.1324 7.91821C36.1768 7.88969 36.2272 7.86967 36.2804 7.85938Z" fill="#3D3D3D"/>
<path d="M55.7424 33.1024C55.7176 33.2971 55.7698 33.4934 55.8898 33.6567C55.9483 33.7011 55.992 33.7594 56.0158 33.825C56.0397 33.8906 56.0428 33.9609 56.0249 34.028C55.9758 34.222 55.9328 34.4216 55.8652 34.5823C55.835 34.6999 55.7771 34.8102 55.6955 34.9058C55.6139 35.0014 55.5106 35.0801 55.3923 35.1366L54.6615 35.9236C54.3889 36.1946 54.0445 36.3987 53.6605 36.5167C53.0761 36.5814 52.4844 36.5683 51.9042 36.4779C51.4497 36.2894 50.7926 36.3393 50.7312 35.6797L50.068 34.8816C49.6565 34.1777 49.8899 33.4405 49.9329 32.7089C49.9402 32.6319 49.9631 32.5567 50.0004 32.4872C50.1847 32.2987 50.3075 32.0715 50.4856 31.8775C50.9934 31.3369 51.7177 30.9996 52.5001 30.9394C53.2825 30.8792 54.0596 31.1008 54.6615 31.556C54.9645 31.7133 55.2083 31.9488 55.3616 32.2322C55.6626 32.4595 55.638 32.8031 55.7424 33.1024Z" fill="white"/>
<path d="M46.6694 36.8106C47.1335 37.0772 47.548 37.4083 47.8977 37.7916C47.9407 38.5066 48.0266 39.2216 47.1423 39.6373C46.258 40.053 45.7176 39.9477 44.6858 39.1607C44.2498 38.2738 44.3174 37.8969 45.042 37.2374L45.7605 36.8217C45.8938 36.7388 46.0513 36.6934 46.2131 36.6915C46.3749 36.6895 46.5338 36.731 46.6694 36.8106Z" fill="white"/>
<path d="M55.3828 35.1273L55.7144 34.5731C55.9417 34.4234 55.7144 34.174 55.8864 34.0188V33.6641C56.443 33.8493 57.0262 33.9613 57.6182 33.9966C57.7103 33.9966 57.8515 34.2072 57.8515 34.3236C57.8515 34.8391 58.0481 35.3657 57.7472 35.8645C57.6182 35.4045 57.2006 35.4599 56.826 35.4488C56.3224 35.4155 55.7881 35.5153 55.3828 35.1273Z" fill="#3D3D3D"/>
<path d="M45.0605 37.2383C44.8333 37.509 44.6822 37.8254 44.6201 38.1604C44.5581 38.4953 44.587 38.8389 44.7043 39.1616C44.1884 38.829 44.2437 38.3801 44.3911 37.9145C44.5016 37.5986 44.5937 37.266 45.0605 37.2383Z" fill="#3D3D3D"/>
<path d="M50.065 32.6548C49.8187 33.3771 49.8187 34.1496 50.065 34.8719C49.7149 34.8109 49.7641 34.556 49.7641 34.3176C49.7641 33.8022 49.7641 33.2811 49.7641 32.7657C49.8439 32.7103 49.8869 32.5717 50.065 32.6548Z" fill="#3D3D3D"/>
<path d="M51.7548 36.3789H53.7507C53.7931 36.4182 53.8168 36.4709 53.8168 36.5258C53.8168 36.5806 53.7931 36.6333 53.7507 36.6727H53.2962C52.8907 36.6007 52.4735 36.6007 52.068 36.6727L51.7609 36.5341C51.7376 36.5141 51.7239 36.4867 51.7227 36.4576C51.7216 36.4286 51.7331 36.4003 51.7548 36.3789Z" fill="#3D3D3D"/>
<path d="M51.7584 36.3797V36.5293C51.5565 36.5181 51.3591 36.4706 51.1777 36.3897C50.9964 36.3088 50.8347 36.1961 50.7021 36.0582C50.567 35.9252 50.4995 35.7977 50.7021 35.6758C50.9171 36.0915 51.4329 36.1136 51.7584 36.3797Z" fill="#3D3D3D"/>
<path d="M53.75 36.6662C53.75 36.5665 53.75 36.4722 53.75 36.3725C54.0085 36.1578 54.3201 36.0019 54.6589 35.918C54.6589 36.4611 54.0816 36.4445 53.75 36.6662Z" fill="#3D3D3D"/>
<path d="M52.0664 36.6714C52.2504 36.5671 52.4633 36.5117 52.6805 36.5117C52.8978 36.5117 53.1107 36.5671 53.2946 36.6714C52.894 36.7795 52.4671 36.7795 52.0664 36.6714Z" fill="#3D3D3D"/>
<path d="M46.6751 36.81H45.7539C45.8522 36.5384 46.0917 36.5107 46.368 36.5162L46.6751 36.81Z" fill="#3D3D3D"/>
<path d="M54.6573 31.5569C54.0978 31.306 53.4959 31.1411 52.8763 31.0691C52.4094 31.0367 51.9414 31.1172 51.5205 31.3023C51.0995 31.4874 50.7408 31.7704 50.4813 32.1222C50.3584 32.2667 50.225 32.4037 50.0821 32.5324C50.0383 32.5277 49.9975 32.5098 49.9663 32.4817C49.9352 32.4535 49.9154 32.4167 49.9102 32.3772C50.2601 31.7247 50.8656 31.2123 51.6096 30.939C52.3535 30.6657 53.1834 30.6508 53.9388 30.8973C54.1089 30.9463 54.2632 31.032 54.3884 31.1469C54.5136 31.2618 54.6059 31.4025 54.6573 31.5569Z" fill="#3D3D3D"/>
<path d="M55.3072 32.2325C55.0861 32.0108 54.7729 31.8612 54.6562 31.5508C54.8528 31.5688 55.0371 31.6458 55.1795 31.7693C55.322 31.8929 55.4145 32.056 55.4423 32.2325C55.3993 32.2935 55.3563 32.2935 55.3072 32.2325Z" fill="#3D3D3D"/>
<path d="M55.3125 32.2305H55.4476L55.7547 32.3746V33.1007C55.6011 32.8124 55.4537 32.5242 55.3125 32.2305Z" fill="#3D3D3D"/>
<path d="M49.9165 32.3711L50.0884 32.5263C50.1003 32.5448 50.1065 32.5659 50.1065 32.5873C50.1065 32.6087 50.1003 32.6297 50.0884 32.6482L49.7813 32.7923C49.7445 32.6371 49.7445 32.4709 49.9165 32.3711Z" fill="#3D3D3D"/>
<path d="M45.5156 59.737C46.554 59.6658 47.597 59.6658 48.6353 59.737C47.5991 59.8467 46.5519 59.8467 45.5156 59.737Z" fill="#3D3D3D"/>
<path d="M86.0352 59.7335L86.6001 59.6836C86.465 60.1381 86.2317 59.7834 86.0352 59.7335Z" fill="#3D3D3D"/>
<path d="M22.9023 58.9703V55.229C23.148 53.6826 23.2033 53.6383 25.0272 53.6383C25.8931 53.6383 26.759 53.6383 27.6249 53.6383C27.9581 53.601 28.2949 53.676 28.5706 53.8489V58.0059C28.0056 58.2276 27.4222 58.0059 26.845 58.0613C26.0896 58.1001 25.322 58.0613 24.5605 58.0613C23.9463 58.0613 23.4059 58.1666 23.1848 58.7874C23.1715 58.8442 23.1351 58.8944 23.0829 58.9283C23.0306 58.9621 22.9662 58.9771 22.9023 58.9703Z" fill="#3D3D3D"/>
<path d="M22.9138 45.8065V42.481C22.8829 42.4021 22.8829 42.316 22.9138 42.2371C23.0489 41.4001 23.3867 41.0787 24.2649 41.051C25.4562 41.0066 26.6476 41.051 27.8329 41.051C28.1645 41.051 28.5023 41.0898 28.6619 41.4223C28.6619 42.5918 28.6619 43.7558 28.6619 44.9253C28.4777 45.1581 28.2013 45.0638 27.9618 45.0638C26.8196 45.0638 25.6773 45.0638 24.5351 45.0638C23.921 45.0638 23.4112 45.1026 23.184 45.7068C23.1591 45.7494 23.1184 45.7828 23.069 45.801C23.0196 45.8193 22.9647 45.8212 22.9138 45.8065Z" fill="#3D3D3D"/>
<path d="M22.9141 51.9001V48.5745C23.0068 48.4357 23.0557 48.2766 23.0553 48.1145C23.0469 48.0152 23.0611 47.9155 23.0969 47.8213C23.1327 47.7272 23.1894 47.6406 23.2636 47.5669C23.3377 47.4933 23.4278 47.434 23.5282 47.3928C23.6286 47.3517 23.7373 47.3294 23.8475 47.3274C25.2449 47.2138 26.6507 47.2138 28.0481 47.3274C28.1642 47.3338 28.2771 47.3641 28.3783 47.4159C28.4794 47.4678 28.566 47.5399 28.6315 47.6267C28.6806 48.7352 28.6622 49.805 28.6315 50.8969C28.392 51.174 28.0174 51.1297 27.7226 51.1352C26.8635 51.1796 26.0024 51.1796 25.1433 51.1352C24.7301 51.0764 24.307 51.116 23.916 51.2502C23.525 51.3844 23.1796 51.6084 22.9141 51.9001Z" fill="#3D3D3D"/>
<path d="M22.909 58.9762C23.3451 57.8677 23.3451 57.8677 24.7514 57.8677C26.0226 57.8677 27.3 57.7181 28.5651 58.0007V60.0072C28.5651 60.8774 28.3992 61.0326 27.3982 61.0436C26.3972 61.0547 25.255 61.0436 24.1803 61.0436C23.3328 61.0436 23.0626 61.2764 23.0442 62.0635C23.0573 62.8234 23.006 63.5831 22.8906 64.336L22.909 58.9762Z" fill="#3D3D3D"/>
<path d="M22.9141 51.9004C23.0983 51.1022 23.6387 50.875 24.5169 50.9193C25.868 50.9859 27.2252 50.9193 28.5824 50.9193C28.702 51.4683 28.702 52.0331 28.5824 52.5821V53.8292H24.6213C23.3132 53.8292 23.2273 53.9013 23.0369 55.0375C23.0369 55.0985 22.9571 55.1539 22.9141 55.2093V51.9004Z" fill="#3D3D3D"/>
<path d="M28.5823 47.6073C27.09 47.3412 25.5855 47.5075 24.087 47.4798C23.5957 47.4798 23.1781 47.635 23.2027 48.2004C23.202 48.2814 23.1741 48.3603 23.1225 48.4266C23.071 48.493 22.9983 48.5436 22.9141 48.5717V45.8004C23.0246 44.9136 23.651 44.7805 24.5046 44.8249C25.567 44.8803 26.6356 44.8249 27.698 44.8249C28.002 44.7949 28.3092 44.8449 28.5823 44.969C28.664 45.3336 28.6888 45.7067 28.656 46.0775C28.6918 46.5884 28.667 47.1012 28.5823 47.6073Z" fill="#3D3D3D"/>
<path d="M28.5761 46.0919V41.3806C28.183 40.2532 28.183 39.0439 28.5761 37.9165C28.6498 37.2735 28.4164 36.6084 28.7235 35.9766V46.0863C28.6744 46.1529 28.6252 46.1529 28.5761 46.0919Z" fill="#3D3D3D"/>
<path d="M22.9182 42.3415C22.9182 42.3858 22.9182 42.4357 22.9182 42.48C22.7585 42.3636 22.7769 42.1974 22.7769 42.0366V33.5785C22.744 33.4646 22.7374 33.3458 22.7574 33.2295C22.7775 33.1132 22.8238 33.0018 22.8936 32.9023C22.8936 33.6063 22.8936 34.3046 22.9366 35.0085C22.9366 36.4312 22.9366 37.8593 22.9366 39.293C23.3542 40.0191 23.1577 40.7951 23.0963 41.5489C23.0728 41.8186 23.013 42.0848 22.9182 42.3415Z" fill="#3D3D3D"/>
<path d="M28.5781 46.0898H28.7255C28.7255 48.0464 28.7255 50.0029 28.7255 51.954C28.7255 52.1757 28.8115 52.4251 28.5781 52.6024V46.0898Z" fill="#3D3D3D"/>
<path d="M45.9414 40.0539C46.1686 39.9991 46.3713 39.9388 46.5555 40.0539C46.4609 40.0985 46.3555 40.1219 46.2485 40.1219C46.1414 40.1219 46.036 40.0985 45.9414 40.0539Z" fill="#3D3D3D"/>
<path d="M66.325 51.5117C66.3066 51.6349 66.2519 51.7513 66.1666 51.8488C66.0812 51.9464 65.9684 52.0214 65.8398 52.066C65.8495 51.9403 65.901 51.8201 65.9876 51.7212C66.0741 51.6224 66.1917 51.5493 66.325 51.5117Z" fill="#3D3D3D"/>
<path d="M69.2764 48.4619C69.268 48.57 69.219 48.6723 69.1375 48.7519C69.056 48.8315 68.9469 48.8837 68.8281 48.8998L69.1045 48.4453L69.2764 48.4619Z" fill="#3D3D3D"/>
<path d="M70.0054 47.4766C69.8535 47.8531 69.5926 48.1861 69.25 48.441C69.289 48.2398 69.377 48.0489 69.5076 47.8822C69.6382 47.7154 69.8082 47.5769 70.0054 47.4766Z" fill="#3D3D3D"/>
<path d="M71.7767 44.3131L71.6601 44.701C71.5311 44.701 71.4083 44.629 71.4328 44.4849C71.4574 44.3408 71.6232 44.3075 71.7767 44.3131Z" fill="#3D3D3D"/>
<path d="M96.7207 30.7106V35.2888C96.7007 35.2992 96.6786 35.3057 96.6557 35.308C96.6328 35.3103 96.6097 35.3082 96.5877 35.3019C96.5658 35.2957 96.5455 35.2854 96.5282 35.2716C96.5109 35.2579 96.497 35.2411 96.4873 35.2223C96.3577 34.8652 96.3158 34.4869 96.3645 34.1137C96.3215 33.3322 96.3645 32.5507 96.3645 31.7748C96.3645 31.0986 96.1987 30.96 95.4556 30.9378C94.387 30.9378 93.3185 30.9378 92.2499 30.9378C91.8927 30.9891 91.5274 30.9136 91.2305 30.7272V25.8663C91.3219 25.7854 91.4369 25.7297 91.5621 25.7056C93.032 25.6086 94.5077 25.6086 95.9776 25.7056C96.4873 25.7056 96.6838 26.0714 96.6838 26.5314C96.6838 27.7009 96.6838 28.8704 96.6838 30.0399C96.639 30.2631 96.6516 30.4925 96.7207 30.7106Z" fill="#3D3D3D"/>
<path d="M96.714 30.7049C96.4376 30.3724 96.5912 29.9899 96.5789 29.6352C96.5789 28.7151 96.5789 27.7895 96.5789 26.8639C96.5789 25.9382 96.4745 25.8606 95.498 25.8551H91.1992V21.421C91.3082 21.3221 91.4511 21.2596 91.6045 21.2436C93.0199 21.1688 94.4389 21.1688 95.8542 21.2436C96.0068 21.2559 96.1533 21.3037 96.2792 21.3824C96.4052 21.4611 96.5063 21.568 96.5727 21.6926C96.6587 22.6071 96.3946 23.5438 96.714 24.4639V30.7049Z" fill="#3D3D3D"/>
<path d="M91.1992 41.1086V37.3674C92.8584 37.035 94.5768 37.0236 96.2411 37.3341C96.3161 37.3521 96.3858 37.3847 96.4453 37.4297C96.5047 37.4748 96.5524 37.531 96.585 37.5946C96.6545 37.8501 96.6753 38.1144 96.6464 38.3761C96.6464 39.3405 96.7201 40.305 96.5912 41.2694C96.4198 41.3727 96.21 41.4105 96.0078 41.3747C94.7795 41.2805 93.5513 41.3747 92.2862 41.3248C91.9067 41.3769 91.5193 41.2999 91.1992 41.1086Z" fill="#3D3D3D"/>
<path d="M96.5727 37.6469C95.9674 37.3987 95.2995 37.3011 94.6383 37.3643C93.496 37.3643 92.3476 37.3643 91.1992 37.3643V33.9057C91.3312 33.7965 91.4998 33.7302 91.6782 33.7172C93.0416 33.6729 94.4049 33.6618 95.7682 33.7172C95.9314 33.7339 96.0884 33.7834 96.2276 33.8621C96.3669 33.9407 96.4848 34.0465 96.5727 34.1717V35.2802C96.6967 36.0652 96.6967 36.862 96.5727 37.6469Z" fill="#3D3D3D"/>
<path d="M96.5727 21.7117C96.1771 21.4978 95.7188 21.3973 95.2585 21.4235C93.9075 21.4235 92.5564 21.4235 91.1992 21.4235C91.1992 20.4535 91.1992 19.4835 91.1992 18.5191C91.1992 18.109 91.3282 17.9648 91.8133 17.9648C93.0416 17.9648 94.3128 17.9648 95.5656 17.9648C96.3455 17.9648 96.585 18.2143 96.585 18.9403L96.5727 21.7117Z" fill="#3D3D3D"/>
<path d="M96.5727 34.179C95.8726 33.7966 95.0989 33.9074 94.3496 33.9019H91.1992V30.7148C92.6792 30.7148 94.1531 30.7148 95.627 30.7148C96.3087 30.7148 96.6034 30.9476 96.5789 31.5684C96.5543 32.4331 96.5727 33.3088 96.5727 34.179Z" fill="#3D3D3D"/>
<path d="M91.1992 41.1037C92.4275 41.1037 93.6557 41.1037 94.8471 41.1037C95.4266 41.0906 96.0058 41.1389 96.5727 41.2478C96.7815 41.9295 96.5175 42.6334 96.714 43.3152V47.4721C96.2903 47.389 96.3701 47.062 96.3517 46.8126C96.3148 46.2583 96.3517 45.6542 96.3517 45.0777C96.321 44.3516 96.0999 44.1299 95.2831 44.1022C94.2637 44.0634 93.2381 44.1022 92.2125 44.1022C91.8558 44.1564 91.4896 44.0871 91.187 43.9082C91.0887 43.3055 91.0887 42.693 91.187 42.0902L91.1992 41.1037Z" fill="#3D3D3D"/>
<path d="M91.2033 42.0703V43.8772C91.3859 44.1004 91.4692 44.3773 91.4366 44.6532C91.4366 45.5012 91.4366 46.3492 91.4366 47.1973C91.4366 48.0453 91.4366 48.8988 91.4366 49.7469C91.4692 50.0228 91.3859 50.2997 91.2033 50.5228C91.2033 51.6812 91.2033 52.8341 91.2033 53.987V55.2064C91.2033 55.4392 91.2033 55.6664 90.9023 55.7606C90.9023 55.5777 90.9023 55.3948 90.9515 55.2064C91.1296 54.9791 91.0436 54.7186 91.0436 54.4692C91.0436 50.5893 91.0436 46.7095 91.0436 42.8297C91.062 42.5969 90.9453 42.3031 91.2033 42.0703Z" fill="#3D3D3D"/>
<path d="M68.0234 20.0469C68.1481 20.0922 68.2562 20.1681 68.3355 20.2661C68.4147 20.3641 68.4619 20.4802 68.4717 20.6011C68.1217 20.5513 68.0787 20.2963 68.0234 20.0469Z" fill="#3D3D3D"/>
<path d="M72.4666 43.1758C72.5526 43.4307 72.3991 43.5915 72.2025 43.73C72.1665 43.6244 72.1733 43.5106 72.2216 43.4091C72.27 43.3075 72.3569 43.2248 72.4666 43.1758Z" fill="#3D3D3D"/>
<path d="M5.83848 32.5158C5.83848 35.7416 5.83848 38.9675 5.83848 42.1988C5.83848 42.7088 5.74636 43.2242 5.69723 43.7397C4.469 42.936 3.11181 43.3628 1.80988 43.2519C1.29402 43.2076 0.735178 43.3905 0.274591 43.0247C0.237744 41.9716 0.225462 40.9185 0.274591 39.8709C0.366094 39.7901 0.476434 39.7288 0.597554 39.6914C0.718675 39.654 0.84752 39.6415 0.974683 39.6548C2.20291 39.6548 3.43115 39.6548 4.65938 39.6548C4.81589 39.6407 4.97392 39.6567 5.12313 39.7016C5.27235 39.7465 5.40938 39.8193 5.52528 39.9153C5.48229 38.7568 5.52528 37.6594 5.52528 36.5897C5.52528 35.6862 5.52528 34.7883 5.52528 33.8904C5.60512 33.4747 5.45773 33.0424 5.66039 32.6433C5.6678 32.6061 5.68998 32.5727 5.72276 32.5492C5.75555 32.5258 5.79669 32.5139 5.83848 32.5158Z" fill="#3D3D3D"/>
<path d="M0.341249 43.0502C1.68002 43.0502 3.01879 43.0835 4.35757 43.0502C4.63846 42.9968 4.9313 43.0377 5.18117 43.1652C5.43103 43.2928 5.62076 43.4982 5.71476 43.743V46.7859C4.3023 46.4645 2.82842 46.6197 1.3791 46.5698C1.01063 46.5698 0.605318 46.6308 0.298261 46.3481C0.227182 45.2492 0.241547 44.1472 0.341249 43.0502Z" fill="#3D3D3D"/>
<path d="M0.328827 46.3636C1.65532 46.3636 2.98795 46.3636 4.31444 46.3636C4.56567 46.3407 4.81943 46.3664 5.05876 46.439C5.2981 46.5117 5.51752 46.6296 5.70234 46.7848C5.70234 47.9433 5.70234 49.0961 5.70234 50.249C4.92855 49.4453 3.85999 49.6947 2.88969 49.6171C2.03607 49.5783 1.15174 49.8222 0.334968 49.4176V46.6463C0.311445 46.6295 0.292329 46.6083 0.278994 46.5841C0.26566 46.5599 0.258439 46.5333 0.257851 46.5062C0.257264 46.4792 0.263325 46.4524 0.275598 46.4277C0.28787 46.4031 0.306049 46.3812 0.328827 46.3636Z" fill="#3D3D3D"/>
<path d="M0.335938 49.4188C1.60716 49.4188 2.88452 49.4687 4.15574 49.4188C4.94795 49.38 5.4638 49.574 5.70331 50.2668V52.6224C5.40653 52.4099 5.03046 52.3087 4.65317 52.3397C3.21614 52.3397 1.77297 52.3397 0.354361 52.3397L0.335938 49.4188Z" fill="#3D3D3D"/>
<path d="M5.70044 17.9679C5.78028 17.4635 5.54077 16.9314 5.84783 16.4492V25.1678C5.82702 25.1768 5.80435 25.1818 5.78129 25.1824C5.75822 25.1831 5.73526 25.1794 5.71387 25.1715C5.69248 25.1637 5.67314 25.1519 5.65708 25.137C5.64102 25.122 5.6286 25.1042 5.62061 25.0847C5.48166 24.5079 5.44025 23.9156 5.49778 23.3276C5.49778 22.5018 5.46094 21.6648 5.49778 20.8556C5.54691 20.1739 5.46708 19.4866 5.49778 18.8048C5.46621 18.6602 5.46791 18.5113 5.50278 18.3674C5.53764 18.2234 5.60492 18.0874 5.70044 17.9679Z" fill="#3D3D3D"/>
<path d="M5.71706 25.1836H5.83988C5.83988 27.6334 5.83988 30.0814 5.83988 32.5276H5.71706C5.26875 31.868 5.55125 31.1419 5.48369 30.4491C5.48369 29.3406 5.44685 28.232 5.48369 27.1235C5.62494 26.4861 5.25647 25.7933 5.71706 25.1836Z" fill="#3D3D3D"/>
<path d="M70.9609 23.8828C71.3048 24.0879 71.268 24.4371 71.4031 24.753C70.9118 24.6034 70.9978 24.2209 70.9609 23.8828Z" fill="#3D3D3D"/>
<path d="M24.5664 26.2823C24.5655 26.1206 24.606 25.9609 24.6848 25.8157C24.7637 25.6705 24.8787 25.5437 25.0209 25.4453V25.728L24.5664 26.2823Z" fill="#3D3D3D"/>
<path d="M25.0586 25.4559C25.0584 25.3108 25.0975 25.1677 25.1724 25.0393C25.2473 24.9108 25.3558 24.8008 25.4885 24.7188C25.4209 25.0014 25.4762 25.3451 25.0586 25.4559Z" fill="#3D3D3D"/>
<path d="M72.9605 28.0664C73.4211 28.2438 73.2062 28.6207 73.2553 28.9089C73.2067 28.9177 73.1566 28.9177 73.1079 28.9089C73.2185 28.5874 72.8561 28.3602 72.9605 28.0664Z" fill="#3D3D3D"/>
<path d="M91.2109 50.5216V47.196C91.3797 47.0602 91.599 46.987 91.8251 46.9909C93.0533 46.9909 94.3306 46.941 95.5773 46.9909C96.2958 47.0242 96.6029 47.3734 96.6336 48.0274C96.6008 48.8999 96.6234 49.7734 96.7011 50.6435V53.8084H96.5599C96.5599 53.0989 96.5599 52.3895 96.5599 51.6745C96.5599 50.9595 96.1423 50.516 95.2457 50.5105L91.2109 50.5216Z" fill="#3D3D3D"/>
<path d="M96.7145 50.6497C96.4075 49.8959 96.6163 49.1089 96.5856 48.344C96.5426 47.4128 96.3399 47.1967 95.3573 47.1967C93.9817 47.1967 92.6061 47.1967 91.2305 47.1967V43.8711C92.5999 43.8711 93.9756 43.8711 95.345 43.8711C96.3215 43.8711 96.5733 44.1371 96.6101 45.024C96.647 45.9108 96.4198 46.6868 96.7391 47.4627L96.7145 50.6497Z" fill="#3D3D3D"/>
<path d="M96.7181 43.3199C96.411 42.6437 96.6567 41.9398 96.5768 41.2525V38.3426C96.626 38.2816 96.6689 38.2816 96.7181 38.3426V43.3199Z" fill="#3D3D3D"/>
<path d="M96.7233 38.3375H96.582V35.2891H96.7233V38.3375Z" fill="#3D3D3D"/>
<path d="M72.629 27.1055C72.7763 27.3216 73.0036 27.5156 72.9176 27.8094C72.5061 27.6819 72.6412 27.366 72.629 27.1055Z" fill="#3D3D3D"/>
<path d="M23.8425 28.089C23.8253 27.9607 23.842 27.8306 23.8911 27.7093C23.9401 27.5879 24.0203 27.4787 24.125 27.3906C24.1496 27.6678 24.1741 27.9338 23.8425 28.089Z" fill="#3D3D3D"/>
<path d="M0.344935 46.3628V46.6399H0.191406V35.5547C0.27941 34.9168 0.306121 34.2733 0.271241 33.6314C0.238428 33.3804 0.261393 33.126 0.338794 32.8831C0.605571 32.7314 0.922758 32.6686 1.2354 32.7057H4.30598C5.46666 32.7057 5.53421 32.7833 5.74301 33.7533V36.5246C4.31826 36.1865 2.85667 36.3694 1.4442 36.3195C0.830086 36.3195 0.621287 36.5357 0.633569 37.0567C0.633569 37.7052 0.633569 38.3537 0.633569 38.9966C0.664465 39.306 0.56097 39.614 0.344935 39.8557V46.3628Z" fill="#3D3D3D"/>
<path d="M5.71 25.1754V27.1098C5.59946 27.1098 5.48278 27.1098 5.46435 26.9934C5.32925 26.223 4.72742 26.1897 4.04575 26.2063C3.12457 26.2063 2.2034 26.2063 1.28223 26.2063C0.953333 26.2613 0.613491 26.2082 0.324207 26.0567C0.214848 25.6844 0.214848 25.2928 0.324207 24.9204V22.8198C0.475648 22.6951 0.672005 22.6243 0.876911 22.6202C2.16655 22.6202 3.46234 22.587 4.75198 22.6202C4.98169 22.6235 5.20256 22.7006 5.37482 22.8378C5.54708 22.975 5.65941 23.1632 5.69158 23.3685L5.71 25.1754Z" fill="#3D3D3D"/>
<path d="M5.70331 23.3696C5.56581 23.1682 5.36526 23.008 5.12699 22.9094C4.88872 22.8107 4.6234 22.778 4.36454 22.8153C3.01962 22.8541 1.68085 22.8153 0.335938 22.8153V19.6339C0.466809 19.5223 0.635611 19.4539 0.814948 19.4399C2.17214 19.3955 3.5232 19.3844 4.87425 19.4399C4.98373 19.4292 5.09446 19.4419 5.19745 19.4771C5.30044 19.5123 5.39278 19.5689 5.46697 19.6423C5.54117 19.7158 5.59512 19.804 5.62444 19.8998C5.65377 19.9956 5.65765 20.0963 5.63576 20.1937C5.57936 20.4199 5.60298 20.6564 5.70331 20.8699V23.3696Z" fill="#3D3D3D"/>
<path d="M5.71225 20.8688C5.71225 20.8356 5.62627 20.8078 5.62013 20.769C5.33764 19.6273 5.33764 19.6273 4.00501 19.6273H0.320312C0.320312 18.8901 0.320312 18.1529 0.320312 17.4102C0.320312 16.9003 0.424712 16.662 1.06953 16.6897C2.18722 16.7395 3.31106 16.6897 4.42875 16.6897C5.39291 16.6897 5.46046 16.7617 5.55872 17.6319C5.58989 17.739 5.63743 17.8416 5.69997 17.9368L5.71225 20.8688Z" fill="#3D3D3D"/>
<path d="M0.333934 24.8906V25.9992C0.518753 26.2216 0.604237 26.4985 0.573439 26.7751C0.573439 27.7617 0.573439 28.7483 0.573439 29.7349C0.610286 30.5386 0.573439 31.3423 0.573439 32.1515C0.604237 32.4281 0.518753 32.7051 0.333934 32.9275C0.247958 33.8143 0.512028 34.6956 0.180405 35.5602C0.180405 32.2346 0.180405 28.909 0.180405 25.5835C0.186546 25.3673 0.0821468 25.0957 0.333934 24.8906Z" fill="#3D3D3D"/>
<path d="M6.61318 14.6484L6.29998 15.3302C6.01748 15.0641 6.06047 14.9644 6.61318 14.6484Z" fill="#3D3D3D"/>
<path d="M22.918 42.3434V39.2949C22.918 39.2617 22.9978 39.2284 23.0101 39.1896C23.3049 37.7818 23.3049 37.7652 24.9507 37.7873C26.1623 37.7152 27.379 37.7598 28.5801 37.9204V41.3845C27.966 41.1129 27.2843 41.2792 26.6334 41.2515C25.9824 41.2238 25.3683 41.2515 24.7358 41.2515C23.44 41.2459 23.3663 41.2903 22.918 42.3434Z" fill="#3D3D3D"/>
<path d="M90.4558 57.0348C90.4558 56.8685 90.4128 56.6911 90.6708 56.6523C90.8059 56.8796 90.7322 57.0015 90.4558 57.0348Z" fill="#3D3D3D"/>
<path d="M86.2588 19.9047C86.0625 20.4598 85.6774 20.945 85.1582 21.2913C84.6389 21.6375 84.0119 21.8273 83.3663 21.8335C80.9098 21.8815 78.439 21.8815 75.9539 21.8335C75.2244 21.837 74.5183 21.6012 73.967 21.1699C73.4157 20.7386 73.0568 20.1412 72.957 19.489C73.2948 18.447 73.2948 18.4414 74.5599 18.4414H85.2701C85.8535 18.4414 86.1912 18.652 86.136 19.234C86.0848 19.4636 86.1285 19.7022 86.2588 19.9047Z" fill="#3D3D3D"/>
<path d="M86.2621 19.9075C85.7831 19.7745 86.0103 19.4087 85.998 19.1482C85.998 18.8045 85.8629 18.6604 85.4576 18.6604H73.7894C73.4578 18.6604 73.2428 18.7325 73.2674 19.0817C73.2674 19.2701 73.2674 19.4586 72.9849 19.4918C72.7515 17.5242 73.5622 16.7205 75.0975 16.1662C75.2617 16.0666 75.4593 16.0215 75.6563 16.0388C78.3584 16.0388 81.0667 16.0388 83.7688 16.0388C83.9662 16.0362 84.1609 16.0802 84.3338 16.1662L84.5855 16.205C84.7621 16.2763 84.929 16.3655 85.083 16.4711C86.4586 17.3302 86.5139 18.5773 86.2621 19.9075Z" fill="#3D3D3D"/>
<path d="M75.5337 16.1616H75.0977C75.1775 15.8291 75.4723 15.9011 75.7118 15.9011C78.3402 15.9011 80.9707 15.9011 83.6032 15.9011C83.8795 15.9011 84.1804 15.8734 84.334 16.1616H83.8857C83.4158 16.0692 82.9322 16.0486 82.4548 16.1007C80.4077 16.1007 78.3607 16.1007 76.3136 16.1007C76.0523 16.0574 75.7829 16.0785 75.5337 16.1616Z" fill="#3D3D3D"/>
<path d="M59.9406 14.2044C59.2249 14.144 58.5545 13.862 58.043 13.4062C58.7364 13.5336 59.3866 13.8071 59.9406 14.2044Z" fill="#3D3D3D"/>
<path d="M57.1189 13.1172C56.689 13.0451 56.1793 13.1671 55.8906 12.707C56.3356 12.7326 56.7626 12.8752 57.1189 13.1172Z" fill="#3D3D3D"/>
<path d="M39.001 13.375C38.7861 13.8184 38.2825 13.6688 37.9141 13.8018C38.0551 13.6694 38.2237 13.5636 38.4103 13.4903C38.5968 13.4171 38.7976 13.3779 39.001 13.375Z" fill="#3D3D3D"/>
<path d="M40.8593 12.7578C40.6075 13.1513 40.1531 13.0793 39.7539 13.1347C40.0733 12.9136 40.4578 12.7825 40.8593 12.7578Z" fill="#3D3D3D"/>
<path d="M37.7956 13.8281C37.6298 14.2217 37.2368 14.1829 36.8867 14.2272C37.1237 13.9962 37.448 13.8538 37.7956 13.8281Z" fill="#3D3D3D"/>
<path d="M57.9211 13.39C57.6325 13.3622 57.2517 13.5673 57.1289 13.1239C57.2753 13.0927 57.4287 13.1013 57.5697 13.1486C57.7107 13.196 57.833 13.2799 57.9211 13.39Z" fill="#3D3D3D"/>
<path d="M54.9648 57.4295C55.1859 57.0914 55.579 57.1634 55.8983 57.1523C55.6319 57.3392 55.3021 57.4371 54.9648 57.4295Z" fill="#3D3D3D"/>
<path d="M39.4673 13.162C39.4182 13.4391 39.1971 13.4003 38.9883 13.3837C39.0263 13.3017 39.0953 13.2344 39.1829 13.1939C39.2706 13.1533 39.3713 13.142 39.4673 13.162Z" fill="#3D3D3D"/>
<path d="M60.532 14.4912C60.3109 14.4912 60.0837 14.5356 60.0469 14.2473C60.1463 14.2329 60.2483 14.2491 60.3363 14.2933C60.4243 14.3376 60.4933 14.4073 60.532 14.4912Z" fill="#3D3D3D"/>
<path d="M85.0599 16.4595C84.845 16.4595 84.6239 16.4595 84.5625 16.1935C84.6674 16.1713 84.7778 16.1867 84.8705 16.2363C84.9632 16.2858 85.0311 16.3658 85.0599 16.4595Z" fill="#3D3D3D"/>
<path d="M36.7178 14.2623C36.7178 14.5173 36.4722 14.5062 36.2695 14.5062C36.3087 14.4297 36.3723 14.3657 36.4522 14.3222C36.5321 14.2787 36.6247 14.2579 36.7178 14.2623Z" fill="#3D3D3D"/>
<path d="M55.8863 33.9922C55.9333 34.2063 55.9333 34.4266 55.8863 34.6407C55.7762 34.8513 55.7823 34.6019 55.7273 34.5575C55.7054 34.358 55.7617 34.1579 55.8863 33.9922Z" fill="#3D3D3D"/>
<path d="M0.335938 39.8573C0.335938 38.8042 0.335938 37.7456 0.335938 36.6925C0.335938 36.238 0.50789 36.0994 0.999182 36.1049C2.22741 36.1327 3.45564 36.1049 4.65317 36.1049C4.85501 36.0907 5.05762 36.1217 5.24298 36.1952C5.42833 36.2687 5.59069 36.3824 5.71559 36.5262V40.2398C5.60623 40.0962 5.45444 39.9833 5.27749 39.9137C5.10054 39.8441 4.90552 39.8208 4.71458 39.8462C3.24685 39.8629 1.79139 39.8573 0.335938 39.8573Z" fill="#3D3D3D"/>
<path d="M0.335938 32.9294V29.7424C0.487978 29.6193 0.684426 29.5504 0.888642 29.5484C2.17828 29.5151 3.47407 29.5151 4.76371 29.5484C5.37783 29.5484 5.59891 29.9585 5.70331 30.4352C5.70331 31.128 5.70331 31.8209 5.70331 32.5137C5.70331 32.9294 5.70331 33.3451 5.70331 33.7608C5.5682 33.0236 5.05235 32.885 4.29698 32.9128C2.98278 32.9682 1.65629 32.9294 0.335938 32.9294Z" fill="#3D3D3D"/>
<path d="M5.70331 30.438C5.47609 29.8838 5.02164 29.7064 4.35225 29.7341C3.01348 29.7784 1.67471 29.7341 0.335938 29.7341V26.0039C1.74226 26.0039 3.14859 26.0039 4.55491 26.0039C5.2243 26.0039 5.6726 26.0815 5.56206 26.8187C5.56206 26.9129 5.65418 27.0182 5.70331 27.118V30.438Z" fill="#3D3D3D"/>
<path d="M75.5391 16.1634C75.6188 16.1052 75.7116 16.0629 75.8111 16.0393C75.9107 16.0157 76.0147 16.0113 76.1163 16.0264H83.3199C83.4201 16.0095 83.5232 16.0125 83.6219 16.0353C83.7206 16.058 83.8125 16.0999 83.891 16.1579L75.5391 16.1634Z" fill="#3D3D3D"/>
</svg>
