<svg width="287" height="90" viewBox="0 0 287 90" fill="none" xmlns="http://www.w3.org/2000/svg">
<path d="M109.053 71V29.4H126.44C131.773 29.4 135.667 30.5378 138.12 32.8133C140.573 35.0533 141.8 38.0756 141.8 41.88C141.8 45.6844 140.573 48.7244 138.12 51C135.702 53.2756 131.809 54.4133 126.44 54.4133H117.907V71H109.053ZM117.907 47.6933H125.107C127.524 47.6933 129.409 47.2844 130.76 46.4667C132.147 45.6133 132.84 44.1022 132.84 41.9333C132.84 39.8 132.147 38.3067 130.76 37.4533C129.409 36.5644 127.524 36.12 125.107 36.12H117.907V47.6933ZM146.042 71V39H154.682V71H146.042ZM150.362 35.32C148.833 35.32 147.677 34.9289 146.895 34.1467C146.113 33.3289 145.722 32.28 145.722 31C145.722 29.72 146.113 28.6889 146.895 27.9067C147.677 27.0889 148.833 26.68 150.362 26.68C151.891 26.68 153.046 27.0889 153.828 27.9067C154.611 28.6889 155.002 29.72 155.002 31C155.002 32.28 154.611 33.3289 153.828 34.1467C153.046 34.9289 151.891 35.32 150.362 35.32ZM161.324 71V28.3333H169.964V51.2667H172.524L181.484 39H190.658V39.32L179.724 53.9333L191.938 70.68V71H181.858L172.524 57.6667H169.964V71H161.324ZM195.338 71V29.4H211.125L218.858 63.96H220.778L228.512 29.4H244.298V71H235.978V36.76H234.592L227.018 71H212.192L204.618 36.76H203.232V71H195.338ZM264.401 71.8C259.352 71.8 255.494 70.2889 252.828 67.2667C250.196 64.2444 248.881 60.1378 248.881 54.9467C248.881 51.4622 249.468 48.4756 250.641 45.9867C251.85 43.4978 253.592 41.5778 255.868 40.2267C258.179 38.8756 260.988 38.2 264.294 38.2C269.059 38.2 272.703 39.64 275.228 42.52C277.788 45.4 279.068 49.6311 279.068 55.2133V57.0267H257.308C257.485 59.7289 258.179 61.8622 259.388 63.4267C260.632 64.9556 262.303 65.72 264.401 65.72C266.072 65.72 267.405 65.2222 268.401 64.2267C269.432 63.2311 270.108 62.0756 270.428 60.76H278.641C278.321 62.7156 277.61 64.5289 276.508 66.2C275.405 67.8711 273.859 69.2222 271.868 70.2533C269.876 71.2844 267.388 71.8 264.401 71.8ZM257.308 51.5867H270.641C270.499 49.1689 269.894 47.3022 268.828 45.9867C267.761 44.6356 266.232 43.96 264.241 43.96C262.285 43.96 260.703 44.6 259.494 45.88C258.321 47.1244 257.592 49.0267 257.308 51.5867Z" fill="#3D3D3D"/>
<path d="M93.9586 73.9986C93.3133 74.6319 92.5558 75.1638 91.7171 75.5728C91.5428 75.4389 91.3404 75.338 91.122 75.2761C90.9037 75.2142 90.6737 75.1926 90.4459 75.2125C75.7685 75.2125 61.0891 75.2125 46.4077 75.2125C45.9264 75.2812 45.4333 75.2215 44.9891 75.0407C44.6818 74.2553 44.6518 73.4033 44.9031 72.6019C45.0259 72.092 45.5663 71.8869 46.1313 71.8869H49.4291C61.2815 71.8869 73.1401 71.8426 84.9925 71.8869C88.0017 71.8869 91.017 71.9423 94.0262 71.9811C94.1774 71.9699 94.3294 71.9699 94.4806 71.9811C95.0947 72.0753 95.1684 72.225 94.8245 72.6795C94.4722 73.0825 94.181 73.5261 93.9586 73.9986Z" fill="#3D3D3D"/>
<path d="M2.94426 22.0469C3.49758 21.4538 4.16549 20.9561 4.91557 20.5781C5.34546 20.8774 5.85517 20.7389 6.3219 20.7389C15.4722 20.7389 24.6225 20.7389 33.7729 20.7389C34.4423 20.7389 35.1362 20.6834 35.5108 21.3541C35.1825 22.4182 34.6091 23.4079 33.8281 24.2584C33.5886 24.5577 33.128 24.4912 32.7534 24.4968H26.2561C21.3432 24.4968 16.4917 24.4968 11.6156 24.4968C10.9059 24.5659 10.1917 24.5881 9.47845 24.5633C9.29316 24.3619 9.05079 24.2096 8.77717 24.1227C8.50355 24.0359 8.20894 24.0176 7.92474 24.07C5.93501 24.131 3.94527 23.9758 1.96168 24.1642C1.2186 24.2307 1.53794 23.8705 1.70989 23.6099C1.88184 23.5046 1.91869 23.3273 2.01695 23.1887C2.0538 22.8894 2.31787 22.7287 2.5021 22.5236C2.67625 22.3866 2.82546 22.2257 2.94426 22.0469V22.0469Z" fill="#3D3D3D"/>
<path d="M93.0543 21.3867C94.3383 22.2789 95.3487 23.4522 95.9897 24.7954C96.0237 25.0093 96.1097 25.2137 96.2415 25.394L96.2968 25.7765C96.4319 26.3308 95.9959 26.2144 95.6827 26.1977C94.4544 26.1201 93.2815 26.1977 92.0901 26.1478C91.3823 26.1845 90.6806 26.2866 89.996 26.4527C89.6776 26.3471 89.4045 26.153 89.216 25.8984C88.7392 25.4289 88.1551 25.0583 87.5041 24.8124C86.8531 24.5664 86.1507 24.451 85.4454 24.474C78.5427 24.474 71.6401 24.474 64.7374 24.474C63.0547 24.474 61.9739 23.5761 61.7344 21.9909C61.8353 21.8173 61.9886 21.673 62.1767 21.5749C62.3647 21.4768 62.5798 21.4289 62.7968 21.4366C63.153 21.4366 63.5153 21.4366 63.8715 21.4366C73.5213 21.4366 83.1731 21.4366 92.827 21.4366C92.9054 21.4318 92.9822 21.4149 93.0543 21.3867V21.3867Z" fill="#3D3D3D"/>
<path d="M64.1232 14.5882L64.1969 14.8377C64.4671 15.2312 64.3013 15.4252 63.8346 15.4806C63.6307 15.501 63.4256 15.5103 63.2204 15.5083C53.0507 15.5083 42.8871 15.5083 32.7173 15.5083C32.6662 15.5114 32.6149 15.5114 32.5638 15.5083C32.0725 15.3032 32.4901 15.0871 32.5638 14.8709C32.6989 14.7656 32.7419 14.5993 32.8586 14.4774C33.0784 13.8956 33.5117 13.3989 34.0868 13.0696C34.5412 12.8312 34.9957 12.5596 35.4624 12.3601C36.0191 12.1463 36.6143 12.0261 37.2188 12.0054C44.7049 12.0054 52.1909 12.0054 59.6709 12.0054C60.4096 11.9699 61.1457 12.1111 61.8046 12.4147C62.4635 12.7184 63.0218 13.1737 63.4231 13.7347C63.5781 14.0653 63.8181 14.3579 64.1232 14.5882V14.5882Z" fill="#3D3D3D"/>
<path d="M44.9972 74.9922H91.7744C92.0384 75.225 91.3629 75.3358 91.713 75.5465L91.6331 75.6628C91.1909 75.7412 90.7834 75.9338 90.4602 76.2171C89.6064 76.764 88.5838 77.0548 87.537 77.0485C87.1705 77.1549 86.7851 77.1982 86.4008 77.176H45.9122C45.6083 77.215 45.2984 77.1865 45.0094 77.0929C44.8406 76.764 44.7522 76.4062 44.75 76.0437C44.7479 75.6813 44.8322 75.3227 44.9972 74.9922Z" fill="#3D3D3D"/>
<path d="M93.049 21.3911C92.9139 21.84 92.5024 21.6461 92.2138 21.6461C82.867 21.6461 73.516 21.6461 64.161 21.6461C63.8294 21.6461 63.4978 21.6461 63.1662 21.6461C62.9189 21.6022 62.6631 21.618 62.4248 21.692C62.1865 21.766 61.974 21.8954 61.809 22.0673C61.809 22.0673 61.7475 22.0673 61.7353 22.0673C60.8668 21.0404 60.1981 19.8878 59.7578 18.6586C59.7578 18.0711 60.157 17.999 60.6606 17.9935C62.0239 17.9935 63.3913 17.9935 64.7628 17.9935C64.9757 18.0179 65.192 17.9953 65.3931 17.9278C65.5941 17.8602 65.7741 17.7496 65.9174 17.6055C66.2306 17.7496 66.1999 18.0766 66.3596 18.3038C66.4824 18.4369 66.5192 18.6198 66.6605 18.7417C66.9921 18.7417 67.3237 18.7916 67.6492 18.7916C73.5816 18.7916 79.5078 18.7528 85.4585 18.7916C87.8352 18.7916 90.1627 19.1907 92.1156 20.5819C92.4288 20.8756 92.7358 21.1306 93.049 21.3911Z" fill="#3D3D3D"/>
<path d="M53.2981 29.7177C52.3919 29.5166 51.4732 29.3648 50.5468 29.2632C49.9495 29.1026 49.3195 29.0666 48.7045 29.1579C47.8693 29.1579 47.0218 29.0138 46.205 29.2688C44.6953 29.4344 43.2117 29.7561 41.7834 30.2276C41.5067 30.3398 41.2084 30.4019 40.9052 30.4105C40.7394 30.477 40.5797 30.5934 40.4016 30.5436C38.7988 30.1002 37.1591 30.3995 35.544 30.3329C33.9289 30.2664 32.4734 30.3662 30.9627 30.2997C30.9246 30.2872 30.89 30.2674 30.8613 30.2415C30.8327 30.2157 30.8107 30.1844 30.7969 30.15C30.8521 29.6955 31.3373 29.5958 31.6382 29.3574C31.8409 29.1912 32.0681 29.047 32.2523 28.8697C32.3021 28.8249 32.3578 28.7858 32.4181 28.7533C32.9066 28.5724 33.3237 28.2635 33.6157 27.8665C34.1868 27.2623 35.0097 26.9741 35.7037 26.5196C35.8111 26.4555 35.9371 26.4213 36.066 26.4213C36.1948 26.4213 36.3208 26.4555 36.4283 26.5196C37.1546 26.5544 37.883 26.5229 38.6023 26.4254C45.2347 26.4254 51.8713 26.4254 58.5119 26.4254C59.126 26.4254 59.7401 26.6637 60.3972 26.503C60.4879 26.45 60.5924 26.4196 60.7002 26.4148C60.808 26.4099 60.9153 26.4308 61.0114 26.4753C62.1295 26.9945 63.1527 27.6656 64.0451 28.4651C64.3276 28.6646 64.5855 28.8808 64.8557 29.0969C65.2979 29.4517 65.2242 29.6955 64.6469 29.8452C64.3487 29.9042 64.0427 29.9247 63.738 29.9062H56.3748C55.5703 29.9062 54.7597 30.1334 53.9613 29.8396C53.7325 29.8493 53.5045 29.8074 53.2981 29.7177V29.7177Z" fill="#3D3D3D"/>
<path d="M65.9192 17.604C66.0605 18.0807 65.8762 18.2192 65.3051 18.2026C63.7821 18.1693 62.2345 18.2026 60.7238 18.2026C60.2018 18.2026 59.9316 18.3134 59.864 18.7569C59.7476 18.7706 59.6296 18.7447 59.5331 18.6843C59.4366 18.6238 59.3685 18.5331 59.342 18.4298C59.1578 17.8756 58.7279 17.8756 58.1936 17.8756H41.1151C40.4273 17.8756 39.7333 17.9144 39.0455 17.8756C38.7109 17.8066 38.3605 17.84 38.0492 17.9704C37.7379 18.1008 37.4835 18.3209 37.326 18.5961C37.0373 18.8345 36.7671 19.0562 36.3557 18.7291C36.0678 18.5743 35.7273 18.5191 35.3977 18.5739C34.1264 18.5739 32.8552 18.5739 31.584 18.5739C30.6812 18.5739 30.626 18.4797 30.8839 17.6982L30.9269 17.543C31.0436 17.4211 31.0866 17.2548 31.191 17.1273C31.3945 16.5612 31.7108 16.0334 32.1244 15.5698C32.1565 15.524 32.2009 15.4863 32.2536 15.4601C32.3062 15.4339 32.3653 15.4202 32.4253 15.4202C32.7503 15.2812 33.1138 15.2329 33.4693 15.2816C43.4835 15.2816 53.4997 15.2816 63.518 15.2816C63.8374 15.2816 64.3655 15.4756 64.212 14.8438C64.734 15.1264 64.8261 15.6641 65.127 16.0964C65.2347 16.2427 65.3331 16.3945 65.4218 16.5509C65.5323 16.9222 65.9315 17.1827 65.9192 17.604Z" fill="#3D3D3D"/>
<path d="M52.518 64.2099L55.7421 63.3619C55.8772 63.628 55.7421 63.6778 55.5456 63.7C56.1469 63.5619 56.7695 63.5151 57.3879 63.5614C59.5987 63.5614 61.8095 63.5614 64.0204 63.5614C64.2461 63.5253 64.4778 63.5328 64.7001 63.5835C64.9224 63.6341 65.1303 63.7267 65.31 63.8552C65.364 63.9094 65.4039 63.9738 65.4267 64.0436C65.4267 64.343 65.1503 64.3707 64.9354 64.476C64.7204 64.5813 65.1258 64.5924 65.0091 64.7088C65.0091 64.7587 65.0091 64.8196 64.9784 64.8418C63.6143 65.9122 62.083 66.7955 60.4339 67.4635C59.6356 67.5133 58.9232 67.1531 58.1126 67.1586C52.26 67.1974 46.4075 67.1586 40.555 67.1586C40.3769 67.1586 40.1927 67.1586 40.0146 67.1586C39.4742 67.1309 39.2285 67.3415 39.2346 67.8459C39.2346 70.2015 38.9276 72.5461 39.0627 74.8961C39.0627 75.3174 39.0627 75.7386 39.0627 76.1599C39.1025 76.4489 39.0537 76.7422 38.9214 77.0079C38.8953 77.0414 38.8565 77.065 38.8123 77.0742C38.7681 77.0834 38.7217 77.0775 38.6819 77.0578C38.6819 73.2703 38.6656 69.4847 38.6328 65.7009C38.6328 64.5924 38.6328 63.445 38.6328 62.1758C42.1242 64.0047 46.1462 64.8393 50.172 64.5702C50.9617 64.495 51.7452 64.3747 52.518 64.2099V64.2099Z" fill="#3D3D3D"/>
<path d="M30.8807 17.6484C30.7578 18.2027 30.9482 18.3745 31.6115 18.3413C32.8827 18.2803 34.16 18.308 35.4313 18.3413C35.8734 18.3413 36.3831 18.1417 36.7148 18.6794C36.856 18.9066 36.8929 18.3302 37.1753 18.4687C37.3657 19.1394 36.7393 19.4664 36.4261 19.9209C36.3416 19.9765 36.2703 20.0468 36.2165 20.1278C36.1627 20.2087 36.1275 20.2986 36.1129 20.392C35.9717 20.7634 35.9164 21.1846 35.4435 21.3786C35.2546 21.215 35.0275 21.0917 34.7788 21.0179C34.5301 20.944 34.2662 20.9214 34.0065 20.9519C24.6924 20.9519 15.3783 20.9519 6.06426 20.9519C5.70807 20.9519 5.35188 20.902 5.00184 20.8909C4.38772 20.8909 5.00184 20.6636 4.94042 20.5639C4.94864 20.5461 4.96387 20.5317 4.98316 20.5235C5.00245 20.5153 5.02443 20.5139 5.04482 20.5195C5.45014 20.3311 5.75106 19.9985 6.18094 19.8433C6.57244 19.5737 7.04613 19.4189 7.53813 19.3999C7.69166 19.3001 7.88818 19.278 8.04785 19.1837C10.3753 18.6295 12.752 18.7791 15.1225 18.7791C19.8204 18.7791 24.5184 18.7791 29.2471 18.7791C30.0332 18.7791 30.4753 18.5962 30.6964 17.8979C30.7433 17.8067 30.8055 17.7226 30.8807 17.6484V17.6484Z" fill="#3D3D3D"/>
<path d="M4.58467 75.191C3.63962 74.7643 2.82549 74.1343 2.21418 73.3564C1.75528 72.8533 1.37887 72.2933 1.09649 71.6936C1.00437 71.0395 1.53251 70.9897 2.01152 70.9675C2.95726 70.9176 3.903 70.9675 4.84874 70.9675C6.14452 70.9675 7.45259 70.8622 8.71767 71.2114C9.33178 71.1448 9.79237 71.5217 10.3512 71.6104C10.678 71.6731 11.0132 71.6918 11.3461 71.6659C14.7913 71.6659 18.2426 71.6659 21.6939 71.6659C22.48 71.6659 22.7809 71.9042 22.7993 72.6026C22.7993 73.9383 22.7993 75.2741 22.7993 76.6154C22.7993 76.8538 22.9774 77.4635 22.2344 77.1309C22.0279 76.6322 21.9686 76.0935 22.0624 75.5679C22.0624 75.0136 21.8106 74.8307 21.2333 74.8307C16.1178 74.8307 11.0083 74.8307 5.88045 74.8307C5.41963 74.8387 4.97059 74.9635 4.58467 75.191V75.191Z" fill="#3D3D3D"/>
<path d="M11.5296 13.5078H23.2653C23.8035 13.5078 24.3199 13.6992 24.7028 14.0405C25.0856 14.3819 25.3039 14.8457 25.3103 15.3313C25.3103 16.5951 24.6962 17.3932 23.4311 17.4154C19.5192 17.493 15.6012 17.4542 11.6892 17.4154C11.2892 17.3974 10.9076 17.2579 10.6066 17.0194C10.3055 16.7809 10.1027 16.4575 10.0311 16.1018C9.88302 15.6727 9.88555 15.2129 10.0384 14.7852C10.1912 14.3575 10.4868 13.983 10.8848 13.7129C11.0854 13.6124 11.3034 13.543 11.5296 13.5078V13.5078Z" fill="#3D3D3D"/>
<path d="M39.476 50.4419C38.6172 48.8099 38.4005 46.9623 38.8619 45.2041C39.3399 45.4702 39.8983 45.5943 40.4586 45.5589C42.8106 45.5589 45.1627 45.5256 47.5086 45.5589C48.3868 45.5589 49.1667 45.5589 49.658 44.7773C50.0326 44.9104 49.9405 45.2208 49.9712 45.4757C50.0265 45.8803 49.8791 46.3016 50.1002 46.684C50.4094 46.9375 50.6419 47.258 50.7757 47.6152C50.8248 48.1694 51.3898 48.2637 51.8074 48.4355L52.2066 48.502C52.5584 48.6016 52.9356 48.6016 53.2875 48.502C53.4226 48.502 53.5577 48.502 53.6928 48.4687C53.8757 48.4314 54.0474 48.3585 54.1959 48.2551C54.3443 48.1517 54.4661 48.0203 54.5525 47.8701C54.8289 47.5542 55.0193 47.1607 55.5106 47.0387C55.9553 47.1829 56.4261 47.2506 56.8985 47.2383C57.3345 47.2383 57.7582 47.3103 57.9117 47.7925C57.9632 48.043 57.9899 48.2971 57.9916 48.5519C57.8196 48.9177 57.7828 49.3223 57.617 49.6604L57.5556 50.1648C57.5315 50.1843 57.503 50.1987 57.472 50.2068C57.4409 50.215 57.4083 50.2167 57.3764 50.212C57.3446 50.2072 57.3143 50.196 57.2879 50.1791C57.2615 50.1623 57.2396 50.1404 57.2239 50.1149C56.9353 49.5274 56.3765 49.5606 55.7992 49.5606C53.9077 49.5606 52.0101 49.4997 50.1248 49.5606C48.8782 49.6563 47.6337 49.3564 46.6059 48.7126C46.4829 48.6814 46.3528 48.6809 46.2295 48.7112C46.1062 48.7415 45.9943 48.8013 45.9058 48.8844C45.6411 49.051 45.3641 49.201 45.0767 49.3334C44.7205 49.472 44.6346 49.86 44.3091 50.0373C43.2874 50.1064 42.262 50.1193 41.2385 50.0761C40.6243 50.0432 40.0125 50.1701 39.476 50.4419Z" fill="#3D3D3D"/>
<path d="M49.741 44.7952C49.6857 44.8395 49.5874 44.8839 49.5874 44.9393C49.5137 45.8538 48.8136 45.7762 48.089 45.7707C45.3132 45.7707 42.5619 45.743 39.7677 45.7707C39.2457 45.7707 38.9509 45.6488 38.8281 45.2164C38.9212 44.0291 39.4657 42.9072 40.3696 42.0405C40.8746 41.8742 41.4105 41.797 41.9478 41.8133H55.2311C55.6402 41.7696 56.0542 41.8412 56.4164 42.0183C56.7654 42.3606 57.0572 42.7472 57.2823 43.1657C57.4051 43.3319 57.3806 43.5647 57.5771 43.7199V43.9583C57.6323 44.1079 57.7797 44.2354 57.7736 44.3961C57.7674 44.5569 57.964 44.8783 57.7367 45.0391C57.5095 45.1998 57.3806 44.8783 57.184 44.8229C56.7296 44.6788 56.2322 44.8229 55.79 44.5957C55.6402 44.5524 55.5036 44.4784 55.3908 44.3795C55.2093 44.0887 54.9574 43.8386 54.6539 43.6479C54.5933 43.6134 54.5377 43.5725 54.4881 43.5259C53.4564 42.628 51.4175 42.8331 50.4042 43.9416C50.2875 44.0636 50.2077 44.2077 50.1033 44.3352C49.9989 44.4626 49.9375 44.6067 49.8392 44.7342L49.741 44.7952Z" fill="#3D3D3D"/>
<path d="M56.4207 41.9985H41.86C41.4575 41.9253 41.0391 41.9905 40.6871 42.1814C40.5028 42.3144 40.4291 42.1426 40.3984 41.9985C41.0126 40.6572 42.2408 39.8313 43.512 39.133C45.0867 38.2295 46.9369 37.797 48.7995 37.8969C50.173 37.9509 51.5172 38.272 52.7404 38.8384C53.9636 39.4047 55.0367 40.2028 55.8864 41.1782C56.04 41.411 56.0952 41.6937 56.3409 41.8821C56.3629 41.895 56.3814 41.9121 56.3952 41.9322C56.409 41.9524 56.4177 41.975 56.4207 41.9985V41.9985Z" fill="#3D3D3D"/>
<path d="M4.59375 75.193C4.72886 74.7219 5.12189 74.6055 5.58862 74.6055C10.956 74.6055 16.3213 74.6055 21.6846 74.6055C22.1575 74.6055 22.2987 74.7496 22.2987 75.1597C22.2987 75.8082 22.2987 76.4512 22.2987 77.0997C22.0346 77.3103 21.7153 77.2327 21.4205 77.2327C17.5393 77.2327 13.6601 77.2327 9.78303 77.2327C9.39302 77.2111 9.00517 77.1648 8.62235 77.0941C7.93161 76.9437 7.26352 76.7185 6.63261 76.4235C5.96937 75.9967 5.30612 75.5643 4.59989 75.193H4.59375Z" fill="#3D3D3D"/>
<path d="M45.005 74.9936V77.072C44.6795 77.072 44.6611 76.8171 44.6611 76.6286C44.6611 75.0545 44.5506 73.4749 44.7164 71.9063C44.7816 71.7886 44.8859 71.6923 45.0147 71.6307C45.1435 71.5691 45.2904 71.5453 45.4349 71.5627C46.5751 71.6855 47.729 71.6613 48.8616 71.4906C49.2688 71.4433 49.6796 71.4266 50.0899 71.4407H84.4803C84.8637 71.4287 85.2475 71.4417 85.6287 71.4795C85.9542 71.4795 86.2429 71.7788 86.6175 71.5627C87.7309 71.235 88.7373 70.6637 89.5468 69.8999C89.6918 69.7675 89.8783 69.6785 90.0811 69.6449C90.5479 69.4059 91.0736 69.2764 91.6102 69.268C92.906 69.2126 94.2079 69.2237 95.5037 69.268C95.9889 69.268 96.5047 69.3511 96.4249 69.9885C96.4415 70.0493 96.4361 70.1133 96.4096 70.1711C96.3831 70.2289 96.3368 70.2776 96.2775 70.31C96.0257 70.4153 96.124 70.5594 96.2222 70.7035C95.7372 71.946 94.9623 73.0801 93.95 74.0291C93.7412 73.7797 93.9193 73.6245 94.0913 73.4361C94.3983 73.1035 94.7054 72.7432 94.9572 72.4051C94.8343 72.1945 94.6317 72.2555 94.472 72.261C89.2336 72.3553 84.032 72.0837 78.7629 72.1058C67.9729 72.1446 57.1829 72.1058 46.3929 72.1058C45.2752 72.1058 44.9927 72.3553 44.9927 73.3529L45.005 74.9936Z" fill="#3D3D3D"/>
<path d="M28.7491 46.0129C29.0193 46.157 28.8904 46.3898 28.8904 46.5672C28.8904 54.8257 28.8904 63.0861 28.8904 71.3483C28.8904 73.122 28.8535 74.9012 28.8904 76.6748C28.8904 77.1903 28.7307 77.3566 28.1534 77.3399C26.3111 77.2734 24.524 77.412 22.7124 77.2734C22.6264 75.6938 22.7124 74.1141 22.7124 72.5345C22.7358 72.2169 22.6477 71.9008 22.4606 71.631C22.3801 71.3395 22.3511 71.0383 22.3746 70.7387C22.3746 62.7018 22.3746 54.6631 22.3746 46.6226C22.3746 46.218 22.1842 45.7247 22.7492 45.4531C23.0624 45.7025 22.9764 46.0462 22.9826 46.3566C22.9826 48.7399 22.9826 51.1232 22.9826 53.5121C22.9558 53.833 22.9911 54.1556 23.087 54.4655C23.2651 55.574 23.087 56.6825 23.1545 57.791C23.2037 58.7222 23.1115 59.6478 23.1545 60.5624C23.1975 61.6709 23.1545 62.7794 23.1545 63.888C23.1545 64.9965 23.1115 66.105 23.1545 67.2135C23.1914 68.4495 23.1545 69.6856 23.1545 70.9216C23.2774 72.6675 22.8598 74.4023 23.0071 76.0319C23.0071 75.4277 23.0071 74.7127 23.0071 73.9977C23.0071 73.0777 23.2774 72.8449 24.2784 72.8282C25.2794 72.8116 26.1698 72.8282 27.1156 72.8282C28.221 72.8282 28.3438 72.6841 28.3438 71.7197C28.3438 71.1654 28.3438 70.5668 28.3438 69.9904C28.3111 68.6269 28.3111 67.2634 28.3438 65.8999C28.3121 65.4595 28.3327 65.0173 28.4052 64.5808C28.5144 64.1541 28.5476 63.7144 28.5035 63.2783C28.5035 61.5434 28.5035 59.8141 28.5035 58.0793C28.5035 54.7537 28.5035 51.3671 28.5035 48.0138C28.5526 47.3376 28.2947 46.6392 28.7491 46.0129Z" fill="#3D3D3D"/>
<path d="M39.4844 50.4382C39.6563 49.9948 40.0064 49.884 40.5038 49.884C41.7996 49.9117 43.0954 49.884 44.3912 49.884C44.5815 50.2553 44.3543 50.7763 44.8886 51.0313C45.1398 51.2248 45.4186 51.387 45.7177 51.5135C45.9288 51.5997 46.1601 51.638 46.3914 51.6249C46.6226 51.6118 46.8468 51.5477 47.0443 51.4384C47.2419 51.329 47.4067 51.1776 47.5244 50.9975C47.6421 50.8173 47.7092 50.6139 47.7197 50.405C47.7197 50.1168 47.6644 49.8008 47.9469 49.5625C48.5242 49.5625 48.4136 49.9505 48.4505 50.2332C48.561 51.059 48.6408 51.1532 49.5804 51.1643C51.3614 51.1643 53.1423 51.1643 54.9294 51.1643C56.0164 51.1643 56.1576 51.3417 56.0471 52.3116C56.0471 52.4114 56.0041 52.4558 55.9181 52.489C55.4859 52.8373 55.0758 53.2074 54.6899 53.5975L54.5056 53.7416C50.9745 53.3426 47.4433 53.6918 43.9183 53.5754C43.626 53.5381 43.328 53.5686 43.0524 53.6641C43.3042 53.9634 43.6665 54.0409 43.9244 54.2682C44.1824 54.4954 44.1394 54.4622 43.9244 54.7559C42.7021 54.3137 41.6483 53.5609 40.8907 52.5888C40.3687 51.9126 39.687 51.2973 39.4844 50.4382Z" fill="#3D3D3D"/>
<path d="M65.4689 64.2164C65.2355 63.8062 64.8548 63.7619 64.3696 63.7619C61.3482 63.7619 58.3329 63.7619 55.25 63.7619C55.422 63.5679 55.7843 63.6455 55.7536 63.3517C56.6256 62.9305 57.5038 62.5148 58.3697 62.0769C59.4873 61.4567 60.562 60.7756 61.5877 60.0372C63.7186 59.6382 65.8865 59.8765 68.0175 59.8266C68.222 59.8107 68.4276 59.8432 68.6139 59.9209C68.8003 59.9987 68.9609 60.119 69.0799 60.27C69.2457 60.4917 69.1167 60.6968 69.0123 60.9019C68.3233 61.8978 67.4678 62.7915 66.476 63.5513C66.2611 63.6996 66.0849 63.8888 65.9602 64.1055C65.9368 64.1427 65.9053 64.1751 65.8676 64.201C65.8298 64.2268 65.7867 64.2455 65.7408 64.2558C65.6949 64.2662 65.6471 64.268 65.6004 64.2613C65.5536 64.2545 65.5089 64.2392 65.4689 64.2164V64.2164Z" fill="#3D3D3D"/>
<path d="M69.1027 60.4407C68.919 60.2856 68.7007 60.1677 68.4624 60.095C68.224 60.0224 67.9712 59.9966 67.721 60.0195C66.4436 60.0472 65.1601 60.0195 63.8827 60.0195C63.298 59.9964 62.7124 60.0373 62.1386 60.1414C61.9913 60.1747 61.6842 60.4074 61.5859 60.0361L61.7518 59.7756C61.9176 59.637 62.0772 59.4929 62.2246 59.3433L62.9554 58.789C63.1089 58.6061 63.2748 58.4232 63.4344 58.2347L65.8909 55.1696C66.3701 55.0121 66.8804 54.946 67.3893 54.9757C68.5623 54.9757 69.7352 54.9757 70.9021 54.9757C71.1699 54.9416 71.4428 54.9884 71.6782 55.1087C71.9136 55.2289 72.0984 55.416 72.204 55.6408C72.2797 55.7709 72.295 55.9228 72.2467 56.0631C72.1983 56.2034 72.0902 56.3206 71.9461 56.389C71.6943 56.4555 71.725 56.6218 71.7803 56.7992C71.4485 57.7828 70.9129 58.7006 70.202 59.504C69.8853 59.7311 69.6258 60.0164 69.4405 60.3409C69.4017 60.3935 69.354 60.4403 69.2992 60.4795C69.2661 60.4925 69.2293 60.4957 69.194 60.4887C69.1588 60.4818 69.1268 60.465 69.1027 60.4407V60.4407Z" fill="#3D3D3D"/>
<path d="M90.0241 26.3593C90.6508 26.0028 91.3961 25.8557 92.1305 25.9436C93.4017 26.0157 94.6791 25.8272 95.9442 26.0545C96.1898 26.0988 96.2512 25.9492 96.2881 25.7773C96.6466 26.4692 96.801 27.2329 96.7364 27.9944C96.8143 28.292 96.8371 28.5991 96.8039 28.9034C96.8039 31.4198 96.8469 33.9306 96.8039 36.4469C96.2635 36.4469 96.4047 36.0479 96.3863 35.7984C96.3372 35.1167 96.3556 34.4294 96.3863 33.7421C96.3863 32.8719 96.3863 31.9962 96.3863 31.126C96.3863 30.3611 96.1837 30.1948 95.3362 30.1727C94.3168 30.1727 93.2973 30.1727 92.2656 30.1727C91.6515 30.1727 91.4611 30.3999 91.4734 30.9154C91.4734 31.7689 91.4734 32.617 91.4734 33.4705C91.5061 34.9486 91.5061 36.4118 91.4734 37.8603C91.5041 39.4677 91.5102 41.0806 91.4734 42.6935C91.5041 43.7577 91.5041 44.8219 91.4734 45.8916C91.4427 46.9613 91.5041 48.1973 91.4734 49.3502C91.4734 50.5862 91.5041 51.8167 91.4734 53.0527C91.4991 53.4102 91.4785 53.7692 91.412 54.1224C91.318 54.4572 91.2848 54.8035 91.3137 55.1478C91.3137 58.8669 91.3137 62.5916 91.3137 66.3162C91.3137 66.6488 91.4795 67.07 90.9452 67.2474C90.6985 66.8662 90.6155 66.4165 90.7119 65.9837C90.7119 55.1644 90.7119 44.347 90.7119 33.5315C90.7119 32.4729 90.7119 31.4087 90.7119 30.35C90.8264 29.1492 90.6156 27.9414 90.0978 26.8304C90.0449 26.7628 90.0107 26.6848 89.9979 26.6029C89.985 26.521 89.994 26.4375 90.0241 26.3593V26.3593Z" fill="#3D3D3D"/>
<path d="M30.861 30.0742C32.0216 30.0742 33.1762 30.0742 34.3368 30.1075C35.4975 30.1407 36.7933 30.1075 38.0215 30.1075C39.0103 30.1075 40.0051 30.0188 40.9509 30.4012C40.392 30.9555 39.5568 31.0664 38.8874 31.4488C38.6171 31.6523 38.3096 31.8118 37.9785 31.9199C37.8434 32.0419 37.6346 32.0585 37.5118 32.2026C36.4365 32.8042 35.4536 33.531 34.5886 34.3642C34.514 34.4555 34.4047 34.5187 34.2816 34.5416C34.2202 34.5748 34.0973 34.6247 34.0789 34.5748C33.821 33.8986 33.1946 34.0538 32.6419 34.0483C31.2171 34.0483 29.7924 34.0483 28.3431 34.0483C27.4956 34.0483 27.3851 33.8155 27.729 33.1171C28.4651 31.8763 29.544 30.8281 30.861 30.0742V30.0742Z" fill="#3D3D3D"/>
<path d="M53.8738 29.6992L64.9954 29.6715V29.4442C64.5655 29.1006 63.976 28.8899 63.7058 28.4133C64.0128 28.2636 64.2585 28.4133 64.4734 28.574C65.9051 29.5062 67.1528 30.6492 68.1643 31.955C68.2384 32.2078 68.405 32.4305 68.6371 32.5869C68.7907 32.7698 68.981 32.9472 68.6801 33.1411C68.2848 33.3125 67.8459 33.3852 67.4089 33.3518H63.5031C62.9432 33.2935 62.3759 33.3601 61.8512 33.5458C61.6301 33.6511 61.4581 33.5458 61.2985 33.4183C61.1407 33.2888 60.9723 33.1703 60.7949 33.0636C59.7754 32.5093 58.7683 31.8885 57.7243 31.3509C57.0058 30.9851 56.2259 30.7135 55.4766 30.4031C55.0897 30.2091 54.623 30.198 54.2484 29.9985C54.2015 29.9814 54.1516 29.972 54.101 29.9708C53.9598 29.8932 53.837 29.8488 53.8738 29.6992Z" fill="#3D3D3D"/>
<path d="M72.1574 55.7335C71.6968 55.1293 71.0151 55.1792 70.3151 55.1792C69.2404 55.2069 68.1718 55.1792 67.0971 55.1792C66.7458 55.1184 66.3821 55.184 66.0838 55.3621C65.9487 55.4674 65.9057 55.2679 65.875 55.1681C66.0654 54.2259 66.6611 53.4111 66.9436 52.4965C67.2398 51.7955 67.4579 51.0695 67.5945 50.3294C67.625 50.2513 67.6745 50.1805 67.7394 50.122C67.8042 50.0635 67.8827 50.0188 67.9691 49.9913C68.3455 49.805 68.7681 49.7077 69.1974 49.7086C70.3765 49.7086 71.5494 49.7086 72.7224 49.7086C72.951 49.6812 73.1835 49.7142 73.3918 49.8038C73.6 49.8933 73.7749 50.0355 73.8953 50.213C74.0455 50.5316 74.0587 50.8893 73.9322 51.2162C73.648 52.5441 73.2201 53.8436 72.6548 55.096C72.5197 55.3011 72.3785 55.5007 72.2311 55.7002L72.1574 55.7335Z" fill="#3D3D3D"/>
<path d="M8.79188 71.2405C8.75504 71.5287 8.60151 71.5398 8.38657 71.3735C8.05104 71.1598 7.64003 71.0651 7.23203 71.1075C5.49613 71.1075 3.76023 71.1075 2.02433 71.1075C1.56988 71.1075 1.20755 71.1851 1.1093 71.6618C0.410889 70.4657 0.0462132 69.1339 0.0468759 67.7819C0.153481 67.6097 0.316021 67.4712 0.51258 67.385C0.709139 67.2987 0.930265 67.269 1.14614 67.2997C2.3191 67.2997 3.49821 67.2498 4.67117 67.2997C5.33441 67.3385 5.51865 67.1168 5.49408 66.5625C5.49408 65.8919 5.49408 65.2268 5.49408 64.5561C5.49408 63.7746 5.49408 62.9931 5.49408 62.2171C5.49408 61.0642 5.45109 59.9169 5.49408 58.7696C5.49408 57.7497 5.45109 56.7299 5.49408 55.71C5.61679 54.4069 5.66598 53.099 5.64147 51.7914C5.64147 49.3526 5.64147 46.9139 5.64147 44.4751C5.64147 42.0363 5.64147 39.5976 5.64147 37.1588C5.64147 34.5815 5.64147 32.0097 5.64147 29.4379C5.61184 29.1152 5.6346 28.7903 5.70902 28.4735C5.78272 28.3571 5.84413 28.2241 6.04679 28.3072C6.26133 28.7023 6.33019 29.149 6.2433 29.582C6.2433 41.8756 6.27401 54.1692 6.2433 66.4628C6.19274 67.2802 6.36439 68.0964 6.7433 68.8402C7.12221 69.5841 7.69689 70.2331 8.41727 70.7306C8.60765 70.8802 8.80416 70.9911 8.79188 71.2405Z" fill="#3D3D3D"/>
<path d="M29.2052 43.3056C29.143 44.1836 28.9972 45.0552 28.7692 45.9106C28.6832 46.4649 28.3516 46.6145 27.7375 46.548C26.9478 46.5119 26.1567 46.5119 25.367 46.548C24.4888 46.548 23.6045 46.4704 22.8614 47.0247C22.757 46.3596 22.9228 45.6778 22.6833 45.0183C22.5421 43.6492 22.9842 42.3522 23.2974 41.0386C23.3589 40.8003 23.451 40.5453 23.7887 40.4844C24.0282 40.6562 23.9054 40.9112 23.9545 41.155C25.3782 40.9726 26.8198 40.9317 28.2534 41.0331C29.1622 41.0331 29.4079 41.2825 29.5369 42.0086C29.4864 42.4517 29.375 42.8874 29.2052 43.3056V43.3056Z" fill="#3D3D3D"/>
<path d="M73.8677 50.3385C73.7181 50.1721 73.5219 50.0447 73.2995 49.9697C73.0771 49.8947 72.8365 49.8746 72.6026 49.9117C71.7428 49.9449 70.8831 49.9394 70.0233 49.9117C69.2923 49.8549 68.5566 49.9517 67.8739 50.1943C67.6897 50.0059 67.7757 49.8064 67.8739 49.6124C68.0356 48.0088 68.05 46.396 67.9169 44.7903C68.3468 44.7903 68.3038 45.0563 68.2976 45.3445C68.2976 46.1261 68.2976 46.902 68.2976 47.6835C68.2976 46.9796 68.2976 46.2757 68.2976 45.5718C68.2976 45.0896 68.5556 44.7958 69.0592 44.7903C70.4532 44.7903 71.8657 44.5741 73.2474 44.9178C73.5729 45.0009 73.6589 44.9178 73.6957 44.6573C73.6983 44.5757 73.7199 44.4956 73.7591 44.4221C73.7982 44.3485 73.8541 44.2833 73.9229 44.2305C74.3651 44.3358 74.4081 44.6794 74.4204 44.9954C74.4634 46.3367 74.4818 47.6724 74.4204 49.0082C74.4176 49.4969 74.2216 49.9686 73.8677 50.3385V50.3385Z" fill="#3D3D3D"/>
<path d="M61.2812 33.4299C63.7377 32.7703 66.3293 33.4742 68.8226 33.0031C69.0498 32.8812 69.2279 33.0031 69.3507 33.1472C70.124 33.9359 70.7242 34.85 71.1194 35.8409C71.1335 36.1798 71.2621 36.5066 71.4878 36.7776C71.5052 36.8526 71.5052 36.9299 71.4878 37.0049C71.2913 37.4206 70.8737 37.3541 70.4991 37.3596C69.2709 37.3596 68.0427 37.3596 66.8144 37.3596C66.3849 37.3074 65.9478 37.361 65.5493 37.5148C65.2054 37.6922 65.1195 37.3818 64.9352 37.282C64.8538 37.1308 64.755 36.9878 64.6405 36.8552L64.1676 36.301C64.0141 36.1957 64.0079 35.9906 63.836 35.8908C63.0929 35.0206 62.0919 34.3056 61.2812 33.4299Z" fill="#3D3D3D"/>
<path d="M27.9663 33.0137C27.9663 33.2853 27.7329 33.4516 27.6346 33.6733C27.8953 33.8284 28.2101 33.8916 28.519 33.8507H33.481C33.9478 33.8507 34.482 33.7842 34.0951 34.4659L34.2855 34.549L31.3193 38.0021C29.3112 37.6363 27.2785 37.8247 25.258 37.8358C25.1955 37.8336 25.1351 37.8152 25.0839 37.7827C25.0327 37.7503 24.9929 37.7052 24.9694 37.6529C24.9477 37.586 24.9477 37.5148 24.9694 37.4479C25.164 37.213 25.2772 36.9314 25.2949 36.6386C25.6449 35.2918 26.5599 34.2276 27.432 33.1468C27.5671 33.0026 27.7329 32.8641 27.9663 33.0137Z" fill="#3D3D3D"/>
<path d="M73.878 44.1845V45.4537C72.3243 44.5115 70.6907 45.0768 69.1309 44.9327C68.5168 44.8773 68.3141 45.1932 68.3264 45.7032C68.3577 46.4137 68.3062 47.1252 68.1729 47.826V45.5147C68.1729 45.2431 68.2343 44.9604 67.8781 44.7886L67.8351 44.2344C67.6939 44.0071 67.7675 43.7189 67.5895 43.5027C67.6324 42.8709 67.2026 42.3332 67.1411 41.718C67.3499 41.4409 66.9876 41.3411 66.9262 41.1637C66.8648 40.9864 66.9569 40.9587 67.0429 40.8755C67.1618 40.7853 67.3113 40.7345 67.4666 40.7314C69.3458 40.7314 71.225 40.5596 73.0981 40.8423C73.1866 40.8406 73.2732 40.866 73.3437 40.9143C73.8412 41.9674 74.3017 43.0427 73.878 44.1845Z" fill="#3D3D3D"/>
<path d="M96.7073 36.4733L96.7441 28.8633H96.824C96.8605 29.0186 96.8852 29.176 96.8977 29.3344C96.8977 33.4803 96.8977 37.628 96.8977 41.7776C96.8977 41.894 96.8977 42.0049 96.8608 42.1213C96.9506 42.362 96.9738 42.6189 96.9284 42.8695V56.6818C96.9284 57.9788 96.9284 59.2813 96.9284 60.5617C96.9284 62.557 96.9284 64.5524 96.9284 66.5477C96.9646 66.7528 96.9413 66.9628 96.8608 67.1574C96.9775 67.7117 96.7012 68.205 96.6889 68.7371C96.2406 68.8701 96.2467 68.5431 96.1976 68.3158C96.162 67.9729 96.1848 67.6271 96.2651 67.2904C96.3634 66.459 96.1239 66.1819 95.1781 66.1819C94.2324 66.1819 93.1454 66.1819 92.1076 66.1819C91.7637 66.1819 91.3891 66.2318 91.1127 65.9602C91.0636 64.8184 91.0697 63.6822 91.1127 62.5404C91.2235 62.4456 91.3571 62.3752 91.5031 62.3348C91.6491 62.2945 91.8034 62.2851 91.954 62.3076C93.0226 62.3076 94.0912 62.3076 95.1597 62.3076C96.2283 62.3076 96.6029 62.7011 96.609 63.6711C96.609 64.2253 96.609 64.7242 96.609 65.0734C96.6679 64.2546 96.6205 63.4324 96.4678 62.6235C96.4678 61.5704 96.4678 60.5118 96.4678 59.4587C96.4678 58.073 96.4678 56.6873 96.4678 55.3072C96.5108 53.6444 96.4678 51.9816 96.4678 50.3189C96.4678 49.299 96.4678 48.2736 96.4678 47.2482C96.4678 45.724 96.4678 44.1998 96.4678 42.6755C96.4678 40.9684 96.4678 39.2668 96.4678 37.5652C96.3891 37.187 96.4749 36.796 96.7073 36.4733V36.4733Z" fill="#3D3D3D"/>
<path d="M73.1119 40.8863C73.0075 41.3076 72.8233 40.8863 72.6882 40.8863L67.2533 40.9196C67.1543 40.9378 67.0604 40.9736 66.9769 41.0249C66.8725 41.0249 66.8541 40.9307 66.7988 40.8808L66.633 40.4817C66.5701 40.2783 66.4793 40.0828 66.3628 39.8997C66.0315 38.973 65.5626 38.0911 64.9688 37.2781C65.1346 37.206 65.2267 37.5663 65.5153 37.2781C65.8039 36.9898 66.4303 37.1672 66.9032 37.1617C68.2051 37.1617 69.5071 37.1617 70.809 37.1617C71.1468 37.1617 71.4231 37.1617 71.4231 36.7404C71.6503 36.7016 71.7363 36.8568 71.81 36.9899C72.2396 37.6298 72.5702 38.3198 72.7926 39.0406C72.7965 39.304 72.8816 39.5611 73.0382 39.7833C73.0865 39.8745 73.1196 39.9716 73.1365 40.0716C73.1242 40.3487 73.3391 40.6203 73.1119 40.8863Z" fill="#3D3D3D"/>
<path d="M25.051 37.7259C26.5801 37.4321 28.1215 37.6649 29.6691 37.5873C29.9603 37.5352 30.2611 37.5456 30.547 37.6178C30.8329 37.6901 31.096 37.822 31.3149 38.003C30.7008 39.3277 30.0867 40.6524 29.62 42.0215C29.5831 42.088 29.5463 42.088 29.4972 42.0215C29.4183 41.7351 29.2192 41.4876 28.9418 41.3314C28.6644 41.1752 28.3306 41.1226 28.011 41.1845C26.7275 41.251 25.4256 41.0404 24.1482 41.3231C24.0024 41.3627 23.859 41.409 23.7183 41.4616C23.4972 41.1346 23.878 40.8242 23.8043 40.4861C23.7528 40.4366 23.7166 40.3757 23.6994 40.3095C23.6821 40.2434 23.6844 40.1743 23.706 40.1092C23.8448 39.8823 23.9265 39.6307 23.9455 39.3721C24.0213 38.9746 24.191 38.5966 24.443 38.2635C24.6149 38.0585 24.7132 37.7869 25.051 37.7259Z" fill="#3D3D3D"/>
<path d="M6.0038 28.3046L5.85027 28.4542C5.64761 28.9531 5.93011 29.4963 5.6906 29.9951C5.43267 29.9618 5.3774 29.7734 5.35284 29.596C5.28528 29.1027 4.94138 28.9531 4.45623 28.942C3.38767 28.942 2.32524 28.942 1.25668 28.942C0.777673 28.942 0.562732 29.1249 0.562732 29.5572C0.562732 30.2667 0.562732 30.9761 0.562732 31.6856C0.562732 32.7332 0.562732 33.7696 0.562732 34.8116C0.607826 35.5251 0.587286 36.2407 0.501321 36.9511C0.435703 37.1736 0.40064 37.4026 0.396921 37.6329C0.396921 40.9584 0.396921 44.284 0.396921 47.6096C0.353933 51.2955 0.396921 54.9813 0.396921 58.6672C0.396921 59.7757 0.396921 60.8842 0.396921 61.9928C0.396921 62.2644 0.513603 62.6191 0.046875 62.7244C0.046875 62.5193 0.046875 62.3087 0.046875 62.1036V28.3877C0.046875 28.2713 0.046875 28.1605 0.046875 28.0441C0.219033 27.5801 0.29806 27.0921 0.280239 26.603C0.280239 26.3924 0.280239 26.1928 0.525885 26.0764C0.840492 25.9296 1.19124 25.8571 1.54532 25.8658C2.90456 25.8658 4.25971 25.8658 5.61076 25.8658C5.81516 25.8418 6.02293 25.8597 6.21858 25.9183C6.41424 25.9768 6.59272 26.0744 6.74074 26.2039C6.79924 26.2566 6.83786 26.3246 6.85109 26.3982C6.86432 26.4719 6.85149 26.5474 6.81443 26.6141C6.60563 26.8469 6.14505 26.9799 6.43368 27.4122C6.44788 27.5813 6.41615 27.751 6.34124 27.9065C6.26632 28.062 6.15049 28.1986 6.0038 28.3046V28.3046Z" fill="#3D3D3D"/>
<path d="M43.9275 54.7649C44.1793 54.3658 43.7003 54.3714 43.5407 54.2661C43.1695 54.0763 42.8163 53.8594 42.4844 53.6176C42.5803 53.5218 42.7016 53.4496 42.837 53.4079C42.9724 53.3662 43.1174 53.3563 43.2582 53.3793C46.6542 53.3793 50.0134 53.3793 53.4402 53.3793C53.9253 53.3793 54.1341 53.6841 54.4903 53.8116C53.7781 54.5234 52.838 55.0174 51.8005 55.225C51.5364 55.4744 51.0943 55.3635 50.8241 55.6129C49.7918 55.8613 48.7195 55.9457 47.6552 55.8624C46.7246 55.8528 45.8126 55.6256 45.0084 55.2028C44.9286 55.031 44.8119 55.103 44.6952 55.164C44.4105 55.0822 44.1487 54.9461 43.9275 54.7649V54.7649Z" fill="#3D3D3D"/>
<path d="M22.9174 47.0115C23.0463 46.424 23.4701 46.291 24.078 46.3076C25.4537 46.3519 26.8293 46.3076 28.1926 46.3907C28.733 46.424 28.4567 45.9362 28.7637 45.9141C28.7666 45.9473 28.7666 45.9806 28.7637 46.0138V47.9815C28.5672 48.6244 28.7637 49.2895 28.6409 49.9325C28.3891 50.1154 28.1066 50.0322 27.8364 50.0156C26.6942 49.9602 25.5519 50.0156 24.4035 50.0156C24.2703 49.9961 24.134 50.0014 24.0031 50.0312C23.8723 50.0611 23.7495 50.1148 23.6425 50.189C23.5355 50.2633 23.4465 50.3565 23.3809 50.463C23.3153 50.5695 23.2746 50.687 23.2613 50.8082C23.2244 50.9911 23.3043 51.3625 22.8252 51.2239C22.8252 49.9657 22.8252 48.7076 22.8252 47.4494C22.8191 47.3108 22.77 47.1445 22.9174 47.0115Z" fill="#3D3D3D"/>
<path d="M56.0355 52.3835C55.9926 52.256 55.8882 52.123 55.9066 51.9955C55.9557 51.5077 55.6732 51.4412 55.2126 51.4412C53.3703 51.4412 51.5279 51.4412 49.6365 51.4412C48.2486 51.4412 48.2486 51.4412 48.2178 50.2052C48.2178 49.845 48.2179 49.845 47.8985 49.7951C47.3397 49.6565 47.094 49.141 46.6089 48.9138C46.4983 48.8029 46.3018 48.7364 46.3755 48.5313C46.5907 48.5154 46.8069 48.5474 47.005 48.6248C47.2032 48.7021 47.3772 48.8223 47.5116 48.9748C47.6875 49.1221 47.8964 49.2335 48.1243 49.3014C48.3521 49.3693 48.5935 49.3921 48.832 49.3683C50.9752 49.3683 53.1308 49.3683 55.2618 49.3683C56.1338 49.3683 57.1471 49.0912 57.5401 50.1886C57.2111 51.0058 56.6989 51.753 56.0355 52.3835V52.3835Z" fill="#3D3D3D"/>
<path d="M91.1965 65.9844H95.3234C96.3612 65.9844 96.7543 66.3945 96.5516 67.3312C96.4666 67.6957 96.4254 68.0673 96.4288 68.4398C96.4219 68.4794 96.4242 68.5198 96.4356 68.5586C96.4469 68.5973 96.4671 68.6335 96.4949 68.6648C96.5226 68.6961 96.5573 68.7218 96.5967 68.7403C96.636 68.7588 96.6793 68.7697 96.7236 68.7723C96.7321 69.1963 96.6355 69.6167 96.4411 70.0028C96.4364 69.9251 96.4147 69.849 96.3771 69.779C96.3396 69.7089 96.287 69.6463 96.2225 69.5947C96.1579 69.5432 96.0827 69.5037 96.0011 69.4786C95.9195 69.4535 95.8331 69.4433 95.7471 69.4485C94.1197 69.504 92.4862 69.31 90.8342 69.5649C90.4964 69.6148 90.2692 69.8975 89.9069 69.8365C89.7104 69.443 90.085 69.2823 90.2876 69.0162C90.3791 68.9529 90.447 68.8659 90.4821 68.7669C90.5172 68.6678 90.518 68.5614 90.4842 68.4619C90.4824 68.1551 90.59 67.8558 90.7912 67.6084C90.9189 67.4871 91.0145 67.3413 91.0708 67.182C91.1272 67.0227 91.1429 66.8539 91.1167 66.6883C91.0727 66.4514 91.1003 66.2083 91.1965 65.9844V65.9844Z" fill="#3D3D3D"/>
<path d="M5.70568 64.6047C5.70568 65.4305 5.70568 66.2675 5.70568 67.0878C5.70568 67.4481 5.70568 67.6421 5.12841 67.5811C3.66067 67.4758 2.18065 67.5368 0.706777 67.509C0.412002 67.509 0.301461 67.7917 0.03125 67.7917V67.6531C0.301461 66.8218 0.129508 65.9904 0.178638 65.1312C0.178638 64.843 0.0926615 64.5326 0.326025 64.2721C0.622486 64.133 0.958234 64.0771 1.29019 64.1114C2.40174 64.1114 3.51943 64.1114 4.63098 64.1114C5.07928 64.1114 5.52758 64.1779 5.70568 64.6047Z" fill="#3D3D3D"/>
<path d="M6.75787 26.3739C6.38847 26.1715 5.96146 26.0713 5.52964 26.0857C4.30141 26.1134 3.07318 26.0857 1.79581 26.0857C1.36673 26.0732 0.938056 26.1199 0.524595 26.2242C0.468424 26.1658 0.4375 26.091 0.4375 26.0136C0.4375 25.9362 0.468424 25.8615 0.524595 25.803C0.705385 24.9777 1.12973 24.2117 1.75283 23.5859L1.67299 23.9684C4.12945 23.7578 6.58592 23.9684 9.07923 23.852C9.81002 23.8243 9.28189 24.2788 9.47226 24.4395C9.48298 24.4844 9.47944 24.5311 9.46206 24.5742C9.44467 24.6174 9.41415 24.6552 9.374 24.6834C8.51628 25.1397 7.73122 25.6991 7.04036 26.3462C7.00019 26.3729 6.95288 26.3896 6.90326 26.3944C6.85364 26.3993 6.80347 26.3922 6.75787 26.3739V26.3739Z" fill="#3D3D3D"/>
<path d="M44.8677 71.8156V76.6267C44.8677 76.7874 44.8677 76.9537 45.015 77.0701H86.4064H87.5548C87.4046 77.1787 87.2307 77.2576 87.0445 77.3015C86.8583 77.3455 86.6639 77.3535 86.474 77.325C85.0185 77.325 83.5631 77.325 82.1076 77.325H45.6906C45.359 77.325 45.0273 77.325 44.6957 77.325C44.5989 77.2197 44.5275 77.0972 44.4863 76.9655C44.445 76.8337 44.4348 76.6957 44.4562 76.5601C44.4562 75.0304 44.4562 73.5062 44.493 71.9764C44.5122 71.8903 44.5475 71.8078 44.5974 71.7325C44.7571 71.5884 44.8247 71.6383 44.8677 71.8156Z" fill="#3D3D3D"/>
<path d="M44.6935 71.8108C44.6935 73.6454 44.6935 75.4856 44.6935 77.3202H43.1582C42.194 77.2093 41.2299 77.3202 40.2657 77.2703C39.7848 77.3064 39.3016 77.234 38.8594 77.0597V76.2338C38.874 76.2147 38.8863 76.1943 38.8962 76.1729C39.0375 75.0643 39.0375 75.0643 40.3578 75.0643C41.2729 75.0643 42.2002 75.0643 43.1029 75.0643C44.0057 75.0643 44.1346 74.8648 44.1408 74.111C44.2217 73.5186 44.201 72.9185 44.0794 72.3318C44.0342 72.2229 44.0229 72.1049 44.0467 71.9905C44.0705 71.8762 44.1285 71.77 44.2145 71.6833C44.4356 71.5614 44.5584 71.7055 44.6935 71.8108Z" fill="#3D3D3D"/>
<path d="M22.5823 71.6374C22.703 71.8688 22.7498 72.1261 22.7174 72.3802C22.7174 74.0097 22.7174 75.6429 22.7174 77.2798C22.597 77.3108 22.4736 77.3313 22.3489 77.3408H10.0359C9.92536 77.2521 9.64901 77.3408 9.692 77.0914H22.2875C22.5332 77.1856 22.5946 77.0914 22.5946 76.8752C22.5946 75.3787 22.5946 73.8822 22.5946 72.3857C22.5946 71.8314 22.1708 71.8314 21.7471 71.8314H10.5886C10.5129 71.8405 10.4358 71.8348 10.3627 71.8147C10.2896 71.7947 10.2222 71.7607 10.1649 71.715C10.4351 71.4324 10.8097 71.4712 11.1597 71.4712C14.6541 71.4712 18.1484 71.4712 21.6366 71.4712C21.9637 71.4198 22.3004 71.479 22.5823 71.6374V71.6374Z" fill="#3D3D3D"/>
<path d="M55.755 44.3764C56.1343 44.4915 56.5348 44.5385 56.9341 44.5149C57.2964 44.4761 57.6035 44.5149 57.6588 44.9971C57.8675 44.5648 57.6158 44.2544 57.6096 43.9219C57.9105 44.0882 57.8491 44.3819 57.929 44.6313C58.2957 45.7071 58.3943 46.8427 58.2176 47.9569C58.2176 48.1343 58.1255 48.3117 58.1193 48.5112C58.1127 48.5302 58.1012 48.5476 58.0857 48.5618C58.0703 48.5761 58.0514 48.5869 58.0305 48.5934C58.0096 48.5999 57.9873 48.6018 57.9654 48.5991C57.9435 48.5964 57.9226 48.589 57.9044 48.5777C57.7535 48.3576 57.6927 48.0968 57.7324 47.8405C57.7346 47.4125 57.7059 46.9848 57.6465 46.5602C57.6465 46.2165 57.3701 46.078 57.0324 46.0946C56.5679 46.1078 56.1161 45.9566 55.7734 45.6734C55.6899 45.5874 55.6262 45.4872 55.5861 45.3787C55.5461 45.2702 55.5304 45.1555 55.5401 45.0415C55.522 44.9232 55.5318 44.8028 55.5688 44.6882C55.6059 44.5736 55.6693 44.4673 55.755 44.3764Z" fill="#3D3D3D"/>
<path d="M96.9062 56.7048C96.9062 51.8384 96.9062 46.9719 96.9062 42.1055C97.0464 42.2108 96.9855 42.3604 96.9855 42.4879C96.9855 47.0661 96.9855 51.6462 96.9855 56.2281C96.9742 56.3879 96.9539 56.547 96.9245 56.7048H96.9062Z" fill="#3D3D3D"/>
<path d="M0.341651 64.3217C0.341651 65.1531 0.341651 65.9845 0.341651 66.8104C0.353701 67.1118 0.249518 67.4076 0.046875 67.6473V62.659C0.353933 62.1878 0.157416 61.6779 0.18198 61.1846C0.218827 60.3366 0.18198 59.4886 0.18198 58.6405C0.20322 58.6301 0.226582 58.6238 0.250644 58.6218C0.274707 58.6198 0.298966 58.6222 0.321946 58.629C0.344926 58.6357 0.366146 58.6466 0.384315 58.661C0.402483 58.6754 0.417219 58.6929 0.427627 58.7126C0.716261 59.6105 0.519744 60.5306 0.556591 61.4396C0.618003 62.1435 0.581156 62.8474 0.581156 63.5513C0.610383 63.8261 0.524979 64.1008 0.341651 64.3217V64.3217Z" fill="#3D3D3D"/>
<path d="M46.2266 29.2595C46.7977 28.877 50.0525 28.877 50.5254 29.2595H46.2266Z" fill="#3D3D3D"/>
<path d="M96.8906 67.1778C96.8906 64.9607 96.8906 62.7825 96.8906 60.582C97.0216 62.779 97.0216 64.9808 96.8906 67.1778V67.1778Z" fill="#3D3D3D"/>
<path d="M58.0266 48.5361C58.2905 47.2503 58.2549 45.929 57.9222 44.6562C58.4626 44.95 58.2354 45.4932 58.3152 45.8923C58.465 46.9331 58.4088 47.9897 58.1494 49.0128C58.1494 49.107 57.9897 49.179 57.9038 49.2566C57.6274 48.9573 57.8853 48.7578 58.0266 48.5361Z" fill="#3D3D3D"/>
<path d="M38.8562 77.0625C40.1415 77.2045 41.4374 77.2527 42.7313 77.2066C42.8071 77.1975 42.8841 77.2032 42.9572 77.2233C43.0303 77.2434 43.0977 77.2774 43.155 77.323C41.8163 77.323 40.4775 77.323 39.1387 77.323C38.9545 77.323 38.629 77.4339 38.6966 77.0625H38.8562Z" fill="#3D3D3D"/>
<path d="M4.59375 75.1992C5.41964 75.362 6.1462 75.8018 6.62647 76.4297C5.8246 76.2184 5.11464 75.7886 4.59375 75.1992V75.1992Z" fill="#3D3D3D"/>
<path d="M96.9062 60.5869V56.707C97.0162 57.9984 97.0162 59.2955 96.9062 60.5869Z" fill="#3D3D3D"/>
<path d="M54.6562 53.6476C54.7536 53.3904 54.9149 53.1568 55.1278 52.9647C55.3407 52.7725 55.5995 52.6269 55.8845 52.5391C55.6422 53.0337 55.2042 53.4289 54.6562 53.6476Z" fill="#3D3D3D"/>
<path d="M90.4531 76.2453C90.484 76.1361 90.5401 76.034 90.6175 75.9456C90.695 75.8573 90.7922 75.7846 90.9028 75.7323C91.0134 75.68 91.135 75.6494 91.2596 75.6422C91.3842 75.6351 91.5091 75.6517 91.6261 75.691C91.3277 76.004 90.9081 76.2023 90.4531 76.2453V76.2453Z" fill="#3D3D3D"/>
<path d="M52.5289 64.2031C51.8166 64.6465 50.9875 64.5357 50.1953 64.5856C50.9573 64.3889 51.739 64.2608 52.5289 64.2031V64.2031Z" fill="#3D3D3D"/>
<path d="M58.0285 48.5391L57.9057 49.2374C57.8443 49.4093 57.9057 49.6476 57.6109 49.6919C57.6109 49.2873 57.4881 48.8605 57.8996 48.5391H58.0285Z" fill="#3D3D3D"/>
<path d="M35.4755 12.3594C35.1007 12.7094 34.6202 12.9522 34.0938 13.0577C34.2567 12.8602 34.464 12.6959 34.7021 12.5756C34.9402 12.4552 35.2037 12.3816 35.4755 12.3594V12.3594Z" fill="#3D3D3D"/>
<path d="M6.18299 19.8555C6.05273 20.0305 5.8852 20.1804 5.69016 20.2965C5.49512 20.4126 5.27645 20.4925 5.04688 20.5317C5.16328 20.3457 5.32701 20.1875 5.52455 20.0699C5.72209 19.9523 5.94778 19.8788 6.18299 19.8555V19.8555Z" fill="#3D3D3D"/>
<path d="M0.325484 26.6388C0.294778 27.1155 0.497436 27.6365 0.0307082 28.0411C-0.098256 27.5533 0.221084 27.1155 0.214943 26.6443C0.25179 26.5778 0.288637 26.5778 0.325484 26.6388Z" fill="#3D3D3D"/>
<path d="M29.504 42.0273H29.6269C29.5946 42.4793 29.4498 42.9188 29.2031 43.3132C29.2062 42.8707 29.3085 42.4332 29.504 42.0273V42.0273Z" fill="#3D3D3D"/>
<path d="M9.68408 77.0736L10.028 77.323C9.53861 77.3423 9.05147 77.2529 8.60938 77.0625L9.68408 77.0736Z" fill="#3D3D3D"/>
<path d="M54.2109 29.9688C54.6562 29.9888 55.0843 30.1298 55.4392 30.3734C55.0031 30.2902 54.5241 30.3457 54.2109 29.9688Z" fill="#3D3D3D"/>
<path d="M64.1376 14.5853C63.938 14.5322 63.7624 14.4228 63.6364 14.2733C63.5105 14.1237 63.4408 13.9417 63.4375 13.7539C63.7328 13.9837 63.9714 14.2669 64.1376 14.5853V14.5853Z" fill="#3D3D3D"/>
<path d="M0.325161 26.6355H0.21462C0.21462 26.3417 -0.0248851 25.9759 0.466407 25.793V26.2142C0.337443 26.3306 0.349725 26.4913 0.325161 26.6355Z" fill="#3D3D3D"/>
<path d="M67.5909 43.5312C68.0146 43.6864 67.855 43.9913 67.8366 44.2629C67.5479 44.08 67.5479 43.8028 67.5909 43.5312Z" fill="#3D3D3D"/>
<path d="M56.3607 41.8836C55.9247 41.8005 55.9124 41.4901 55.9062 41.1797C56.031 41.263 56.1356 41.3684 56.2138 41.4894C56.2919 41.6104 56.3419 41.7446 56.3607 41.8836Z" fill="#3D3D3D"/>
<path d="M67.8316 49.6133C67.8316 49.8073 67.8316 50.0013 67.8316 50.1953L67.5614 50.3338C67.5429 50.0622 67.5429 49.7906 67.8316 49.6133Z" fill="#3D3D3D"/>
<path d="M50.8281 55.595C51.0369 55.2237 51.4852 55.3456 51.8046 55.207C51.5896 55.5895 51.1597 55.4786 50.8281 55.595Z" fill="#3D3D3D"/>
<path d="M66.7937 40.9062L66.9718 41.0504L67.0701 41.2C67.1056 41.2237 67.1345 41.2546 67.1544 41.2902C67.1744 41.3259 67.1847 41.3652 67.1847 41.4051C67.1847 41.445 67.1744 41.4843 67.1544 41.5199C67.1345 41.5556 67.1056 41.5865 67.0701 41.6102C66.6525 41.4882 66.8183 41.1668 66.7937 40.9062Z" fill="#3D3D3D"/>
<path d="M32.4266 15.4215C32.3945 15.4673 32.3501 15.505 32.2975 15.5312C32.2449 15.5574 32.1858 15.5711 32.1257 15.5711C32.1193 15.4295 32.156 15.2891 32.2318 15.165C32.3076 15.0409 32.4196 14.9379 32.5556 14.8672L32.4266 15.4215Z" fill="#3D3D3D"/>
<path d="M53.8803 29.7031L54.0707 29.947C53.9303 29.9863 53.7798 29.9844 53.6407 29.9416C53.5017 29.8988 53.3813 29.8172 53.2969 29.7087L53.8803 29.7031Z" fill="#3D3D3D"/>
<path d="M67.0938 41.6094V41.1992C67.3885 41.3489 67.7079 41.4985 67.1674 41.7535L67.0938 41.6094Z" fill="#3D3D3D"/>
<path d="M96.2253 70.7007C96.0042 70.6674 95.9121 70.5566 96.0042 70.3626C96.0963 70.1686 96.1516 70.163 96.2806 70.3071L96.2253 70.7007Z" fill="#3D3D3D"/>
<path d="M44.7031 55.1428C44.7031 54.9821 44.8259 54.8879 45.0163 54.9267C45.1084 54.9267 45.219 54.9876 45.2006 55.0985C45.1821 55.2094 45.0777 55.1539 45.0163 55.1816L44.7031 55.1428Z" fill="#3D3D3D"/>
<path d="M11.5354 13.5088C11.4564 13.5916 11.3568 13.6564 11.2447 13.6978C11.1327 13.7392 11.0113 13.7561 10.8906 13.7471C10.995 13.4257 11.2652 13.4756 11.5354 13.5088Z" fill="#3D3D3D"/>
<path d="M63.4323 58.2383C63.4132 58.3605 63.359 58.476 63.2749 58.5732C63.1908 58.6705 63.0799 58.7462 62.9532 58.7926C62.9471 58.4877 63.1805 58.3602 63.4323 58.2383Z" fill="#3D3D3D"/>
<path d="M57.5838 43.6871C57.1908 43.6427 57.3136 43.3656 57.2891 43.1328C57.3769 43.2026 57.4483 43.2877 57.4989 43.3829C57.5495 43.4781 57.5784 43.5816 57.5838 43.6871V43.6871Z" fill="#3D3D3D"/>
<path d="M60.7969 33.0664C61.0425 33.1218 61.2882 33.1717 61.2943 33.4655C61.0241 33.3768 60.7969 33.2881 60.7969 33.0664Z" fill="#3D3D3D"/>
<path d="M8.04097 19.2123C7.96727 19.4784 7.75847 19.4673 7.53125 19.4285C7.59266 19.1403 7.8076 19.1569 8.04097 19.2123Z" fill="#3D3D3D"/>
<path d="M96.2238 25.3955C95.8246 25.3068 95.9904 25.0186 95.972 24.7969C96.1132 24.9742 96.2852 25.1461 96.2238 25.3955Z" fill="#3D3D3D"/>
<path d="M2.94216 22.043C2.94895 22.0998 2.94269 22.1573 2.92376 22.2118C2.90484 22.2663 2.87365 22.3168 2.83216 22.36C2.79066 22.4031 2.73975 22.4381 2.6826 22.4627C2.62545 22.4873 2.56329 22.5011 2.5 22.503C2.59826 22.3146 2.64125 22.0762 2.94216 22.043Z" fill="#3D3D3D"/>
<path d="M96.8376 28.8536H96.7578V28C96.8505 28.1244 96.9064 28.2681 96.9204 28.4174C96.9343 28.5668 96.9059 28.7169 96.8376 28.8536V28.8536Z" fill="#3D3D3D"/>
<path d="M2.01031 23.168C2.01031 23.373 2.01031 23.5837 1.70325 23.5892C1.70097 23.4992 1.72913 23.4106 1.78398 23.3354C1.83884 23.2601 1.91778 23.2017 2.01031 23.168V23.168Z" fill="#3D3D3D"/>
<path d="M64.6537 36.8867C64.9485 36.92 64.9792 37.0973 64.9485 37.3135C64.7949 37.2026 64.5861 37.1195 64.6537 36.8867Z" fill="#3D3D3D"/>
<path d="M62.2229 59.3516C62.2109 59.4616 62.1574 59.5647 62.0714 59.6434C61.9853 59.7221 61.8718 59.7717 61.75 59.7839C61.7736 59.6781 61.831 59.5808 61.915 59.5041C61.999 59.4273 62.106 59.3743 62.2229 59.3516Z" fill="#3D3D3D"/>
<path d="M66.6501 18.7426C66.55 18.7144 66.4645 18.6547 66.4092 18.5743C66.354 18.4938 66.3327 18.3981 66.3492 18.3047C66.6317 18.349 66.6378 18.5486 66.6501 18.7426Z" fill="#3D3D3D"/>
<path d="M31.1896 17.082C31.1896 17.2649 31.1896 17.4645 30.9255 17.4977C30.8703 17.2871 31.0238 17.1818 31.1896 17.082Z" fill="#3D3D3D"/>
<path d="M37.4922 32.2111C37.5843 32.0282 37.7071 31.8896 37.9589 31.9284C37.9159 32.1723 37.7194 32.2111 37.4922 32.2111Z" fill="#3D3D3D"/>
<path d="M63.8672 35.9453C63.9678 35.9663 64.0568 36.0193 64.1177 36.0946C64.1786 36.17 64.2074 36.2625 64.1988 36.3555C63.9102 36.3278 63.8672 36.1559 63.8672 35.9453Z" fill="#3D3D3D"/>
<path d="M65.4105 16.5443C65.3101 16.5119 65.2255 16.4485 65.1716 16.3654C65.1177 16.2823 65.098 16.1848 65.1157 16.0898C65.3982 16.1453 65.4289 16.3282 65.4105 16.5443Z" fill="#3D3D3D"/>
<path d="M32.8786 14.4648C32.8786 14.6533 32.8786 14.8528 32.5838 14.8584C32.547 14.6478 32.6944 14.5424 32.8786 14.4648Z" fill="#3D3D3D"/>
<path d="M66.352 39.9219C66.4573 39.9826 66.5396 40.0708 66.5879 40.1748C66.6362 40.2788 66.6482 40.3936 66.6223 40.5039C66.5216 40.4392 66.443 40.3504 66.3953 40.2476C66.3475 40.1448 66.3326 40.032 66.352 39.9219V39.9219Z" fill="#3D3D3D"/>
<path d="M40.8587 24.7558C42.1976 24.32 43.6008 24.066 45.0224 24.002C48.3972 23.6515 51.813 23.8088 55.1307 24.4676C55.3954 24.5364 55.6524 24.6274 55.8984 24.7392C56.2423 25.0274 56.7397 24.9498 57.1266 25.1494C57.3415 25.3544 57.6854 25.2547 57.9188 25.4154C57.9362 25.4028 57.9579 25.396 57.9802 25.396C58.0025 25.396 58.0242 25.4028 58.0416 25.4154C58.6557 25.7147 59.2699 25.9697 59.9392 26.2136C59.9485 26.21 59.9584 26.2082 59.9685 26.2082C59.9785 26.2083 59.9884 26.2102 59.9977 26.2138C60.0069 26.2174 60.0151 26.2227 60.022 26.2294C60.0288 26.236 60.0341 26.2438 60.0375 26.2524C60.1827 26.3579 60.3468 26.4404 60.5227 26.4962V26.4962C60.6271 26.9396 60.2524 26.7955 60.0498 26.79C52.7418 26.4796 45.4338 26.7401 38.132 26.6625C37.7021 26.6625 37.2722 26.7623 36.8485 26.79C36.609 26.79 36.3081 26.8731 36.2344 26.5295C36.3633 26.4242 36.5476 26.3909 36.6827 26.2856L36.8424 26.2524C37.1633 26.1556 37.4688 26.0214 37.7512 25.8533C37.7575 25.8437 37.7659 25.8353 37.7759 25.8287C37.7858 25.822 37.7972 25.8173 37.8092 25.8147C37.8212 25.8121 37.8337 25.8118 37.8459 25.8136C37.8581 25.8155 37.8698 25.8195 37.8802 25.8256C38.1995 25.5928 38.6663 25.6648 38.9672 25.3988C39.1357 25.3417 39.2965 25.2673 39.4462 25.1771L39.7226 25.1216C40.1182 25.0477 40.5005 24.9246 40.8587 24.7558Z" fill="#3D3D3D"/>
<path d="M30.9141 29.9718C31.2679 29.466 31.7936 29.0772 32.4125 28.8633C32.0368 29.3513 31.518 29.7351 30.9141 29.9718Z" fill="#3D3D3D"/>
<path d="M32.4141 28.849C32.7851 28.4663 33.2527 28.1697 33.7774 27.9844C33.6342 28.2098 33.4379 28.4042 33.2023 28.5536C32.9667 28.703 32.6976 28.8038 32.4141 28.849V28.849Z" fill="#3D3D3D"/>
<path d="M54.948 69.4281C53.3585 69.7173 51.7504 69.9153 50.1333 70.0212C48.947 70.1774 47.7409 70.1643 46.5591 69.9824C44.7168 69.672 44.6799 69.6665 44.7168 71.3126C44.7168 71.4512 44.7168 71.5898 44.7598 71.7283C44.7408 71.7582 44.7181 71.7861 44.6922 71.8115C44.6315 71.8141 44.5711 71.8021 44.5172 71.7768C44.4632 71.7515 44.4177 71.7137 44.3852 71.6674C44.0963 71.4364 43.7208 71.3135 43.335 71.3237C42.2419 71.3237 41.1426 71.3237 40.0495 71.3237C39.4354 71.3237 39.2327 71.5399 39.245 72.0664C39.245 72.8036 39.245 73.5408 39.245 74.2835C39.245 74.5551 39.3249 74.9098 38.8704 75.0096C38.7537 72.5209 39.0608 70.0212 39.0117 67.5547C39.0117 67.1002 39.1775 66.9672 39.6749 66.9672C46.1108 66.9672 52.5488 66.9672 58.9888 66.9672C59.2468 66.9672 59.5477 66.934 59.7135 67.1169C60.0144 67.4439 60.3276 67.3164 60.6777 67.2499C59.6275 67.9815 58.3563 68.2974 57.1649 68.763C56.7535 68.9238 56.3174 69.0291 55.8937 69.1621C55.5928 69.3007 55.2612 69.2619 54.948 69.4281Z" fill="#3D3D3D"/>
<path d="M38.875 74.9931C39.2128 74.2837 38.9978 73.541 39.0101 72.8204C39.0531 71.1133 39.0101 71.1133 40.8832 71.1133C41.8535 71.1133 42.8238 71.1133 43.7941 71.1133C44.2731 71.1133 44.4573 71.2574 44.4082 71.6675C44.3252 71.7237 44.2663 71.8042 44.2417 71.8951C44.2171 71.9861 44.2282 72.082 44.2731 72.1664C44.6538 72.8869 44.3283 73.6296 44.402 74.3557C44.4635 74.982 44.1011 75.2813 43.401 75.2703C42.2526 75.2703 41.1104 75.2703 39.9681 75.2703C39.354 75.2703 38.8934 75.2703 39.0224 76.0185C39.0224 76.085 38.9303 76.1737 38.8873 76.2513L38.875 74.9931Z" fill="#3D3D3D"/>
<path d="M65.4547 64.2266C65.4296 64.3259 65.3725 64.4163 65.2905 64.4864C65.2085 64.5564 65.1054 64.603 64.9941 64.6201L64.4844 64.7476C64.5777 64.5889 64.7176 64.4564 64.8887 64.3645C65.0598 64.2726 65.2556 64.2249 65.4547 64.2266V64.2266Z" fill="#3D3D3D"/>
<path d="M36.2843 19.8594C36.2843 20.0589 36.2843 20.2584 35.9834 20.3083C35.9688 20.261 35.9651 20.2114 35.9724 20.1627C35.9798 20.114 35.9982 20.0672 36.0264 20.0252C36.0546 19.9831 36.092 19.9467 36.1364 19.9182C36.1807 19.8897 36.2311 19.8697 36.2843 19.8594V19.8594Z" fill="#3D3D3D"/>
<path d="M55.7424 45.1024C55.7176 45.2971 55.7698 45.4934 55.8898 45.6567C55.9483 45.7011 55.992 45.7594 56.0158 45.825C56.0397 45.8906 56.0428 45.9609 56.0249 46.028C55.9758 46.222 55.9328 46.4216 55.8652 46.5823C55.835 46.6999 55.7771 46.8102 55.6955 46.9058C55.6139 47.0014 55.5106 47.0801 55.3923 47.1366L54.6615 47.9236C54.3889 48.1946 54.0445 48.3987 53.6605 48.5167C53.0761 48.5814 52.4844 48.5683 51.9042 48.4779C51.4497 48.2894 50.7926 48.3393 50.7312 47.6797L50.068 46.8816C49.6565 46.1777 49.8899 45.4405 49.9329 44.7089C49.9402 44.6319 49.9631 44.5567 50.0004 44.4872C50.1847 44.2987 50.3075 44.0715 50.4856 43.8775C50.9934 43.3369 51.7177 42.9996 52.5001 42.9394C53.2825 42.8792 54.0596 43.1008 54.6615 43.556V43.556C54.9645 43.7133 55.2083 43.9488 55.3616 44.2322C55.6626 44.4595 55.638 44.8031 55.7424 45.1024Z" fill="white"/>
<path d="M46.6694 48.8106C47.1335 49.0772 47.548 49.4083 47.8977 49.7916C47.9407 50.5066 48.0266 51.2216 47.1423 51.6373C46.258 52.053 45.7176 51.9477 44.6858 51.1607C44.2498 50.2738 44.3174 49.8969 45.042 49.2374L45.7605 48.8217C45.8938 48.7388 46.0513 48.6934 46.2131 48.6915C46.3749 48.6895 46.5338 48.731 46.6694 48.8106V48.8106Z" fill="white"/>
<path d="M55.3828 47.1273L55.7144 46.5731C55.9417 46.4234 55.7144 46.174 55.8864 46.0188V45.6641C56.443 45.8493 57.0262 45.9613 57.6182 45.9966C57.7103 45.9966 57.8515 46.2072 57.8515 46.3236C57.8515 46.8391 58.0481 47.3657 57.7472 47.8645C57.6182 47.4045 57.2006 47.4599 56.826 47.4488C56.3224 47.4155 55.7881 47.5153 55.3828 47.1273Z" fill="#3D3D3D"/>
<path d="M45.0605 49.2383C44.8333 49.509 44.6822 49.8254 44.6201 50.1604C44.5581 50.4953 44.587 50.8389 44.7043 51.1616C44.1884 50.829 44.2437 50.3801 44.3911 49.9145C44.5016 49.5986 44.5937 49.266 45.0605 49.2383Z" fill="#3D3D3D"/>
<path d="M50.0689 44.6548C49.8226 45.3771 49.8226 46.1496 50.0689 46.8719C49.7189 46.8109 49.768 46.556 49.768 46.3176C49.768 45.8022 49.768 45.2811 49.768 44.7657C49.8478 44.7103 49.8908 44.5717 50.0689 44.6548Z" fill="#3D3D3D"/>
<path d="M51.7509 48.3789H53.7468C53.7891 48.4182 53.8129 48.4709 53.8129 48.5258C53.8129 48.5806 53.7891 48.6333 53.7468 48.6727H53.2923C52.8868 48.6007 52.4696 48.6007 52.0641 48.6727L51.757 48.5341C51.7337 48.5141 51.72 48.4867 51.7188 48.4576C51.7177 48.4286 51.7292 48.4003 51.7509 48.3789V48.3789Z" fill="#3D3D3D"/>
<path d="M51.7623 48.3797V48.5293C51.5604 48.5181 51.363 48.4706 51.1816 48.3897C51.0003 48.3088 50.8386 48.1961 50.706 48.0582C50.5709 47.9252 50.5034 47.7977 50.706 47.6758C50.921 48.0915 51.4368 48.1136 51.7623 48.3797Z" fill="#3D3D3D"/>
<path d="M53.75 48.6662C53.75 48.5665 53.75 48.4722 53.75 48.3725C54.0085 48.1578 54.3201 48.0019 54.6589 47.918C54.6589 48.4611 54.0816 48.4445 53.75 48.6662Z" fill="#3D3D3D"/>
<path d="M52.0625 48.6714C52.2465 48.5671 52.4593 48.5117 52.6766 48.5117C52.8939 48.5117 53.1068 48.5671 53.2907 48.6714C52.8901 48.7795 52.4631 48.7795 52.0625 48.6714Z" fill="#3D3D3D"/>
<path d="M46.6712 48.81H45.75C45.8483 48.5384 46.0878 48.5107 46.3641 48.5162L46.6712 48.81Z" fill="#3D3D3D"/>
<path d="M54.6534 43.5569C54.0939 43.306 53.492 43.1411 52.8724 43.0691C52.4055 43.0367 51.9375 43.1172 51.5165 43.3023C51.0956 43.4874 50.7369 43.7704 50.4774 44.1222C50.3544 44.2667 50.2211 44.4037 50.0782 44.5324C50.0344 44.5277 49.9936 44.5098 49.9624 44.4817C49.9312 44.4535 49.9115 44.4167 49.9062 44.3772C50.2562 43.7247 50.8617 43.2123 51.6057 42.939C52.3496 42.6657 53.1794 42.6508 53.9348 42.8973C54.105 42.9463 54.2593 43.032 54.3845 43.1469C54.5097 43.2618 54.602 43.4025 54.6534 43.5569V43.5569Z" fill="#3D3D3D"/>
<path d="M55.3072 44.2325C55.0861 44.0108 54.7729 43.8612 54.6562 43.5508C54.8528 43.5688 55.0371 43.6458 55.1795 43.7693C55.322 43.8929 55.4145 44.056 55.4423 44.2325C55.3993 44.2935 55.3563 44.2935 55.3072 44.2325Z" fill="#3D3D3D"/>
<path d="M55.3125 44.2305H55.4476L55.7547 44.3746V45.1007C55.6011 44.8124 55.4537 44.5242 55.3125 44.2305Z" fill="#3D3D3D"/>
<path d="M49.9204 44.3711L50.0923 44.5263C50.1042 44.5448 50.1104 44.5659 50.1104 44.5873C50.1104 44.6087 50.1042 44.6297 50.0923 44.6482L49.7853 44.7923C49.7484 44.6371 49.7484 44.4709 49.9204 44.3711Z" fill="#3D3D3D"/>
<path d="M45.5156 71.737C46.554 71.6658 47.597 71.6658 48.6353 71.737C47.5991 71.8467 46.5519 71.8467 45.5156 71.737Z" fill="#3D3D3D"/>
<path d="M86.0312 71.7335L86.5962 71.6836C86.4611 72.1381 86.2278 71.7834 86.0312 71.7335Z" fill="#3D3D3D"/>
<path d="M22.9062 70.9703V67.229C23.1519 65.6826 23.2072 65.6383 25.0311 65.6383C25.897 65.6383 26.7629 65.6383 27.6288 65.6383C27.962 65.601 28.2988 65.676 28.5745 65.8489V70.0059C28.0096 70.2276 27.4261 70.0059 26.8489 70.0613C26.0935 70.1001 25.3259 70.0613 24.5644 70.0613C23.9502 70.0613 23.4098 70.1666 23.1887 70.7874C23.1754 70.8442 23.139 70.8944 23.0868 70.9283C23.0345 70.9621 22.9701 70.9771 22.9062 70.9703Z" fill="#3D3D3D"/>
<path d="M22.9138 57.8065V54.481C22.8829 54.4021 22.8829 54.316 22.9138 54.2371C23.0489 53.4001 23.3867 53.0787 24.2649 53.051C25.4562 53.0066 26.6476 53.051 27.8329 53.051C28.1645 53.051 28.5023 53.0898 28.6619 53.4223C28.6619 54.5918 28.6619 55.7558 28.6619 56.9253C28.4777 57.1581 28.2013 57.0638 27.9618 57.0638C26.8196 57.0638 25.6773 57.0638 24.5351 57.0638C23.921 57.0638 23.4112 57.1026 23.184 57.7068C23.1591 57.7494 23.1184 57.7828 23.069 57.801C23.0196 57.8193 22.9647 57.8212 22.9138 57.8065Z" fill="#3D3D3D"/>
<path d="M22.9141 63.9001V60.5745C23.0068 60.4357 23.0557 60.2766 23.0553 60.1145C23.0469 60.0152 23.0611 59.9155 23.0969 59.8213C23.1327 59.7272 23.1894 59.6406 23.2636 59.5669C23.3377 59.4933 23.4278 59.434 23.5282 59.3928C23.6286 59.3517 23.7373 59.3294 23.8475 59.3274C25.2449 59.2138 26.6507 59.2138 28.0481 59.3274C28.1642 59.3338 28.2771 59.3641 28.3783 59.4159C28.4794 59.4678 28.566 59.5399 28.6315 59.6267C28.6806 60.7352 28.6622 61.805 28.6315 62.8969C28.392 63.174 28.0174 63.1297 27.7226 63.1352C26.8635 63.1796 26.0024 63.1796 25.1433 63.1352C24.7301 63.0764 24.307 63.116 23.916 63.2502C23.525 63.3844 23.1796 63.6084 22.9141 63.9001Z" fill="#3D3D3D"/>
<path d="M22.909 70.9762C23.3451 69.8677 23.3451 69.8677 24.7514 69.8677C26.0226 69.8677 27.3 69.7181 28.5651 70.0007V72.0072C28.5651 72.8774 28.3992 73.0326 27.3982 73.0436C26.3972 73.0547 25.255 73.0436 24.1803 73.0436C23.3328 73.0436 23.0626 73.2764 23.0442 74.0635C23.0573 74.8234 23.006 75.5831 22.8906 76.336L22.909 70.9762Z" fill="#3D3D3D"/>
<path d="M22.9141 63.9004C23.0983 63.1022 23.6387 62.875 24.5169 62.9193C25.868 62.9859 27.2252 62.9193 28.5824 62.9193C28.702 63.4683 28.702 64.0331 28.5824 64.5821V65.8292H24.6213C23.3132 65.8292 23.2273 65.9013 23.0369 67.0375C23.0369 67.0985 22.9571 67.1539 22.9141 67.2093V63.9004Z" fill="#3D3D3D"/>
<path d="M28.5823 59.6073C27.09 59.3412 25.5855 59.5075 24.087 59.4798C23.5957 59.4798 23.1781 59.635 23.2027 60.2004C23.202 60.2814 23.1741 60.3603 23.1225 60.4266C23.071 60.493 22.9983 60.5436 22.9141 60.5717V57.8004C23.0246 56.9136 23.651 56.7805 24.5046 56.8249C25.567 56.8803 26.6356 56.8249 27.698 56.8249C28.002 56.7949 28.3092 56.8449 28.5823 56.969C28.664 57.3336 28.6888 57.7067 28.656 58.0775C28.6918 58.5884 28.667 59.1012 28.5823 59.6073V59.6073Z" fill="#3D3D3D"/>
<path d="M28.5761 58.0919V53.3806C28.183 52.2532 28.183 51.0439 28.5761 49.9165C28.6498 49.2735 28.4164 48.6084 28.7235 47.9766V58.0863C28.6744 58.1529 28.6252 58.1529 28.5761 58.0919Z" fill="#3D3D3D"/>
<path d="M22.9221 54.3415C22.9221 54.3858 22.9221 54.4357 22.9221 54.48C22.7624 54.3636 22.7808 54.1974 22.7808 54.0366V45.5785C22.7479 45.4646 22.7413 45.3458 22.7613 45.2295C22.7814 45.1132 22.8278 45.0018 22.8975 44.9023C22.8975 45.6063 22.8975 46.3046 22.9405 47.0085C22.9405 48.4312 22.9405 49.8593 22.9405 51.293C23.3581 52.0191 23.1616 52.7951 23.1002 53.5489C23.0767 53.8186 23.0169 54.0848 22.9221 54.3415V54.3415Z" fill="#3D3D3D"/>
<path d="M28.5781 58.0898H28.7255C28.7255 60.0464 28.7255 62.0029 28.7255 63.954C28.7255 64.1757 28.8115 64.4251 28.5781 64.6024V58.0898Z" fill="#3D3D3D"/>
<path d="M45.9375 52.0539C46.1647 51.9991 46.3674 51.9388 46.5516 52.0539C46.457 52.0985 46.3516 52.1219 46.2446 52.1219C46.1375 52.1219 46.0321 52.0985 45.9375 52.0539Z" fill="#3D3D3D"/>
<path d="M66.3289 63.5117C66.3105 63.6349 66.2558 63.7513 66.1705 63.8488C66.0851 63.9464 65.9723 64.0214 65.8438 64.066C65.8534 63.9403 65.9049 63.8201 65.9915 63.7212C66.078 63.6224 66.1956 63.5493 66.3289 63.5117V63.5117Z" fill="#3D3D3D"/>
<path d="M69.2764 60.4619C69.268 60.57 69.219 60.6723 69.1375 60.7519C69.056 60.8315 68.9469 60.8837 68.8281 60.8998L69.1045 60.4453L69.2764 60.4619Z" fill="#3D3D3D"/>
<path d="M70.0054 59.4766C69.8535 59.8531 69.5926 60.1861 69.25 60.441C69.289 60.2398 69.377 60.0489 69.5076 59.8822C69.6382 59.7154 69.8082 59.5769 70.0054 59.4766V59.4766Z" fill="#3D3D3D"/>
<path d="M71.7767 56.3131L71.6601 56.701C71.5311 56.701 71.4083 56.629 71.4328 56.4849C71.4574 56.3408 71.6232 56.3075 71.7767 56.3131Z" fill="#3D3D3D"/>
<path d="M96.7246 42.7106V47.2888C96.7046 47.2992 96.6825 47.3057 96.6596 47.308C96.6368 47.3103 96.6136 47.3082 96.5916 47.3019C96.5697 47.2957 96.5494 47.2854 96.5321 47.2716C96.5148 47.2579 96.5009 47.2411 96.4912 47.2223C96.3616 46.8652 96.3197 46.4869 96.3684 46.1137C96.3254 45.3322 96.3684 44.5507 96.3684 43.7748C96.3684 43.0986 96.2026 42.96 95.4595 42.9378C94.3909 42.9378 93.3224 42.9378 92.2538 42.9378C91.8966 42.9891 91.5313 42.9136 91.2344 42.7272V37.8663C91.3258 37.7854 91.4408 37.7297 91.566 37.7056C93.0359 37.6086 94.5116 37.6086 95.9815 37.7056C96.4912 37.7056 96.6877 38.0714 96.6877 38.5314C96.6877 39.7009 96.6877 40.8704 96.6877 42.0399C96.6429 42.2631 96.6555 42.4925 96.7246 42.7106V42.7106Z" fill="#3D3D3D"/>
<path d="M96.7179 42.7049C96.4415 42.3724 96.5951 41.9899 96.5828 41.6352C96.5828 40.7151 96.5828 39.7895 96.5828 38.8639C96.5828 37.9382 96.4784 37.8606 95.5019 37.8551H91.2031V33.421C91.3121 33.3221 91.455 33.2596 91.6084 33.2436C93.0238 33.1688 94.4428 33.1688 95.8581 33.2436C96.0107 33.2559 96.1572 33.3037 96.2831 33.3824C96.4091 33.4611 96.5102 33.568 96.5766 33.6926C96.6626 34.6071 96.3985 35.5438 96.7179 36.4639V42.7049Z" fill="#3D3D3D"/>
<path d="M91.2031 53.1086V49.3674C92.8623 49.035 94.5807 49.0236 96.245 49.3341C96.32 49.3521 96.3897 49.3847 96.4492 49.4297C96.5086 49.4748 96.5563 49.531 96.5889 49.5946C96.6584 49.8501 96.6792 50.1144 96.6503 50.3761C96.6503 51.3405 96.724 52.305 96.5951 53.2694C96.4237 53.3727 96.2139 53.4105 96.0117 53.3747C94.7834 53.2805 93.5552 53.3747 92.2901 53.3248C91.9106 53.3769 91.5232 53.2999 91.2031 53.1086V53.1086Z" fill="#3D3D3D"/>
<path d="M96.5766 49.6469C95.9713 49.3987 95.3034 49.3011 94.6422 49.3643C93.4999 49.3643 92.3515 49.3643 91.2031 49.3643V45.9057C91.3351 45.7965 91.5037 45.7302 91.6821 45.7172C93.0455 45.6729 94.4088 45.6618 95.7722 45.7172C95.9354 45.7339 96.0923 45.7834 96.2315 45.8621C96.3708 45.9407 96.4887 46.0465 96.5766 46.1717V47.2802C96.7006 48.0652 96.7006 48.862 96.5766 49.6469V49.6469Z" fill="#3D3D3D"/>
<path d="M96.5766 33.7117C96.181 33.4978 95.7227 33.3973 95.2624 33.4235C93.9114 33.4235 92.5603 33.4235 91.2031 33.4235C91.2031 32.4535 91.2031 31.4835 91.2031 30.5191C91.2031 30.109 91.3321 29.9648 91.8172 29.9648C93.0455 29.9648 94.3167 29.9648 95.5695 29.9648C96.3494 29.9648 96.5889 30.2143 96.5889 30.9403L96.5766 33.7117Z" fill="#3D3D3D"/>
<path d="M96.5766 46.179C95.8765 45.7966 95.1028 45.9074 94.3535 45.9019H91.2031V42.7148C92.6831 42.7148 94.157 42.7148 95.6309 42.7148C96.3126 42.7148 96.6074 42.9476 96.5828 43.5684C96.5582 44.4331 96.5766 45.3088 96.5766 46.179Z" fill="#3D3D3D"/>
<path d="M91.1953 53.1037C92.4236 53.1037 93.6518 53.1037 94.8432 53.1037C95.4227 53.0906 96.0018 53.1389 96.5688 53.2478C96.7776 53.9295 96.5136 54.6334 96.7101 55.3152V59.4721C96.2864 59.389 96.3662 59.062 96.3478 58.8126C96.3109 58.2583 96.3478 57.6542 96.3478 57.0777C96.317 56.3516 96.096 56.1299 95.2792 56.1022C94.2598 56.0634 93.2342 56.1022 92.2086 56.1022C91.8519 56.1564 91.4857 56.0871 91.183 55.9082C91.0848 55.3055 91.0848 54.693 91.183 54.0902L91.1953 53.1037Z" fill="#3D3D3D"/>
<path d="M91.2072 54.0703V55.8772C91.3898 56.1004 91.4731 56.3773 91.4405 56.6532C91.4405 57.5012 91.4405 58.3492 91.4405 59.1973C91.4405 60.0453 91.4405 60.8988 91.4405 61.7469C91.4731 62.0228 91.3898 62.2997 91.2072 62.5228C91.2072 63.6812 91.2072 64.8341 91.2072 65.987V67.2064C91.2072 67.4392 91.2072 67.6664 90.9062 67.7606C90.9062 67.5777 90.9063 67.3948 90.9554 67.2064C91.1335 66.9791 91.0475 66.7186 91.0475 66.4692C91.0475 62.5893 91.0475 58.7095 91.0475 54.8297C91.0659 54.5969 90.9492 54.3031 91.2072 54.0703Z" fill="#3D3D3D"/>
<path d="M68.0234 32.0469C68.1481 32.0922 68.2562 32.1681 68.3355 32.2661C68.4147 32.3641 68.4619 32.4802 68.4717 32.6011C68.1217 32.5513 68.0787 32.2963 68.0234 32.0469Z" fill="#3D3D3D"/>
<path d="M72.4666 55.1758C72.5526 55.4307 72.3991 55.5915 72.2025 55.73C72.1665 55.6244 72.1733 55.5106 72.2216 55.4091C72.27 55.3075 72.3569 55.2248 72.4666 55.1758Z" fill="#3D3D3D"/>
<path d="M5.83848 44.5158C5.83848 47.7416 5.83848 50.9675 5.83848 54.1988C5.83848 54.7088 5.74636 55.2242 5.69723 55.7397C4.469 54.936 3.11181 55.3628 1.80988 55.2519C1.29402 55.2076 0.735178 55.3905 0.274591 55.0247C0.237744 53.9716 0.225462 52.9185 0.274591 51.8709C0.366094 51.7901 0.476434 51.7288 0.597554 51.6914C0.718675 51.654 0.84752 51.6415 0.974683 51.6548C2.20291 51.6548 3.43115 51.6548 4.65938 51.6548C4.81589 51.6407 4.97392 51.6567 5.12313 51.7016C5.27235 51.7465 5.40938 51.8193 5.52528 51.9153C5.48229 50.7568 5.52528 49.6594 5.52528 48.5897C5.52528 47.6862 5.52528 46.7883 5.52528 45.8904C5.60512 45.4747 5.45773 45.0424 5.66039 44.6433C5.6678 44.6061 5.68998 44.5727 5.72277 44.5492C5.75555 44.5258 5.79669 44.5139 5.83848 44.5158V44.5158Z" fill="#3D3D3D"/>
<path d="M0.337343 55.0502C1.67611 55.0502 3.01489 55.0835 4.35366 55.0502C4.63455 54.9968 4.92739 55.0377 5.17726 55.1652C5.42712 55.2928 5.61685 55.4982 5.71085 55.743V58.7859C4.29839 58.4645 2.82451 58.6197 1.3752 58.5698C1.00673 58.5698 0.601412 58.6308 0.294354 58.3481C0.223276 57.2492 0.23764 56.1472 0.337343 55.0502V55.0502Z" fill="#3D3D3D"/>
<path d="M0.328827 58.3636C1.65532 58.3636 2.98795 58.3636 4.31444 58.3636C4.56567 58.3407 4.81943 58.3664 5.05876 58.439C5.2981 58.5117 5.51752 58.6296 5.70234 58.7848C5.70234 59.9433 5.70234 61.0961 5.70234 62.249C4.92855 61.4453 3.85999 61.6947 2.88969 61.6171C2.03607 61.5783 1.15174 61.8222 0.334968 61.4176V58.6463C0.311445 58.6295 0.292329 58.6083 0.278994 58.5841C0.26566 58.5599 0.258439 58.5333 0.257851 58.5062C0.257264 58.4792 0.263325 58.4524 0.275598 58.4277C0.28787 58.4031 0.306049 58.3812 0.328827 58.3636V58.3636Z" fill="#3D3D3D"/>
<path d="M0.335938 61.4188C1.60716 61.4188 2.88452 61.4687 4.15574 61.4188C4.94795 61.38 5.4638 61.574 5.70331 62.2668V64.6224C5.40653 64.4099 5.03046 64.3087 4.65317 64.3397C3.21614 64.3397 1.77297 64.3397 0.354361 64.3397L0.335938 61.4188Z" fill="#3D3D3D"/>
<path d="M5.69654 29.9679C5.77637 29.4635 5.53687 28.9314 5.84392 28.4492V37.1678C5.82311 37.1768 5.80045 37.1818 5.77738 37.1824C5.75431 37.1831 5.73135 37.1794 5.70996 37.1715C5.68857 37.1637 5.66923 37.1519 5.65317 37.137C5.63711 37.122 5.62469 37.1042 5.6167 37.0847C5.47775 36.5079 5.43634 35.9156 5.49388 35.3276C5.49388 34.5018 5.45703 33.6648 5.49388 32.8556C5.54301 32.1739 5.46317 31.4866 5.49388 30.8048C5.46231 30.6602 5.46401 30.5113 5.49887 30.3674C5.53373 30.2234 5.60101 30.0874 5.69654 29.9679V29.9679Z" fill="#3D3D3D"/>
<path d="M5.71315 37.1836H5.83597C5.83597 39.6334 5.83597 42.0814 5.83597 44.5276H5.71315C5.26485 43.868 5.54734 43.1419 5.47979 42.4491C5.47979 41.3406 5.44294 40.232 5.47979 39.1235C5.62103 38.4861 5.25256 37.7933 5.71315 37.1836Z" fill="#3D3D3D"/>
<path d="M70.9609 35.8828C71.3048 36.0879 71.268 36.4371 71.4031 36.753C70.9118 36.6034 70.9978 36.2209 70.9609 35.8828Z" fill="#3D3D3D"/>
<path d="M24.5625 38.2823C24.5616 38.1206 24.6021 37.9609 24.6809 37.8157C24.7598 37.6705 24.8748 37.5437 25.017 37.4453V37.728L24.5625 38.2823Z" fill="#3D3D3D"/>
<path d="M25.0625 37.4559C25.0623 37.3108 25.1014 37.1677 25.1763 37.0393C25.2512 36.9108 25.3597 36.8008 25.4924 36.7188C25.4248 37.0014 25.4801 37.3451 25.0625 37.4559Z" fill="#3D3D3D"/>
<path d="M72.9566 40.0664C73.4172 40.2438 73.2023 40.6207 73.2514 40.9089C73.2028 40.9177 73.1527 40.9177 73.104 40.9089C73.2146 40.5874 72.8522 40.3602 72.9566 40.0664Z" fill="#3D3D3D"/>
<path d="M91.2109 62.5216V59.196C91.3797 59.0602 91.599 58.987 91.8251 58.9909C93.0533 58.9909 94.3306 58.941 95.5773 58.9909C96.2958 59.0242 96.6029 59.3734 96.6336 60.0274C96.6008 60.8999 96.6234 61.7734 96.7011 62.6435V65.8084H96.5599C96.5599 65.0989 96.5599 64.3895 96.5599 63.6745C96.5599 62.9595 96.1423 62.516 95.2457 62.5105L91.2109 62.5216Z" fill="#3D3D3D"/>
<path d="M96.7184 62.6497C96.4114 61.8959 96.6202 61.1089 96.5895 60.344C96.5465 59.4128 96.3438 59.1967 95.3612 59.1967C93.9856 59.1967 92.61 59.1967 91.2344 59.1967V55.8711C92.6039 55.8711 93.9795 55.8711 95.349 55.8711C96.3254 55.8711 96.5772 56.1371 96.614 57.024C96.6509 57.9108 96.4237 58.6868 96.743 59.4627L96.7184 62.6497Z" fill="#3D3D3D"/>
<path d="M96.722 55.3199C96.4149 54.6437 96.6606 53.9398 96.5807 53.2525V50.3426C96.6299 50.2816 96.6729 50.2816 96.722 50.3426V55.3199Z" fill="#3D3D3D"/>
<path d="M96.7194 50.3375H96.5781V47.2891H96.7194V50.3375Z" fill="#3D3D3D"/>
<path d="M72.629 39.1055C72.7763 39.3216 73.0036 39.5156 72.9176 39.8094C72.5061 39.6819 72.6412 39.366 72.629 39.1055Z" fill="#3D3D3D"/>
<path d="M23.8425 40.089C23.8253 39.9607 23.842 39.8306 23.8911 39.7093C23.9401 39.5879 24.0203 39.4787 24.125 39.3906C24.1496 39.6678 24.1741 39.9338 23.8425 40.089Z" fill="#3D3D3D"/>
<path d="M0.341029 58.3628V58.6399H0.1875V47.5547C0.275503 46.9168 0.302215 46.2733 0.267335 45.6314C0.234522 45.3804 0.257487 45.126 0.334888 44.8831C0.601665 44.7314 0.918851 44.6686 1.2315 44.7057H4.30207C5.46275 44.7057 5.53031 44.7833 5.7391 45.7533V48.5246C4.31436 48.1865 2.85276 48.3694 1.4403 48.3195C0.82618 48.3195 0.617381 48.5357 0.629663 49.0567C0.629663 49.7052 0.629663 50.3537 0.629663 50.9966C0.660559 51.306 0.557064 51.614 0.341029 51.8557V58.3628Z" fill="#3D3D3D"/>
<path d="M5.71 37.1754V39.1098C5.59946 39.1098 5.48278 39.1098 5.46435 38.9934C5.32925 38.223 4.72742 38.1897 4.04575 38.2063C3.12457 38.2063 2.2034 38.2063 1.28223 38.2063C0.953333 38.2613 0.613491 38.2082 0.324207 38.0567C0.214848 37.6844 0.214848 37.2928 0.324207 36.9204V34.8198C0.475648 34.6951 0.672005 34.6243 0.876911 34.6202C2.16655 34.6202 3.46234 34.587 4.75198 34.6202C4.98169 34.6235 5.20256 34.7006 5.37482 34.8378C5.54708 34.975 5.65941 35.1632 5.69158 35.3685L5.71 37.1754Z" fill="#3D3D3D"/>
<path d="M5.70331 35.3696C5.56581 35.1682 5.36527 35.008 5.12699 34.9094C4.88872 34.8107 4.6234 34.778 4.36454 34.8153C3.01962 34.8541 1.68085 34.8153 0.335938 34.8153V31.6339C0.466809 31.5223 0.635611 31.4539 0.814948 31.4399C2.17214 31.3955 3.5232 31.3844 4.87425 31.4399C4.98373 31.4292 5.09446 31.4419 5.19745 31.4771C5.30044 31.5123 5.39278 31.5689 5.46697 31.6423C5.54117 31.7158 5.59512 31.804 5.62444 31.8998C5.65377 31.9956 5.65765 32.0963 5.63576 32.1937C5.57936 32.4199 5.60298 32.6564 5.70331 32.8699V35.3696Z" fill="#3D3D3D"/>
<path d="M5.71225 32.8688C5.71225 32.8356 5.62627 32.8078 5.62013 32.769C5.33764 31.6273 5.33764 31.6273 4.00501 31.6273H0.320312C0.320312 30.8901 0.320312 30.1529 0.320312 29.4102C0.320312 28.9003 0.424712 28.662 1.06953 28.6897C2.18722 28.7395 3.31106 28.6897 4.42875 28.6897C5.39291 28.6897 5.46046 28.7617 5.55872 29.6319C5.58989 29.739 5.63743 29.8416 5.69997 29.9368L5.71225 32.8688Z" fill="#3D3D3D"/>
<path d="M0.333934 36.8906V37.9992C0.518753 38.2216 0.604237 38.4985 0.573439 38.7751C0.573439 39.7617 0.573439 40.7483 0.573439 41.7349C0.610286 42.5386 0.573439 43.3423 0.573439 44.1515C0.604237 44.4281 0.518753 44.7051 0.333934 44.9275C0.247958 45.8143 0.512028 46.6956 0.180405 47.5602C0.180405 44.2346 0.180405 40.909 0.180405 37.5835C0.186546 37.3673 0.0821468 37.0957 0.333934 36.8906Z" fill="#3D3D3D"/>
<path d="M6.60927 26.6484L6.29607 27.3302C6.01358 27.0641 6.05657 26.9644 6.60927 26.6484Z" fill="#3D3D3D"/>
<path d="M22.9219 54.3434V51.2949C22.9219 51.2617 23.0017 51.2284 23.014 51.1896C23.3088 49.7818 23.3088 49.7652 24.9546 49.7873C26.1662 49.7152 27.3829 49.7598 28.584 49.9204V53.3845C27.9699 53.1129 27.2882 53.2792 26.6373 53.2515C25.9863 53.2238 25.3722 53.2515 24.7397 53.2515C23.4439 53.2459 23.3702 53.2903 22.9219 54.3434Z" fill="#3D3D3D"/>
<path d="M90.4558 69.0348C90.4558 68.8685 90.4128 68.6911 90.6708 68.6523C90.8059 68.8796 90.7322 69.0015 90.4558 69.0348Z" fill="#3D3D3D"/>
<path d="M86.2549 31.9047C86.0586 32.4598 85.6735 32.945 85.1542 33.2913C84.635 33.6375 84.008 33.8273 83.3624 33.8335C80.9059 33.8815 78.4351 33.8815 75.95 33.8335C75.2205 33.837 74.5143 33.6012 73.9631 33.1699C73.4118 32.7386 73.0529 32.1412 72.9531 31.489C73.2909 30.447 73.2909 30.4414 74.556 30.4414H85.2662C85.8496 30.4414 86.1873 30.652 86.1321 31.234C86.0809 31.4636 86.1246 31.7022 86.2549 31.9047V31.9047Z" fill="#3D3D3D"/>
<path d="M86.2621 31.9075C85.7831 31.7745 86.0103 31.4087 85.998 31.1482C85.998 30.8045 85.8629 30.6604 85.4576 30.6604H73.7894C73.4578 30.6604 73.2428 30.7325 73.2674 31.0817C73.2674 31.2701 73.2674 31.4586 72.9849 31.4918C72.7515 29.5242 73.5622 28.7205 75.0975 28.1662C75.2617 28.0666 75.4593 28.0215 75.6563 28.0388C78.3584 28.0388 81.0667 28.0388 83.7688 28.0388C83.9662 28.0362 84.1609 28.0802 84.3338 28.1662L84.5855 28.205C84.7621 28.2763 84.929 28.3655 85.083 28.4711C86.4586 29.3302 86.5139 30.5773 86.2621 31.9075Z" fill="#3D3D3D"/>
<path d="M75.5298 28.1616H75.0938C75.1736 27.8291 75.4684 27.9011 75.7079 27.9011C78.3363 27.9011 80.9668 27.9011 83.5993 27.9011C83.8756 27.9011 84.1765 27.8734 84.3301 28.1616H83.8818C83.4119 28.0692 82.9283 28.0486 82.4509 28.1007C80.4038 28.1007 78.3568 28.1007 76.3097 28.1007C76.0484 28.0574 75.779 28.0785 75.5298 28.1616V28.1616Z" fill="#3D3D3D"/>
<path d="M59.9445 26.2044C59.2288 26.144 58.5584 25.862 58.0469 25.4062C58.7403 25.5336 59.3905 25.8071 59.9445 26.2044Z" fill="#3D3D3D"/>
<path d="M57.1189 25.1172C56.689 25.0451 56.1793 25.1671 55.8906 24.707C56.3356 24.7326 56.7626 24.8752 57.1189 25.1172V25.1172Z" fill="#3D3D3D"/>
<path d="M39.001 25.375C38.7861 25.8184 38.2825 25.6688 37.9141 25.8018C38.0551 25.6694 38.2237 25.5636 38.4103 25.4903C38.5968 25.4171 38.7976 25.3779 39.001 25.375Z" fill="#3D3D3D"/>
<path d="M40.8554 24.7578C40.6036 25.1513 40.1492 25.0793 39.75 25.1347C40.0693 24.9136 40.4539 24.7825 40.8554 24.7578V24.7578Z" fill="#3D3D3D"/>
<path d="M37.7995 25.8281C37.6337 26.2217 37.2407 26.1829 36.8906 26.2272C37.1276 25.9962 37.4519 25.8538 37.7995 25.8281V25.8281Z" fill="#3D3D3D"/>
<path d="M57.9172 25.39C57.6286 25.3622 57.2478 25.5673 57.125 25.1239C57.2714 25.0927 57.4248 25.1013 57.5658 25.1486C57.7068 25.196 57.829 25.2799 57.9172 25.39Z" fill="#3D3D3D"/>
<path d="M54.9688 69.4295C55.1898 69.0914 55.5829 69.1634 55.9022 69.1523C55.6358 69.3392 55.306 69.4371 54.9688 69.4295V69.4295Z" fill="#3D3D3D"/>
<path d="M39.4634 25.162C39.4143 25.4391 39.1932 25.4003 38.9844 25.3837C39.0224 25.3017 39.0914 25.2344 39.179 25.1939C39.2667 25.1533 39.3674 25.142 39.4634 25.162V25.162Z" fill="#3D3D3D"/>
<path d="M60.532 26.4912C60.3109 26.4912 60.0837 26.5356 60.0469 26.2473C60.1463 26.2329 60.2483 26.2491 60.3363 26.2933C60.4243 26.3376 60.4933 26.4073 60.532 26.4912V26.4912Z" fill="#3D3D3D"/>
<path d="M85.0599 28.4595C84.845 28.4595 84.6239 28.4595 84.5625 28.1935C84.6674 28.1713 84.7778 28.1867 84.8705 28.2363C84.9632 28.2858 85.0311 28.3658 85.0599 28.4595Z" fill="#3D3D3D"/>
<path d="M36.7139 26.2623C36.7139 26.5173 36.4683 26.5062 36.2656 26.5062C36.3048 26.4297 36.3684 26.3657 36.4483 26.3222C36.5282 26.2787 36.6208 26.2579 36.7139 26.2623V26.2623Z" fill="#3D3D3D"/>
<path d="M55.8824 45.9922C55.9294 46.2063 55.9294 46.4266 55.8824 46.6407C55.7723 46.8513 55.7784 46.6019 55.7234 46.5575C55.7015 46.358 55.7578 46.1579 55.8824 45.9922V45.9922Z" fill="#3D3D3D"/>
<path d="M0.335938 51.8573C0.335938 50.8042 0.335938 49.7456 0.335938 48.6925C0.335938 48.238 0.50789 48.0994 0.999182 48.1049C2.22741 48.1327 3.45564 48.1049 4.65317 48.1049C4.85501 48.0907 5.05762 48.1217 5.24298 48.1952C5.42833 48.2687 5.59069 48.3824 5.71559 48.5262V52.2398C5.60623 52.0962 5.45444 51.9833 5.27749 51.9137C5.10054 51.8441 4.90552 51.8208 4.71458 51.8462C3.24685 51.8629 1.79139 51.8573 0.335938 51.8573Z" fill="#3D3D3D"/>
<path d="M0.335938 44.9294V41.7424C0.487978 41.6193 0.684426 41.5504 0.888642 41.5484C2.17828 41.5151 3.47407 41.5151 4.76371 41.5484C5.37783 41.5484 5.59891 41.9585 5.70331 42.4352C5.70331 43.128 5.70331 43.8209 5.70331 44.5137C5.70331 44.9294 5.70331 45.3451 5.70331 45.7608C5.5682 45.0236 5.05235 44.885 4.29698 44.9128C2.98278 44.9682 1.65629 44.9294 0.335938 44.9294Z" fill="#3D3D3D"/>
<path d="M5.70331 42.438C5.47609 41.8838 5.02164 41.7064 4.35225 41.7341C3.01348 41.7784 1.67471 41.7341 0.335938 41.7341V38.0039C1.74226 38.0039 3.14859 38.0039 4.55491 38.0039C5.2243 38.0039 5.6726 38.0815 5.56206 38.8187C5.56206 38.9129 5.65418 39.0182 5.70331 39.118V42.438Z" fill="#3D3D3D"/>
<path d="M75.5391 28.1634C75.6188 28.1052 75.7116 28.0629 75.8111 28.0393C75.9107 28.0157 76.0147 28.0113 76.1163 28.0264H83.3199C83.4201 28.0095 83.5232 28.0125 83.6219 28.0353C83.7206 28.058 83.8125 28.0999 83.891 28.1579L75.5391 28.1634Z" fill="#3D3D3D"/>
</svg>
