<svg width="106" height="107" viewBox="0 0 106 107" fill="none" xmlns="http://www.w3.org/2000/svg">
<g clip-path="url(#clip0_7093_57314)">
<mask id="path-1-outside-1_7093_57314" maskUnits="userSpaceOnUse" x="26.7285" y="5.43359" width="53" height="67" fill="black">
<rect fill="white" x="26.7285" y="5.43359" width="53" height="67"/>
<path fill-rule="evenodd" clip-rule="evenodd" d="M64.2051 65.0777H55.0189L57.5523 69.5113H77.5059L58.5018 36.2542L74.9707 7.43367H64.2015L53.1172 26.8311L42.0329 7.43359H31.2656L47.7336 36.2525L28.7285 69.5113H48.6821L51.2155 65.0777H42.0312L53.1182 45.6756L64.2051 65.0777Z"/>
</mask>
<path fill-rule="evenodd" clip-rule="evenodd" d="M64.2051 65.0777H55.0189L57.5523 69.5113H77.5059L58.5018 36.2542L74.9707 7.43367H64.2015L53.1172 26.8311L42.0329 7.43359H31.2656L47.7336 36.2525L28.7285 69.5113H48.6821L51.2155 65.0777H42.0312L53.1182 45.6756L64.2051 65.0777Z" fill="#AF3838"/>
<path d="M55.0189 65.0777V63.0777C54.3059 63.0777 53.6469 63.4572 53.289 64.0738C52.9312 64.6905 52.9287 65.4509 53.2824 66.07L55.0189 65.0777ZM64.2051 65.0777V67.0777C64.918 67.0777 65.5771 66.6982 65.9349 66.0815C66.2928 65.4649 66.2953 64.7044 65.9416 64.0854L64.2051 65.0777ZM57.5523 69.5113L55.8159 70.5035C56.1719 71.1267 56.8346 71.5113 57.5523 71.5113V69.5113ZM77.5059 69.5113V71.5113C78.2188 71.5113 78.8779 71.1318 79.2357 70.5151C79.5936 69.8985 79.5961 69.138 79.2424 68.519L77.5059 69.5113ZM58.5018 36.2542L56.7654 35.2619C56.414 35.8768 56.414 36.6316 56.7654 37.2465L58.5018 36.2542ZM74.9707 7.43367L76.7072 8.42594C77.0609 7.80694 77.0584 7.04644 76.7006 6.42981C76.3427 5.81318 75.6837 5.43367 74.9707 5.43367V7.43367ZM64.2015 7.43367V5.43367C63.4838 5.43367 62.8211 5.81824 62.465 6.44139L64.2015 7.43367ZM53.1172 26.8311L51.3807 27.8234C51.7368 28.4465 52.3995 28.8311 53.1172 28.8311C53.8349 28.8311 54.4976 28.4465 54.8537 27.8234L53.1172 26.8311ZM42.0329 7.43359L43.7694 6.44132C43.4133 5.81817 42.7506 5.43359 42.0329 5.43359V7.43359ZM31.2656 7.43359V5.43359C30.5527 5.43359 29.8936 5.81311 29.5358 6.42974C29.178 7.04637 29.1754 7.80687 29.5291 8.42587L31.2656 7.43359ZM47.7336 36.2525L49.4701 37.2448C49.8214 36.6299 49.8214 35.8751 49.4701 35.2602L47.7336 36.2525ZM28.7285 69.5113L26.992 68.5191C26.6383 69.1381 26.6409 69.8986 26.9987 70.5152C27.3565 71.1318 28.0156 71.5113 28.7285 71.5113V69.5113ZM48.6821 69.5113V71.5113C49.3998 71.5113 50.0625 71.1268 50.4185 70.5036L48.6821 69.5113ZM51.2155 65.0777L52.952 66.07C53.3057 65.451 53.3032 64.6905 52.9454 64.0739C52.5875 63.4573 51.9285 63.0777 51.2155 63.0777V65.0777ZM42.0312 65.0777L40.2948 64.0855C39.941 64.7045 39.9436 65.465 40.3014 66.0816C40.6593 66.6982 41.3183 67.0777 42.0312 67.0777V65.0777ZM53.1182 45.6756L54.8547 44.6833C54.4986 44.0602 53.8359 43.6756 53.1182 43.6756C52.4005 43.6756 51.7378 44.0602 51.3817 44.6833L53.1182 45.6756ZM55.0189 67.0777H64.2051V63.0777H55.0189V67.0777ZM59.2888 68.519L56.7554 64.0854L53.2824 66.07L55.8159 70.5035L59.2888 68.519ZM77.5059 67.5113H57.5523V71.5113H77.5059V67.5113ZM56.7654 37.2465L75.7694 70.5035L79.2424 68.519L60.2383 35.2619L56.7654 37.2465ZM60.2383 37.2465L76.7072 8.42594L73.2342 6.44139L56.7654 35.2619L60.2383 37.2465ZM74.9707 5.43367H64.2015V9.43367H74.9707V5.43367ZM62.465 6.44139L51.3807 25.8388L54.8537 27.8234L65.938 8.42594L62.465 6.44139ZM40.2964 8.42587L51.3807 27.8234L54.8537 25.8388L43.7694 6.44132L40.2964 8.42587ZM31.2656 9.43359H42.0329V5.43359H31.2656V9.43359ZM49.4701 35.2602L33.0021 6.44132L29.5291 8.42587L45.9971 37.2448L49.4701 35.2602ZM45.9971 35.2602L26.992 68.5191L30.465 70.5036L49.4701 37.2448L45.9971 35.2602ZM28.7285 71.5113H48.6821V67.5113H28.7285V71.5113ZM50.4185 70.5036L52.952 66.07L49.479 64.0855L46.9456 68.5191L50.4185 70.5036ZM51.2155 63.0777H42.0312V67.0777H51.2155V63.0777ZM43.7677 66.07L54.8547 46.6679L51.3817 44.6833L40.2948 64.0855L43.7677 66.07ZM65.9416 64.0854L54.8547 44.6833L51.3817 46.6679L62.4686 66.07L65.9416 64.0854Z" fill="#3D3D3D" mask="url(#path-1-outside-1_7093_57314)"/>
<mask id="path-3-outside-2_7093_57314" maskUnits="userSpaceOnUse" x="8.99316" y="1" width="89" height="38" fill="black">
<rect fill="white" x="8.99316" y="1" width="89" height="38"/>
<path fill-rule="evenodd" clip-rule="evenodd" d="M30.9467 3H10.9932L30.1746 36.5676C34.3591 32.5787 39.5821 29.6697 45.3967 28.2875L30.9467 3ZM60.8372 28.2875C66.6517 29.6697 71.8747 32.5787 76.0592 36.5675L95.2407 3H75.2871L60.8372 28.2875Z"/>
</mask>
<path fill-rule="evenodd" clip-rule="evenodd" d="M30.9467 3H10.9932L30.1746 36.5676C34.3591 32.5787 39.5821 29.6697 45.3967 28.2875L30.9467 3ZM60.8372 28.2875C66.6517 29.6697 71.8747 32.5787 76.0592 36.5675L95.2407 3H75.2871L60.8372 28.2875Z" fill="#D14848"/>
<path d="M10.9932 3V1C10.2802 1 9.62119 1.37952 9.26334 1.99615C8.9055 2.61278 8.90296 3.37327 9.25668 3.99228L10.9932 3ZM30.9467 3L32.6832 2.00772C32.3271 1.38457 31.6644 1 30.9467 1V3ZM30.1746 36.5676L28.4381 37.5598C28.7432 38.0938 29.277 38.4576 29.8855 38.5466C30.4939 38.6355 31.1095 38.4395 31.5546 38.0152L30.1746 36.5676ZM45.3967 28.2875L45.8592 30.2332C46.4724 30.0875 46.9809 29.6613 47.2316 29.0831C47.4823 28.5049 47.4458 27.8424 47.1332 27.2952L45.3967 28.2875ZM60.8372 28.2875L59.1007 27.2952C58.788 27.8423 58.7515 28.5049 59.0022 29.0831C59.2529 29.6613 59.7615 30.0875 60.3746 30.2332L60.8372 28.2875ZM76.0592 36.5675L74.6793 38.0152C75.1244 38.4395 75.74 38.6354 76.3484 38.5465C76.9569 38.4576 77.4906 38.0937 77.7957 37.5598L76.0592 36.5675ZM95.2407 3L96.9772 3.99228C97.3309 3.37327 97.3283 2.61278 96.9705 1.99615C96.6127 1.37952 95.9536 1 95.2407 1V3ZM75.2871 3V1C74.5694 1 73.9067 1.38457 73.5507 2.00772L75.2871 3ZM10.9932 5H30.9467V1H10.9932V5ZM31.9111 35.5753L12.7297 2.00772L9.25668 3.99228L28.4381 37.5598L31.9111 35.5753ZM31.5546 38.0152C35.4895 34.2644 40.3981 31.5315 45.8592 30.2332L44.9341 26.3417C38.7662 27.808 33.2288 30.8931 28.7947 35.1199L31.5546 38.0152ZM29.2102 3.99228L43.6602 29.2797L47.1332 27.2952L32.6832 2.00772L29.2102 3.99228ZM60.3746 30.2332C65.8358 31.5315 70.7444 34.2643 74.6793 38.0152L77.4392 35.1199C73.0051 30.8931 67.4677 27.8079 61.2997 26.3417L60.3746 30.2332ZM93.5042 2.00772L74.3228 35.5752L77.7957 37.5598L96.9772 3.99228L93.5042 2.00772ZM75.2871 5H95.2407V1H75.2871V5ZM62.5737 29.2797L77.0236 3.99228L73.5507 2.00772L59.1007 27.2952L62.5737 29.2797Z" fill="#3D3D3D" mask="url(#path-3-outside-2_7093_57314)"/>
<path d="M15 5L31 32" stroke="#FF7E7E" stroke-width="2" stroke-linecap="round" stroke-linejoin="round"/>
<path d="M77 5L64 27" stroke="#FF7E7E" stroke-width="2" stroke-linecap="round" stroke-linejoin="round"/>
<path d="M53.5 92C71.4186 92 86 77.9271 86 60.5C86 43.0729 71.4186 29 53.5 29C35.5814 29 21 43.0729 21 60.5C21 77.9271 35.5814 92 53.5 92Z" fill="#FFB423" stroke="#5B3303" stroke-width="2" stroke-linejoin="round"/>
<circle cx="53.5" cy="60.5" r="25.5" fill="#FFDD65"/>
<circle cx="52.5" cy="60.5" r="26.5" stroke="#DF8D12" stroke-width="2" stroke-linejoin="round"/>
<path d="M24 60C24 44.536 37.4315 32 54 32" stroke="#FFCF72" stroke-width="2" stroke-linecap="round" stroke-linejoin="round"/>
<path d="M53 81C64.07 81 73 71.7972 73 60.5C73 49.2028 64.07 40 53 40C41.93 40 33 49.2028 33 60.5C33 71.7972 41.93 81 53 81Z" fill="#FFCF23" stroke="#DF8D12" stroke-width="2"/>
<path d="M35 60C35 50.6112 43.5066 43 54 43" stroke="#FFF4CD" stroke-width="2" stroke-linecap="round" stroke-linejoin="round"/>
<path d="M42.7914 56.822C42.4386 56.8973 42.1537 57.1567 42.0458 57.5009C41.9379 57.8451 42.0237 58.2208 42.2705 58.4839L47.4237 63.9807L46.1421 70.8157C46.0713 71.1936 46.2234 71.5787 46.5334 71.8062C46.8433 72.0337 47.2563 72.0633 47.5956 71.8824L54 68.4667L60.4044 71.8824C60.7437 72.0633 61.1567 72.0337 61.4666 71.8062C61.7766 71.5787 61.9287 71.1936 61.8579 70.8157L60.5763 63.9807L65.7295 58.4839C65.9763 58.2208 66.0621 57.8451 65.9542 57.5009C65.8463 57.1567 65.5614 56.8973 65.2086 56.822L58.7752 55.4495L54.8716 48.5097C54.6945 48.1949 54.3613 48 54 48C53.6387 48 53.3055 48.1949 53.1284 48.5097L51.0659 52.1764L49.2248 55.4495L42.7914 56.822Z" fill="#FFE9AF" stroke="#C37808" stroke-width="2" stroke-linecap="round" stroke-linejoin="round"/>
<path d="M43.5975 99.7618C65.1904 105.548 87.4823 92.1637 93.4344 69.9502C99.3865 47.7366 86.7731 24.9998 65.1802 19.214C43.5873 13.4282 21.2954 26.8122 15.3433 49.0257C9.39123 71.2392 22.0046 93.976 43.5975 99.7618Z" fill="#A56402" stroke="#5B3303" stroke-width="2"/>
<path d="M41.0545 97.2189C62.6475 103.005 84.9393 89.6207 90.8914 67.4072C96.8435 45.1937 84.2302 22.4569 62.6372 16.6711C41.0443 10.8853 18.7525 24.2692 12.8004 46.4827C6.84827 68.6963 19.4616 91.4331 41.0545 97.2189Z" fill="#FFB423" stroke="#5B3303" stroke-width="2"/>
<path d="M43.0285 89.8473C60.5577 94.5442 78.6607 83.5671 83.5203 65.431C88.3799 47.2949 78.1907 28.7369 60.6615 24.04C43.1324 19.343 25.0293 30.3201 20.1697 48.4563C15.3102 66.5924 25.4994 85.1504 43.0285 89.8473Z" fill="#FFCF23" stroke="#DF8D12" stroke-width="2"/>
<path fill-rule="evenodd" clip-rule="evenodd" d="M75.4811 34.3139C71.9834 31.1916 67.7507 28.8321 62.955 27.5471C45.9947 23.0026 28.4142 33.6175 23.6879 51.2562C20.6402 62.6304 23.6818 74.1478 30.7745 82.1127C21.9024 74.1927 17.759 61.3644 21.1489 48.7133C25.8752 31.0745 43.4556 20.4596 60.4159 25.0041C66.4395 26.6181 71.5747 29.9272 75.4811 34.3139Z" fill="#FFDD65"/>
<path d="M42.6406 19.9288C30.7409 23.207 21.1559 32.054 16.8767 43.4844" stroke="#FFD179" stroke-width="2" stroke-linecap="round" stroke-linejoin="round"/>
<path d="M71.3477 89.1254C75.7763 86.0569 79.5463 82.0378 82.3893 77.3477" stroke="#FFD179" stroke-width="2" stroke-linecap="round" stroke-linejoin="round"/>
<path d="M30.127 26.5547C30.127 26.5547 26.152 28.9102 23.502 32.4436" stroke="#FFF3D2" stroke-width="2" stroke-linecap="round" stroke-linejoin="round"/>
<path d="M35.2793 32.4453C35.2793 32.4453 31.3043 35.0953 28.6543 39.0703" stroke="white" stroke-width="2" stroke-linecap="round" stroke-linejoin="round"/>
<mask id="path-22-outside-3_7093_57314" maskUnits="userSpaceOnUse" x="27" y="49" width="49" height="19" fill="black">
<rect fill="white" x="27" y="49" width="49" height="19"/>
<path d="M34.1417 65.25C33.1639 65.25 32.3361 65.1167 31.6583 64.85C30.9917 64.5722 30.4528 64.2111 30.0417 63.7667C29.6306 63.3222 29.325 62.8389 29.125 62.3167C28.925 61.7833 28.8083 61.2611 28.775 60.75H31.375C31.3972 61.15 31.5139 61.5333 31.725 61.9C31.9361 62.2667 32.2472 62.5667 32.6583 62.8C33.0694 63.0333 33.5861 63.15 34.2083 63.15C34.8861 63.15 35.3861 63.0056 35.7083 62.7167C36.0417 62.4167 36.2083 62.0278 36.2083 61.55C36.2083 61.0944 36.0583 60.7222 35.7583 60.4333C35.4694 60.1444 35.0806 59.9167 34.5917 59.75L32.775 59.1167C32.1861 58.9056 31.6139 58.6556 31.0583 58.3667C30.5139 58.0778 30.0694 57.6944 29.725 57.2167C29.3806 56.7278 29.2083 56.1056 29.2083 55.35C29.2083 54.5722 29.4028 53.9167 29.7917 53.3833C30.1917 52.85 30.7361 52.4444 31.425 52.1667C32.125 51.8889 32.925 51.75 33.825 51.75C34.9806 51.75 35.8917 51.9444 36.5583 52.3333C37.225 52.7222 37.7083 53.2167 38.0083 53.8167C38.3194 54.4056 38.5083 55.0222 38.575 55.6667H35.975C35.9528 55.3556 35.8639 55.0611 35.7083 54.7833C35.5639 54.4944 35.3306 54.2611 35.0083 54.0833C34.6861 53.9056 34.2528 53.8167 33.7083 53.8167C33.0972 53.8167 32.6417 53.9444 32.3417 54.2C32.0528 54.4556 31.9083 54.7778 31.9083 55.1667C31.9083 55.5889 32.0583 55.9278 32.3583 56.1833C32.6694 56.4389 33.0806 56.6556 33.5917 56.8333L35.475 57.4833C36.0861 57.6944 36.6472 57.95 37.1583 58.25C37.6806 58.55 38.1028 58.9444 38.425 59.4333C38.7472 59.9222 38.9083 60.5611 38.9083 61.35C38.9083 62.5389 38.4917 63.4889 37.6583 64.2C36.825 64.9 35.6528 65.25 34.1417 65.25ZM33.0583 67V64H34.725V67H33.0583ZM33.0583 53V50H34.725V53H33.0583ZM40.9031 65V62.8C41.8253 62.1 42.6309 61.4722 43.3198 60.9167C44.0087 60.35 44.5976 59.8333 45.0865 59.3667C45.8198 58.6778 46.3698 58.0556 46.7365 57.5C47.1142 56.9444 47.3031 56.3611 47.3031 55.75C47.3031 55.1944 47.142 54.7444 46.8198 54.4C46.5087 54.0444 46.0531 53.8667 45.4531 53.8667C44.7753 53.8667 44.2642 54.0889 43.9198 54.5333C43.5753 54.9667 43.4031 55.5444 43.4031 56.2667H40.9031C40.9031 55.3667 41.0753 54.5778 41.4198 53.9C41.7642 53.2222 42.2753 52.7 42.9531 52.3333C43.642 51.9556 44.492 51.7667 45.5031 51.7667C46.9365 51.7667 48.042 52.1333 48.8198 52.8667C49.6087 53.5889 50.0031 54.5444 50.0031 55.7333C50.0031 56.5889 49.7809 57.3778 49.3365 58.1C48.892 58.8111 48.2309 59.5611 47.3531 60.35C46.9753 60.6944 46.5531 61.05 46.0865 61.4167C45.6309 61.7722 45.1753 62.1 44.7198 62.4V62.8H50.4365V65H40.9031ZM57.3979 65.2333C55.6868 65.2333 54.409 64.6389 53.5646 63.45C52.7201 62.2611 52.2979 60.6111 52.2979 58.5C52.2979 56.3889 52.7201 54.7389 53.5646 53.55C54.409 52.3611 55.6868 51.7667 57.3979 51.7667C59.1201 51.7667 60.3979 52.3611 61.2312 53.55C62.0757 54.7389 62.4979 56.3889 62.4979 58.5C62.4979 60.6111 62.0757 62.2611 61.2312 63.45C60.3979 64.6389 59.1201 65.2333 57.3979 65.2333ZM57.3979 63.0333C58.1868 63.0333 58.7646 62.6556 59.1312 61.9C59.509 61.1444 59.6979 60.0111 59.6979 58.5C59.6979 56.9889 59.509 55.8556 59.1312 55.1C58.7646 54.3444 58.1868 53.9667 57.3979 53.9667C56.609 53.9667 56.0257 54.3444 55.6479 55.1C55.2812 55.8556 55.0979 56.9889 55.0979 58.5C55.0979 60.0111 55.2812 61.1444 55.6479 61.9C56.0257 62.6556 56.609 63.0333 57.3979 63.0333ZM69.126 65.2333C67.4149 65.2333 66.1372 64.6389 65.2927 63.45C64.4483 62.2611 64.026 60.6111 64.026 58.5C64.026 56.3889 64.4483 54.7389 65.2927 53.55C66.1372 52.3611 67.4149 51.7667 69.126 51.7667C70.8483 51.7667 72.126 52.3611 72.9594 53.55C73.8038 54.7389 74.226 56.3889 74.226 58.5C74.226 60.6111 73.8038 62.2611 72.9594 63.45C72.126 64.6389 70.8483 65.2333 69.126 65.2333ZM69.126 63.0333C69.9149 63.0333 70.4927 62.6556 70.8594 61.9C71.2372 61.1444 71.426 60.0111 71.426 58.5C71.426 56.9889 71.2372 55.8556 70.8594 55.1C70.4927 54.3444 69.9149 53.9667 69.126 53.9667C68.3372 53.9667 67.7538 54.3444 67.376 55.1C67.0094 55.8556 66.826 56.9889 66.826 58.5C66.826 60.0111 67.0094 61.1444 67.376 61.9C67.7538 62.6556 68.3372 63.0333 69.126 63.0333Z"/>
</mask>
<path d="M34.1417 65.25C33.1639 65.25 32.3361 65.1167 31.6583 64.85C30.9917 64.5722 30.4528 64.2111 30.0417 63.7667C29.6306 63.3222 29.325 62.8389 29.125 62.3167C28.925 61.7833 28.8083 61.2611 28.775 60.75H31.375C31.3972 61.15 31.5139 61.5333 31.725 61.9C31.9361 62.2667 32.2472 62.5667 32.6583 62.8C33.0694 63.0333 33.5861 63.15 34.2083 63.15C34.8861 63.15 35.3861 63.0056 35.7083 62.7167C36.0417 62.4167 36.2083 62.0278 36.2083 61.55C36.2083 61.0944 36.0583 60.7222 35.7583 60.4333C35.4694 60.1444 35.0806 59.9167 34.5917 59.75L32.775 59.1167C32.1861 58.9056 31.6139 58.6556 31.0583 58.3667C30.5139 58.0778 30.0694 57.6944 29.725 57.2167C29.3806 56.7278 29.2083 56.1056 29.2083 55.35C29.2083 54.5722 29.4028 53.9167 29.7917 53.3833C30.1917 52.85 30.7361 52.4444 31.425 52.1667C32.125 51.8889 32.925 51.75 33.825 51.75C34.9806 51.75 35.8917 51.9444 36.5583 52.3333C37.225 52.7222 37.7083 53.2167 38.0083 53.8167C38.3194 54.4056 38.5083 55.0222 38.575 55.6667H35.975C35.9528 55.3556 35.8639 55.0611 35.7083 54.7833C35.5639 54.4944 35.3306 54.2611 35.0083 54.0833C34.6861 53.9056 34.2528 53.8167 33.7083 53.8167C33.0972 53.8167 32.6417 53.9444 32.3417 54.2C32.0528 54.4556 31.9083 54.7778 31.9083 55.1667C31.9083 55.5889 32.0583 55.9278 32.3583 56.1833C32.6694 56.4389 33.0806 56.6556 33.5917 56.8333L35.475 57.4833C36.0861 57.6944 36.6472 57.95 37.1583 58.25C37.6806 58.55 38.1028 58.9444 38.425 59.4333C38.7472 59.9222 38.9083 60.5611 38.9083 61.35C38.9083 62.5389 38.4917 63.4889 37.6583 64.2C36.825 64.9 35.6528 65.25 34.1417 65.25ZM33.0583 67V64H34.725V67H33.0583ZM33.0583 53V50H34.725V53H33.0583ZM40.9031 65V62.8C41.8253 62.1 42.6309 61.4722 43.3198 60.9167C44.0087 60.35 44.5976 59.8333 45.0865 59.3667C45.8198 58.6778 46.3698 58.0556 46.7365 57.5C47.1142 56.9444 47.3031 56.3611 47.3031 55.75C47.3031 55.1944 47.142 54.7444 46.8198 54.4C46.5087 54.0444 46.0531 53.8667 45.4531 53.8667C44.7753 53.8667 44.2642 54.0889 43.9198 54.5333C43.5753 54.9667 43.4031 55.5444 43.4031 56.2667H40.9031C40.9031 55.3667 41.0753 54.5778 41.4198 53.9C41.7642 53.2222 42.2753 52.7 42.9531 52.3333C43.642 51.9556 44.492 51.7667 45.5031 51.7667C46.9365 51.7667 48.042 52.1333 48.8198 52.8667C49.6087 53.5889 50.0031 54.5444 50.0031 55.7333C50.0031 56.5889 49.7809 57.3778 49.3365 58.1C48.892 58.8111 48.2309 59.5611 47.3531 60.35C46.9753 60.6944 46.5531 61.05 46.0865 61.4167C45.6309 61.7722 45.1753 62.1 44.7198 62.4V62.8H50.4365V65H40.9031ZM57.3979 65.2333C55.6868 65.2333 54.409 64.6389 53.5646 63.45C52.7201 62.2611 52.2979 60.6111 52.2979 58.5C52.2979 56.3889 52.7201 54.7389 53.5646 53.55C54.409 52.3611 55.6868 51.7667 57.3979 51.7667C59.1201 51.7667 60.3979 52.3611 61.2312 53.55C62.0757 54.7389 62.4979 56.3889 62.4979 58.5C62.4979 60.6111 62.0757 62.2611 61.2312 63.45C60.3979 64.6389 59.1201 65.2333 57.3979 65.2333ZM57.3979 63.0333C58.1868 63.0333 58.7646 62.6556 59.1312 61.9C59.509 61.1444 59.6979 60.0111 59.6979 58.5C59.6979 56.9889 59.509 55.8556 59.1312 55.1C58.7646 54.3444 58.1868 53.9667 57.3979 53.9667C56.609 53.9667 56.0257 54.3444 55.6479 55.1C55.2812 55.8556 55.0979 56.9889 55.0979 58.5C55.0979 60.0111 55.2812 61.1444 55.6479 61.9C56.0257 62.6556 56.609 63.0333 57.3979 63.0333ZM69.126 65.2333C67.4149 65.2333 66.1372 64.6389 65.2927 63.45C64.4483 62.2611 64.026 60.6111 64.026 58.5C64.026 56.3889 64.4483 54.7389 65.2927 53.55C66.1372 52.3611 67.4149 51.7667 69.126 51.7667C70.8483 51.7667 72.126 52.3611 72.9594 53.55C73.8038 54.7389 74.226 56.3889 74.226 58.5C74.226 60.6111 73.8038 62.2611 72.9594 63.45C72.126 64.6389 70.8483 65.2333 69.126 65.2333ZM69.126 63.0333C69.9149 63.0333 70.4927 62.6556 70.8594 61.9C71.2372 61.1444 71.426 60.0111 71.426 58.5C71.426 56.9889 71.2372 55.8556 70.8594 55.1C70.4927 54.3444 69.9149 53.9667 69.126 53.9667C68.3372 53.9667 67.7538 54.3444 67.376 55.1C67.0094 55.8556 66.826 56.9889 66.826 58.5C66.826 60.0111 67.0094 61.1444 67.376 61.9C67.7538 62.6556 68.3372 63.0333 69.126 63.0333Z" fill="#5B3303"/>
<path d="M31.6583 64.85L31.2737 65.7731L31.2829 65.7769L31.2922 65.7806L31.6583 64.85ZM30.0417 63.7667L30.7758 63.0876L30.7758 63.0876L30.0417 63.7667ZM29.125 62.3167L28.1886 62.6678L28.1911 62.6743L29.125 62.3167ZM28.775 60.75V59.75H27.7077L27.7771 60.8151L28.775 60.75ZM31.375 60.75L32.3735 60.6945L32.321 59.75H31.375V60.75ZM35.7083 62.7167L36.3759 63.4612L36.3773 63.46L35.7083 62.7167ZM35.7583 60.4333L35.0512 61.1404L35.0579 61.1471L35.0647 61.1537L35.7583 60.4333ZM34.5917 59.75L34.2625 60.6943L34.269 60.6965L34.5917 59.75ZM32.775 59.1167L32.4375 60.058L32.4458 60.0609L32.775 59.1167ZM31.0583 58.3667L30.5896 59.25L30.597 59.2539L31.0583 58.3667ZM29.725 57.2167L28.9075 57.7927L28.9138 57.8015L29.725 57.2167ZM29.7917 53.3833L28.9916 52.7833L28.9837 52.7942L29.7917 53.3833ZM31.425 52.1667L31.0561 51.2372L31.051 51.2392L31.425 52.1667ZM36.5583 52.3333L36.0545 53.1971L36.0545 53.1971L36.5583 52.3333ZM38.0083 53.8167L37.1139 54.2639L37.1189 54.2739L37.1241 54.2838L38.0083 53.8167ZM38.575 55.6667V56.6667H39.6838L39.5697 55.5638L38.575 55.6667ZM35.975 55.6667L34.9775 55.7379L35.0439 56.6667H35.975V55.6667ZM35.7083 54.7833L34.8139 55.2305L34.8244 55.2515L34.8358 55.2719L35.7083 54.7833ZM32.3417 54.2L31.6932 53.4388L31.6861 53.4448L31.6791 53.451L32.3417 54.2ZM32.3583 56.1833L31.7099 56.9446L31.7167 56.9504L31.7236 56.9561L32.3583 56.1833ZM33.5917 56.8333L33.2631 57.7778L33.2654 57.7786L33.5917 56.8333ZM35.475 57.4833L35.8015 56.5381L35.8012 56.538L35.475 57.4833ZM37.1583 58.25L36.6521 59.1125L36.6602 59.1171L37.1583 58.25ZM38.425 59.4333L37.59 59.9836L37.59 59.9836L38.425 59.4333ZM37.6583 64.2L38.3015 64.9657L38.3074 64.9607L37.6583 64.2ZM33.0583 67H32.0583V68H33.0583V67ZM33.0583 64V63H32.0583V64H33.0583ZM34.725 64H35.725V63H34.725V64ZM34.725 67V68H35.725V67H34.725ZM33.0583 53H32.0583V54H33.0583V53ZM33.0583 50V49H32.0583V50H33.0583ZM34.725 50H35.725V49H34.725V50ZM34.725 53V54H35.725V53H34.725ZM34.1417 64.25C33.2488 64.25 32.5532 64.1275 32.0245 63.9194L31.2922 65.7806C32.119 66.1059 33.0789 66.25 34.1417 66.25V64.25ZM32.0429 63.9269C31.4837 63.6939 31.0723 63.4082 30.7758 63.0876L29.3076 64.4457C29.8333 65.014 30.4996 65.4505 31.2737 65.7731L32.0429 63.9269ZM30.7758 63.0876C30.4439 62.7288 30.2097 62.3529 30.0589 61.959L28.1911 62.6743C28.4403 63.3249 28.8172 63.9156 29.3076 64.4457L30.7758 63.0876ZM30.0613 61.9655C29.8919 61.5139 29.7992 61.0879 29.7729 60.6849L27.7771 60.8151C27.8175 61.4343 27.958 62.0528 28.1887 62.6678L30.0613 61.9655ZM28.775 61.75H31.375V59.75H28.775V61.75ZM30.3765 60.8055C30.4079 61.3703 30.5737 61.9046 30.8584 62.399L32.5916 61.401C32.454 61.162 32.3865 60.9297 32.3735 60.6945L30.3765 60.8055ZM30.8584 62.399C31.1686 62.9378 31.6171 63.3589 32.1647 63.6697L33.1519 61.9303C32.8774 61.7745 32.7036 61.5955 32.5916 61.401L30.8584 62.399ZM32.1647 63.6697C32.7666 64.0113 33.4661 64.15 34.2083 64.15V62.15C33.7061 62.15 33.3723 62.0554 33.1519 61.9303L32.1647 63.6697ZM34.2083 64.15C34.9992 64.15 35.7906 63.9859 36.3759 63.4612L35.0408 61.9721C34.9816 62.0252 34.773 62.15 34.2083 62.15V64.15ZM36.3773 63.46C36.9364 62.9568 37.2083 62.2904 37.2083 61.55H35.2083C35.2083 61.7652 35.1469 61.8766 35.0394 61.9734L36.3773 63.46ZM37.2083 61.55C37.2083 60.8509 36.9672 60.2091 36.452 59.713L35.0647 61.1537C35.1495 61.2353 35.2083 61.338 35.2083 61.55H37.2083ZM36.4654 59.7262C36.0437 59.3045 35.5108 59.0068 34.9143 58.8035L34.269 60.6965C34.6503 60.8265 34.8952 60.9844 35.0512 61.1404L36.4654 59.7262ZM34.9209 58.8057L33.1042 58.1724L32.4458 60.0609L34.2625 60.6943L34.9209 58.8057ZM33.1125 58.1753C32.5661 57.9795 32.0352 57.7475 31.5197 57.4794L30.597 59.2539C31.1925 59.5636 31.8061 59.8317 32.4375 60.058L33.1125 58.1753ZM31.527 57.4833C31.1117 57.2629 30.7867 56.9794 30.5362 56.6319L28.9138 57.8015C29.3522 58.4095 29.9161 58.8926 30.5896 59.25L31.527 57.4833ZM30.5425 56.6407C30.3448 56.3601 30.2083 55.9539 30.2083 55.35H28.2083C28.2083 56.2572 28.4163 57.0955 28.9075 57.7926L30.5425 56.6407ZM30.2083 55.35C30.2083 54.7451 30.3567 54.3057 30.5997 53.9725L28.9837 52.7942C28.4489 53.5276 28.2083 54.3994 28.2083 55.35H30.2083ZM30.5917 53.9833C30.87 53.6122 31.2594 53.3117 31.799 53.0941L31.051 51.2392C30.2128 51.5772 29.5133 52.0878 28.9917 52.7833L30.5917 53.9833ZM31.7938 53.0962C32.356 52.8731 33.0272 52.75 33.825 52.75V50.75C32.8228 50.75 31.894 50.9047 31.0562 51.2372L31.7938 53.0962ZM33.825 52.75C34.8851 52.75 35.5985 52.9311 36.0545 53.1971L37.0622 51.4696C36.1848 50.9578 35.076 50.75 33.825 50.75V52.75ZM36.0545 53.1971C36.5792 53.5032 36.9134 53.8628 37.1139 54.2639L38.9028 53.3695C38.5033 52.5706 37.8708 51.9413 37.0622 51.4696L36.0545 53.1971ZM37.1241 54.2838C37.3771 54.7627 37.5272 55.2561 37.5803 55.7696L39.5697 55.5638C39.4895 54.7884 39.2617 54.0484 38.8925 53.3495L37.1241 54.2838ZM38.575 54.6667H35.975V56.6667H38.575V54.6667ZM36.9725 55.5954C36.9395 55.1346 36.8067 54.698 36.5808 54.2947L34.8358 55.2719C34.9211 55.4242 34.966 55.5765 34.9775 55.7379L36.9725 55.5954ZM36.6028 54.3361C36.3555 53.8416 35.9654 53.4693 35.4914 53.2078L34.5253 54.9589C34.6957 55.053 34.7723 55.1473 34.8139 55.2305L36.6028 54.3361ZM35.4914 53.2078C34.9671 52.9185 34.3466 52.8167 33.7083 52.8167V54.8167C34.1589 54.8167 34.4051 54.8926 34.5253 54.9589L35.4914 53.2078ZM33.7083 52.8167C32.9843 52.8167 32.2506 52.9639 31.6932 53.4388L32.9901 54.9612C33.0327 54.9249 33.2102 54.8167 33.7083 54.8167V52.8167ZM31.6791 53.451C31.1736 53.8982 30.9083 54.494 30.9083 55.1667H32.9083C32.9083 55.0615 32.9319 55.0129 33.0042 54.949L31.6791 53.451ZM30.9083 55.1667C30.9083 55.8581 31.1693 56.4841 31.7099 56.9446L33.0068 55.4221C32.9473 55.3714 32.9083 55.3197 32.9083 55.1667H30.9083ZM31.7236 56.9561C32.1512 57.3073 32.6766 57.5738 33.2631 57.7778L33.9202 55.8888C33.4845 55.7373 33.1877 55.5705 32.9931 55.4106L31.7236 56.9561ZM33.2654 57.7786L35.1487 58.4286L35.8012 56.538L33.9179 55.888L33.2654 57.7786ZM35.1485 58.4285C35.7027 58.62 36.2029 58.8487 36.6521 59.1124L37.6645 57.3876C37.0915 57.0513 36.4695 56.7689 35.8015 56.5381L35.1485 58.4285ZM36.6602 59.1171C37.0509 59.3416 37.3563 59.629 37.59 59.9836L39.26 58.883C38.8492 58.2599 38.3102 57.7584 37.6565 57.3829L36.6602 59.1171ZM37.59 59.9836C37.7732 60.2615 37.9083 60.6905 37.9083 61.35H39.9083C39.9083 60.4318 39.7213 59.583 39.26 58.883L37.59 59.9836ZM37.9083 61.35C37.9083 62.2744 37.5993 62.9358 37.0092 63.4393L38.3074 64.9607C39.3841 64.042 39.9083 62.8033 39.9083 61.35H37.9083ZM37.0151 63.4343C36.421 63.9334 35.5082 64.25 34.1417 64.25V66.25C35.7973 66.25 37.229 65.8666 38.3015 64.9657L37.0151 63.4343ZM34.0583 67V64H32.0583V67H34.0583ZM33.0583 65H34.725V63H33.0583V65ZM33.725 64V67H35.725V64H33.725ZM34.725 66H33.0583V68H34.725V66ZM34.0583 53V50H32.0583V53H34.0583ZM33.0583 51H34.725V49H33.0583V51ZM33.725 50V53H35.725V50H33.725ZM34.725 52H33.0583V54H34.725V52ZM40.9031 65H39.9031V66H40.9031V65ZM40.9031 62.8L40.2985 62.0035L39.9031 62.3036V62.8H40.9031ZM43.3198 60.9167L43.9476 61.6951L43.9551 61.689L43.3198 60.9167ZM45.0865 59.3667L44.4018 58.6378L44.396 58.6433L45.0865 59.3667ZM46.7365 57.5L45.9094 56.9376L45.9018 56.9492L46.7365 57.5ZM46.8198 54.4L46.0672 55.0585L46.0782 55.071L46.0895 55.0832L46.8198 54.4ZM43.9198 54.5333L44.7027 55.1556L44.7102 55.1459L43.9198 54.5333ZM43.4031 56.2667V57.2667H44.4031V56.2667H43.4031ZM40.9031 56.2667H39.9031V57.2667H40.9031V56.2667ZM41.4198 53.9L40.5283 53.447L40.5283 53.447L41.4198 53.9ZM42.9531 52.3333L43.4289 53.2129L43.434 53.2101L42.9531 52.3333ZM48.8198 52.8667L48.1338 53.5943L48.1391 53.5993L48.1445 53.6043L48.8198 52.8667ZM49.3365 58.1L50.1845 58.63L50.1881 58.6241L49.3365 58.1ZM47.3531 60.35L46.6847 59.6062L46.6794 59.611L47.3531 60.35ZM46.0865 61.4167L46.7017 62.205L46.7043 62.203L46.0865 61.4167ZM44.7198 62.4L44.1698 61.5648L43.7198 61.8612V62.4H44.7198ZM44.7198 62.8H43.7198V63.8H44.7198V62.8ZM50.4365 62.8H51.4365V61.8H50.4365V62.8ZM50.4365 65V66H51.4365V65H50.4365ZM41.9031 65V62.8H39.9031V65H41.9031ZM41.5077 63.5965C42.4355 62.8923 43.2491 62.2583 43.9475 61.6951L42.692 60.1383C42.0127 60.6861 41.2152 61.3077 40.2985 62.0035L41.5077 63.5965ZM43.9551 61.689C44.6573 61.1113 45.2657 60.578 45.7769 60.09L44.396 58.6433C43.9295 59.0886 43.36 59.5887 42.6845 60.1444L43.9551 61.689ZM45.7711 60.0955C46.5355 59.3775 47.1457 58.6954 47.5711 58.0508L45.9018 56.9492C45.5939 57.4157 45.1041 57.9781 44.4018 58.6378L45.7711 60.0955ZM47.5634 58.0623C48.0422 57.3581 48.3031 56.5815 48.3031 55.75H46.3031C46.3031 56.1407 46.1862 56.5308 45.9095 56.9377L47.5634 58.0623ZM48.3031 55.75C48.3031 54.9888 48.0759 54.2789 47.5501 53.7168L46.0895 55.0832C46.2082 55.21 46.3031 55.4001 46.3031 55.75H48.3031ZM47.5724 53.7415C47.0225 53.1131 46.2579 52.8667 45.4531 52.8667V54.8667C45.8484 54.8667 45.9949 54.9758 46.0672 55.0585L47.5724 53.7415ZM45.4531 52.8667C44.537 52.8667 43.7028 53.1809 43.1294 53.9208L44.7102 55.1459C44.8257 54.9969 45.0137 54.8667 45.4531 54.8667V52.8667ZM43.137 53.9111C42.6141 54.5689 42.4031 55.3878 42.4031 56.2667H44.4031C44.4031 55.701 44.5366 55.3644 44.7026 55.1556L43.137 53.9111ZM43.4031 55.2667H40.9031V57.2667H43.4031V55.2667ZM41.9031 56.2667C41.9031 55.4953 42.0502 54.8669 42.3113 54.353L40.5283 53.447C40.1005 54.2887 39.9031 55.238 39.9031 56.2667H41.9031ZM42.3113 54.353C42.5624 53.859 42.9272 53.4843 43.4289 53.2129L42.4773 51.4538C41.6235 51.9157 40.9661 52.5855 40.5283 53.447L42.3113 54.353ZM43.434 53.2101C43.9391 52.9331 44.6131 52.7667 45.5031 52.7667V50.7667C44.3709 50.7667 43.3449 50.978 42.4723 51.4565L43.434 53.2101ZM45.5031 52.7667C46.7702 52.7667 47.5974 53.0886 48.1338 53.5943L49.5058 52.1391C48.4866 51.1781 47.1027 50.7667 45.5031 50.7667V52.7667ZM48.1445 53.6043C48.7022 54.1148 49.0031 54.7902 49.0031 55.7333H51.0031C51.0031 54.2987 50.5152 53.063 49.495 52.1291L48.1445 53.6043ZM49.0031 55.7333C49.0031 56.4056 48.8313 57.0128 48.4848 57.5759L50.1881 58.6241C50.7305 57.7428 51.0031 56.7722 51.0031 55.7333H49.0031ZM48.4885 57.57C48.1092 58.1769 47.5188 58.8566 46.6847 59.6062L48.0216 61.0938C48.943 60.2656 49.6749 59.4453 50.1845 58.63L48.4885 57.57ZM46.6794 59.611C46.3222 59.9367 45.9191 60.2764 45.4686 60.6303L46.7043 62.203C47.1872 61.8236 47.6284 61.4522 48.0269 61.089L46.6794 59.611ZM45.4712 60.6284C45.0355 60.9684 44.6017 61.2804 44.1698 61.5648L45.2698 63.2352C45.749 62.9196 46.2263 62.5761 46.7017 62.205L45.4712 60.6284ZM43.7198 62.4V62.8H45.7198V62.4H43.7198ZM44.7198 63.8H50.4365V61.8H44.7198V63.8ZM49.4365 62.8V65H51.4365V62.8H49.4365ZM50.4365 64H40.9031V66H50.4365V64ZM53.5646 63.45L52.7493 64.0291L53.5646 63.45ZM53.5646 53.55L54.3799 54.1291L54.3799 54.1291L53.5646 53.55ZM61.2312 53.55L60.4124 54.124L60.416 54.1291L61.2312 53.55ZM61.2312 63.45L60.416 62.8709L60.4124 62.876L61.2312 63.45ZM59.1312 61.9L58.2368 61.4528L58.2316 61.4634L59.1312 61.9ZM59.1312 55.1L58.2315 55.5366L58.2368 55.5472L59.1312 55.1ZM55.6479 55.1L54.7534 54.6528L54.7483 54.6634L55.6479 55.1ZM55.6479 61.9L54.7482 62.3366L54.7535 62.3472L55.6479 61.9ZM57.3979 64.2333C55.9465 64.2333 55.0024 63.7474 54.3799 62.8709L52.7493 64.0291C53.8156 65.5304 55.4271 66.2333 57.3979 66.2333V64.2333ZM54.3799 62.8709C53.6985 61.9116 53.2979 60.4926 53.2979 58.5H51.2979C51.2979 60.7297 51.7418 62.6106 52.7493 64.0291L54.3799 62.8709ZM53.2979 58.5C53.2979 56.5074 53.6985 55.0884 54.3799 54.1291L52.7493 52.9709C51.7418 54.3894 51.2979 56.2703 51.2979 58.5H53.2979ZM54.3799 54.1291C55.0024 53.2526 55.9465 52.7667 57.3979 52.7667V50.7667C55.4271 50.7667 53.8156 51.4696 52.7493 52.9709L54.3799 54.1291ZM57.3979 52.7667C58.8634 52.7667 59.8028 53.2543 60.4124 54.124L62.0501 52.976C60.993 51.4679 59.3769 50.7667 57.3979 50.7667V52.7667ZM60.416 54.1291C61.0974 55.0884 61.4979 56.5074 61.4979 58.5H63.4979C63.4979 56.2703 63.054 54.3894 62.0465 52.9709L60.416 54.1291ZM61.4979 58.5C61.4979 60.4926 61.0974 61.9116 60.416 62.8709L62.0465 64.0291C63.054 62.6106 63.4979 60.7297 63.4979 58.5H61.4979ZM60.4124 62.876C59.8028 63.7457 58.8634 64.2333 57.3979 64.2333V66.2333C59.3769 66.2333 60.993 65.5321 62.0501 64.024L60.4124 62.876ZM57.3979 64.0333C57.9582 64.0333 58.4962 63.8968 58.9702 63.587C59.4404 63.2795 59.7856 62.842 60.0309 62.3366L58.2316 61.4634C58.1102 61.7136 57.9832 61.8427 57.8757 61.913C57.7718 61.9809 57.6265 62.0333 57.3979 62.0333V64.0333ZM60.0257 62.3472C60.5079 61.3827 60.6979 60.0622 60.6979 58.5H58.6979C58.6979 59.96 58.5101 60.9062 58.2368 61.4528L60.0257 62.3472ZM60.6979 58.5C60.6979 56.9378 60.5079 55.6173 60.0257 54.6528L58.2368 55.5472C58.5101 56.0938 58.6979 57.04 58.6979 58.5H60.6979ZM60.0309 54.6634C59.7856 54.158 59.4404 53.7205 58.9702 53.413C58.4962 53.1032 57.9582 52.9667 57.3979 52.9667V54.9667C57.6265 54.9667 57.7718 55.0191 57.8757 55.087C57.9832 55.1573 58.1102 55.2864 58.2316 55.5366L60.0309 54.6634ZM57.3979 52.9667C56.8374 52.9667 56.2999 53.1032 55.8252 53.4106C55.3544 53.7155 55.005 54.1497 54.7535 54.6528L56.5423 55.5472C56.6686 55.2948 56.7998 55.1622 56.9123 55.0894C57.021 55.019 57.1695 54.9667 57.3979 54.9667V52.9667ZM54.7483 54.6634C54.282 55.6241 54.0979 56.94 54.0979 58.5H56.0979C56.0979 57.0378 56.2805 56.087 56.5476 55.5366L54.7483 54.6634ZM54.0979 58.5C54.0979 60.06 54.282 61.3759 54.7483 62.3366L56.5476 61.4634C56.2805 60.913 56.0979 59.9622 56.0979 58.5H54.0979ZM54.7535 62.3472C55.005 62.8503 55.3544 63.2845 55.8252 63.5894C56.2999 63.8968 56.8374 64.0333 57.3979 64.0333V62.0333C57.1695 62.0333 57.021 61.981 56.9123 61.9106C56.7998 61.8378 56.6686 61.7052 56.5423 61.4528L54.7535 62.3472ZM65.2927 63.45L64.4774 64.0291L65.2927 63.45ZM65.2927 53.55L66.108 54.1291L66.108 54.1291L65.2927 53.55ZM72.9594 53.55L72.1405 54.124L72.1441 54.1291L72.9594 53.55ZM72.9594 63.45L72.1441 62.8709L72.1405 62.876L72.9594 63.45ZM70.8594 61.9L69.9649 61.4528L69.9597 61.4634L70.8594 61.9ZM70.8594 55.1L69.9597 55.5366L69.9649 55.5472L70.8594 55.1ZM67.376 55.1L66.4816 54.6528L66.4764 54.6634L67.376 55.1ZM67.376 61.9L66.4763 62.3366L66.4816 62.3472L67.376 61.9ZM69.126 64.2333C67.6746 64.2333 66.7305 63.7474 66.108 62.8709L64.4774 64.0291C65.5438 65.5304 67.1553 66.2333 69.126 66.2333V64.2333ZM66.108 62.8709C65.4266 61.9116 65.026 60.4926 65.026 58.5H63.026C63.026 60.7297 63.4699 62.6106 64.4774 64.0291L66.108 62.8709ZM65.026 58.5C65.026 56.5074 65.4266 55.0884 66.108 54.1291L64.4774 52.9709C63.4699 54.3894 63.026 56.2703 63.026 58.5H65.026ZM66.108 54.1291C66.7305 53.2526 67.6746 52.7667 69.126 52.7667V50.7667C67.1553 50.7667 65.5438 51.4696 64.4774 52.9709L66.108 54.1291ZM69.126 52.7667C70.5915 52.7667 71.5309 53.2543 72.1405 54.124L73.7782 52.976C72.7212 51.4679 71.105 50.7667 69.126 50.7667V52.7667ZM72.1441 54.1291C72.8255 55.0884 73.226 56.5074 73.226 58.5H75.226C75.226 56.2703 74.7822 54.3894 73.7746 52.9709L72.1441 54.1291ZM73.226 58.5C73.226 60.4926 72.8255 61.9116 72.1441 62.8709L73.7746 64.0291C74.7822 62.6106 75.226 60.7297 75.226 58.5H73.226ZM72.1405 62.876C71.5309 63.7457 70.5915 64.2333 69.126 64.2333V66.2333C71.105 66.2333 72.7212 65.5321 73.7782 64.024L72.1405 62.876ZM69.126 64.0333C69.6863 64.0333 70.2244 63.8968 70.6983 63.587C71.1685 63.2795 71.5138 62.842 71.759 62.3366L69.9597 61.4634C69.8383 61.7136 69.7114 61.8427 69.6038 61.913C69.4999 61.9809 69.3546 62.0333 69.126 62.0333V64.0333ZM71.7538 62.3472C72.2361 61.3827 72.426 60.0622 72.426 58.5H70.426C70.426 59.96 70.2382 60.9062 69.9649 61.4528L71.7538 62.3472ZM72.426 58.5C72.426 56.9378 72.2361 55.6173 71.7538 54.6528L69.9649 55.5472C70.2382 56.0938 70.426 57.04 70.426 58.5H72.426ZM71.759 54.6634C71.5138 54.158 71.1685 53.7205 70.6983 53.413C70.2244 53.1032 69.6863 52.9667 69.126 52.9667V54.9667C69.3546 54.9667 69.4999 55.0191 69.6038 55.087C69.7114 55.1573 69.8383 55.2864 69.9597 55.5366L71.759 54.6634ZM69.126 52.9667C68.5655 52.9667 68.028 53.1032 67.5533 53.4106C67.0825 53.7155 66.7332 54.1497 66.4816 54.6528L68.2705 55.5472C68.3967 55.2948 68.5279 55.1622 68.6405 55.0894C68.7491 55.019 68.8977 54.9667 69.126 54.9667V52.9667ZM66.4764 54.6634C66.0101 55.6241 65.826 56.94 65.826 58.5H67.826C67.826 57.0378 68.0086 56.087 68.2757 55.5366L66.4764 54.6634ZM65.826 58.5C65.826 60.06 66.0101 61.3759 66.4764 62.3366L68.2757 61.4634C68.0086 60.913 67.826 59.9622 67.826 58.5H65.826ZM66.4816 62.3472C66.7332 62.8503 67.0825 63.2845 67.5533 63.5894C68.028 63.8968 68.5655 64.0333 69.126 64.0333V62.0333C68.8977 62.0333 68.7491 61.981 68.6405 61.9106C68.5279 61.8378 68.3967 61.7052 68.2705 61.4528L66.4816 62.3472Z" fill="white" mask="url(#path-22-outside-3_7093_57314)"/>
</g>
<defs>
<clipPath id="clip0_7093_57314">
<rect width="106" height="107" fill="white"/>
</clipPath>
</defs>
</svg>
