<svg width="106" height="107" viewBox="0 0 106 107" fill="none" xmlns="http://www.w3.org/2000/svg">
<g clip-path="url(#clip0_7093_57384)">
<mask id="path-1-outside-1_7093_57384" maskUnits="userSpaceOnUse" x="26.7285" y="5.43359" width="53" height="67" fill="black">
<rect fill="white" x="26.7285" y="5.43359" width="53" height="67"/>
<path fill-rule="evenodd" clip-rule="evenodd" d="M64.2051 65.0777H55.0189L57.5523 69.5113H77.5059L58.5018 36.2542L74.9707 7.43367H64.2015L53.1172 26.8311L42.0329 7.43359H31.2656L47.7336 36.2525L28.7285 69.5113H48.6821L51.2155 65.0777H42.0312L53.1182 45.6756L64.2051 65.0777Z"/>
</mask>
<path fill-rule="evenodd" clip-rule="evenodd" d="M64.2051 65.0777H55.0189L57.5523 69.5113H77.5059L58.5018 36.2542L74.9707 7.43367H64.2015L53.1172 26.8311L42.0329 7.43359H31.2656L47.7336 36.2525L28.7285 69.5113H48.6821L51.2155 65.0777H42.0312L53.1182 45.6756L64.2051 65.0777Z" fill="#AF3838"/>
<path d="M55.0189 65.0777V63.0777C54.3059 63.0777 53.6469 63.4572 53.289 64.0738C52.9312 64.6905 52.9287 65.4509 53.2824 66.07L55.0189 65.0777ZM64.2051 65.0777V67.0777C64.918 67.0777 65.5771 66.6982 65.9349 66.0815C66.2928 65.4649 66.2953 64.7044 65.9416 64.0854L64.2051 65.0777ZM57.5523 69.5113L55.8159 70.5035C56.1719 71.1267 56.8346 71.5113 57.5523 71.5113V69.5113ZM77.5059 69.5113V71.5113C78.2188 71.5113 78.8779 71.1318 79.2357 70.5151C79.5936 69.8985 79.5961 69.138 79.2424 68.519L77.5059 69.5113ZM58.5018 36.2542L56.7654 35.2619C56.414 35.8768 56.414 36.6316 56.7654 37.2465L58.5018 36.2542ZM74.9707 7.43367L76.7072 8.42594C77.0609 7.80694 77.0584 7.04644 76.7006 6.42981C76.3427 5.81318 75.6837 5.43367 74.9707 5.43367V7.43367ZM64.2015 7.43367V5.43367C63.4838 5.43367 62.8211 5.81824 62.465 6.44139L64.2015 7.43367ZM53.1172 26.8311L51.3807 27.8234C51.7368 28.4465 52.3995 28.8311 53.1172 28.8311C53.8349 28.8311 54.4976 28.4465 54.8537 27.8234L53.1172 26.8311ZM42.0329 7.43359L43.7694 6.44132C43.4133 5.81817 42.7506 5.43359 42.0329 5.43359V7.43359ZM31.2656 7.43359V5.43359C30.5527 5.43359 29.8936 5.81311 29.5358 6.42974C29.178 7.04637 29.1754 7.80687 29.5291 8.42587L31.2656 7.43359ZM47.7336 36.2525L49.4701 37.2448C49.8214 36.6299 49.8214 35.8751 49.4701 35.2602L47.7336 36.2525ZM28.7285 69.5113L26.992 68.5191C26.6383 69.1381 26.6409 69.8986 26.9987 70.5152C27.3565 71.1318 28.0156 71.5113 28.7285 71.5113V69.5113ZM48.6821 69.5113V71.5113C49.3998 71.5113 50.0625 71.1268 50.4185 70.5036L48.6821 69.5113ZM51.2155 65.0777L52.952 66.07C53.3057 65.451 53.3032 64.6905 52.9454 64.0739C52.5875 63.4573 51.9285 63.0777 51.2155 63.0777V65.0777ZM42.0312 65.0777L40.2948 64.0855C39.941 64.7045 39.9436 65.465 40.3014 66.0816C40.6593 66.6982 41.3183 67.0777 42.0312 67.0777V65.0777ZM53.1182 45.6756L54.8547 44.6833C54.4986 44.0602 53.8359 43.6756 53.1182 43.6756C52.4005 43.6756 51.7378 44.0602 51.3817 44.6833L53.1182 45.6756ZM55.0189 67.0777H64.2051V63.0777H55.0189V67.0777ZM59.2888 68.519L56.7554 64.0854L53.2824 66.07L55.8159 70.5035L59.2888 68.519ZM77.5059 67.5113H57.5523V71.5113H77.5059V67.5113ZM56.7654 37.2465L75.7694 70.5035L79.2424 68.519L60.2383 35.2619L56.7654 37.2465ZM60.2383 37.2465L76.7072 8.42594L73.2342 6.44139L56.7654 35.2619L60.2383 37.2465ZM74.9707 5.43367H64.2015V9.43367H74.9707V5.43367ZM62.465 6.44139L51.3807 25.8388L54.8537 27.8234L65.938 8.42594L62.465 6.44139ZM40.2964 8.42587L51.3807 27.8234L54.8537 25.8388L43.7694 6.44132L40.2964 8.42587ZM31.2656 9.43359H42.0329V5.43359H31.2656V9.43359ZM49.4701 35.2602L33.0021 6.44132L29.5291 8.42587L45.9971 37.2448L49.4701 35.2602ZM45.9971 35.2602L26.992 68.5191L30.465 70.5036L49.4701 37.2448L45.9971 35.2602ZM28.7285 71.5113H48.6821V67.5113H28.7285V71.5113ZM50.4185 70.5036L52.952 66.07L49.479 64.0855L46.9456 68.5191L50.4185 70.5036ZM51.2155 63.0777H42.0312V67.0777H51.2155V63.0777ZM43.7677 66.07L54.8547 46.6679L51.3817 44.6833L40.2948 64.0855L43.7677 66.07ZM65.9416 64.0854L54.8547 44.6833L51.3817 46.6679L62.4686 66.07L65.9416 64.0854Z" fill="#3D3D3D" mask="url(#path-1-outside-1_7093_57384)"/>
<mask id="path-3-outside-2_7093_57384" maskUnits="userSpaceOnUse" x="8.99316" y="1" width="89" height="38" fill="black">
<rect fill="white" x="8.99316" y="1" width="89" height="38"/>
<path fill-rule="evenodd" clip-rule="evenodd" d="M30.9467 3H10.9932L30.1746 36.5676C34.3591 32.5787 39.5821 29.6697 45.3967 28.2875L30.9467 3ZM60.8372 28.2875C66.6517 29.6697 71.8747 32.5787 76.0592 36.5675L95.2407 3H75.2871L60.8372 28.2875Z"/>
</mask>
<path fill-rule="evenodd" clip-rule="evenodd" d="M30.9467 3H10.9932L30.1746 36.5676C34.3591 32.5787 39.5821 29.6697 45.3967 28.2875L30.9467 3ZM60.8372 28.2875C66.6517 29.6697 71.8747 32.5787 76.0592 36.5675L95.2407 3H75.2871L60.8372 28.2875Z" fill="#D14848"/>
<path d="M10.9932 3V1C10.2802 1 9.62119 1.37952 9.26334 1.99615C8.9055 2.61278 8.90296 3.37327 9.25668 3.99228L10.9932 3ZM30.9467 3L32.6832 2.00772C32.3271 1.38457 31.6644 1 30.9467 1V3ZM30.1746 36.5676L28.4381 37.5598C28.7432 38.0938 29.277 38.4576 29.8855 38.5466C30.4939 38.6355 31.1095 38.4395 31.5546 38.0152L30.1746 36.5676ZM45.3967 28.2875L45.8592 30.2332C46.4724 30.0875 46.9809 29.6613 47.2316 29.0831C47.4823 28.5049 47.4458 27.8424 47.1332 27.2952L45.3967 28.2875ZM60.8372 28.2875L59.1007 27.2952C58.788 27.8423 58.7515 28.5049 59.0022 29.0831C59.2529 29.6613 59.7615 30.0875 60.3746 30.2332L60.8372 28.2875ZM76.0592 36.5675L74.6793 38.0152C75.1244 38.4395 75.74 38.6354 76.3484 38.5465C76.9569 38.4576 77.4906 38.0937 77.7957 37.5598L76.0592 36.5675ZM95.2407 3L96.9772 3.99228C97.3309 3.37327 97.3283 2.61278 96.9705 1.99615C96.6127 1.37952 95.9536 1 95.2407 1V3ZM75.2871 3V1C74.5694 1 73.9067 1.38457 73.5507 2.00772L75.2871 3ZM10.9932 5H30.9467V1H10.9932V5ZM31.9111 35.5753L12.7297 2.00772L9.25668 3.99228L28.4381 37.5598L31.9111 35.5753ZM31.5546 38.0152C35.4895 34.2644 40.3981 31.5315 45.8592 30.2332L44.9341 26.3417C38.7662 27.808 33.2288 30.8931 28.7947 35.1199L31.5546 38.0152ZM29.2102 3.99228L43.6602 29.2797L47.1332 27.2952L32.6832 2.00772L29.2102 3.99228ZM60.3746 30.2332C65.8358 31.5315 70.7444 34.2643 74.6793 38.0152L77.4392 35.1199C73.0051 30.8931 67.4677 27.8079 61.2997 26.3417L60.3746 30.2332ZM93.5042 2.00772L74.3228 35.5752L77.7957 37.5598L96.9772 3.99228L93.5042 2.00772ZM75.2871 5H95.2407V1H75.2871V5ZM62.5737 29.2797L77.0236 3.99228L73.5507 2.00772L59.1007 27.2952L62.5737 29.2797Z" fill="#3D3D3D" mask="url(#path-3-outside-2_7093_57384)"/>
<path d="M15 5L31 32" stroke="#FF7E7E" stroke-width="2" stroke-linecap="round" stroke-linejoin="round"/>
<path d="M77 5L64 27" stroke="#FF7E7E" stroke-width="2" stroke-linecap="round" stroke-linejoin="round"/>
<path d="M53.5 92C71.4186 92 86 77.9271 86 60.5C86 43.0729 71.4186 29 53.5 29C35.5814 29 21 43.0729 21 60.5C21 77.9271 35.5814 92 53.5 92Z" fill="#FFB423" stroke="#5B3303" stroke-width="2" stroke-linejoin="round"/>
<circle cx="53.5" cy="60.5" r="25.5" fill="#FFDD65"/>
<circle cx="52.5" cy="60.5" r="26.5" stroke="#DF8D12" stroke-width="2" stroke-linejoin="round"/>
<path d="M24 60C24 44.536 37.4315 32 54 32" stroke="#FFCF72" stroke-width="2" stroke-linecap="round" stroke-linejoin="round"/>
<path d="M53 81C64.07 81 73 71.7972 73 60.5C73 49.2028 64.07 40 53 40C41.93 40 33 49.2028 33 60.5C33 71.7972 41.93 81 53 81Z" fill="#FFCF23" stroke="#DF8D12" stroke-width="2"/>
<path d="M35 60C35 50.6112 43.5066 43 54 43" stroke="#FFF4CD" stroke-width="2" stroke-linecap="round" stroke-linejoin="round"/>
<path d="M42.7914 56.822C42.4386 56.8973 42.1537 57.1567 42.0458 57.5009C41.9379 57.8451 42.0237 58.2208 42.2705 58.4839L47.4237 63.9807L46.1421 70.8157C46.0713 71.1936 46.2234 71.5787 46.5334 71.8062C46.8433 72.0337 47.2563 72.0633 47.5956 71.8824L54 68.4667L60.4044 71.8824C60.7437 72.0633 61.1567 72.0337 61.4666 71.8062C61.7766 71.5787 61.9287 71.1936 61.8579 70.8157L60.5763 63.9807L65.7295 58.4839C65.9763 58.2208 66.0621 57.8451 65.9542 57.5009C65.8463 57.1567 65.5614 56.8973 65.2086 56.822L58.7752 55.4495L54.8716 48.5097C54.6945 48.1949 54.3613 48 54 48C53.6387 48 53.3055 48.1949 53.1284 48.5097L51.0659 52.1764L49.2248 55.4495L42.7914 56.822Z" fill="#FFE9AF" stroke="#C37808" stroke-width="2" stroke-linecap="round" stroke-linejoin="round"/>
<path d="M43.5975 99.7618C65.1904 105.548 87.4823 92.1637 93.4344 69.9502C99.3865 47.7366 86.7731 24.9998 65.1802 19.214C43.5873 13.4282 21.2954 26.8122 15.3433 49.0257C9.39123 71.2392 22.0046 93.976 43.5975 99.7618Z" fill="#A56402" stroke="#5B3303" stroke-width="2"/>
<path d="M41.0545 97.2189C62.6475 103.005 84.9393 89.6207 90.8914 67.4072C96.8435 45.1937 84.2302 22.4569 62.6372 16.6711C41.0443 10.8853 18.7525 24.2692 12.8004 46.4827C6.84827 68.6963 19.4616 91.4331 41.0545 97.2189Z" fill="#FFB423" stroke="#5B3303" stroke-width="2"/>
<path d="M43.0285 89.8473C60.5577 94.5442 78.6607 83.5671 83.5203 65.431C88.3799 47.2949 78.1907 28.7369 60.6615 24.04C43.1324 19.343 25.0293 30.3201 20.1697 48.4563C15.3102 66.5924 25.4994 85.1504 43.0285 89.8473Z" fill="#FFCF23" stroke="#DF8D12" stroke-width="2"/>
<path fill-rule="evenodd" clip-rule="evenodd" d="M75.4811 34.3139C71.9834 31.1916 67.7507 28.8321 62.955 27.5471C45.9947 23.0026 28.4142 33.6175 23.6879 51.2562C20.6402 62.6304 23.6818 74.1478 30.7745 82.1127C21.9024 74.1927 17.759 61.3644 21.1489 48.7133C25.8752 31.0745 43.4556 20.4596 60.4159 25.0041C66.4395 26.6181 71.5747 29.9272 75.4811 34.3139Z" fill="#FFDD65"/>
<path d="M42.6406 19.9288C30.7409 23.207 21.1559 32.054 16.8767 43.4844" stroke="#FFD179" stroke-width="2" stroke-linecap="round" stroke-linejoin="round"/>
<path d="M71.3477 89.1254C75.7763 86.0569 79.5463 82.0378 82.3893 77.3477" stroke="#FFD179" stroke-width="2" stroke-linecap="round" stroke-linejoin="round"/>
<path d="M30.127 26.5547C30.127 26.5547 26.152 28.9102 23.502 32.4436" stroke="#FFF3D2" stroke-width="2" stroke-linecap="round" stroke-linejoin="round"/>
<path d="M35.2793 32.4453C35.2793 32.4453 31.3043 35.0953 28.6543 39.0703" stroke="white" stroke-width="2" stroke-linecap="round" stroke-linejoin="round"/>
<mask id="path-22-outside-3_7093_57384" maskUnits="userSpaceOnUse" x="33" y="49" width="37" height="19" fill="black">
<rect fill="white" x="33" y="49" width="37" height="19"/>
<path d="M40.0057 65.25C39.0279 65.25 38.2002 65.1167 37.5224 64.85C36.8557 64.5722 36.3168 64.2111 35.9057 63.7667C35.4946 63.3222 35.1891 62.8389 34.9891 62.3167C34.7891 61.7833 34.6724 61.2611 34.6391 60.75H37.2391C37.2613 61.15 37.3779 61.5333 37.5891 61.9C37.8002 62.2667 38.1113 62.5667 38.5224 62.8C38.9335 63.0333 39.4502 63.15 40.0724 63.15C40.7502 63.15 41.2502 63.0056 41.5724 62.7167C41.9057 62.4167 42.0724 62.0278 42.0724 61.55C42.0724 61.0944 41.9224 60.7222 41.6224 60.4333C41.3335 60.1444 40.9446 59.9167 40.4557 59.75L38.6391 59.1167C38.0502 58.9056 37.4779 58.6556 36.9224 58.3667C36.3779 58.0778 35.9335 57.6944 35.5891 57.2167C35.2446 56.7278 35.0724 56.1056 35.0724 55.35C35.0724 54.5722 35.2668 53.9167 35.6557 53.3833C36.0557 52.85 36.6002 52.4444 37.2891 52.1667C37.9891 51.8889 38.7891 51.75 39.6891 51.75C40.8446 51.75 41.7557 51.9444 42.4224 52.3333C43.0891 52.7222 43.5724 53.2167 43.8724 53.8167C44.1835 54.4056 44.3724 55.0222 44.4391 55.6667H41.8391C41.8168 55.3556 41.7279 55.0611 41.5724 54.7833C41.4279 54.4944 41.1946 54.2611 40.8724 54.0833C40.5502 53.9056 40.1168 53.8167 39.5724 53.8167C38.9613 53.8167 38.5057 53.9444 38.2057 54.2C37.9168 54.4556 37.7724 54.7778 37.7724 55.1667C37.7724 55.5889 37.9224 55.9278 38.2224 56.1833C38.5335 56.4389 38.9446 56.6556 39.4557 56.8333L41.3391 57.4833C41.9502 57.6944 42.5113 57.95 43.0224 58.25C43.5446 58.55 43.9668 58.9444 44.2891 59.4333C44.6113 59.9222 44.7724 60.5611 44.7724 61.35C44.7724 62.5389 44.3557 63.4889 43.5224 64.2C42.6891 64.9 41.5168 65.25 40.0057 65.25ZM38.9224 67V64H40.5891V67H38.9224ZM38.9224 53V50H40.5891V53H38.9224ZM51.6172 65.2333C50.5727 65.2333 49.6839 65.0278 48.9505 64.6167C48.2283 64.2056 47.6783 63.65 47.3005 62.95C46.9227 62.2389 46.7339 61.4444 46.7339 60.5667C46.7339 59.8667 46.8394 59.2111 47.0505 58.6C47.2616 57.9778 47.5339 57.3833 47.8672 56.8167C48.2005 56.25 48.5505 55.7111 48.9172 55.2C48.9394 55.1778 49.0283 55.0556 49.1839 54.8333C49.3505 54.6111 49.5505 54.3333 49.7839 54C50.0283 53.6667 50.2783 53.3222 50.5339 52.9667C50.8005 52.6111 51.0505 52.2889 51.2839 52H54.4339V52.1C54.2227 52.3556 53.8561 52.7944 53.3339 53.4167C52.8116 54.0278 52.2227 54.75 51.5672 55.5833C51.1672 56.0944 50.8561 56.5 50.6339 56.8C50.4227 57.1 50.3005 57.2778 50.2672 57.3333H50.6672C50.8561 57.1778 51.1061 57.0167 51.4172 56.85C51.7283 56.6833 52.1394 56.6 52.6505 56.6C53.3616 56.6 54.0061 56.7667 54.5839 57.1C55.1616 57.4222 55.6172 57.8889 55.9505 58.5C56.295 59.1111 56.4672 59.8333 56.4672 60.6667C56.4672 61.5222 56.2783 62.3 55.9005 63C55.5227 63.6889 54.9727 64.2333 54.2505 64.6333C53.5394 65.0333 52.6616 65.2333 51.6172 65.2333ZM51.6505 63.2333C52.3505 63.2333 52.9005 63.0167 53.3005 62.5833C53.7116 62.1389 53.9172 61.5333 53.9172 60.7667C53.9172 59.9778 53.7116 59.3722 53.3005 58.95C52.8894 58.5167 52.3394 58.3 51.6505 58.3C50.9172 58.3 50.3394 58.5333 49.9172 59C49.5061 59.4556 49.3005 60.0389 49.3005 60.75C49.3005 61.1833 49.3839 61.5889 49.5505 61.9667C49.7283 62.3444 49.9894 62.65 50.3339 62.8833C50.6894 63.1167 51.1283 63.2333 51.6505 63.2333ZM63.262 65.2333C61.5509 65.2333 60.2731 64.6389 59.4286 63.45C58.5842 62.2611 58.162 60.6111 58.162 58.5C58.162 56.3889 58.5842 54.7389 59.4286 53.55C60.2731 52.3611 61.5509 51.7667 63.262 51.7667C64.9842 51.7667 66.262 52.3611 67.0953 53.55C67.9398 54.7389 68.362 56.3889 68.362 58.5C68.362 60.6111 67.9398 62.2611 67.0953 63.45C66.262 64.6389 64.9842 65.2333 63.262 65.2333ZM63.262 63.0333C64.0509 63.0333 64.6286 62.6556 64.9953 61.9C65.3731 61.1444 65.562 60.0111 65.562 58.5C65.562 56.9889 65.3731 55.8556 64.9953 55.1C64.6286 54.3444 64.0509 53.9667 63.262 53.9667C62.4731 53.9667 61.8898 54.3444 61.512 55.1C61.1453 55.8556 60.962 56.9889 60.962 58.5C60.962 60.0111 61.1453 61.1444 61.512 61.9C61.8898 62.6556 62.4731 63.0333 63.262 63.0333Z"/>
</mask>
<path d="M40.0057 65.25C39.0279 65.25 38.2002 65.1167 37.5224 64.85C36.8557 64.5722 36.3168 64.2111 35.9057 63.7667C35.4946 63.3222 35.1891 62.8389 34.9891 62.3167C34.7891 61.7833 34.6724 61.2611 34.6391 60.75H37.2391C37.2613 61.15 37.3779 61.5333 37.5891 61.9C37.8002 62.2667 38.1113 62.5667 38.5224 62.8C38.9335 63.0333 39.4502 63.15 40.0724 63.15C40.7502 63.15 41.2502 63.0056 41.5724 62.7167C41.9057 62.4167 42.0724 62.0278 42.0724 61.55C42.0724 61.0944 41.9224 60.7222 41.6224 60.4333C41.3335 60.1444 40.9446 59.9167 40.4557 59.75L38.6391 59.1167C38.0502 58.9056 37.4779 58.6556 36.9224 58.3667C36.3779 58.0778 35.9335 57.6944 35.5891 57.2167C35.2446 56.7278 35.0724 56.1056 35.0724 55.35C35.0724 54.5722 35.2668 53.9167 35.6557 53.3833C36.0557 52.85 36.6002 52.4444 37.2891 52.1667C37.9891 51.8889 38.7891 51.75 39.6891 51.75C40.8446 51.75 41.7557 51.9444 42.4224 52.3333C43.0891 52.7222 43.5724 53.2167 43.8724 53.8167C44.1835 54.4056 44.3724 55.0222 44.4391 55.6667H41.8391C41.8168 55.3556 41.7279 55.0611 41.5724 54.7833C41.4279 54.4944 41.1946 54.2611 40.8724 54.0833C40.5502 53.9056 40.1168 53.8167 39.5724 53.8167C38.9613 53.8167 38.5057 53.9444 38.2057 54.2C37.9168 54.4556 37.7724 54.7778 37.7724 55.1667C37.7724 55.5889 37.9224 55.9278 38.2224 56.1833C38.5335 56.4389 38.9446 56.6556 39.4557 56.8333L41.3391 57.4833C41.9502 57.6944 42.5113 57.95 43.0224 58.25C43.5446 58.55 43.9668 58.9444 44.2891 59.4333C44.6113 59.9222 44.7724 60.5611 44.7724 61.35C44.7724 62.5389 44.3557 63.4889 43.5224 64.2C42.6891 64.9 41.5168 65.25 40.0057 65.25ZM38.9224 67V64H40.5891V67H38.9224ZM38.9224 53V50H40.5891V53H38.9224ZM51.6172 65.2333C50.5727 65.2333 49.6839 65.0278 48.9505 64.6167C48.2283 64.2056 47.6783 63.65 47.3005 62.95C46.9227 62.2389 46.7339 61.4444 46.7339 60.5667C46.7339 59.8667 46.8394 59.2111 47.0505 58.6C47.2616 57.9778 47.5339 57.3833 47.8672 56.8167C48.2005 56.25 48.5505 55.7111 48.9172 55.2C48.9394 55.1778 49.0283 55.0556 49.1839 54.8333C49.3505 54.6111 49.5505 54.3333 49.7839 54C50.0283 53.6667 50.2783 53.3222 50.5339 52.9667C50.8005 52.6111 51.0505 52.2889 51.2839 52H54.4339V52.1C54.2227 52.3556 53.8561 52.7944 53.3339 53.4167C52.8116 54.0278 52.2227 54.75 51.5672 55.5833C51.1672 56.0944 50.8561 56.5 50.6339 56.8C50.4227 57.1 50.3005 57.2778 50.2672 57.3333H50.6672C50.8561 57.1778 51.1061 57.0167 51.4172 56.85C51.7283 56.6833 52.1394 56.6 52.6505 56.6C53.3616 56.6 54.0061 56.7667 54.5839 57.1C55.1616 57.4222 55.6172 57.8889 55.9505 58.5C56.295 59.1111 56.4672 59.8333 56.4672 60.6667C56.4672 61.5222 56.2783 62.3 55.9005 63C55.5227 63.6889 54.9727 64.2333 54.2505 64.6333C53.5394 65.0333 52.6616 65.2333 51.6172 65.2333ZM51.6505 63.2333C52.3505 63.2333 52.9005 63.0167 53.3005 62.5833C53.7116 62.1389 53.9172 61.5333 53.9172 60.7667C53.9172 59.9778 53.7116 59.3722 53.3005 58.95C52.8894 58.5167 52.3394 58.3 51.6505 58.3C50.9172 58.3 50.3394 58.5333 49.9172 59C49.5061 59.4556 49.3005 60.0389 49.3005 60.75C49.3005 61.1833 49.3839 61.5889 49.5505 61.9667C49.7283 62.3444 49.9894 62.65 50.3339 62.8833C50.6894 63.1167 51.1283 63.2333 51.6505 63.2333ZM63.262 65.2333C61.5509 65.2333 60.2731 64.6389 59.4286 63.45C58.5842 62.2611 58.162 60.6111 58.162 58.5C58.162 56.3889 58.5842 54.7389 59.4286 53.55C60.2731 52.3611 61.5509 51.7667 63.262 51.7667C64.9842 51.7667 66.262 52.3611 67.0953 53.55C67.9398 54.7389 68.362 56.3889 68.362 58.5C68.362 60.6111 67.9398 62.2611 67.0953 63.45C66.262 64.6389 64.9842 65.2333 63.262 65.2333ZM63.262 63.0333C64.0509 63.0333 64.6286 62.6556 64.9953 61.9C65.3731 61.1444 65.562 60.0111 65.562 58.5C65.562 56.9889 65.3731 55.8556 64.9953 55.1C64.6286 54.3444 64.0509 53.9667 63.262 53.9667C62.4731 53.9667 61.8898 54.3444 61.512 55.1C61.1453 55.8556 60.962 56.9889 60.962 58.5C60.962 60.0111 61.1453 61.1444 61.512 61.9C61.8898 62.6556 62.4731 63.0333 63.262 63.0333Z" fill="#5B3303"/>
<path d="M37.5224 64.85L37.1378 65.7731L37.147 65.7769L37.1563 65.7806L37.5224 64.85ZM35.9057 63.7667L36.6398 63.0876L36.6398 63.0876L35.9057 63.7667ZM34.9891 62.3167L34.0527 62.6678L34.0552 62.6743L34.9891 62.3167ZM34.6391 60.75V59.75H33.5717L33.6412 60.8151L34.6391 60.75ZM37.2391 60.75L38.2375 60.6945L38.185 59.75H37.2391V60.75ZM41.5724 62.7167L42.2399 63.4612L42.2414 63.46L41.5724 62.7167ZM41.6224 60.4333L40.9153 61.1404L40.922 61.1471L40.9288 61.1537L41.6224 60.4333ZM40.4557 59.75L40.1265 60.6943L40.1331 60.6965L40.4557 59.75ZM38.6391 59.1167L38.3016 60.058L38.3099 60.0609L38.6391 59.1167ZM36.9224 58.3667L36.4537 59.25L36.461 59.2539L36.9224 58.3667ZM35.5891 57.2167L34.7715 57.7927L34.7779 57.8015L35.5891 57.2167ZM35.6557 53.3833L34.8557 52.7833L34.8477 52.7942L35.6557 53.3833ZM37.2891 52.1667L36.9202 51.2372L36.9151 51.2392L37.2891 52.1667ZM42.4224 52.3333L41.9185 53.1971L41.9185 53.1971L42.4224 52.3333ZM43.8724 53.8167L42.978 54.2639L42.983 54.2739L42.9882 54.2838L43.8724 53.8167ZM44.4391 55.6667V56.6667H45.5478L45.4338 55.5638L44.4391 55.6667ZM41.8391 55.6667L40.8416 55.7379L40.9079 56.6667H41.8391V55.6667ZM41.5724 54.7833L40.678 55.2305L40.6884 55.2515L40.6999 55.2719L41.5724 54.7833ZM38.2057 54.2L37.5573 53.4388L37.5501 53.4448L37.5432 53.451L38.2057 54.2ZM38.2224 56.1833L37.5739 56.9446L37.5807 56.9504L37.5877 56.9561L38.2224 56.1833ZM39.4557 56.8333L39.1272 57.7778L39.1295 57.7786L39.4557 56.8333ZM41.3391 57.4833L41.6656 56.5381L41.6653 56.538L41.3391 57.4833ZM43.0224 58.25L42.5162 59.1125L42.5243 59.1171L43.0224 58.25ZM44.2891 59.4333L43.4541 59.9836L43.4541 59.9836L44.2891 59.4333ZM43.5224 64.2L44.1656 64.9657L44.1715 64.9607L43.5224 64.2ZM38.9224 67H37.9224V68H38.9224V67ZM38.9224 64V63H37.9224V64H38.9224ZM40.5891 64H41.5891V63H40.5891V64ZM40.5891 67V68H41.5891V67H40.5891ZM38.9224 53H37.9224V54H38.9224V53ZM38.9224 50V49H37.9224V50H38.9224ZM40.5891 50H41.5891V49H40.5891V50ZM40.5891 53V54H41.5891V53H40.5891ZM40.0057 64.25C39.1129 64.25 38.4172 64.1275 37.8885 63.9194L37.1563 65.7806C37.9831 66.1059 38.943 66.25 40.0057 66.25V64.25ZM37.907 63.9269C37.3478 63.6939 36.9363 63.4082 36.6398 63.0876L35.1716 64.4457C35.6973 65.014 36.3637 65.4505 37.1378 65.7731L37.907 63.9269ZM36.6398 63.0876C36.308 62.7288 36.0738 62.3529 35.9229 61.959L34.0552 62.6743C34.3044 63.3249 34.6813 63.9156 35.1716 64.4457L36.6398 63.0876ZM35.9254 61.9655C35.756 61.5139 35.6632 61.0879 35.6369 60.6849L33.6412 60.8151C33.6816 61.4343 33.8221 62.0528 34.0527 62.6678L35.9254 61.9655ZM34.6391 61.75H37.2391V59.75H34.6391V61.75ZM36.2406 60.8055C36.272 61.3703 36.4378 61.9046 36.7224 62.399L38.4557 61.401C38.3181 61.162 38.2506 60.9297 38.2375 60.6945L36.2406 60.8055ZM36.7224 62.399C37.0327 62.9378 37.4811 63.3589 38.0288 63.6697L39.016 61.9303C38.7414 61.7745 38.5676 61.5955 38.4557 61.401L36.7224 62.399ZM38.0288 63.6697C38.6306 64.0113 39.3302 64.15 40.0724 64.15V62.15C39.5701 62.15 39.2364 62.0554 39.016 61.9303L38.0288 63.6697ZM40.0724 64.15C40.8632 64.15 41.6547 63.9859 42.2399 63.4612L40.9048 61.9721C40.8456 62.0252 40.6371 62.15 40.0724 62.15V64.15ZM42.2414 63.46C42.8005 62.9568 43.0724 62.2904 43.0724 61.55H41.0724C41.0724 61.7652 41.011 61.8766 40.9034 61.9734L42.2414 63.46ZM43.0724 61.55C43.0724 60.8509 42.8312 60.2091 42.316 59.713L40.9288 61.1537C41.0136 61.2353 41.0724 61.338 41.0724 61.55H43.0724ZM42.3295 59.7262C41.9077 59.3045 41.3749 59.0068 40.7784 58.8035L40.1331 60.6965C40.5144 60.8265 40.7593 60.9844 40.9153 61.1404L42.3295 59.7262ZM40.7849 58.8057L38.9683 58.1724L38.3099 60.0609L40.1265 60.6943L40.7849 58.8057ZM38.9765 58.1753C38.4301 57.9795 37.8993 57.7475 37.3837 57.4794L36.461 59.2539C37.0566 59.5636 37.6702 59.8317 38.3016 60.058L38.9765 58.1753ZM37.3911 57.4833C36.9757 57.2629 36.6508 56.9794 36.4002 56.6319L34.7779 57.8015C35.2163 58.4095 35.7802 58.8926 36.4537 59.25L37.3911 57.4833ZM36.4065 56.6407C36.2088 56.3601 36.0724 55.9539 36.0724 55.35H34.0724C34.0724 56.2572 34.2804 57.0955 34.7716 57.7926L36.4065 56.6407ZM36.0724 55.35C36.0724 54.7451 36.2207 54.3057 36.4637 53.9725L34.8477 52.7942C34.3129 53.5276 34.0724 54.3994 34.0724 55.35H36.0724ZM36.4557 53.9833C36.7341 53.6122 37.1235 53.3117 37.663 53.0941L36.9151 51.2392C36.0768 51.5772 35.3774 52.0878 34.8557 52.7833L36.4557 53.9833ZM37.6579 53.0962C38.22 52.8731 38.8913 52.75 39.6891 52.75V50.75C38.6868 50.75 37.7581 50.9047 36.9202 51.2372L37.6579 53.0962ZM39.6891 52.75C40.7492 52.75 41.4625 52.9311 41.9185 53.1971L42.9263 51.4696C42.0489 50.9578 40.94 50.75 39.6891 50.75V52.75ZM41.9185 53.1971C42.4432 53.5032 42.7774 53.8628 42.978 54.2639L44.7668 53.3695C44.3674 52.5706 43.7349 51.9413 42.9263 51.4696L41.9185 53.1971ZM42.9882 54.2838C43.2412 54.7627 43.3912 55.2561 43.4444 55.7696L45.4338 55.5638C45.3535 54.7884 45.1258 54.0484 44.7566 53.3495L42.9882 54.2838ZM44.4391 54.6667H41.8391V56.6667H44.4391V54.6667ZM42.8365 55.5954C42.8036 55.1346 42.6707 54.698 42.4449 54.2947L40.6999 55.2719C40.7852 55.4242 40.8301 55.5765 40.8416 55.7379L42.8365 55.5954ZM42.4668 54.3361C42.2196 53.8416 41.8295 53.4693 41.3555 53.2078L40.3893 54.9589C40.5598 55.053 40.6363 55.1473 40.678 55.2305L42.4668 54.3361ZM41.3555 53.2078C40.8311 52.9185 40.2107 52.8167 39.5724 52.8167V54.8167C40.023 54.8167 40.2692 54.8926 40.3893 54.9589L41.3555 53.2078ZM39.5724 52.8167C38.8483 52.8167 38.1146 52.9639 37.5573 53.4388L38.8542 54.9612C38.8968 54.9249 39.0742 54.8167 39.5724 54.8167V52.8167ZM37.5432 53.451C37.0377 53.8982 36.7724 54.494 36.7724 55.1667H38.7724C38.7724 55.0615 38.796 55.0129 38.8683 54.949L37.5432 53.451ZM36.7724 55.1667C36.7724 55.8581 37.0334 56.4841 37.5739 56.9446L38.8709 55.4221C38.8114 55.3714 38.7724 55.3197 38.7724 55.1667H36.7724ZM37.5877 56.9561C38.0153 57.3073 38.5406 57.5738 39.1272 57.7778L39.7842 55.8888C39.3486 55.7373 39.0517 55.5705 38.8571 55.4106L37.5877 56.9561ZM39.1295 57.7786L41.0128 58.4286L41.6653 56.538L39.782 55.888L39.1295 57.7786ZM41.0125 58.4285C41.5668 58.62 42.067 58.8487 42.5162 59.1124L43.5286 57.3876C42.9556 57.0513 42.3336 56.7689 41.6656 56.5381L41.0125 58.4285ZM42.5243 59.1171C42.915 59.3416 43.2204 59.629 43.4541 59.9836L45.124 58.883C44.7133 58.2599 44.1742 57.7584 43.5205 57.3829L42.5243 59.1171ZM43.4541 59.9836C43.6372 60.2615 43.7724 60.6905 43.7724 61.35H45.7724C45.7724 60.4318 45.5853 59.583 45.124 58.883L43.4541 59.9836ZM43.7724 61.35C43.7724 62.2744 43.4633 62.9358 42.8733 63.4393L44.1715 64.9607C45.2481 64.042 45.7724 62.8033 45.7724 61.35H43.7724ZM42.8792 63.4343C42.2851 63.9334 41.3723 64.25 40.0057 64.25V66.25C41.6614 66.25 43.0931 65.8666 44.1656 64.9657L42.8792 63.4343ZM39.9224 67V64H37.9224V67H39.9224ZM38.9224 65H40.5891V63H38.9224V65ZM39.5891 64V67H41.5891V64H39.5891ZM40.5891 66H38.9224V68H40.5891V66ZM39.9224 53V50H37.9224V53H39.9224ZM38.9224 51H40.5891V49H38.9224V51ZM39.5891 50V53H41.5891V50H39.5891ZM40.5891 52H38.9224V54H40.5891V52ZM48.9505 64.6167L48.4558 65.4857L48.4615 65.4889L48.9505 64.6167ZM47.3005 62.95L46.4174 63.4192L46.4205 63.4249L47.3005 62.95ZM47.0505 58.6L47.9957 58.9265L47.9975 58.9213L47.0505 58.6ZM47.8672 56.8167L48.7291 57.3237L48.7291 57.3237L47.8672 56.8167ZM48.9172 55.2L48.2101 54.4929L48.1523 54.5507L48.1046 54.6171L48.9172 55.2ZM49.1839 54.8333L48.3838 54.2333L48.374 54.2464L48.3646 54.2599L49.1839 54.8333ZM49.7839 54L48.9774 53.4086L48.9709 53.4175L48.9646 53.4265L49.7839 54ZM50.5339 52.9667L49.7339 52.3667L49.7278 52.3748L49.7218 52.383L50.5339 52.9667ZM51.2839 52V51H50.8061L50.5059 51.3717L51.2839 52ZM54.4339 52H55.4339V51H54.4339V52ZM54.4339 52.1L55.2048 52.7369L55.4339 52.4596V52.1H54.4339ZM53.3339 53.4167L54.0941 54.0663L54.0998 54.0595L53.3339 53.4167ZM51.5672 55.5833L50.7812 54.965L50.7797 54.967L51.5672 55.5833ZM50.6339 56.8L49.8303 56.2048L49.823 56.2146L49.816 56.2245L50.6339 56.8ZM50.2672 57.3333L49.4097 56.8188L48.501 58.3333H50.2672V57.3333ZM50.6672 57.3333V58.3333H51.0259L51.3029 58.1053L50.6672 57.3333ZM51.4172 56.85L51.8894 57.7315L51.8894 57.7315L51.4172 56.85ZM54.5839 57.1L54.0841 57.9662L54.0904 57.9698L54.0968 57.9734L54.5839 57.1ZM55.9505 58.5L55.0725 58.9789L55.0794 58.991L55.9505 58.5ZM55.9005 63L56.7773 63.4808L56.7805 63.4749L55.9005 63ZM54.2505 64.6333L53.766 63.7585L53.7603 63.7618L54.2505 64.6333ZM53.3005 62.5833L52.5664 61.9043L52.5657 61.9051L53.3005 62.5833ZM53.3005 58.95L52.575 59.6383L52.584 59.6476L53.3005 58.95ZM49.9172 59L49.1756 58.3291L49.1748 58.33L49.9172 59ZM49.5505 61.9667L48.6356 62.3703L48.6405 62.3814L48.6457 62.3925L49.5505 61.9667ZM50.3339 62.8833L49.773 63.7113L49.7791 63.7154L49.7852 63.7194L50.3339 62.8833ZM51.6172 64.2333C50.703 64.2333 49.9914 64.0538 49.4395 63.7444L48.4615 65.4889C49.3763 66.0018 50.4425 66.2333 51.6172 66.2333V64.2333ZM49.4452 63.7476C48.8782 63.4248 48.4652 63.0026 48.1805 62.4751L46.4205 63.4249C46.8913 64.2974 47.5784 64.9863 48.4558 65.4857L49.4452 63.7476ZM48.1836 62.4808C47.8894 61.927 47.7339 61.2959 47.7339 60.5667H45.7339C45.7339 61.593 45.9561 62.5508 46.4174 63.4192L48.1836 62.4808ZM47.7339 60.5667C47.7339 59.9686 47.8238 59.4242 47.9957 58.9265L46.1053 58.2735C45.855 58.998 45.7339 59.7647 45.7339 60.5667H47.7339ZM47.9975 58.9213C48.1867 58.3638 48.4304 57.8315 48.7291 57.3237L47.0052 56.3096C46.6373 56.9351 46.3366 57.5918 46.1035 58.2787L47.9975 58.9213ZM48.7291 57.3237C49.0478 56.7819 49.3814 56.2684 49.7297 55.7829L48.1046 54.6171C47.7196 55.1538 47.3532 55.7181 47.0052 56.3096L48.7291 57.3237ZM49.6243 55.9071C49.705 55.8264 49.7877 55.7094 49.8093 55.6798C49.859 55.6115 49.9241 55.5196 50.0031 55.4068L48.3646 54.2599C48.2881 54.3693 48.231 54.4496 48.1918 54.5035C48.1719 54.5308 48.1598 54.547 48.1537 54.5549C48.1506 54.5589 48.152 54.557 48.1567 54.5513C48.157 54.5509 48.1778 54.5251 48.2101 54.4929L49.6243 55.9071ZM49.9839 55.4333C50.1593 55.1994 50.3661 54.9121 50.6031 54.5735L48.9646 53.4265C48.735 53.7546 48.5417 54.0228 48.3838 54.2333L49.9839 55.4333ZM50.5903 54.5914C50.8367 54.2553 51.0886 53.9083 51.3459 53.5503L49.7218 52.383C49.468 52.7362 49.2199 53.078 48.9774 53.4086L50.5903 54.5914ZM51.3339 53.5667C51.5947 53.2189 51.8373 52.9063 52.0618 52.6283L50.5059 51.3717C50.2638 51.6715 50.0064 52.0033 49.7339 52.3667L51.3339 53.5667ZM51.2839 53H54.4339V51H51.2839V53ZM53.4339 52V52.1H55.4339V52H53.4339ZM53.6629 51.4631C53.4545 51.7153 53.0901 52.1515 52.5679 52.7738L54.0998 54.0595C54.622 53.4374 54.9909 52.9958 55.2048 52.7369L53.6629 51.4631ZM52.5736 52.767C52.0404 53.391 51.4427 54.1242 50.7812 54.965L52.3531 56.2016C53.0028 55.3758 53.5829 54.6645 54.0941 54.0663L52.5736 52.767ZM50.7797 54.967C50.3776 55.4808 50.0602 55.8944 49.8303 56.2048L51.4374 57.3952C51.6519 57.1056 51.9568 56.7081 52.3547 56.1996L50.7797 54.967ZM49.816 56.2245C49.6174 56.5068 49.4669 56.7235 49.4097 56.8188L51.1247 57.8478C51.1224 57.8517 51.1425 57.82 51.2079 57.7249C51.266 57.6403 51.347 57.5243 51.4517 57.3755L49.816 56.2245ZM50.2672 58.3333H50.6672V56.3333H50.2672V58.3333ZM51.3029 58.1053C51.4242 58.0054 51.6132 57.8794 51.8894 57.7315L50.945 55.9685C50.5989 56.1539 50.288 56.3502 50.0315 56.5614L51.3029 58.1053ZM51.8894 57.7315C52.0048 57.6697 52.2353 57.6 52.6505 57.6V55.6C52.0435 55.6 51.4518 55.697 50.945 55.9685L51.8894 57.7315ZM52.6505 57.6C53.1982 57.6 53.6684 57.7263 54.0841 57.9662L55.0836 56.2338C54.3438 55.807 53.525 55.6 52.6505 55.6V57.6ZM54.0968 57.9734C54.5008 58.1987 54.8248 58.5244 55.0726 58.9789L56.8284 58.0211C56.4096 57.2533 55.8224 56.6457 55.0709 56.2266L54.0968 57.9734ZM55.0794 58.991C55.3247 59.4264 55.4672 59.973 55.4672 60.6667H57.4672C57.4672 59.6937 57.2652 58.7959 56.8217 58.009L55.0794 58.991ZM55.4672 60.6667C55.4672 61.3693 55.3136 61.9819 55.0205 62.5251L56.7805 63.4749C57.243 62.6181 57.4672 61.6752 57.4672 60.6667H55.4672ZM55.0237 62.5192C54.7416 63.0337 54.3317 63.4453 53.766 63.7585L54.735 65.5081C55.6138 65.0214 56.3039 64.3441 56.7773 63.4808L55.0237 62.5192ZM53.7603 63.7618C53.2351 64.0572 52.5369 64.2333 51.6172 64.2333V66.2333C52.7863 66.2333 53.8437 66.0095 54.7408 65.5049L53.7603 63.7618ZM51.6505 64.2333C52.5728 64.2333 53.4107 63.9383 54.0353 63.2616L52.5657 61.9051C52.3904 62.095 52.1282 62.2333 51.6505 62.2333V64.2333ZM54.0346 63.2624C54.6587 62.5876 54.9172 61.7154 54.9172 60.7667H52.9172C52.9172 61.3513 52.7645 61.6901 52.5664 61.9043L54.0346 63.2624ZM54.9172 60.7667C54.9172 59.8079 54.6646 58.9175 54.017 58.2524L52.584 59.6476C52.7586 59.8269 52.9172 60.1477 52.9172 60.7667H54.9172ZM54.026 58.2617C53.3966 57.5983 52.5678 57.3 51.6505 57.3V59.3C52.111 59.3 52.3822 59.435 52.5751 59.6383L54.026 58.2617ZM51.6505 57.3C50.6859 57.3 49.8193 57.6177 49.1756 58.3291L50.6587 59.6709C50.8595 59.449 51.1485 59.3 51.6505 59.3V57.3ZM49.1748 58.33C48.5718 58.9982 48.3005 59.8333 48.3005 60.75H50.3005C50.3005 60.2445 50.4404 59.9129 50.6596 59.67L49.1748 58.33ZM48.3005 60.75C48.3005 61.3153 48.4101 61.8591 48.6356 62.3703L50.4654 61.563C50.3576 61.3187 50.3005 61.0514 50.3005 60.75H48.3005ZM48.6457 62.3925C48.8997 62.9321 49.2793 63.3768 49.773 63.7113L50.8947 62.0554C50.6995 61.9232 50.5569 61.7568 50.4553 61.5409L48.6457 62.3925ZM49.7852 63.7194C50.3375 64.0818 50.978 64.2333 51.6505 64.2333V62.2333C51.2786 62.2333 51.0413 62.1515 50.8825 62.0473L49.7852 63.7194ZM59.4286 63.45L58.6134 64.0291L59.4286 63.45ZM59.4286 53.55L60.2439 54.1291L60.2439 54.1291L59.4286 53.55ZM67.0953 53.55L66.2764 54.124L66.28 54.1291L67.0953 53.55ZM67.0953 63.45L66.28 62.8709L66.2764 62.876L67.0953 63.45ZM64.9953 61.9L64.1008 61.4528L64.0956 61.4634L64.9953 61.9ZM64.9953 55.1L64.0956 55.5366L64.1009 55.5472L64.9953 55.1ZM61.512 55.1L60.6175 54.6528L60.6123 54.6634L61.512 55.1ZM61.512 61.9L60.6123 62.3366L60.6175 62.3472L61.512 61.9ZM63.262 64.2333C61.8105 64.2333 60.8665 63.7474 60.2439 62.8709L58.6134 64.0291C59.6797 65.5304 61.2912 66.2333 63.262 66.2333V64.2333ZM60.2439 62.8709C59.5625 61.9116 59.162 60.4926 59.162 58.5H57.162C57.162 60.7297 57.6059 62.6106 58.6134 64.0291L60.2439 62.8709ZM59.162 58.5C59.162 56.5074 59.5625 55.0884 60.2439 54.1291L58.6134 52.9709C57.6059 54.3894 57.162 56.2703 57.162 58.5H59.162ZM60.2439 54.1291C60.8665 53.2526 61.8105 52.7667 63.262 52.7667V50.7667C61.2912 50.7667 59.6797 51.4696 58.6134 52.9709L60.2439 54.1291ZM63.262 52.7667C64.7275 52.7667 65.6668 53.2543 66.2764 54.124L67.9142 52.976C66.8571 51.4679 65.2409 50.7667 63.262 50.7667V52.7667ZM66.28 54.1291C66.9614 55.0884 67.362 56.5074 67.362 58.5H69.362C69.362 56.2703 68.9181 54.3894 67.9106 52.9709L66.28 54.1291ZM67.362 58.5C67.362 60.4926 66.9614 61.9116 66.28 62.8709L67.9106 64.0291C68.9181 62.6106 69.362 60.7297 69.362 58.5H67.362ZM66.2764 62.876C65.6668 63.7457 64.7275 64.2333 63.262 64.2333V66.2333C65.2409 66.2333 66.8571 65.5321 67.9142 64.024L66.2764 62.876ZM63.262 64.0333C63.8223 64.0333 64.3603 63.8968 64.8342 63.587C65.3044 63.2795 65.6497 62.842 65.895 62.3366L64.0956 61.4634C63.9743 61.7136 63.8473 61.8427 63.7397 61.913C63.6359 61.9809 63.4906 62.0333 63.262 62.0333V64.0333ZM65.8897 62.3472C66.372 61.3827 66.562 60.0622 66.562 58.5H64.562C64.562 59.96 64.3742 60.9062 64.1009 61.4528L65.8897 62.3472ZM66.562 58.5C66.562 56.9378 66.372 55.6173 65.8897 54.6528L64.1009 55.5472C64.3742 56.0938 64.562 57.04 64.562 58.5H66.562ZM65.895 54.6634C65.6497 54.158 65.3044 53.7205 64.8342 53.413C64.3603 53.1032 63.8223 52.9667 63.262 52.9667V54.9667C63.4906 54.9667 63.6359 55.0191 63.7397 55.087C63.8473 55.1573 63.9743 55.2864 64.0956 55.5366L65.895 54.6634ZM63.262 52.9667C62.7015 52.9667 62.1639 53.1032 61.6892 53.4106C61.2184 53.7155 60.8691 54.1497 60.6175 54.6528L62.4064 55.5472C62.5326 55.2948 62.6638 55.1622 62.7764 55.0894C62.885 55.019 63.0336 54.9667 63.262 54.9667V52.9667ZM60.6123 54.6634C60.1461 55.6241 59.962 56.94 59.962 58.5H61.962C61.962 57.0378 62.1445 56.087 62.4116 55.5366L60.6123 54.6634ZM59.962 58.5C59.962 60.06 60.1461 61.3759 60.6123 62.3366L62.4116 61.4634C62.1445 60.913 61.962 59.9622 61.962 58.5H59.962ZM60.6175 62.3472C60.8691 62.8503 61.2184 63.2845 61.6892 63.5894C62.1639 63.8968 62.7015 64.0333 63.262 64.0333V62.0333C63.0336 62.0333 62.885 61.981 62.7764 61.9106C62.6638 61.8378 62.5326 61.7052 62.4064 61.4528L60.6175 62.3472Z" fill="white" mask="url(#path-22-outside-3_7093_57384)"/>
</g>
<defs>
<clipPath id="clip0_7093_57384">
<rect width="106" height="107" fill="white"/>
</clipPath>
</defs>
</svg>
