<svg width="90" height="92" viewBox="0 0 90 92" fill="none" xmlns="http://www.w3.org/2000/svg">
<path d="M36.3878 83.3824C55.9217 88.6165 76.0827 76.5083 81.4653 56.4202C86.8479 36.3321 75.442 15.7656 55.9081 10.5315C36.3742 5.29739 16.2132 17.4056 10.8306 37.4937C5.44798 57.5818 16.8538 78.1483 36.3878 83.3824Z" fill="#A56402" stroke="#5B3303" stroke-width="2"/>
<path d="M34.0928 81.0895C53.6268 86.3236 73.7878 74.2154 79.1704 54.1273C84.553 34.0392 73.1471 13.4726 53.6132 8.23852C34.0793 3.00442 13.9182 15.1126 8.53565 35.2007C3.15306 55.2888 14.5589 75.8554 34.0928 81.0895Z" fill="#C27C3B" stroke="#5B3303" stroke-width="2"/>
<path d="M35.8744 74.4403C51.743 78.6923 68.1249 68.7545 72.5217 52.3453C76.9186 35.936 67.7004 19.1387 51.8317 14.8867C35.9631 10.6347 19.5812 20.5725 15.1843 36.9818C10.7875 53.391 20.0057 70.1883 35.8744 74.4403Z" fill="#F6B981" stroke="#DF8D12" stroke-width="2"/>
<path fill-rule="evenodd" clip-rule="evenodd" d="M65.1752 24.25C62.0199 21.4332 58.2015 19.3046 53.8751 18.1453C38.5753 14.0458 22.716 23.6215 18.4525 39.5333C15.7036 49.7924 18.4461 60.1807 24.8424 67.3656C16.8392 60.221 13.1016 48.6488 16.1595 37.2364C20.4231 21.3246 36.2823 11.7489 51.5821 15.8485C57.0174 17.3048 61.6509 20.2912 65.1752 24.25Z" fill="#FCCA9B"/>
<path d="M35.8232 11.484C25.1671 14.4251 16.5837 22.3623 12.7517 32.6172" stroke="#EC9F58" stroke-width="2" stroke-linecap="round" stroke-linejoin="round"/>
<path d="M61.7373 73.3443C65.7831 70.6543 69.2271 67.1311 71.8244 63.0195" stroke="#EC9F58" stroke-width="2" stroke-linecap="round" stroke-linejoin="round"/>
<path d="M24.3522 17.1289C24.3522 17.1289 20.9106 19.4233 18.6162 22.8649" stroke="#FFEFDF" stroke-width="2" stroke-linecap="round" stroke-linejoin="round"/>
<path d="M28.9401 22.8672C28.9401 22.8672 25.4985 25.1616 23.2041 28.6032" stroke="white" stroke-width="2" stroke-linecap="round" stroke-linejoin="round"/>
<mask id="path-9-outside-1_7305_57687" maskUnits="userSpaceOnUse" x="34" y="37" width="24" height="17" fill="black">
<rect fill="white" x="34" y="37" width="24" height="17"/>
<path d="M35.3698 52V49.9667H38.4531V43.1333H35.6531L35.6365 41.3333L36.4365 41.2667C36.9365 41.2222 37.3476 41.1444 37.6698 41.0333C38.0031 40.9111 38.2698 40.6944 38.4698 40.3833C38.6698 40.0722 38.8198 39.6111 38.9198 39H41.1531V49.9667H43.9698V52H35.3698ZM51.3979 52.2333C49.6868 52.2333 48.409 51.6389 47.5646 50.45C46.7201 49.2611 46.2979 47.6111 46.2979 45.5C46.2979 43.3889 46.7201 41.7389 47.5646 40.55C48.409 39.3611 49.6868 38.7667 51.3979 38.7667C53.1201 38.7667 54.3979 39.3611 55.2312 40.55C56.0757 41.7389 56.4979 43.3889 56.4979 45.5C56.4979 47.6111 56.0757 49.2611 55.2312 50.45C54.3979 51.6389 53.1201 52.2333 51.3979 52.2333ZM51.3979 50.0333C52.1868 50.0333 52.7646 49.6556 53.1312 48.9C53.509 48.1444 53.6979 47.0111 53.6979 45.5C53.6979 43.9889 53.509 42.8556 53.1312 42.1C52.7646 41.3444 52.1868 40.9667 51.3979 40.9667C50.609 40.9667 50.0257 41.3444 49.6479 42.1C49.2812 42.8556 49.0979 43.9889 49.0979 45.5C49.0979 47.0111 49.2812 48.1444 49.6479 48.9C50.0257 49.6556 50.609 50.0333 51.3979 50.0333Z"/>
</mask>
<path d="M35.3698 52V49.9667H38.4531V43.1333H35.6531L35.6365 41.3333L36.4365 41.2667C36.9365 41.2222 37.3476 41.1444 37.6698 41.0333C38.0031 40.9111 38.2698 40.6944 38.4698 40.3833C38.6698 40.0722 38.8198 39.6111 38.9198 39H41.1531V49.9667H43.9698V52H35.3698ZM51.3979 52.2333C49.6868 52.2333 48.409 51.6389 47.5646 50.45C46.7201 49.2611 46.2979 47.6111 46.2979 45.5C46.2979 43.3889 46.7201 41.7389 47.5646 40.55C48.409 39.3611 49.6868 38.7667 51.3979 38.7667C53.1201 38.7667 54.3979 39.3611 55.2312 40.55C56.0757 41.7389 56.4979 43.3889 56.4979 45.5C56.4979 47.6111 56.0757 49.2611 55.2312 50.45C54.3979 51.6389 53.1201 52.2333 51.3979 52.2333ZM51.3979 50.0333C52.1868 50.0333 52.7646 49.6556 53.1312 48.9C53.509 48.1444 53.6979 47.0111 53.6979 45.5C53.6979 43.9889 53.509 42.8556 53.1312 42.1C52.7646 41.3444 52.1868 40.9667 51.3979 40.9667C50.609 40.9667 50.0257 41.3444 49.6479 42.1C49.2812 42.8556 49.0979 43.9889 49.0979 45.5C49.0979 47.0111 49.2812 48.1444 49.6479 48.9C50.0257 49.6556 50.609 50.0333 51.3979 50.0333Z" fill="#5B3303"/>
<path d="M35.3698 52H34.3698V53H35.3698V52ZM35.3698 49.9667V48.9667H34.3698V49.9667H35.3698ZM38.4531 49.9667V50.9667H39.4531V49.9667H38.4531ZM38.4531 43.1333H39.4531V42.1333H38.4531V43.1333ZM35.6531 43.1333L34.6532 43.1426L34.6623 44.1333H35.6531V43.1333ZM35.6365 41.3333L35.5534 40.3368L34.6279 40.4139L34.6365 41.3426L35.6365 41.3333ZM36.4365 41.2667L36.5195 42.2632L36.525 42.2627L36.4365 41.2667ZM37.6698 41.0333L37.9958 41.9787L38.0049 41.9755L38.014 41.9722L37.6698 41.0333ZM38.4698 40.3833L37.6286 39.8426L37.6286 39.8426L38.4698 40.3833ZM38.9198 39V38H38.0701L37.9329 38.8385L38.9198 39ZM41.1531 39H42.1531V38H41.1531V39ZM41.1531 49.9667H40.1531V50.9667H41.1531V49.9667ZM43.9698 49.9667H44.9698V48.9667H43.9698V49.9667ZM43.9698 52V53H44.9698V52H43.9698ZM36.3698 52V49.9667H34.3698V52H36.3698ZM35.3698 50.9667H38.4531V48.9667H35.3698V50.9667ZM39.4531 49.9667V43.1333H37.4531V49.9667H39.4531ZM38.4531 42.1333H35.6531V44.1333H38.4531V42.1333ZM36.6531 43.1241L36.6364 41.3241L34.6365 41.3426L34.6532 43.1426L36.6531 43.1241ZM35.7195 42.3299L36.5195 42.2632L36.3534 40.2701L35.5534 40.3368L35.7195 42.3299ZM36.525 42.2627C37.0716 42.2141 37.5699 42.1256 37.9958 41.9787L37.3438 40.088C37.1252 40.1633 36.8013 40.2303 36.3479 40.2706L36.525 42.2627ZM38.014 41.9722C38.5609 41.7717 38.9984 41.4103 39.311 40.9241L37.6286 39.8426C37.5412 39.9786 37.4453 40.0505 37.3255 40.0945L38.014 41.9722ZM39.311 40.9241C39.6186 40.4456 39.7975 39.8286 39.9067 39.1615L37.9329 38.8385C37.8421 39.3936 37.721 39.6989 37.6286 39.8426L39.311 40.9241ZM38.9198 40H41.1531V38H38.9198V40ZM40.1531 39V49.9667H42.1531V39H40.1531ZM41.1531 50.9667H43.9698V48.9667H41.1531V50.9667ZM42.9698 49.9667V52H44.9698V49.9667H42.9698ZM43.9698 51H35.3698V53H43.9698V51ZM47.5646 50.45L46.7493 51.0291L47.5646 50.45ZM47.5646 40.55L48.3799 41.1291L48.3799 41.1291L47.5646 40.55ZM55.2312 40.55L54.4124 41.124L54.416 41.1291L55.2312 40.55ZM55.2312 50.45L54.416 49.8709L54.4124 49.876L55.2312 50.45ZM53.1312 48.9L52.2368 48.4528L52.2316 48.4634L53.1312 48.9ZM53.1312 42.1L52.2315 42.5366L52.2368 42.5472L53.1312 42.1ZM49.6479 42.1L48.7534 41.6528L48.7483 41.6634L49.6479 42.1ZM49.6479 48.9L48.7482 49.3366L48.7535 49.3472L49.6479 48.9ZM51.3979 51.2333C49.9465 51.2333 49.0024 50.7474 48.3799 49.8709L46.7493 51.0291C47.8156 52.5304 49.4271 53.2333 51.3979 53.2333V51.2333ZM48.3799 49.8709C47.6985 48.9116 47.2979 47.4926 47.2979 45.5H45.2979C45.2979 47.7297 45.7418 49.6106 46.7493 51.0291L48.3799 49.8709ZM47.2979 45.5C47.2979 43.5074 47.6985 42.0884 48.3799 41.1291L46.7493 39.9709C45.7418 41.3894 45.2979 43.2703 45.2979 45.5H47.2979ZM48.3799 41.1291C49.0024 40.2526 49.9465 39.7667 51.3979 39.7667V37.7667C49.4271 37.7667 47.8156 38.4696 46.7493 39.9709L48.3799 41.1291ZM51.3979 39.7667C52.8634 39.7667 53.8028 40.2543 54.4124 41.124L56.0501 39.976C54.993 38.4679 53.3769 37.7667 51.3979 37.7667V39.7667ZM54.416 41.1291C55.0974 42.0884 55.4979 43.5074 55.4979 45.5H57.4979C57.4979 43.2703 57.054 41.3894 56.0465 39.9709L54.416 41.1291ZM55.4979 45.5C55.4979 47.4926 55.0974 48.9116 54.416 49.8709L56.0465 51.0291C57.054 49.6106 57.4979 47.7297 57.4979 45.5H55.4979ZM54.4124 49.876C53.8028 50.7457 52.8634 51.2333 51.3979 51.2333V53.2333C53.3769 53.2333 54.993 52.5321 56.0501 51.024L54.4124 49.876ZM51.3979 51.0333C51.9582 51.0333 52.4962 50.8968 52.9702 50.587C53.4404 50.2795 53.7856 49.842 54.0309 49.3366L52.2316 48.4634C52.1102 48.7136 51.9832 48.8427 51.8757 48.913C51.7718 48.9809 51.6265 49.0333 51.3979 49.0333V51.0333ZM54.0257 49.3472C54.5079 48.3827 54.6979 47.0622 54.6979 45.5H52.6979C52.6979 46.96 52.5101 47.9062 52.2368 48.4528L54.0257 49.3472ZM54.6979 45.5C54.6979 43.9378 54.5079 42.6173 54.0257 41.6528L52.2368 42.5472C52.5101 43.0938 52.6979 44.04 52.6979 45.5H54.6979ZM54.0309 41.6634C53.7856 41.158 53.4404 40.7205 52.9702 40.413C52.4962 40.1032 51.9582 39.9667 51.3979 39.9667V41.9667C51.6265 41.9667 51.7718 42.0191 51.8757 42.087C51.9832 42.1573 52.1102 42.2864 52.2316 42.5366L54.0309 41.6634ZM51.3979 39.9667C50.8374 39.9667 50.2999 40.1032 49.8252 40.4106C49.3544 40.7155 49.005 41.1497 48.7535 41.6528L50.5423 42.5472C50.6686 42.2948 50.7998 42.1622 50.9123 42.0894C51.021 42.019 51.1695 41.9667 51.3979 41.9667V39.9667ZM48.7483 41.6634C48.282 42.6241 48.0979 43.94 48.0979 45.5H50.0979C50.0979 44.0378 50.2805 43.087 50.5476 42.5366L48.7483 41.6634ZM48.0979 45.5C48.0979 47.06 48.282 48.3759 48.7483 49.3366L50.5476 48.4634C50.2805 47.913 50.0979 46.9622 50.0979 45.5H48.0979ZM48.7535 49.3472C49.005 49.8503 49.3544 50.2845 49.8252 50.5894C50.2999 50.8968 50.8374 51.0333 51.3979 51.0333V49.0333C51.1695 49.0333 51.021 48.981 50.9123 48.9106C50.7998 48.8378 50.6686 48.7052 50.5423 48.4528L48.7535 49.3472Z" fill="white" mask="url(#path-9-outside-1_7305_57687)"/>
</svg>
