<svg width="89" height="85" viewBox="0 0 89 85" fill="none" xmlns="http://www.w3.org/2000/svg">
<path d="M58.0835 77.5232C57.8322 78.09 57.2705 78.4554 56.6504 78.4554H32.3516C31.7315 78.4554 31.1698 78.09 30.9185 77.5232C30.6672 76.9566 30.7734 76.2952 31.1893 75.8357C31.1894 75.8356 31.1896 75.8355 31.1897 75.8353C31.1897 75.8353 31.1897 75.8353 31.1898 75.8352L31.1915 75.8333L31.2026 75.8209L31.2516 75.7659C31.2958 75.7159 31.3627 75.6397 31.4494 75.5392C31.6228 75.338 31.8752 75.0397 32.1843 74.6591C32.8032 73.8967 33.645 72.809 34.5324 71.5128C36.3304 68.8864 38.219 65.5419 38.9206 62.3744C39.3922 60.2453 39.086 57.3662 38.5297 54.7034C37.7543 50.992 40.4164 46.9714 44.501 46.9714C48.5856 46.9714 51.2477 50.992 50.4723 54.7034C49.916 57.3662 49.6098 60.2453 50.0814 62.3744C50.783 65.5419 52.6716 68.8864 54.4696 71.5128C55.357 72.809 56.1988 73.8967 56.8177 74.6591C57.1268 75.0397 57.3792 75.338 57.5526 75.5392C57.6393 75.6397 57.7062 75.7159 57.7504 75.7659L57.7994 75.8209L57.8105 75.8333L57.8123 75.8352L58.0835 77.5232ZM58.0835 77.5232C58.3348 76.9565 58.2286 76.295 57.8125 75.8356L58.0835 77.5232Z" fill="#D99A60" stroke="#672001" stroke-width="3.13534" stroke-linejoin="round"/>
<path fill-rule="evenodd" clip-rule="evenodd" d="M52.5968 76.8956H56.6411C56.6411 76.8956 50.0758 69.6485 48.5415 62.7212C47.9942 60.2503 48.3632 57.096 48.9284 54.3906C49.5309 51.5069 47.4376 48.5469 44.4917 48.5469C43.8267 48.5469 43.2053 48.6977 42.6484 48.9643C44.1346 49.6683 44.8841 51.324 44.8841 54.3906C44.8841 58.2467 44.9623 63.7939 45.5096 66.2648C47.044 73.1921 52.5968 76.8956 52.5968 76.8956Z" fill="#AC6B2F"/>
<path d="M38.4277 72.8497C39.4402 71.3311 40.4526 69.3062 40.9589 67.2812" stroke="#F6B981" stroke-width="3.13534" stroke-linecap="round" stroke-linejoin="round"/>
<mask id="path-4-outside-1_8072_128114" maskUnits="userSpaceOnUse" x="58.7266" y="6.07422" width="30" height="30" fill="black">
<rect fill="white" x="58.7266" y="6.07422" width="30" height="30"/>
<path fill-rule="evenodd" clip-rule="evenodd" d="M73.8635 32.3482C80.0143 32.3482 85.0005 27.362 85.0005 21.2112C85.0005 15.0604 80.0143 10.0742 73.8635 10.0742C67.7128 10.0742 62.7266 15.0604 62.7266 21.2112C62.7266 27.362 67.7128 32.3482 73.8635 32.3482ZM73.8609 27.2823C77.2159 27.2823 79.9356 24.5625 79.9356 21.2076C79.9356 17.8526 77.2159 15.1328 73.8609 15.1328C70.5059 15.1328 67.7862 17.8526 67.7862 21.2076C67.7862 24.5625 70.5059 27.2823 73.8609 27.2823Z"/>
</mask>
<path fill-rule="evenodd" clip-rule="evenodd" d="M73.8635 32.3482C80.0143 32.3482 85.0005 27.362 85.0005 21.2112C85.0005 15.0604 80.0143 10.0742 73.8635 10.0742C67.7128 10.0742 62.7266 15.0604 62.7266 21.2112C62.7266 27.362 67.7128 32.3482 73.8635 32.3482ZM73.8609 27.2823C77.2159 27.2823 79.9356 24.5625 79.9356 21.2076C79.9356 17.8526 77.2159 15.1328 73.8609 15.1328C70.5059 15.1328 67.7862 17.8526 67.7862 21.2076C67.7862 24.5625 70.5059 27.2823 73.8609 27.2823Z" fill="#D99A60"/>
<path d="M81.8652 21.2112C81.8652 25.6304 78.2827 29.2128 73.8635 29.2128V35.4835C81.7459 35.4835 88.1359 29.0936 88.1359 21.2112H81.8652ZM73.8635 13.2096C78.2827 13.2096 81.8652 16.792 81.8652 21.2112H88.1359C88.1359 13.3288 81.7459 6.93888 73.8635 6.93888V13.2096ZM65.8619 21.2112C65.8619 16.792 69.4444 13.2096 73.8635 13.2096V6.93888C65.9812 6.93888 59.5912 13.3288 59.5912 21.2112H65.8619ZM73.8635 29.2128C69.4444 29.2128 65.8619 25.6304 65.8619 21.2112H59.5912C59.5912 29.0936 65.9812 35.4835 73.8635 35.4835V29.2128ZM76.8003 21.2076C76.8003 22.8309 75.4843 24.147 73.8609 24.147V30.4176C78.9475 30.4176 83.0709 26.2941 83.0709 21.2076H76.8003ZM73.8609 18.2682C75.4843 18.2682 76.8003 19.5842 76.8003 21.2076H83.0709C83.0709 16.121 78.9475 11.9975 73.8609 11.9975V18.2682ZM70.9215 21.2076C70.9215 19.5842 72.2375 18.2682 73.8609 18.2682V11.9975C68.7743 11.9975 64.6508 16.121 64.6508 21.2076H70.9215ZM73.8609 24.147C72.2375 24.147 70.9215 22.8309 70.9215 21.2076H64.6508C64.6508 26.2941 68.7743 30.4176 73.8609 30.4176V24.147Z" fill="#672001" mask="url(#path-4-outside-1_8072_128114)"/>
<path fill-rule="evenodd" clip-rule="evenodd" d="M83.9747 19.188C83.9747 25.3388 78.9885 30.325 72.8378 30.325C68.8856 30.325 65.4142 28.2663 63.4375 25.1629C65.0322 29.3623 69.0939 32.3469 73.8526 32.3469C80.0034 32.3469 84.9896 27.3607 84.9896 21.2099C84.9896 19.0113 84.3525 16.9615 83.2528 15.2351C83.7193 16.4635 83.9747 17.7959 83.9747 19.188ZM68.0085 22.8737C67.8583 22.345 67.7779 21.7868 67.7779 21.2099C67.7779 17.8549 70.4976 15.1352 73.8526 15.1352C75.8216 15.1352 77.5718 16.072 78.6818 17.5242C77.9583 14.9781 75.6158 13.1133 72.8378 13.1133C69.4828 13.1133 66.763 15.833 66.763 19.188C66.763 20.574 67.2272 21.8515 68.0085 22.8737Z" fill="#B6783F"/>
<mask id="path-7-outside-2_8072_128114" maskUnits="userSpaceOnUse" x="0" y="6.07422" width="30" height="30" fill="black">
<rect fill="white" y="6.07422" width="30" height="30"/>
<path fill-rule="evenodd" clip-rule="evenodd" d="M15.137 32.3482C21.2878 32.3482 26.274 27.362 26.274 21.2112C26.274 15.0604 21.2878 10.0742 15.137 10.0742C8.9862 10.0742 4 15.0604 4 21.2112C4 27.362 8.9862 32.3482 15.137 32.3482ZM15.1343 27.2823C18.4893 27.2823 21.209 24.5625 21.209 21.2076C21.209 17.8526 18.4893 15.1328 15.1343 15.1328C11.7793 15.1328 9.0596 17.8526 9.0596 21.2076C9.0596 24.5625 11.7793 27.2823 15.1343 27.2823Z"/>
</mask>
<path fill-rule="evenodd" clip-rule="evenodd" d="M15.137 32.3482C21.2878 32.3482 26.274 27.362 26.274 21.2112C26.274 15.0604 21.2878 10.0742 15.137 10.0742C8.9862 10.0742 4 15.0604 4 21.2112C4 27.362 8.9862 32.3482 15.137 32.3482ZM15.1343 27.2823C18.4893 27.2823 21.209 24.5625 21.209 21.2076C21.209 17.8526 18.4893 15.1328 15.1343 15.1328C11.7793 15.1328 9.0596 17.8526 9.0596 21.2076C9.0596 24.5625 11.7793 27.2823 15.1343 27.2823Z" fill="#D99A60"/>
<path d="M23.1386 21.2112C23.1386 25.6304 19.5562 29.2128 15.137 29.2128V35.4835C23.0194 35.4835 29.4093 29.0936 29.4093 21.2112H23.1386ZM15.137 13.2096C19.5562 13.2096 23.1386 16.792 23.1386 21.2112H29.4093C29.4093 13.3288 23.0194 6.93888 15.137 6.93888V13.2096ZM7.13534 21.2112C7.13534 16.792 10.7178 13.2096 15.137 13.2096V6.93888C7.2546 6.93888 0.864661 13.3288 0.864661 21.2112H7.13534ZM15.137 29.2128C10.7178 29.2128 7.13534 25.6304 7.13534 21.2112H0.864661C0.864661 29.0936 7.2546 35.4835 15.137 35.4835V29.2128ZM18.0737 21.2076C18.0737 22.8309 16.7577 24.147 15.1343 24.147V30.4176C20.2209 30.4176 24.3444 26.2941 24.3444 21.2076H18.0737ZM15.1343 18.2682C16.7577 18.2682 18.0737 19.5842 18.0737 21.2076H24.3444C24.3444 16.121 20.2209 11.9975 15.1343 11.9975V18.2682ZM12.1949 21.2076C12.1949 19.5842 13.5109 18.2682 15.1343 18.2682V11.9975C10.0477 11.9975 5.92426 16.121 5.92426 21.2076H12.1949ZM15.1343 24.147C13.5109 24.147 12.1949 22.8309 12.1949 21.2076H5.92426C5.92426 26.2941 10.0477 30.4176 15.1343 30.4176V24.147Z" fill="#672001" mask="url(#path-7-outside-2_8072_128114)"/>
<path fill-rule="evenodd" clip-rule="evenodd" d="M23.5313 28.5321C21.5665 30.2715 18.9827 31.3273 16.1523 31.3273C10.0015 31.3273 5.0153 26.3411 5.0153 20.1904C5.0153 17.3885 6.04993 14.8284 7.75797 12.8711C5.45305 14.9115 4 17.8925 4 21.2129C4 27.3637 8.9862 32.3499 15.137 32.3499C18.486 32.3499 21.4897 30.8717 23.5313 28.5321ZM11.3641 16.4515C12.4004 15.6293 13.7113 15.1382 15.137 15.1382C18.492 15.1382 21.2117 17.8579 21.2117 21.2129C21.2117 22.623 20.7313 23.9208 19.9252 24.9517C21.3276 23.8389 22.227 22.1197 22.227 20.1904C22.227 16.8354 19.5073 14.1156 16.1523 14.1156C14.2074 14.1156 12.4759 15.0296 11.3641 16.4515Z" fill="#B6783F"/>
<path d="M60.3054 6.48311H28.6908C20.8986 6.48311 14.5817 12.7999 14.5817 20.5921V28.2998C14.5817 44.8222 27.9758 58.2162 44.4981 58.2162C61.0205 58.2162 74.4145 44.8222 74.4145 28.2998V20.5921C74.4145 12.7999 68.0976 6.48311 60.3054 6.48311Z" fill="#E3A872" stroke="#672001" stroke-width="3.13534" stroke-linecap="round" stroke-linejoin="round"/>
<path fill-rule="evenodd" clip-rule="evenodd" d="M37.4121 55.7597C39.6769 56.3425 42.0512 56.6524 44.498 56.6524C60.1545 56.6524 72.8466 43.9603 72.8466 28.3038V8.05469H58.675V28.3038C58.675 41.5136 49.6398 52.6131 37.4121 55.7597Z" fill="#D99A60"/>
<path d="M16.1494 8.05078V28.2998C16.1494 37.4304 20.466 45.5527 27.1697 50.7376C30.8433 53.5788 38.4234 44.5872 38.4234 39.9431V8.05078H16.1494Z" fill="#F6B981"/>
<path fill-rule="evenodd" clip-rule="evenodd" d="M29.8711 52.5929C34.1413 55.1698 39.1461 56.6524 44.4972 56.6524C60.1538 56.6524 72.8459 43.9603 72.8459 28.3038V8.05469H68.7934V26.2818C68.7934 41.9384 56.1013 54.6305 40.4447 54.6305C36.7071 54.6305 33.1385 53.9072 29.8711 52.5929Z" fill="#B6783F"/>
<path d="M20.2012 13.1094C20.2012 26.7775 20.2012 35.8896 25.2633 40.9518" stroke="#FFCA99" stroke-width="6.27068" stroke-linecap="round" stroke-linejoin="round"/>
<path d="M72.8468 8.05078H16.1494V12.1006H72.8468V8.05078Z" fill="#8F5A29"/>
<path d="M20.1957 15.1289C20.1957 18.4296 20.1244 18.4272 20.1957 21.2036" stroke="white" stroke-width="3.13534" stroke-linecap="round" stroke-linejoin="round"/>
<path d="M62.7193 75.3269H26.271C24.2869 75.3269 22.6784 76.9353 22.6784 78.9194C22.6784 80.9036 24.2869 82.512 26.271 82.512H62.7193C64.7034 82.512 66.3119 80.9036 66.3119 78.9194C66.3119 76.9353 64.7034 75.3269 62.7193 75.3269Z" fill="#F6B981" stroke="#672001" stroke-width="3.13534" stroke-linejoin="round"/>
<path d="M78.9245 2.43233H10.0776C8.09352 2.43233 6.48506 4.04078 6.48506 6.02491C6.48506 8.00903 8.09352 9.61748 10.0776 9.61748H78.9245C80.9086 9.61748 82.517 8.00903 82.517 6.02491C82.517 4.04078 80.9086 2.43233 78.9245 2.43233Z" fill="#F6B981" stroke="#672001" stroke-width="3.13534" stroke-linejoin="round"/>
<path d="M11.0898 5.51562H62.725" stroke="#FFCA99" stroke-width="3.13534" stroke-linecap="round" stroke-linejoin="round"/>
<path d="M26.2773 77.9102H55.6385" stroke="#FFCA99" stroke-width="3.13534" stroke-linecap="round" stroke-linejoin="round"/>
<path d="M17.165 5.51562H23.2398" stroke="white" stroke-width="3.13534" stroke-linecap="round" stroke-linejoin="round"/>
<path d="M11.5901 12.6055C9.56507 13.6179 6.02148 16.1491 6.02148 22.2238" stroke="#FFCA99" stroke-width="3.13534" stroke-linecap="round" stroke-linejoin="round"/>
<mask id="path-23-outside-3_8072_128114" maskUnits="userSpaceOnUse" x="24" y="20" width="41" height="17" fill="black">
<rect fill="white" x="24" y="20" width="41" height="17"/>
<path d="M29.9094 34.2093C29.091 34.2093 28.3981 34.0977 27.8308 33.8744C27.2728 33.6419 26.8217 33.3397 26.4776 32.9677C26.1335 32.5957 25.8777 32.1911 25.7103 31.754C25.5429 31.3076 25.4453 30.8704 25.4174 30.4426H27.5936C27.6122 30.7774 27.7099 31.0983 27.8866 31.4052C28.0633 31.7121 28.3237 31.9632 28.6678 32.1585C29.0119 32.3538 29.4444 32.4515 29.9652 32.4515C30.5325 32.4515 30.9511 32.3306 31.2208 32.0888C31.4998 31.8377 31.6393 31.5122 31.6393 31.1122C31.6393 30.7309 31.5137 30.4194 31.2626 30.1776C31.0208 29.9358 30.6953 29.7451 30.2861 29.6056L28.7655 29.0755C28.2726 28.8988 27.7936 28.6895 27.3286 28.4477C26.8729 28.2059 26.5009 27.885 26.2125 27.4851C25.9242 27.0759 25.7801 26.5551 25.7801 25.9227C25.7801 25.2716 25.9428 24.7229 26.2683 24.2765C26.6032 23.8301 27.0589 23.4906 27.6355 23.2581C28.2214 23.0256 28.891 22.9094 29.6444 22.9094C30.6116 22.9094 31.3742 23.0721 31.9322 23.3976C32.4903 23.7231 32.8948 24.137 33.1459 24.6392C33.4063 25.1321 33.5645 25.6483 33.6203 26.1877H31.444C31.4254 25.9273 31.351 25.6809 31.2208 25.4484C31.0999 25.2065 30.9046 25.0112 30.6349 24.8624C30.3651 24.7136 30.0024 24.6392 29.5467 24.6392C29.0352 24.6392 28.6539 24.7462 28.4028 24.9601C28.161 25.174 28.0401 25.4437 28.0401 25.7692C28.0401 26.1226 28.1656 26.4063 28.4167 26.6202C28.6771 26.8341 29.0212 27.0155 29.4491 27.1643L31.0255 27.7083C31.537 27.885 32.0066 28.0989 32.4345 28.3501C32.8716 28.6012 33.225 28.9313 33.4947 29.3405C33.7644 29.7498 33.8993 30.2845 33.8993 30.9448C33.8993 31.94 33.5505 32.7352 32.853 33.3304C32.1555 33.9163 31.1743 34.2093 29.9094 34.2093ZM29.0026 35.6741V33.163H30.3977V35.6741H29.0026ZM29.0026 23.9557V21.4446H30.3977V23.9557H29.0026ZM39.489 34.1674C38.7729 34.1674 38.1684 34.0698 37.6755 33.8744C37.1826 33.6698 36.7827 33.4094 36.4757 33.0932C36.1688 32.777 35.941 32.4422 35.7922 32.0888C35.6434 31.7261 35.5597 31.3866 35.5411 31.0704H37.7452C37.7731 31.275 37.8522 31.4796 37.9824 31.6842C38.1219 31.8888 38.3219 32.0609 38.5823 32.2004C38.852 32.3399 39.1775 32.4096 39.5588 32.4096C40.1819 32.4096 40.6376 32.2097 40.9259 31.8098C41.2236 31.4099 41.3724 30.8983 41.3724 30.2752C41.3724 29.6335 41.2096 29.1266 40.8841 28.7546C40.5586 28.3826 40.1075 28.1966 39.5309 28.1966C39.2054 28.1966 38.931 28.2571 38.7078 28.378C38.4846 28.4989 38.3033 28.643 38.1638 28.8104C38.0335 28.9685 37.9359 29.1173 37.8708 29.2568H35.7224L36.3781 23.1186H42.8511V24.8764H38.1498L37.8429 27.4712H38.1777C38.3637 27.2015 38.6148 26.9922 38.931 26.8434C39.2565 26.6853 39.6751 26.6062 40.1866 26.6062C40.8934 26.6062 41.5026 26.7597 42.0141 27.0666C42.5256 27.3642 42.9209 27.7874 43.1999 28.3361C43.4882 28.8848 43.6323 29.5219 43.6323 30.2473C43.6323 31.0285 43.4649 31.7121 43.1301 32.298C42.7953 32.884 42.3163 33.3443 41.6932 33.6791C41.0794 34.0047 40.3447 34.1674 39.489 34.1674ZM49.3756 34.1953C47.9433 34.1953 46.8738 33.6977 46.167 32.7026C45.4601 31.7075 45.1067 30.3264 45.1067 28.5593C45.1067 26.7922 45.4601 25.4112 46.167 24.416C46.8738 23.4209 47.9433 22.9233 49.3756 22.9233C50.8171 22.9233 51.8867 23.4209 52.5842 24.416C53.291 25.4112 53.6444 26.7922 53.6444 28.5593C53.6444 30.3264 53.291 31.7075 52.5842 32.7026C51.8867 33.6977 50.8171 34.1953 49.3756 34.1953ZM49.3756 32.3538C50.0359 32.3538 50.5195 32.0376 50.8264 31.4052C51.1426 30.7728 51.3007 29.8242 51.3007 28.5593C51.3007 27.2945 51.1426 26.3458 50.8264 25.7134C50.5195 25.081 50.0359 24.7648 49.3756 24.7648C48.7153 24.7648 48.227 25.081 47.9108 25.7134C47.6039 26.3458 47.4504 27.2945 47.4504 28.5593C47.4504 29.8242 47.6039 30.7728 47.9108 31.4052C48.227 32.0376 48.7153 32.3538 49.3756 32.3538ZM59.1924 34.1953C57.7601 34.1953 56.6906 33.6977 55.9838 32.7026C55.2769 31.7075 54.9235 30.3264 54.9235 28.5593C54.9235 26.7922 55.2769 25.4112 55.9838 24.416C56.6906 23.4209 57.7601 22.9233 59.1924 22.9233C60.6339 22.9233 61.7035 23.4209 62.401 24.416C63.1078 25.4112 63.4612 26.7922 63.4612 28.5593C63.4612 30.3264 63.1078 31.7075 62.401 32.7026C61.7035 33.6977 60.6339 34.1953 59.1924 34.1953ZM59.1924 32.3538C59.8527 32.3538 60.3363 32.0376 60.6432 31.4052C60.9594 30.7728 61.1175 29.8242 61.1175 28.5593C61.1175 27.2945 60.9594 26.3458 60.6432 25.7134C60.3363 25.081 59.8527 24.7648 59.1924 24.7648C58.532 24.7648 58.0438 25.081 57.7276 25.7134C57.4207 26.3458 57.2672 27.2945 57.2672 28.5593C57.2672 29.8242 57.4207 30.7728 57.7276 31.4052C58.0438 32.0376 58.532 32.3538 59.1924 32.3538Z"/>
</mask>
<path d="M29.9094 34.2093C29.091 34.2093 28.3981 34.0977 27.8308 33.8744C27.2728 33.6419 26.8217 33.3397 26.4776 32.9677C26.1335 32.5957 25.8777 32.1911 25.7103 31.754C25.5429 31.3076 25.4453 30.8704 25.4174 30.4426H27.5936C27.6122 30.7774 27.7099 31.0983 27.8866 31.4052C28.0633 31.7121 28.3237 31.9632 28.6678 32.1585C29.0119 32.3538 29.4444 32.4515 29.9652 32.4515C30.5325 32.4515 30.9511 32.3306 31.2208 32.0888C31.4998 31.8377 31.6393 31.5122 31.6393 31.1122C31.6393 30.7309 31.5137 30.4194 31.2626 30.1776C31.0208 29.9358 30.6953 29.7451 30.2861 29.6056L28.7655 29.0755C28.2726 28.8988 27.7936 28.6895 27.3286 28.4477C26.8729 28.2059 26.5009 27.885 26.2125 27.4851C25.9242 27.0759 25.7801 26.5551 25.7801 25.9227C25.7801 25.2716 25.9428 24.7229 26.2683 24.2765C26.6032 23.8301 27.0589 23.4906 27.6355 23.2581C28.2214 23.0256 28.891 22.9094 29.6444 22.9094C30.6116 22.9094 31.3742 23.0721 31.9322 23.3976C32.4903 23.7231 32.8948 24.137 33.1459 24.6392C33.4063 25.1321 33.5645 25.6483 33.6203 26.1877H31.444C31.4254 25.9273 31.351 25.6809 31.2208 25.4484C31.0999 25.2065 30.9046 25.0112 30.6349 24.8624C30.3651 24.7136 30.0024 24.6392 29.5467 24.6392C29.0352 24.6392 28.6539 24.7462 28.4028 24.9601C28.161 25.174 28.0401 25.4437 28.0401 25.7692C28.0401 26.1226 28.1656 26.4063 28.4167 26.6202C28.6771 26.8341 29.0212 27.0155 29.4491 27.1643L31.0255 27.7083C31.537 27.885 32.0066 28.0989 32.4345 28.3501C32.8716 28.6012 33.225 28.9313 33.4947 29.3405C33.7644 29.7498 33.8993 30.2845 33.8993 30.9448C33.8993 31.94 33.5505 32.7352 32.853 33.3304C32.1555 33.9163 31.1743 34.2093 29.9094 34.2093ZM29.0026 35.6741V33.163H30.3977V35.6741H29.0026ZM29.0026 23.9557V21.4446H30.3977V23.9557H29.0026ZM39.489 34.1674C38.7729 34.1674 38.1684 34.0698 37.6755 33.8744C37.1826 33.6698 36.7827 33.4094 36.4757 33.0932C36.1688 32.777 35.941 32.4422 35.7922 32.0888C35.6434 31.7261 35.5597 31.3866 35.5411 31.0704H37.7452C37.7731 31.275 37.8522 31.4796 37.9824 31.6842C38.1219 31.8888 38.3219 32.0609 38.5823 32.2004C38.852 32.3399 39.1775 32.4096 39.5588 32.4096C40.1819 32.4096 40.6376 32.2097 40.9259 31.8098C41.2236 31.4099 41.3724 30.8983 41.3724 30.2752C41.3724 29.6335 41.2096 29.1266 40.8841 28.7546C40.5586 28.3826 40.1075 28.1966 39.5309 28.1966C39.2054 28.1966 38.931 28.2571 38.7078 28.378C38.4846 28.4989 38.3033 28.643 38.1638 28.8104C38.0335 28.9685 37.9359 29.1173 37.8708 29.2568H35.7224L36.3781 23.1186H42.8511V24.8764H38.1498L37.8429 27.4712H38.1777C38.3637 27.2015 38.6148 26.9922 38.931 26.8434C39.2565 26.6853 39.6751 26.6062 40.1866 26.6062C40.8934 26.6062 41.5026 26.7597 42.0141 27.0666C42.5256 27.3642 42.9209 27.7874 43.1999 28.3361C43.4882 28.8848 43.6323 29.5219 43.6323 30.2473C43.6323 31.0285 43.4649 31.7121 43.1301 32.298C42.7953 32.884 42.3163 33.3443 41.6932 33.6791C41.0794 34.0047 40.3447 34.1674 39.489 34.1674ZM49.3756 34.1953C47.9433 34.1953 46.8738 33.6977 46.167 32.7026C45.4601 31.7075 45.1067 30.3264 45.1067 28.5593C45.1067 26.7922 45.4601 25.4112 46.167 24.416C46.8738 23.4209 47.9433 22.9233 49.3756 22.9233C50.8171 22.9233 51.8867 23.4209 52.5842 24.416C53.291 25.4112 53.6444 26.7922 53.6444 28.5593C53.6444 30.3264 53.291 31.7075 52.5842 32.7026C51.8867 33.6977 50.8171 34.1953 49.3756 34.1953ZM49.3756 32.3538C50.0359 32.3538 50.5195 32.0376 50.8264 31.4052C51.1426 30.7728 51.3007 29.8242 51.3007 28.5593C51.3007 27.2945 51.1426 26.3458 50.8264 25.7134C50.5195 25.081 50.0359 24.7648 49.3756 24.7648C48.7153 24.7648 48.227 25.081 47.9108 25.7134C47.6039 26.3458 47.4504 27.2945 47.4504 28.5593C47.4504 29.8242 47.6039 30.7728 47.9108 31.4052C48.227 32.0376 48.7153 32.3538 49.3756 32.3538ZM59.1924 34.1953C57.7601 34.1953 56.6906 33.6977 55.9838 32.7026C55.2769 31.7075 54.9235 30.3264 54.9235 28.5593C54.9235 26.7922 55.2769 25.4112 55.9838 24.416C56.6906 23.4209 57.7601 22.9233 59.1924 22.9233C60.6339 22.9233 61.7035 23.4209 62.401 24.416C63.1078 25.4112 63.4612 26.7922 63.4612 28.5593C63.4612 30.3264 63.1078 31.7075 62.401 32.7026C61.7035 33.6977 60.6339 34.1953 59.1924 34.1953ZM59.1924 32.3538C59.8527 32.3538 60.3363 32.0376 60.6432 31.4052C60.9594 30.7728 61.1175 29.8242 61.1175 28.5593C61.1175 27.2945 60.9594 26.3458 60.6432 25.7134C60.3363 25.081 59.8527 24.7648 59.1924 24.7648C58.532 24.7648 58.0438 25.081 57.7276 25.7134C57.4207 26.3458 57.2672 27.2945 57.2672 28.5593C57.2672 29.8242 57.4207 30.7728 57.7276 31.4052C58.0438 32.0376 58.532 32.3538 59.1924 32.3538Z" fill="#672001"/>
<path d="M27.8308 33.8744L27.4731 34.7329L27.4817 34.7365L27.4903 34.7399L27.8308 33.8744ZM26.4776 32.9677L27.1603 32.3361L27.1603 32.3361L26.4776 32.9677ZM25.7103 31.754L24.8395 32.0805L24.8418 32.0866L25.7103 31.754ZM25.4174 30.4426V29.5126H24.4247L24.4893 30.5032L25.4174 30.4426ZM27.5936 30.4426L28.5222 30.391L28.4734 29.5126H27.5936V30.4426ZM28.6678 32.1585L28.2088 32.9674L28.6678 32.1585ZM31.2208 32.0888L31.8416 32.7813L31.8429 32.7801L31.2208 32.0888ZM31.2626 30.1776L30.605 30.8352L30.6112 30.8414L30.6175 30.8475L31.2626 30.1776ZM30.2861 29.6056L29.9799 30.4838L29.986 30.4859L30.2861 29.6056ZM28.7655 29.0755L28.4516 29.951L28.4593 29.9537L28.7655 29.0755ZM27.3286 28.4477L26.8927 29.2693L26.8995 29.2728L27.3286 28.4477ZM26.2125 27.4851L25.4522 28.0208L25.4581 28.029L26.2125 27.4851ZM26.2683 24.2765L25.5243 23.7184L25.5169 23.7286L26.2683 24.2765ZM27.6355 23.2581L27.2925 22.3937L27.2877 22.3956L27.6355 23.2581ZM31.9322 23.3976L31.4636 24.201L31.4636 24.201L31.9322 23.3976ZM33.1459 24.6392L32.3141 25.0551L32.3187 25.0645L32.3236 25.0737L33.1459 24.6392ZM33.6203 26.1877V27.1178H34.6515L34.5454 26.092L33.6203 26.1877ZM31.444 26.1877L30.5163 26.254L30.578 27.1178H31.444V26.1877ZM31.2208 25.4484L30.3889 25.8643L30.3987 25.8838L30.4093 25.9028L31.2208 25.4484ZM28.4028 24.9601L27.7997 24.2521L27.7931 24.2577L27.7866 24.2635L28.4028 24.9601ZM28.4167 26.6202L27.8136 27.3282L27.82 27.3336L27.8264 27.3389L28.4167 26.6202ZM29.4491 27.1643L29.1435 28.0427L29.1456 28.0434L29.4491 27.1643ZM31.0255 27.7083L31.3291 26.8293L31.3289 26.8292L31.0255 27.7083ZM32.4345 28.3501L31.9637 29.1522L31.9712 29.1565L32.4345 28.3501ZM33.4947 29.3405L32.7182 29.8523L32.7182 29.8523L33.4947 29.3405ZM32.853 33.3304L33.4512 34.0425L33.4567 34.0378L32.853 33.3304ZM29.0026 35.6741H28.0726V36.6041H29.0026V35.6741ZM29.0026 33.163V32.2329H28.0726V33.163H29.0026ZM30.3977 33.163H31.3277V32.2329H30.3977V33.163ZM30.3977 35.6741V36.6041H31.3277V35.6741H30.3977ZM29.0026 23.9557H28.0726V24.8857H29.0026V23.9557ZM29.0026 21.4446V20.5145H28.0726V21.4446H29.0026ZM30.3977 21.4446H31.3277V20.5145H30.3977V21.4446ZM30.3977 23.9557V24.8857H31.3277V23.9557H30.3977ZM29.9094 33.2792C29.17 33.2792 28.6 33.1777 28.1713 33.009L27.4903 34.7399C28.1962 35.0177 29.012 35.1393 29.9094 35.1393V33.2792ZM28.1885 33.016C27.7304 32.8251 27.3979 32.5929 27.1603 32.3361L25.7949 33.5992C26.2456 34.0864 26.8152 34.4588 27.4731 34.7329L28.1885 33.016ZM27.1603 32.3361C26.8899 32.0438 26.7005 31.7391 26.5788 31.4213L24.8418 32.0866C25.0549 32.6431 25.3771 33.1475 25.7949 33.5992L27.1603 32.3361ZM26.5811 31.4274C26.4422 31.0569 26.3668 30.7094 26.3454 30.3821L24.4893 30.5032C24.5238 31.0315 24.6436 31.5582 24.8395 32.0805L26.5811 31.4274ZM25.4174 31.3727H27.5936V29.5126H25.4174V31.3727ZM26.665 30.4942C26.6922 30.9824 26.8355 31.4436 27.0806 31.8693L28.6926 30.9412C28.5843 30.753 28.5323 30.5725 28.5222 30.391L26.665 30.4942ZM27.0806 31.8693C27.3495 32.3363 27.7377 32.7 28.2088 32.9674L29.1269 31.3497C28.9098 31.2265 28.7771 31.0879 28.6926 30.9412L27.0806 31.8693ZM28.2088 32.9674C28.7303 33.2634 29.3328 33.3815 29.9652 33.3815V31.5215C29.556 31.5215 29.2936 31.4443 29.1269 31.3497L28.2088 32.9674ZM29.9652 33.3815C30.6377 33.3815 31.3273 33.2424 31.8416 32.7813L30.5999 31.3963C30.5748 31.4188 30.4274 31.5215 29.9652 31.5215V33.3815ZM31.8429 32.7801C32.3319 32.34 32.5693 31.7564 32.5693 31.1122H30.7093C30.7093 31.268 30.6677 31.3354 30.5986 31.3975L31.8429 32.7801ZM32.5693 31.1122C32.5693 30.5044 32.359 29.9422 31.9077 29.5076L30.6175 30.8475C30.6685 30.8966 30.7093 30.9574 30.7093 31.1122H32.5693ZM31.9203 29.5199C31.5549 29.1546 31.0954 28.8989 30.5862 28.7253L29.986 30.4859C30.2952 30.5913 30.4868 30.717 30.605 30.8352L31.9203 29.5199ZM30.5922 28.7274L29.0716 28.1973L28.4593 29.9537L29.9799 30.4838L30.5922 28.7274ZM29.0793 28.2C28.626 28.0375 28.1855 27.845 27.7577 27.6226L26.8995 29.2728C27.4017 29.534 27.9192 29.7601 28.4516 29.951L29.0793 28.2ZM27.7645 27.6262C27.4288 27.4481 27.1679 27.22 26.967 26.9412L25.4581 28.029C25.8338 28.5501 26.3169 28.9637 26.8927 29.2692L27.7645 27.6262ZM26.9728 26.9495C26.821 26.7339 26.7101 26.414 26.7101 25.9227H24.8501C24.8501 26.6961 25.0275 27.4179 25.4523 28.0208L26.9728 26.9495ZM26.7101 25.9227C26.7101 25.4324 26.83 25.0848 27.0198 24.8245L25.5169 23.7286C25.0557 24.3611 24.8501 25.1109 24.8501 25.9227H26.7101ZM27.0124 24.8345C27.234 24.539 27.5456 24.2972 27.9833 24.1207L27.2877 22.3956C26.5722 22.6841 25.9723 23.1212 25.5243 23.7185L27.0124 24.8345ZM27.9785 24.1226C28.4362 23.941 28.9861 23.8394 29.6444 23.8394V21.9793C28.796 21.9793 28.0066 22.1103 27.2925 22.3937L27.9785 24.1226ZM29.6444 23.8394C30.5228 23.8394 31.1016 23.9898 31.4636 24.201L32.4009 22.5943C31.6469 22.1545 30.7004 21.9793 29.6444 21.9793V23.8394ZM31.4636 24.201C31.8896 24.4495 32.1555 24.7379 32.3141 25.0551L33.9778 24.2233C33.6342 23.5361 33.0909 22.9968 32.4009 22.5943L31.4636 24.201ZM32.3236 25.0737C32.53 25.4643 32.652 25.8658 32.6952 26.2834L34.5454 26.092C34.4769 25.4308 34.2827 24.8 33.9683 24.2048L32.3236 25.0737ZM33.6203 25.2577H31.444V27.1178H33.6203V25.2577ZM32.3716 26.1215C32.3431 25.7218 32.2278 25.3432 32.0322 24.9939L30.4093 25.9028C30.4742 26.0186 30.5077 26.1328 30.5163 26.254L32.3716 26.1215ZM32.0526 25.0324C31.8361 24.5994 31.495 24.2748 31.0841 24.0481L30.1856 25.6767C30.3141 25.7477 30.3636 25.8137 30.3889 25.8643L32.0526 25.0324ZM31.0841 24.0481C30.6265 23.7956 30.0897 23.7092 29.5467 23.7092V25.5693C29.9151 25.5693 30.1038 25.6316 30.1856 25.6767L31.0841 24.0481ZM29.5467 23.7092C28.9302 23.7092 28.2902 23.8343 27.7997 24.2521L29.0059 25.6681C29.0176 25.6581 29.1402 25.5693 29.5467 25.5693V23.7092ZM27.7866 24.2635C27.3433 24.6556 27.11 25.1798 27.11 25.7692H28.9701C28.9701 25.7242 28.9778 25.7068 28.9794 25.7032C28.9809 25.6999 28.9879 25.6842 29.019 25.6567L27.7866 24.2635ZM27.11 25.7692C27.11 26.373 27.3388 26.9237 27.8136 27.3282L29.0198 25.9122C28.9937 25.8899 28.9874 25.8767 28.9847 25.8706C28.9812 25.8628 28.9701 25.8343 28.9701 25.7692H27.11ZM27.8264 27.3389C28.1952 27.6418 28.6455 27.8695 29.1435 28.0427L29.7546 26.2859C29.397 26.1615 29.1591 26.0264 29.0071 25.9015L27.8264 27.3389ZM29.1456 28.0434L30.722 28.5875L31.3289 26.8292L29.7525 26.2851L29.1456 28.0434ZM30.7218 28.5874C31.1804 28.7458 31.5934 28.9348 31.9637 29.1521L32.9052 27.548C32.4199 27.2631 31.8936 27.0243 31.3291 26.8293L30.7218 28.5874ZM31.9712 29.1565C32.286 29.3374 32.5308 29.568 32.7182 29.8523L34.2712 28.8287C33.9192 28.2946 33.4571 27.865 32.8977 27.5436L31.9712 29.1565ZM32.7182 29.8523C32.8585 30.0653 32.9692 30.4048 32.9692 30.9448H34.8293C34.8293 30.1642 34.6703 29.4342 34.2712 28.8287L32.7182 29.8523ZM32.9692 30.9448C32.9692 31.694 32.7205 32.2208 32.2493 32.6229L33.4567 34.0378C34.3805 33.2495 34.8293 32.1859 34.8293 30.9448H32.9692ZM32.2548 32.6182C31.7797 33.0173 31.0398 33.2792 29.9094 33.2792V35.1393C31.3087 35.1393 32.5312 34.8153 33.4512 34.0425L32.2548 32.6182ZM29.9327 35.6741V33.163H28.0726V35.6741H29.9327ZM29.0026 34.093H30.3977V32.2329H29.0026V34.093ZM29.4677 33.163V35.6741H31.3277V33.163H29.4677ZM30.3977 34.744H29.0026V36.6041H30.3977V34.744ZM29.9327 23.9557V21.4446H28.0726V23.9557H29.9327ZM29.0026 22.3746H30.3977V20.5145H29.0026V22.3746ZM29.4677 21.4446V23.9557H31.3277V21.4446H29.4677ZM30.3977 23.0256H29.0026V24.8857H30.3977V23.0256ZM37.6755 33.8744L37.3189 34.7334L37.3259 34.7363L37.3329 34.7391L37.6755 33.8744ZM36.4757 33.0932L37.1431 32.4455L37.1431 32.4455L36.4757 33.0932ZM35.7922 32.0888L34.9317 32.4418L34.935 32.4497L35.7922 32.0888ZM35.5411 31.0704V30.1404H34.5547L34.6126 31.125L35.5411 31.0704ZM37.7452 31.0704L38.6667 30.9447L38.5571 30.1404H37.7452V31.0704ZM37.9824 31.6842L37.1978 32.1835L37.2057 32.196L37.214 32.2081L37.9824 31.6842ZM38.5823 32.2004L38.143 33.0203L38.155 33.0265L38.5823 32.2004ZM40.9259 31.8098L40.1798 31.2545L40.1715 31.2659L40.9259 31.8098ZM38.7078 28.378L39.1508 29.1957L38.7078 28.378ZM38.1638 28.8104L37.4493 28.215L37.4458 28.2192L38.1638 28.8104ZM37.8708 29.2568V30.1869H38.4631L38.7136 29.6501L37.8708 29.2568ZM35.7224 29.2568L34.7976 29.1581L34.6877 30.1869H35.7224V29.2568ZM36.3781 23.1186V22.1886H35.5421L35.4533 23.0198L36.3781 23.1186ZM42.8511 23.1186H43.7811V22.1886H42.8511V23.1186ZM42.8511 24.8764V25.8064H43.7811V24.8764H42.8511ZM38.1498 24.8764V23.9464H37.3233L37.2262 24.7671L38.1498 24.8764ZM37.8429 27.4712L36.9193 27.3619L36.7964 28.4012H37.8429V27.4712ZM38.1777 27.4712V28.4012H38.6661L38.9433 27.9992L38.1777 27.4712ZM38.931 26.8434L39.3271 27.685L39.3374 27.68L38.931 26.8434ZM42.0141 27.0666L41.5355 27.8642L41.5464 27.8705L42.0141 27.0666ZM43.1999 28.3361L42.3708 28.7577L42.3766 28.7687L43.1999 28.3361ZM43.1301 32.298L42.3226 31.8366L42.3226 31.8366L43.1301 32.298ZM41.6932 33.6791L42.129 34.5008L42.1334 34.4984L41.6932 33.6791ZM39.489 33.2374C38.8516 33.2374 38.371 33.1497 38.0181 33.0098L37.3329 34.7391C37.9658 34.9898 38.6942 35.0974 39.489 35.0974V33.2374ZM38.032 33.0155C37.6319 32.8494 37.3453 32.6538 37.1431 32.4455L35.8084 33.741C36.22 34.165 36.7332 34.4903 37.3189 34.7334L38.032 33.0155ZM37.1431 32.4455C36.9049 32.2 36.7471 31.9601 36.6493 31.7279L34.935 32.4497C35.1349 32.9243 35.4328 33.354 35.8084 33.741L37.1431 32.4455ZM36.6526 31.7358C36.5339 31.4464 36.4808 31.2084 36.4695 31.0158L34.6126 31.125C34.6385 31.5648 34.7528 32.0057 34.9317 32.4418L36.6526 31.7358ZM35.5411 32.0004H37.7452V30.1404H35.5411V32.0004ZM36.8237 31.1961C36.8727 31.5548 37.008 31.8853 37.1978 32.1835L38.767 31.1849C38.6964 31.074 38.6736 30.9952 38.6667 30.9447L36.8237 31.1961ZM37.214 32.2081C37.4526 32.5582 37.776 32.8236 38.1431 33.0202L39.0214 31.3806C38.8677 31.2982 38.7912 31.2195 38.7508 31.1603L37.214 32.2081ZM38.155 33.0265C38.5863 33.2495 39.066 33.3397 39.5588 33.3397V31.4796C39.289 31.4796 39.1177 31.4303 39.0095 31.3743L38.155 33.0265ZM39.5588 33.3397C40.393 33.3397 41.1716 33.0594 41.6804 32.3537L40.1715 31.2659C40.1037 31.3599 39.9708 31.4796 39.5588 31.4796V33.3397ZM41.6721 32.365C42.1162 31.7682 42.3024 31.0477 42.3024 30.2752H40.4423C40.4423 30.749 40.3309 31.0515 40.1798 31.2545L41.6721 32.365ZM42.3024 30.2752C42.3024 29.4769 42.0976 28.7291 41.584 28.1422L40.1842 29.367C40.3216 29.5241 40.4423 29.7901 40.4423 30.2752H42.3024ZM41.584 28.1422C41.0519 27.534 40.3264 27.2666 39.5309 27.2666V29.1266C39.8886 29.1266 40.0653 29.2312 40.1842 29.367L41.584 28.1422ZM39.5309 27.2666C39.0933 27.2666 38.6572 27.3477 38.2649 27.5602L39.1508 29.1957C39.2049 29.1664 39.3175 29.1266 39.5309 29.1266V27.2666ZM38.2649 27.5602C37.9547 27.7282 37.6757 27.9433 37.4493 28.215L38.8782 29.4058C38.9308 29.3427 39.0145 29.2695 39.1508 29.1957L38.2649 27.5602ZM37.4458 28.2192C37.2811 28.4192 37.1351 28.6341 37.028 28.8635L38.7136 29.6501C38.7367 29.6005 38.786 29.5179 38.8817 29.4016L37.4458 28.2192ZM37.8708 28.3268H35.7224V30.1869H37.8708V28.3268ZM36.6472 29.3556L37.3029 23.2174L35.4533 23.0198L34.7976 29.1581L36.6472 29.3556ZM36.3781 24.0487H42.8511V22.1886H36.3781V24.0487ZM41.9211 23.1186V24.8764H43.7811V23.1186H41.9211ZM42.8511 23.9464H38.1498V25.8064H42.8511V23.9464ZM37.2262 24.7671L36.9193 27.3619L38.7665 27.5804L39.0734 24.9856L37.2262 24.7671ZM37.8429 28.4012H38.1777V26.5411H37.8429V28.4012ZM38.9433 27.9992C39.0297 27.8739 39.1493 27.7686 39.327 27.6849L38.535 26.0019C38.0803 26.2159 37.6977 26.5291 37.4121 26.9432L38.9433 27.9992ZM39.3374 27.68C39.495 27.6034 39.7614 27.5363 40.1866 27.5363V25.6762C39.5887 25.6762 39.018 25.7672 38.5247 26.0068L39.3374 27.68ZM40.1866 27.5363C40.7563 27.5363 41.1934 27.6588 41.5356 27.8641L42.4926 26.2691C41.8118 25.8606 41.0305 25.6762 40.1866 25.6762V27.5363ZM41.5464 27.8705C41.8967 28.0743 42.1695 28.3617 42.3709 28.7576L44.0289 27.9146C43.6722 27.213 43.1545 26.6541 42.4818 26.2627L41.5464 27.8705ZM42.3766 28.7687C42.5837 29.163 42.7023 29.6469 42.7023 30.2473H44.5624C44.5624 29.3969 44.3926 28.6067 44.0232 27.9035L42.3766 28.7687ZM42.7023 30.2473C42.7023 30.8925 42.5652 31.412 42.3226 31.8366L43.9376 32.7595C44.3646 32.0122 44.5624 31.1646 44.5624 30.2473H42.7023ZM42.3226 31.8366C42.0786 32.2637 41.7304 32.6034 41.253 32.8599L42.1334 34.4984C42.9023 34.0853 43.5121 33.5042 43.9376 32.7595L42.3226 31.8366ZM41.2575 32.8575C40.8055 33.0972 40.2274 33.2374 39.489 33.2374V35.0974C40.4619 35.0974 41.3533 34.9121 42.1289 34.5008L41.2575 32.8575ZM46.167 32.7026L45.4087 33.2412L46.167 32.7026ZM46.167 24.416L46.9252 24.9546L46.9252 24.9546L46.167 24.416ZM52.5842 24.416L51.8226 24.9498L51.826 24.9546L52.5842 24.416ZM52.5842 32.7026L51.8259 32.164L51.8226 32.1688L52.5842 32.7026ZM50.8264 31.4052L49.9945 30.9893L49.9897 30.9992L50.8264 31.4052ZM50.8264 25.7134L49.9897 26.1195L49.9946 26.1293L50.8264 25.7134ZM47.9108 25.7134L47.0789 25.2975L47.0741 25.3074L47.9108 25.7134ZM47.9108 31.4052L47.074 31.8113L47.0789 31.8211L47.9108 31.4052ZM49.3756 33.2653C48.1848 33.2653 47.4257 32.8686 46.9252 32.164L45.4087 33.2412C46.3219 34.5268 47.7018 35.1253 49.3756 35.1253V33.2653ZM46.9252 32.164C46.37 31.3824 46.0368 30.2161 46.0368 28.5593H44.1767C44.1767 30.4366 44.5503 32.0325 45.4087 33.2412L46.9252 32.164ZM46.0368 28.5593C46.0368 26.9025 46.37 25.7362 46.9252 24.9546L45.4087 23.8775C44.5503 25.0861 44.1767 26.682 44.1767 28.5593H46.0368ZM46.9252 24.9546C47.4257 24.25 48.1848 23.8533 49.3756 23.8533V21.9933C47.7018 21.9933 46.3219 22.5918 45.4087 23.8775L46.9252 24.9546ZM49.3756 23.8533C50.5784 23.8533 51.3332 24.2516 51.8226 24.9498L53.3458 23.8822C52.4402 22.5902 51.0559 21.9933 49.3756 21.9933V23.8533ZM51.826 24.9546C52.3811 25.7362 52.7144 26.9025 52.7144 28.5593H54.5745C54.5745 26.682 54.2009 25.0861 53.3424 23.8775L51.826 24.9546ZM52.7144 28.5593C52.7144 30.2161 52.3811 31.3824 51.826 32.164L53.3424 33.2412C54.2009 32.0325 54.5745 30.4366 54.5745 28.5593H52.7144ZM51.8226 32.1688C51.3332 32.8671 50.5784 33.2653 49.3756 33.2653V35.1253C51.0559 35.1253 52.4402 34.5284 53.3458 33.2364L51.8226 32.1688ZM49.3756 33.2839C49.86 33.2839 50.3286 33.1657 50.7425 32.8951C51.1529 32.6267 51.4521 32.2462 51.6631 31.8113L49.9897 30.9992C49.8939 31.1967 49.7978 31.2904 49.7246 31.3383C49.6549 31.3839 49.5515 31.4238 49.3756 31.4238V33.2839ZM51.6583 31.8211C52.0717 30.9944 52.2308 29.8717 52.2308 28.5593H50.3707C50.3707 29.7767 50.2136 30.5512 49.9946 30.9893L51.6583 31.8211ZM52.2308 28.5593C52.2308 27.247 52.0717 26.1243 51.6583 25.2975L49.9946 26.1293C50.2136 26.5674 50.3707 27.342 50.3707 28.5593H52.2308ZM51.6631 25.3074C51.4521 24.8725 51.1529 24.4919 50.7425 24.2235C50.3286 23.9529 49.86 23.8347 49.3756 23.8347V25.6948C49.5515 25.6948 49.6549 25.7348 49.7246 25.7803C49.7978 25.8282 49.8939 25.9219 49.9897 26.1195L51.6631 25.3074ZM49.3756 23.8347C48.891 23.8347 48.423 23.953 48.0086 24.2213C47.5979 24.4873 47.2953 24.8647 47.0789 25.2975L48.7426 26.1293C48.8425 25.9297 48.9421 25.8328 49.0197 25.7826C49.0936 25.7347 49.1999 25.6948 49.3756 25.6948V23.8347ZM47.0741 25.3074C46.6746 26.1306 46.5204 27.249 46.5204 28.5593H48.3804C48.3804 27.3399 48.5332 26.5611 48.7475 26.1195L47.0741 25.3074ZM46.5204 28.5593C46.5204 29.8696 46.6746 30.988 47.0741 31.8113L48.7475 30.9992C48.5332 30.5576 48.3804 29.7787 48.3804 28.5593H46.5204ZM47.0789 31.8211C47.2953 32.2539 47.5979 32.6313 48.0086 32.8973C48.423 33.1657 48.891 33.2839 49.3756 33.2839V31.4238C49.1999 31.4238 49.0936 31.3839 49.0197 31.3361C48.9421 31.2858 48.8425 31.1889 48.7426 30.9893L47.0789 31.8211ZM55.9838 32.7026L55.2255 33.2412L55.9838 32.7026ZM55.9838 24.416L56.742 24.9546L56.742 24.9546L55.9838 24.416ZM62.401 24.416L61.6394 24.9498L61.6427 24.9546L62.401 24.416ZM62.401 32.7026L61.6427 32.164L61.6394 32.1688L62.401 32.7026ZM60.6432 31.4052L59.8113 30.9893L59.8065 30.9992L60.6432 31.4052ZM60.6432 25.7134L59.8064 26.1195L59.8114 26.1293L60.6432 25.7134ZM57.7276 25.7134L56.8957 25.2975L56.8909 25.3074L57.7276 25.7134ZM57.7276 31.4052L56.8908 31.8113L56.8957 31.8211L57.7276 31.4052ZM59.1924 33.2653C58.0016 33.2653 57.2424 32.8686 56.742 32.164L55.2255 33.2412C56.1387 34.5268 57.5186 35.1253 59.1924 35.1253V33.2653ZM56.742 32.164C56.1868 31.3824 55.8535 30.2161 55.8535 28.5593H53.9935C53.9935 30.4366 54.367 32.0325 55.2255 33.2412L56.742 32.164ZM55.8535 28.5593C55.8535 26.9025 56.1868 25.7362 56.742 24.9546L55.2255 23.8775C54.367 25.0861 53.9935 26.682 53.9935 28.5593H55.8535ZM56.742 24.9546C57.2424 24.25 58.0016 23.8533 59.1924 23.8533V21.9933C57.5186 21.9933 56.1387 22.5918 55.2255 23.8775L56.742 24.9546ZM59.1924 23.8533C60.3952 23.8533 61.15 24.2516 61.6394 24.9498L63.1626 23.8822C62.2569 22.5902 60.8727 21.9933 59.1924 21.9933V23.8533ZM61.6427 24.9546C62.1979 25.7362 62.5312 26.9025 62.5312 28.5593H64.3912C64.3912 26.682 64.0177 25.0861 63.1592 23.8775L61.6427 24.9546ZM62.5312 28.5593C62.5312 30.2161 62.1979 31.3824 61.6427 32.164L63.1592 33.2412C64.0177 32.0325 64.3912 30.4366 64.3912 28.5593H62.5312ZM61.6394 32.1688C61.15 32.8671 60.3952 33.2653 59.1924 33.2653V35.1253C60.8727 35.1253 62.2569 34.5284 63.1626 33.2364L61.6394 32.1688ZM59.1924 33.2839C59.6768 33.2839 60.1454 33.1657 60.5593 32.8951C60.9697 32.6267 61.2689 32.2462 61.4799 31.8113L59.8065 30.9992C59.7107 31.1967 59.6145 31.2904 59.5414 31.3383C59.4716 31.3839 59.3683 31.4238 59.1924 31.4238V33.2839ZM61.4751 31.8211C61.8884 30.9944 62.0476 29.8717 62.0476 28.5593H60.1875C60.1875 29.7767 60.0304 30.5512 59.8114 30.9893L61.4751 31.8211ZM62.0476 28.5593C62.0476 27.247 61.8884 26.1243 61.4751 25.2975L59.8114 26.1293C60.0304 26.5674 60.1875 27.342 60.1875 28.5593H62.0476ZM61.4799 25.3074C61.2689 24.8725 60.9697 24.4919 60.5593 24.2235C60.1454 23.9529 59.6768 23.8347 59.1924 23.8347V25.6948C59.3683 25.6948 59.4716 25.7348 59.5414 25.7803C59.6145 25.8282 59.7106 25.9219 59.8065 26.1195L61.4799 25.3074ZM59.1924 23.8347C58.7077 23.8347 58.2397 23.953 57.8254 24.2213C57.4147 24.4873 57.1121 24.8647 56.8957 25.2975L58.5594 26.1293C58.6592 25.9297 58.7589 25.8328 58.8365 25.7826C58.9104 25.7347 59.0167 25.6948 59.1924 25.6948V23.8347ZM56.8909 25.3074C56.4913 26.1306 56.3372 27.249 56.3372 28.5593H58.1972C58.1972 27.3399 58.35 26.5611 58.5643 26.1195L56.8909 25.3074ZM56.3372 28.5593C56.3372 29.8696 56.4913 30.988 56.8909 31.8113L58.5643 30.9992C58.35 30.5576 58.1972 29.7787 58.1972 28.5593H56.3372ZM56.8957 31.8211C57.1121 32.2539 57.4147 32.6313 57.8254 32.8973C58.2397 33.1657 58.7077 33.2839 59.1924 33.2839V31.4238C59.0167 31.4238 58.9104 31.3839 58.8365 31.3361C58.7589 31.2858 58.6592 31.1889 58.5594 30.9893L56.8957 31.8211Z" fill="white" mask="url(#path-23-outside-3_8072_128114)"/>
</svg>
