<svg width="106" height="107" viewBox="0 0 106 107" fill="none" xmlns="http://www.w3.org/2000/svg">
<g clip-path="url(#clip0_7093_57629)">
<mask id="path-1-outside-1_7093_57629" maskUnits="userSpaceOnUse" x="26.7285" y="5.43359" width="53" height="67" fill="black">
<rect fill="white" x="26.7285" y="5.43359" width="53" height="67"/>
<path fill-rule="evenodd" clip-rule="evenodd" d="M64.2051 65.0777H55.0189L57.5523 69.5113H77.5059L58.5018 36.2542L74.9707 7.43367H64.2015L53.1172 26.8311L42.0329 7.43359H31.2656L47.7336 36.2525L28.7285 69.5113H48.6821L51.2155 65.0777H42.0312L53.1182 45.6756L64.2051 65.0777Z"/>
</mask>
<path fill-rule="evenodd" clip-rule="evenodd" d="M64.2051 65.0777H55.0189L57.5523 69.5113H77.5059L58.5018 36.2542L74.9707 7.43367H64.2015L53.1172 26.8311L42.0329 7.43359H31.2656L47.7336 36.2525L28.7285 69.5113H48.6821L51.2155 65.0777H42.0312L53.1182 45.6756L64.2051 65.0777Z" fill="#AF3838"/>
<path d="M55.0189 65.0777V63.0777C54.3059 63.0777 53.6469 63.4572 53.289 64.0738C52.9312 64.6905 52.9287 65.4509 53.2824 66.07L55.0189 65.0777ZM64.2051 65.0777V67.0777C64.918 67.0777 65.5771 66.6982 65.9349 66.0815C66.2928 65.4649 66.2953 64.7044 65.9416 64.0854L64.2051 65.0777ZM57.5523 69.5113L55.8159 70.5035C56.1719 71.1267 56.8346 71.5113 57.5523 71.5113V69.5113ZM77.5059 69.5113V71.5113C78.2188 71.5113 78.8779 71.1318 79.2357 70.5151C79.5936 69.8985 79.5961 69.138 79.2424 68.519L77.5059 69.5113ZM58.5018 36.2542L56.7654 35.2619C56.414 35.8768 56.414 36.6316 56.7654 37.2465L58.5018 36.2542ZM74.9707 7.43367L76.7072 8.42594C77.0609 7.80694 77.0584 7.04644 76.7006 6.42981C76.3427 5.81318 75.6837 5.43367 74.9707 5.43367V7.43367ZM64.2015 7.43367V5.43367C63.4838 5.43367 62.8211 5.81824 62.465 6.44139L64.2015 7.43367ZM53.1172 26.8311L51.3807 27.8234C51.7368 28.4465 52.3995 28.8311 53.1172 28.8311C53.8349 28.8311 54.4976 28.4465 54.8537 27.8234L53.1172 26.8311ZM42.0329 7.43359L43.7694 6.44132C43.4133 5.81817 42.7506 5.43359 42.0329 5.43359V7.43359ZM31.2656 7.43359V5.43359C30.5527 5.43359 29.8936 5.81311 29.5358 6.42974C29.178 7.04637 29.1754 7.80687 29.5291 8.42587L31.2656 7.43359ZM47.7336 36.2525L49.4701 37.2448C49.8214 36.6299 49.8214 35.8751 49.4701 35.2602L47.7336 36.2525ZM28.7285 69.5113L26.992 68.5191C26.6383 69.1381 26.6409 69.8986 26.9987 70.5152C27.3565 71.1318 28.0156 71.5113 28.7285 71.5113V69.5113ZM48.6821 69.5113V71.5113C49.3998 71.5113 50.0625 71.1268 50.4185 70.5036L48.6821 69.5113ZM51.2155 65.0777L52.952 66.07C53.3057 65.451 53.3032 64.6905 52.9454 64.0739C52.5875 63.4573 51.9285 63.0777 51.2155 63.0777V65.0777ZM42.0312 65.0777L40.2948 64.0855C39.941 64.7045 39.9436 65.465 40.3014 66.0816C40.6593 66.6982 41.3183 67.0777 42.0312 67.0777V65.0777ZM53.1182 45.6756L54.8547 44.6833C54.4986 44.0602 53.8359 43.6756 53.1182 43.6756C52.4005 43.6756 51.7378 44.0602 51.3817 44.6833L53.1182 45.6756ZM55.0189 67.0777H64.2051V63.0777H55.0189V67.0777ZM59.2888 68.519L56.7554 64.0854L53.2824 66.07L55.8159 70.5035L59.2888 68.519ZM77.5059 67.5113H57.5523V71.5113H77.5059V67.5113ZM56.7654 37.2465L75.7694 70.5035L79.2424 68.519L60.2383 35.2619L56.7654 37.2465ZM60.2383 37.2465L76.7072 8.42594L73.2342 6.44139L56.7654 35.2619L60.2383 37.2465ZM74.9707 5.43367H64.2015V9.43367H74.9707V5.43367ZM62.465 6.44139L51.3807 25.8388L54.8537 27.8234L65.938 8.42594L62.465 6.44139ZM40.2964 8.42587L51.3807 27.8234L54.8537 25.8388L43.7694 6.44132L40.2964 8.42587ZM31.2656 9.43359H42.0329V5.43359H31.2656V9.43359ZM49.4701 35.2602L33.0021 6.44132L29.5291 8.42587L45.9971 37.2448L49.4701 35.2602ZM45.9971 35.2602L26.992 68.5191L30.465 70.5036L49.4701 37.2448L45.9971 35.2602ZM28.7285 71.5113H48.6821V67.5113H28.7285V71.5113ZM50.4185 70.5036L52.952 66.07L49.479 64.0855L46.9456 68.5191L50.4185 70.5036ZM51.2155 63.0777H42.0312V67.0777H51.2155V63.0777ZM43.7677 66.07L54.8547 46.6679L51.3817 44.6833L40.2948 64.0855L43.7677 66.07ZM65.9416 64.0854L54.8547 44.6833L51.3817 46.6679L62.4686 66.07L65.9416 64.0854Z" fill="#3D3D3D" mask="url(#path-1-outside-1_7093_57629)"/>
<mask id="path-3-outside-2_7093_57629" maskUnits="userSpaceOnUse" x="8.99316" y="1" width="89" height="38" fill="black">
<rect fill="white" x="8.99316" y="1" width="89" height="38"/>
<path fill-rule="evenodd" clip-rule="evenodd" d="M30.9467 3H10.9932L30.1746 36.5676C34.3591 32.5787 39.5821 29.6697 45.3967 28.2875L30.9467 3ZM60.8372 28.2875C66.6517 29.6697 71.8747 32.5787 76.0592 36.5675L95.2407 3H75.2871L60.8372 28.2875Z"/>
</mask>
<path fill-rule="evenodd" clip-rule="evenodd" d="M30.9467 3H10.9932L30.1746 36.5676C34.3591 32.5787 39.5821 29.6697 45.3967 28.2875L30.9467 3ZM60.8372 28.2875C66.6517 29.6697 71.8747 32.5787 76.0592 36.5675L95.2407 3H75.2871L60.8372 28.2875Z" fill="#D14848"/>
<path d="M10.9932 3V1C10.2802 1 9.62119 1.37952 9.26334 1.99615C8.9055 2.61278 8.90296 3.37327 9.25668 3.99228L10.9932 3ZM30.9467 3L32.6832 2.00772C32.3271 1.38457 31.6644 1 30.9467 1V3ZM30.1746 36.5676L28.4381 37.5598C28.7432 38.0938 29.277 38.4576 29.8855 38.5466C30.4939 38.6355 31.1095 38.4395 31.5546 38.0152L30.1746 36.5676ZM45.3967 28.2875L45.8592 30.2332C46.4724 30.0875 46.9809 29.6613 47.2316 29.0831C47.4823 28.5049 47.4458 27.8424 47.1332 27.2952L45.3967 28.2875ZM60.8372 28.2875L59.1007 27.2952C58.788 27.8423 58.7515 28.5049 59.0022 29.0831C59.2529 29.6613 59.7615 30.0875 60.3746 30.2332L60.8372 28.2875ZM76.0592 36.5675L74.6793 38.0152C75.1244 38.4395 75.74 38.6354 76.3484 38.5465C76.9569 38.4576 77.4906 38.0937 77.7957 37.5598L76.0592 36.5675ZM95.2407 3L96.9772 3.99228C97.3309 3.37327 97.3283 2.61278 96.9705 1.99615C96.6127 1.37952 95.9536 1 95.2407 1V3ZM75.2871 3V1C74.5694 1 73.9067 1.38457 73.5507 2.00772L75.2871 3ZM10.9932 5H30.9467V1H10.9932V5ZM31.9111 35.5753L12.7297 2.00772L9.25668 3.99228L28.4381 37.5598L31.9111 35.5753ZM31.5546 38.0152C35.4895 34.2644 40.3981 31.5315 45.8592 30.2332L44.9341 26.3417C38.7662 27.808 33.2288 30.8931 28.7947 35.1199L31.5546 38.0152ZM29.2102 3.99228L43.6602 29.2797L47.1332 27.2952L32.6832 2.00772L29.2102 3.99228ZM60.3746 30.2332C65.8358 31.5315 70.7444 34.2643 74.6793 38.0152L77.4392 35.1199C73.0051 30.8931 67.4677 27.8079 61.2997 26.3417L60.3746 30.2332ZM93.5042 2.00772L74.3228 35.5752L77.7957 37.5598L96.9772 3.99228L93.5042 2.00772ZM75.2871 5H95.2407V1H75.2871V5ZM62.5737 29.2797L77.0236 3.99228L73.5507 2.00772L59.1007 27.2952L62.5737 29.2797Z" fill="#3D3D3D" mask="url(#path-3-outside-2_7093_57629)"/>
<path d="M15 5L31 32" stroke="#FF7E7E" stroke-width="2" stroke-linecap="round" stroke-linejoin="round"/>
<path d="M77 5L64 27" stroke="#FF7E7E" stroke-width="2" stroke-linecap="round" stroke-linejoin="round"/>
<path d="M53.5 92C71.4186 92 86 77.9271 86 60.5C86 43.0729 71.4186 29 53.5 29C35.5814 29 21 43.0729 21 60.5C21 77.9271 35.5814 92 53.5 92Z" fill="#FFB423" stroke="#5B3303" stroke-width="2" stroke-linejoin="round"/>
<circle cx="53.5" cy="60.5" r="25.5" fill="#FFDD65"/>
<circle cx="52.5" cy="60.5" r="26.5" stroke="#DF8D12" stroke-width="2" stroke-linejoin="round"/>
<path d="M24 60C24 44.536 37.4315 32 54 32" stroke="#FFCF72" stroke-width="2" stroke-linecap="round" stroke-linejoin="round"/>
<path d="M53 81C64.07 81 73 71.7972 73 60.5C73 49.2028 64.07 40 53 40C41.93 40 33 49.2028 33 60.5C33 71.7972 41.93 81 53 81Z" fill="#FFCF23" stroke="#DF8D12" stroke-width="2"/>
<path d="M35 60C35 50.6112 43.5066 43 54 43" stroke="#FFF4CD" stroke-width="2" stroke-linecap="round" stroke-linejoin="round"/>
<path d="M42.7914 56.822C42.4386 56.8973 42.1537 57.1567 42.0458 57.5009C41.9379 57.8451 42.0237 58.2208 42.2705 58.4839L47.4237 63.9807L46.1421 70.8157C46.0713 71.1936 46.2234 71.5787 46.5334 71.8062C46.8433 72.0337 47.2563 72.0633 47.5956 71.8824L54 68.4667L60.4044 71.8824C60.7437 72.0633 61.1567 72.0337 61.4666 71.8062C61.7766 71.5787 61.9287 71.1936 61.8579 70.8157L60.5763 63.9807L65.7295 58.4839C65.9763 58.2208 66.0621 57.8451 65.9542 57.5009C65.8463 57.1567 65.5614 56.8973 65.2086 56.822L58.7752 55.4495L54.8716 48.5097C54.6945 48.1949 54.3613 48 54 48C53.6387 48 53.3055 48.1949 53.1284 48.5097L51.0659 52.1764L49.2248 55.4495L42.7914 56.822Z" fill="#FFE9AF" stroke="#C37808" stroke-width="2" stroke-linecap="round" stroke-linejoin="round"/>
<path d="M43.5975 99.7618C65.1904 105.548 87.4823 92.1637 93.4344 69.9502C99.3865 47.7366 86.7731 24.9998 65.1802 19.214C43.5873 13.4282 21.2954 26.8122 15.3433 49.0257C9.39123 71.2392 22.0046 93.976 43.5975 99.7618Z" fill="#A56402" stroke="#5B3303" stroke-width="2"/>
<path d="M41.0545 97.2189C62.6475 103.005 84.9393 89.6207 90.8914 67.4072C96.8435 45.1937 84.2302 22.4569 62.6372 16.6711C41.0443 10.8853 18.7525 24.2692 12.8004 46.4827C6.84827 68.6963 19.4616 91.4331 41.0545 97.2189Z" fill="#FFB423" stroke="#5B3303" stroke-width="2"/>
<path d="M43.0285 89.8473C60.5577 94.5442 78.6607 83.5671 83.5203 65.431C88.3799 47.2949 78.1907 28.7369 60.6615 24.04C43.1324 19.343 25.0293 30.3201 20.1697 48.4563C15.3102 66.5924 25.4994 85.1504 43.0285 89.8473Z" fill="#FFCF23" stroke="#DF8D12" stroke-width="2"/>
<path fill-rule="evenodd" clip-rule="evenodd" d="M75.4811 34.3139C71.9834 31.1916 67.7507 28.8321 62.955 27.5471C45.9947 23.0026 28.4142 33.6175 23.6879 51.2562C20.6402 62.6304 23.6818 74.1478 30.7745 82.1127C21.9024 74.1927 17.759 61.3644 21.1489 48.7133C25.8752 31.0745 43.4556 20.4596 60.4159 25.0041C66.4395 26.6181 71.5747 29.9272 75.4811 34.3139Z" fill="#FFDD65"/>
<path d="M42.6406 19.9288C30.7409 23.207 21.1559 32.054 16.8767 43.4844" stroke="#FFD179" stroke-width="2" stroke-linecap="round" stroke-linejoin="round"/>
<path d="M71.3477 89.1254C75.7763 86.0569 79.5463 82.0378 82.3893 77.3477" stroke="#FFD179" stroke-width="2" stroke-linecap="round" stroke-linejoin="round"/>
<path d="M30.127 26.5547C30.127 26.5547 26.152 28.9102 23.502 32.4436" stroke="#FFF3D2" stroke-width="2" stroke-linecap="round" stroke-linejoin="round"/>
<path d="M35.2793 32.4453C35.2793 32.4453 31.3043 35.0953 28.6543 39.0703" stroke="white" stroke-width="2" stroke-linecap="round" stroke-linejoin="round"/>
<mask id="path-22-outside-3_7093_57629" maskUnits="userSpaceOnUse" x="28" y="51" width="47" height="15" fill="black">
<rect fill="white" x="28" y="51" width="47" height="15"/>
<path d="M29.9518 65V52H38.5185V54.2H32.7185V57.15H37.1185V59.1833H32.7185V65H29.9518ZM40.6838 65V52H46.2005C47.3116 52 48.2116 52.1611 48.9005 52.4833C49.6005 52.7944 50.1116 53.2278 50.4338 53.7833C50.7672 54.3278 50.9338 54.9611 50.9338 55.6833C50.9338 56.5056 50.7172 57.2167 50.2838 57.8167C49.8505 58.4167 49.2116 58.8444 48.3672 59.1L51.2839 64.9V65H48.3172L45.6672 59.5H43.4505V65H40.6838ZM43.4505 57.4667H45.8005C46.5227 57.4667 47.0838 57.3444 47.4838 57.1C47.895 56.8556 48.1005 56.4167 48.1005 55.7833C48.1005 55.1389 47.895 54.7 47.4838 54.4667C47.0727 54.2222 46.5116 54.1 45.8005 54.1H43.4505V57.4667ZM53.2518 65V52H62.1185V54.2H56.0185V57.0667H60.7185V59.1H56.0185V62.8H62.2185V65H53.2518ZM64.6479 65V52H73.5146V54.2H67.4146V57.0667H72.1146V59.1H67.4146V62.8H73.6146V65H64.6479Z"/>
</mask>
<path d="M29.9518 65V52H38.5185V54.2H32.7185V57.15H37.1185V59.1833H32.7185V65H29.9518ZM40.6838 65V52H46.2005C47.3116 52 48.2116 52.1611 48.9005 52.4833C49.6005 52.7944 50.1116 53.2278 50.4338 53.7833C50.7672 54.3278 50.9338 54.9611 50.9338 55.6833C50.9338 56.5056 50.7172 57.2167 50.2838 57.8167C49.8505 58.4167 49.2116 58.8444 48.3672 59.1L51.2839 64.9V65H48.3172L45.6672 59.5H43.4505V65H40.6838ZM43.4505 57.4667H45.8005C46.5227 57.4667 47.0838 57.3444 47.4838 57.1C47.895 56.8556 48.1005 56.4167 48.1005 55.7833C48.1005 55.1389 47.895 54.7 47.4838 54.4667C47.0727 54.2222 46.5116 54.1 45.8005 54.1H43.4505V57.4667ZM53.2518 65V52H62.1185V54.2H56.0185V57.0667H60.7185V59.1H56.0185V62.8H62.2185V65H53.2518ZM64.6479 65V52H73.5146V54.2H67.4146V57.0667H72.1146V59.1H67.4146V62.8H73.6146V65H64.6479Z" fill="#5B3303"/>
<path d="M29.9518 65H28.9518V66H29.9518V65ZM29.9518 52V51H28.9518V52H29.9518ZM38.5185 52H39.5185V51H38.5185V52ZM38.5185 54.2V55.2H39.5185V54.2H38.5185ZM32.7185 54.2V53.2H31.7185V54.2H32.7185ZM32.7185 57.15H31.7185V58.15H32.7185V57.15ZM37.1185 57.15H38.1185V56.15H37.1185V57.15ZM37.1185 59.1833V60.1833H38.1185V59.1833H37.1185ZM32.7185 59.1833V58.1833H31.7185V59.1833H32.7185ZM32.7185 65V66H33.7185V65H32.7185ZM30.9518 65V52H28.9518V65H30.9518ZM29.9518 53H38.5185V51H29.9518V53ZM37.5185 52V54.2H39.5185V52H37.5185ZM38.5185 53.2H32.7185V55.2H38.5185V53.2ZM31.7185 54.2V57.15H33.7185V54.2H31.7185ZM32.7185 58.15H37.1185V56.15H32.7185V58.15ZM36.1185 57.15V59.1833H38.1185V57.15H36.1185ZM37.1185 58.1833H32.7185V60.1833H37.1185V58.1833ZM31.7185 59.1833V65H33.7185V59.1833H31.7185ZM32.7185 64H29.9518V66H32.7185V64ZM40.6838 65H39.6838V66H40.6838V65ZM40.6838 52V51H39.6838V52H40.6838ZM48.9005 52.4833L48.4768 53.3891L48.4856 53.3932L48.4944 53.3971L48.9005 52.4833ZM50.4338 53.7833L49.5688 54.2851L49.5748 54.2953L49.581 54.3055L50.4338 53.7833ZM50.2838 57.8167L51.0945 58.4022L51.0945 58.4022L50.2838 57.8167ZM48.3672 59.1L48.0775 58.1429L46.9397 58.4872L47.4738 59.5493L48.3672 59.1ZM51.2839 64.9H52.2839V64.6627L52.1772 64.4507L51.2839 64.9ZM51.2839 65V66H52.2839V65H51.2839ZM48.3172 65L47.4163 65.4341L47.689 66H48.3172V65ZM45.6672 59.5L46.5681 59.0659L46.2954 58.5H45.6672V59.5ZM43.4505 59.5V58.5H42.4505V59.5H43.4505ZM43.4505 65V66H44.4505V65H43.4505ZM43.4505 57.4667H42.4505V58.4667H43.4505V57.4667ZM47.4838 57.1L46.9727 56.2404L46.9624 56.2467L47.4838 57.1ZM47.4838 54.4667L46.9728 55.3262L46.9815 55.3314L46.9902 55.3364L47.4838 54.4667ZM43.4505 54.1V53.1H42.4505V54.1H43.4505ZM41.6838 65V52H39.6838V65H41.6838ZM40.6838 53H46.2005V51H40.6838V53ZM46.2005 53C47.2274 53 47.9672 53.1508 48.4768 53.3891L49.3242 51.5775C48.456 51.1714 47.3959 51 46.2005 51V53ZM48.4944 53.3971C49.0399 53.6396 49.3715 53.9448 49.5688 54.2851L51.2989 53.2816C50.8518 52.5108 50.1611 51.9493 49.3067 51.5695L48.4944 53.3971ZM49.581 54.3055C49.8059 54.6729 49.9338 55.1206 49.9338 55.6833H51.9338C51.9338 54.8016 51.7284 53.9827 51.2867 53.2612L49.581 54.3055ZM49.9338 55.6833C49.9338 56.3198 49.7699 56.8204 49.4732 57.2312L51.0945 58.4022C51.6645 57.6129 51.9338 56.6913 51.9338 55.6833H49.9338ZM49.4732 57.2312C49.1914 57.6213 48.7539 57.9382 48.0775 58.1429L48.6568 60.0571C49.6694 59.7507 50.5096 59.212 51.0945 58.4022L49.4732 57.2312ZM47.4738 59.5493L50.3905 65.3493L52.1772 64.4507L49.2606 58.6507L47.4738 59.5493ZM50.2839 64.9V65H52.2839V64.9H50.2839ZM51.2839 64H48.3172V66H51.2839V64ZM49.2181 64.5659L46.5681 59.0659L44.7663 59.9341L47.4163 65.4341L49.2181 64.5659ZM45.6672 58.5H43.4505V60.5H45.6672V58.5ZM42.4505 59.5V65H44.4505V59.5H42.4505ZM43.4505 64H40.6838V66H43.4505V64ZM43.4505 58.4667H45.8005V56.4667H43.4505V58.4667ZM45.8005 58.4667C46.6152 58.4667 47.3852 58.3323 48.0053 57.9533L46.9624 56.2467C46.7825 56.3566 46.4303 56.4667 45.8005 56.4667V58.4667ZM47.9949 57.9595C48.8062 57.4772 49.1005 56.6396 49.1005 55.7833H47.1005C47.1005 55.9965 47.0654 56.1108 47.0408 56.1634C47.0217 56.204 47.0038 56.222 46.9728 56.2405L47.9949 57.9595ZM49.1005 55.7833C49.1005 54.9271 48.812 54.0707 47.9775 53.597L46.9902 55.3364C47.0108 55.348 47.0235 55.3581 47.0408 55.395C47.0644 55.4455 47.1005 55.5616 47.1005 55.7833H49.1005ZM47.9949 53.6071C47.3716 53.2365 46.61 53.1 45.8005 53.1V55.1C46.4133 55.1 46.7739 55.2079 46.9728 55.3262L47.9949 53.6071ZM45.8005 53.1H43.4505V55.1H45.8005V53.1ZM42.4505 54.1V57.4667H44.4505V54.1H42.4505ZM53.2518 65H52.2518V66H53.2518V65ZM53.2518 52V51H52.2518V52H53.2518ZM62.1185 52H63.1185V51H62.1185V52ZM62.1185 54.2V55.2H63.1185V54.2H62.1185ZM56.0185 54.2V53.2H55.0185V54.2H56.0185ZM56.0185 57.0667H55.0185V58.0667H56.0185V57.0667ZM60.7185 57.0667H61.7185V56.0667H60.7185V57.0667ZM60.7185 59.1V60.1H61.7185V59.1H60.7185ZM56.0185 59.1V58.1H55.0185V59.1H56.0185ZM56.0185 62.8H55.0185V63.8H56.0185V62.8ZM62.2185 62.8H63.2185V61.8H62.2185V62.8ZM62.2185 65V66H63.2185V65H62.2185ZM54.2518 65V52H52.2518V65H54.2518ZM53.2518 53H62.1185V51H53.2518V53ZM61.1185 52V54.2H63.1185V52H61.1185ZM62.1185 53.2H56.0185V55.2H62.1185V53.2ZM55.0185 54.2V57.0667H57.0185V54.2H55.0185ZM56.0185 58.0667H60.7185V56.0667H56.0185V58.0667ZM59.7185 57.0667V59.1H61.7185V57.0667H59.7185ZM60.7185 58.1H56.0185V60.1H60.7185V58.1ZM55.0185 59.1V62.8H57.0185V59.1H55.0185ZM56.0185 63.8H62.2185V61.8H56.0185V63.8ZM61.2185 62.8V65H63.2185V62.8H61.2185ZM62.2185 64H53.2518V66H62.2185V64ZM64.6479 65H63.6479V66H64.6479V65ZM64.6479 52V51H63.6479V52H64.6479ZM73.5146 52H74.5146V51H73.5146V52ZM73.5146 54.2V55.2H74.5146V54.2H73.5146ZM67.4146 54.2V53.2H66.4146V54.2H67.4146ZM67.4146 57.0667H66.4146V58.0667H67.4146V57.0667ZM72.1146 57.0667H73.1146V56.0667H72.1146V57.0667ZM72.1146 59.1V60.1H73.1146V59.1H72.1146ZM67.4146 59.1V58.1H66.4146V59.1H67.4146ZM67.4146 62.8H66.4146V63.8H67.4146V62.8ZM73.6146 62.8H74.6146V61.8H73.6146V62.8ZM73.6146 65V66H74.6146V65H73.6146ZM65.6479 65V52H63.6479V65H65.6479ZM64.6479 53H73.5146V51H64.6479V53ZM72.5146 52V54.2H74.5146V52H72.5146ZM73.5146 53.2H67.4146V55.2H73.5146V53.2ZM66.4146 54.2V57.0667H68.4146V54.2H66.4146ZM67.4146 58.0667H72.1146V56.0667H67.4146V58.0667ZM71.1146 57.0667V59.1H73.1146V57.0667H71.1146ZM72.1146 58.1H67.4146V60.1H72.1146V58.1ZM66.4146 59.1V62.8H68.4146V59.1H66.4146ZM67.4146 63.8H73.6146V61.8H67.4146V63.8ZM72.6146 62.8V65H74.6146V62.8H72.6146ZM73.6146 64H64.6479V66H73.6146V64Z" fill="white" mask="url(#path-22-outside-3_7093_57629)"/>
</g>
<defs>
<clipPath id="clip0_7093_57629">
<rect width="106" height="107" fill="white"/>
</clipPath>
</defs>
</svg>
