<svg width="89" height="85" viewBox="0 0 89 85" fill="none" xmlns="http://www.w3.org/2000/svg">
<path d="M58.0835 77.5232C57.8322 78.09 57.2705 78.4554 56.6504 78.4554H32.3516C31.7315 78.4554 31.1698 78.09 30.9185 77.5232C30.6672 76.9566 30.7734 76.2952 31.1893 75.8357C31.1894 75.8356 31.1896 75.8355 31.1897 75.8353C31.1897 75.8353 31.1897 75.8353 31.1898 75.8352L31.1915 75.8333L31.2026 75.8209L31.2516 75.7659C31.2958 75.7159 31.3627 75.6397 31.4494 75.5392C31.6228 75.338 31.8752 75.0397 32.1843 74.6591C32.8032 73.8967 33.645 72.809 34.5324 71.5128C36.3304 68.8864 38.219 65.5419 38.9206 62.3744C39.3922 60.2453 39.086 57.3662 38.5297 54.7034C37.7543 50.992 40.4164 46.9714 44.501 46.9714C48.5856 46.9714 51.2477 50.992 50.4723 54.7034C49.916 57.3662 49.6098 60.2453 50.0814 62.3744C50.783 65.5419 52.6716 68.8864 54.4696 71.5128C55.357 72.809 56.1988 73.8967 56.8177 74.6591C57.1268 75.0397 57.3792 75.338 57.5526 75.5392C57.6393 75.6397 57.7062 75.7159 57.7504 75.7659L57.7994 75.8209L57.8105 75.8333L57.8123 75.8352L58.0835 77.5232ZM58.0835 77.5232C58.3348 76.9565 58.2286 76.295 57.8125 75.8356L58.0835 77.5232Z" fill="#F6B307" stroke="#5B3303" stroke-width="3.13534" stroke-linejoin="round"/>
<path fill-rule="evenodd" clip-rule="evenodd" d="M52.5968 76.8956H56.6411C56.6411 76.8956 50.0758 69.6485 48.5415 62.7212C47.9942 60.2503 48.3632 57.096 48.9284 54.3906C49.5309 51.5069 47.4376 48.5469 44.4917 48.5469C43.8267 48.5469 43.2053 48.6977 42.6484 48.9643C44.1346 49.6683 44.8841 51.324 44.8841 54.3906C44.8841 58.2467 44.9623 63.7939 45.5096 66.2648C47.044 73.1921 52.5968 76.8956 52.5968 76.8956Z" fill="#C18B00"/>
<path d="M38.4277 72.8497C39.4402 71.3311 40.4526 69.3062 40.9589 67.2812" stroke="#FFCB43" stroke-width="3.13534" stroke-linecap="round" stroke-linejoin="round"/>
<mask id="path-4-outside-1_8072_128042" maskUnits="userSpaceOnUse" x="58.7266" y="6.07422" width="30" height="30" fill="black">
<rect fill="white" x="58.7266" y="6.07422" width="30" height="30"/>
<path fill-rule="evenodd" clip-rule="evenodd" d="M73.8635 32.3482C80.0143 32.3482 85.0005 27.362 85.0005 21.2112C85.0005 15.0604 80.0143 10.0742 73.8635 10.0742C67.7128 10.0742 62.7266 15.0604 62.7266 21.2112C62.7266 27.362 67.7128 32.3482 73.8635 32.3482ZM73.8609 27.2823C77.2159 27.2823 79.9356 24.5625 79.9356 21.2076C79.9356 17.8526 77.2159 15.1328 73.8609 15.1328C70.5059 15.1328 67.7862 17.8526 67.7862 21.2076C67.7862 24.5625 70.5059 27.2823 73.8609 27.2823Z"/>
</mask>
<path fill-rule="evenodd" clip-rule="evenodd" d="M73.8635 32.3482C80.0143 32.3482 85.0005 27.362 85.0005 21.2112C85.0005 15.0604 80.0143 10.0742 73.8635 10.0742C67.7128 10.0742 62.7266 15.0604 62.7266 21.2112C62.7266 27.362 67.7128 32.3482 73.8635 32.3482ZM73.8609 27.2823C77.2159 27.2823 79.9356 24.5625 79.9356 21.2076C79.9356 17.8526 77.2159 15.1328 73.8609 15.1328C70.5059 15.1328 67.7862 17.8526 67.7862 21.2076C67.7862 24.5625 70.5059 27.2823 73.8609 27.2823Z" fill="#F6B307"/>
<path d="M81.8652 21.2112C81.8652 25.6304 78.2827 29.2128 73.8635 29.2128V35.4835C81.7459 35.4835 88.1359 29.0936 88.1359 21.2112H81.8652ZM73.8635 13.2096C78.2827 13.2096 81.8652 16.792 81.8652 21.2112H88.1359C88.1359 13.3288 81.7459 6.93888 73.8635 6.93888V13.2096ZM65.8619 21.2112C65.8619 16.792 69.4444 13.2096 73.8635 13.2096V6.93888C65.9812 6.93888 59.5912 13.3288 59.5912 21.2112H65.8619ZM73.8635 29.2128C69.4444 29.2128 65.8619 25.6304 65.8619 21.2112H59.5912C59.5912 29.0936 65.9812 35.4835 73.8635 35.4835V29.2128ZM76.8003 21.2076C76.8003 22.8309 75.4843 24.147 73.8609 24.147V30.4176C78.9475 30.4176 83.0709 26.2941 83.0709 21.2076H76.8003ZM73.8609 18.2682C75.4843 18.2682 76.8003 19.5842 76.8003 21.2076H83.0709C83.0709 16.121 78.9475 11.9975 73.8609 11.9975V18.2682ZM70.9215 21.2076C70.9215 19.5842 72.2375 18.2682 73.8609 18.2682V11.9975C68.7743 11.9975 64.6508 16.121 64.6508 21.2076H70.9215ZM73.8609 24.147C72.2375 24.147 70.9215 22.8309 70.9215 21.2076H64.6508C64.6508 26.2941 68.7743 30.4176 73.8609 30.4176V24.147Z" fill="#5B3303" mask="url(#path-4-outside-1_8072_128042)"/>
<path fill-rule="evenodd" clip-rule="evenodd" d="M83.9747 19.188C83.9747 25.3388 78.9885 30.325 72.8378 30.325C68.8856 30.325 65.4142 28.2663 63.4375 25.1629C65.0322 29.3623 69.0939 32.3469 73.8526 32.3469C80.0034 32.3469 84.9896 27.3607 84.9896 21.2099C84.9896 19.0113 84.3525 16.9615 83.2528 15.2351C83.7193 16.4635 83.9747 17.7959 83.9747 19.188ZM68.0085 22.8737C67.8583 22.345 67.7779 21.7868 67.7779 21.2099C67.7779 17.8549 70.4976 15.1352 73.8526 15.1352C75.8216 15.1352 77.5718 16.072 78.6818 17.5242C77.9583 14.9781 75.6158 13.1133 72.8378 13.1133C69.4828 13.1133 66.763 15.833 66.763 19.188C66.763 20.574 67.2272 21.8515 68.0085 22.8737Z" fill="#D29700"/>
<mask id="path-7-outside-2_8072_128042" maskUnits="userSpaceOnUse" x="0" y="6.07422" width="30" height="30" fill="black">
<rect fill="white" y="6.07422" width="30" height="30"/>
<path fill-rule="evenodd" clip-rule="evenodd" d="M15.137 32.3482C21.2878 32.3482 26.274 27.362 26.274 21.2112C26.274 15.0604 21.2878 10.0742 15.137 10.0742C8.9862 10.0742 4 15.0604 4 21.2112C4 27.362 8.9862 32.3482 15.137 32.3482ZM15.1343 27.2823C18.4893 27.2823 21.209 24.5625 21.209 21.2076C21.209 17.8526 18.4893 15.1328 15.1343 15.1328C11.7793 15.1328 9.0596 17.8526 9.0596 21.2076C9.0596 24.5625 11.7793 27.2823 15.1343 27.2823Z"/>
</mask>
<path fill-rule="evenodd" clip-rule="evenodd" d="M15.137 32.3482C21.2878 32.3482 26.274 27.362 26.274 21.2112C26.274 15.0604 21.2878 10.0742 15.137 10.0742C8.9862 10.0742 4 15.0604 4 21.2112C4 27.362 8.9862 32.3482 15.137 32.3482ZM15.1343 27.2823C18.4893 27.2823 21.209 24.5625 21.209 21.2076C21.209 17.8526 18.4893 15.1328 15.1343 15.1328C11.7793 15.1328 9.0596 17.8526 9.0596 21.2076C9.0596 24.5625 11.7793 27.2823 15.1343 27.2823Z" fill="#F6B307"/>
<path d="M23.1386 21.2112C23.1386 25.6304 19.5562 29.2128 15.137 29.2128V35.4835C23.0194 35.4835 29.4093 29.0936 29.4093 21.2112H23.1386ZM15.137 13.2096C19.5562 13.2096 23.1386 16.792 23.1386 21.2112H29.4093C29.4093 13.3288 23.0194 6.93888 15.137 6.93888V13.2096ZM7.13534 21.2112C7.13534 16.792 10.7178 13.2096 15.137 13.2096V6.93888C7.2546 6.93888 0.864661 13.3288 0.864661 21.2112H7.13534ZM15.137 29.2128C10.7178 29.2128 7.13534 25.6304 7.13534 21.2112H0.864661C0.864661 29.0936 7.2546 35.4835 15.137 35.4835V29.2128ZM18.0737 21.2076C18.0737 22.8309 16.7577 24.147 15.1343 24.147V30.4176C20.2209 30.4176 24.3444 26.2941 24.3444 21.2076H18.0737ZM15.1343 18.2682C16.7577 18.2682 18.0737 19.5842 18.0737 21.2076H24.3444C24.3444 16.121 20.2209 11.9975 15.1343 11.9975V18.2682ZM12.1949 21.2076C12.1949 19.5842 13.5109 18.2682 15.1343 18.2682V11.9975C10.0477 11.9975 5.92426 16.121 5.92426 21.2076H12.1949ZM15.1343 24.147C13.5109 24.147 12.1949 22.8309 12.1949 21.2076H5.92426C5.92426 26.2941 10.0477 30.4176 15.1343 30.4176V24.147Z" fill="#5B3303" mask="url(#path-7-outside-2_8072_128042)"/>
<path fill-rule="evenodd" clip-rule="evenodd" d="M23.5313 28.5321C21.5665 30.2715 18.9827 31.3273 16.1523 31.3273C10.0015 31.3273 5.0153 26.3411 5.0153 20.1904C5.0153 17.3885 6.04993 14.8284 7.75797 12.8711C5.45305 14.9115 4 17.8925 4 21.2129C4 27.3637 8.9862 32.3499 15.137 32.3499C18.486 32.3499 21.4897 30.8717 23.5313 28.5321ZM11.3641 16.4515C12.4004 15.6293 13.7113 15.1382 15.137 15.1382C18.492 15.1382 21.2117 17.8579 21.2117 21.2129C21.2117 22.623 20.7313 23.9208 19.9252 24.9517C21.3276 23.8389 22.227 22.1197 22.227 20.1904C22.227 16.8354 19.5073 14.1156 16.1523 14.1156C14.2074 14.1156 12.4759 15.0296 11.3641 16.4515Z" fill="#D29700"/>
<path d="M60.3054 6.48311H28.6908C20.8986 6.48311 14.5817 12.7999 14.5817 20.5921V28.2998C14.5817 44.8222 27.9758 58.2162 44.4981 58.2162C61.0205 58.2162 74.4145 44.8222 74.4145 28.2998V20.5921C74.4145 12.7999 68.0976 6.48311 60.3054 6.48311Z" fill="#FFCF23" stroke="#5B3303" stroke-width="3.13534" stroke-linecap="round" stroke-linejoin="round"/>
<path fill-rule="evenodd" clip-rule="evenodd" d="M37.4121 55.7597C39.6769 56.3425 42.0512 56.6524 44.498 56.6524C60.1545 56.6524 72.8466 43.9603 72.8466 28.3038V8.05469H58.675V28.3038C58.675 41.5136 49.6398 52.6131 37.4121 55.7597Z" fill="#FFC429"/>
<path d="M16.1494 8.05078V28.2998C16.1494 37.4304 20.466 45.5527 27.1697 50.7376C30.8433 53.5788 38.4234 44.5872 38.4234 39.9431V8.05078H16.1494Z" fill="#FFDB5B"/>
<path fill-rule="evenodd" clip-rule="evenodd" d="M29.8711 52.5929C34.1413 55.1698 39.1461 56.6524 44.4972 56.6524C60.1538 56.6524 72.8459 43.9603 72.8459 28.3038V8.05469H68.7934V26.2818C68.7934 41.9384 56.1013 54.6305 40.4447 54.6305C36.7071 54.6305 33.1385 53.9072 29.8711 52.5929Z" fill="#F5B40C"/>
<path d="M20.2012 13.1094C20.2012 26.7775 20.2012 35.8896 25.2633 40.9518" stroke="#FFEBA6" stroke-width="6.27068" stroke-linecap="round" stroke-linejoin="round"/>
<path d="M72.8468 8.05078H16.1494V12.1006H72.8468V8.05078Z" fill="#D29803"/>
<path d="M20.1957 15.1289C20.1957 18.4296 20.1244 18.4272 20.1957 21.2036" stroke="white" stroke-width="3.13534" stroke-linecap="round" stroke-linejoin="round"/>
<path d="M62.7193 75.3269H26.271C24.2869 75.3269 22.6784 76.9353 22.6784 78.9194C22.6784 80.9036 24.2869 82.512 26.271 82.512H62.7193C64.7034 82.512 66.3119 80.9036 66.3119 78.9194C66.3119 76.9353 64.7034 75.3269 62.7193 75.3269Z" fill="#FFD84F" stroke="#5B3303" stroke-width="3.13534" stroke-linejoin="round"/>
<path d="M78.9245 2.43233H10.0776C8.09352 2.43233 6.48506 4.04078 6.48506 6.02491C6.48506 8.00903 8.09352 9.61748 10.0776 9.61748H78.9245C80.9086 9.61748 82.517 8.00903 82.517 6.02491C82.517 4.04078 80.9086 2.43233 78.9245 2.43233Z" fill="#FFD84F" stroke="#5B3303" stroke-width="3.13534" stroke-linejoin="round"/>
<path d="M11.0898 5.51562H62.725" stroke="#FFEBA6" stroke-width="3.13534" stroke-linecap="round" stroke-linejoin="round"/>
<path d="M26.2773 77.9102H55.6385" stroke="#FFEBA6" stroke-width="3.13534" stroke-linecap="round" stroke-linejoin="round"/>
<path d="M17.165 5.51562H23.2398" stroke="white" stroke-width="3.13534" stroke-linecap="round" stroke-linejoin="round"/>
<path d="M11.5901 12.6055C9.56507 13.6179 6.02148 16.1491 6.02148 22.2238" stroke="#FFD953" stroke-width="3.13534" stroke-linecap="round" stroke-linejoin="round"/>
<mask id="path-23-outside-3_8072_128042" maskUnits="userSpaceOnUse" x="19" y="20" width="51" height="17" fill="black">
<rect fill="white" x="19" y="20" width="51" height="17"/>
<path d="M25.001 34.2093C24.1826 34.2093 23.4897 34.0977 22.9224 33.8744C22.3644 33.6419 21.9133 33.3397 21.5692 32.9677C21.2251 32.5957 20.9693 32.1911 20.8019 31.754C20.6345 31.3076 20.5369 30.8704 20.509 30.4426H22.6853C22.7039 30.7774 22.8015 31.0983 22.9782 31.4052C23.1549 31.7121 23.4153 31.9632 23.7594 32.1585C24.1036 32.3538 24.536 32.4515 25.0568 32.4515C25.6242 32.4515 26.0427 32.3306 26.3124 32.0888C26.5914 31.8377 26.7309 31.5122 26.7309 31.1122C26.7309 30.7309 26.6053 30.4194 26.3542 30.1776C26.1124 29.9358 25.7869 29.7451 25.3777 29.6056L23.8571 29.0755C23.3642 28.8988 22.8852 28.6895 22.4202 28.4477C21.9645 28.2059 21.5925 27.885 21.3042 27.4851C21.0158 27.0759 20.8717 26.5551 20.8717 25.9227C20.8717 25.2716 21.0344 24.7229 21.36 24.2765C21.6948 23.8301 22.1505 23.4906 22.7271 23.2581C23.313 23.0256 23.9827 22.9094 24.736 22.9094C25.7032 22.9094 26.4658 23.0721 27.0239 23.3976C27.5819 23.7231 27.9864 24.137 28.2375 24.6392C28.498 25.1321 28.6561 25.6483 28.7119 26.1877H26.5356C26.517 25.9273 26.4426 25.6809 26.3124 25.4484C26.1915 25.2065 25.9962 25.0112 25.7265 24.8624C25.4568 24.7136 25.094 24.6392 24.6383 24.6392C24.1268 24.6392 23.7455 24.7462 23.4944 24.9601C23.2526 25.174 23.1317 25.4437 23.1317 25.7692C23.1317 26.1226 23.2572 26.4063 23.5083 26.6202C23.7687 26.8341 24.1129 27.0155 24.5407 27.1643L26.1171 27.7083C26.6286 27.885 27.0983 28.0989 27.5261 28.3501C27.9632 28.6012 28.3166 28.9313 28.5863 29.3405C28.856 29.7498 28.9909 30.2845 28.9909 30.9448C28.9909 31.94 28.6421 32.7352 27.9446 33.3304C27.2471 33.9163 26.2659 34.2093 25.001 34.2093ZM24.0943 35.6741V33.163H25.4893V35.6741H24.0943ZM24.0943 23.9557V21.4446H25.4893V23.9557H24.0943ZM30.6606 34V32.1585C31.4325 31.5726 32.1068 31.0471 32.6834 30.5821C33.26 30.1078 33.7529 29.6753 34.1621 29.2847C34.776 28.7081 35.2363 28.1873 35.5432 27.7223C35.8595 27.2573 36.0176 26.769 36.0176 26.2575C36.0176 25.7925 35.8827 25.4158 35.613 25.1275C35.3526 24.8299 34.9713 24.6811 34.4691 24.6811C33.9017 24.6811 33.4739 24.8671 33.1856 25.2391C32.8973 25.6018 32.7531 26.0854 32.7531 26.6899H30.6606C30.6606 25.9366 30.8047 25.2763 31.093 24.709C31.3813 24.1417 31.8092 23.7045 32.3765 23.3976C32.9531 23.0814 33.6646 22.9233 34.5109 22.9233C35.7106 22.9233 36.636 23.2302 37.2871 23.844C37.9474 24.4486 38.2775 25.2484 38.2775 26.2435C38.2775 26.9597 38.0915 27.62 37.7195 28.2245C37.3475 28.8197 36.7941 29.4475 36.0594 30.1078C35.7432 30.3961 35.3898 30.6937 34.9992 31.0006C34.6179 31.2983 34.2365 31.5726 33.8552 31.8237V32.1585H38.6403V34H30.6606ZM44.3974 34.1674C43.6813 34.1674 43.0768 34.0698 42.5839 33.8744C42.091 33.6698 41.691 33.4094 41.3841 33.0932C41.0772 32.777 40.8494 32.4422 40.7006 32.0888C40.5518 31.7261 40.4681 31.3866 40.4495 31.0704H42.6536C42.6815 31.275 42.7606 31.4796 42.8908 31.6842C43.0303 31.8888 43.2302 32.0609 43.4907 32.2004C43.7604 32.3399 44.0859 32.4096 44.4672 32.4096C45.0903 32.4096 45.546 32.2097 45.8343 31.8098C46.132 31.4099 46.2808 30.8983 46.2808 30.2752C46.2808 29.6335 46.118 29.1266 45.7925 28.7546C45.467 28.3826 45.0159 28.1966 44.4393 28.1966C44.1138 28.1966 43.8394 28.2571 43.6162 28.378C43.393 28.4989 43.2116 28.643 43.0721 28.8104C42.9419 28.9685 42.8443 29.1173 42.7792 29.2568H40.6308L41.2865 23.1186H47.7595V24.8764H43.0582L42.7513 27.4712H43.0861C43.2721 27.2015 43.5232 26.9922 43.8394 26.8434C44.1649 26.6853 44.5834 26.6062 45.095 26.6062C45.8018 26.6062 46.411 26.7597 46.9225 27.0666C47.434 27.3642 47.8293 27.7874 48.1083 28.3361C48.3966 28.8848 48.5407 29.5219 48.5407 30.2473C48.5407 31.0285 48.3733 31.7121 48.0385 32.298C47.7037 32.884 47.2247 33.3443 46.6016 33.6791C45.9878 34.0047 45.2531 34.1674 44.3974 34.1674ZM54.284 34.1953C52.8517 34.1953 51.7822 33.6977 51.0754 32.7026C50.3685 31.7075 50.0151 30.3264 50.0151 28.5593C50.0151 26.7922 50.3685 25.4112 51.0754 24.416C51.7822 23.4209 52.8517 22.9233 54.284 22.9233C55.7255 22.9233 56.7951 23.4209 57.4926 24.416C58.1994 25.4112 58.5528 26.7922 58.5528 28.5593C58.5528 30.3264 58.1994 31.7075 57.4926 32.7026C56.7951 33.6977 55.7255 34.1953 54.284 34.1953ZM54.284 32.3538C54.9443 32.3538 55.4279 32.0376 55.7348 31.4052C56.051 30.7728 56.2091 29.8242 56.2091 28.5593C56.2091 27.2945 56.051 26.3458 55.7348 25.7134C55.4279 25.081 54.9443 24.7648 54.284 24.7648C53.6237 24.7648 53.1354 25.081 52.8192 25.7134C52.5123 26.3458 52.3588 27.2945 52.3588 28.5593C52.3588 29.8242 52.5123 30.7728 52.8192 31.4052C53.1354 32.0376 53.6237 32.3538 54.284 32.3538ZM64.1008 34.1953C62.6685 34.1953 61.599 33.6977 60.8921 32.7026C60.1853 31.7075 59.8319 30.3264 59.8319 28.5593C59.8319 26.7922 60.1853 25.4112 60.8921 24.416C61.599 23.4209 62.6685 22.9233 64.1008 22.9233C65.5423 22.9233 66.6118 23.4209 67.3094 24.416C68.0162 25.4112 68.3696 26.7922 68.3696 28.5593C68.3696 30.3264 68.0162 31.7075 67.3094 32.7026C66.6118 33.6977 65.5423 34.1953 64.1008 34.1953ZM64.1008 32.3538C64.7611 32.3538 65.2447 32.0376 65.5516 31.4052C65.8678 30.7728 66.0259 29.8242 66.0259 28.5593C66.0259 27.2945 65.8678 26.3458 65.5516 25.7134C65.2447 25.081 64.7611 24.7648 64.1008 24.7648C63.4404 24.7648 62.9522 25.081 62.636 25.7134C62.329 26.3458 62.1756 27.2945 62.1756 28.5593C62.1756 29.8242 62.329 30.7728 62.636 31.4052C62.9522 32.0376 63.4404 32.3538 64.1008 32.3538Z"/>
</mask>
<path d="M25.001 34.2093C24.1826 34.2093 23.4897 34.0977 22.9224 33.8744C22.3644 33.6419 21.9133 33.3397 21.5692 32.9677C21.2251 32.5957 20.9693 32.1911 20.8019 31.754C20.6345 31.3076 20.5369 30.8704 20.509 30.4426H22.6853C22.7039 30.7774 22.8015 31.0983 22.9782 31.4052C23.1549 31.7121 23.4153 31.9632 23.7594 32.1585C24.1036 32.3538 24.536 32.4515 25.0568 32.4515C25.6242 32.4515 26.0427 32.3306 26.3124 32.0888C26.5914 31.8377 26.7309 31.5122 26.7309 31.1122C26.7309 30.7309 26.6053 30.4194 26.3542 30.1776C26.1124 29.9358 25.7869 29.7451 25.3777 29.6056L23.8571 29.0755C23.3642 28.8988 22.8852 28.6895 22.4202 28.4477C21.9645 28.2059 21.5925 27.885 21.3042 27.4851C21.0158 27.0759 20.8717 26.5551 20.8717 25.9227C20.8717 25.2716 21.0344 24.7229 21.36 24.2765C21.6948 23.8301 22.1505 23.4906 22.7271 23.2581C23.313 23.0256 23.9827 22.9094 24.736 22.9094C25.7032 22.9094 26.4658 23.0721 27.0239 23.3976C27.5819 23.7231 27.9864 24.137 28.2375 24.6392C28.498 25.1321 28.6561 25.6483 28.7119 26.1877H26.5356C26.517 25.9273 26.4426 25.6809 26.3124 25.4484C26.1915 25.2065 25.9962 25.0112 25.7265 24.8624C25.4568 24.7136 25.094 24.6392 24.6383 24.6392C24.1268 24.6392 23.7455 24.7462 23.4944 24.9601C23.2526 25.174 23.1317 25.4437 23.1317 25.7692C23.1317 26.1226 23.2572 26.4063 23.5083 26.6202C23.7687 26.8341 24.1129 27.0155 24.5407 27.1643L26.1171 27.7083C26.6286 27.885 27.0983 28.0989 27.5261 28.3501C27.9632 28.6012 28.3166 28.9313 28.5863 29.3405C28.856 29.7498 28.9909 30.2845 28.9909 30.9448C28.9909 31.94 28.6421 32.7352 27.9446 33.3304C27.2471 33.9163 26.2659 34.2093 25.001 34.2093ZM24.0943 35.6741V33.163H25.4893V35.6741H24.0943ZM24.0943 23.9557V21.4446H25.4893V23.9557H24.0943ZM30.6606 34V32.1585C31.4325 31.5726 32.1068 31.0471 32.6834 30.5821C33.26 30.1078 33.7529 29.6753 34.1621 29.2847C34.776 28.7081 35.2363 28.1873 35.5432 27.7223C35.8595 27.2573 36.0176 26.769 36.0176 26.2575C36.0176 25.7925 35.8827 25.4158 35.613 25.1275C35.3526 24.8299 34.9713 24.6811 34.4691 24.6811C33.9017 24.6811 33.4739 24.8671 33.1856 25.2391C32.8973 25.6018 32.7531 26.0854 32.7531 26.6899H30.6606C30.6606 25.9366 30.8047 25.2763 31.093 24.709C31.3813 24.1417 31.8092 23.7045 32.3765 23.3976C32.9531 23.0814 33.6646 22.9233 34.5109 22.9233C35.7106 22.9233 36.636 23.2302 37.2871 23.844C37.9474 24.4486 38.2775 25.2484 38.2775 26.2435C38.2775 26.9597 38.0915 27.62 37.7195 28.2245C37.3475 28.8197 36.7941 29.4475 36.0594 30.1078C35.7432 30.3961 35.3898 30.6937 34.9992 31.0006C34.6179 31.2983 34.2365 31.5726 33.8552 31.8237V32.1585H38.6403V34H30.6606ZM44.3974 34.1674C43.6813 34.1674 43.0768 34.0698 42.5839 33.8744C42.091 33.6698 41.691 33.4094 41.3841 33.0932C41.0772 32.777 40.8494 32.4422 40.7006 32.0888C40.5518 31.7261 40.4681 31.3866 40.4495 31.0704H42.6536C42.6815 31.275 42.7606 31.4796 42.8908 31.6842C43.0303 31.8888 43.2302 32.0609 43.4907 32.2004C43.7604 32.3399 44.0859 32.4096 44.4672 32.4096C45.0903 32.4096 45.546 32.2097 45.8343 31.8098C46.132 31.4099 46.2808 30.8983 46.2808 30.2752C46.2808 29.6335 46.118 29.1266 45.7925 28.7546C45.467 28.3826 45.0159 28.1966 44.4393 28.1966C44.1138 28.1966 43.8394 28.2571 43.6162 28.378C43.393 28.4989 43.2116 28.643 43.0721 28.8104C42.9419 28.9685 42.8443 29.1173 42.7792 29.2568H40.6308L41.2865 23.1186H47.7595V24.8764H43.0582L42.7513 27.4712H43.0861C43.2721 27.2015 43.5232 26.9922 43.8394 26.8434C44.1649 26.6853 44.5834 26.6062 45.095 26.6062C45.8018 26.6062 46.411 26.7597 46.9225 27.0666C47.434 27.3642 47.8293 27.7874 48.1083 28.3361C48.3966 28.8848 48.5407 29.5219 48.5407 30.2473C48.5407 31.0285 48.3733 31.7121 48.0385 32.298C47.7037 32.884 47.2247 33.3443 46.6016 33.6791C45.9878 34.0047 45.2531 34.1674 44.3974 34.1674ZM54.284 34.1953C52.8517 34.1953 51.7822 33.6977 51.0754 32.7026C50.3685 31.7075 50.0151 30.3264 50.0151 28.5593C50.0151 26.7922 50.3685 25.4112 51.0754 24.416C51.7822 23.4209 52.8517 22.9233 54.284 22.9233C55.7255 22.9233 56.7951 23.4209 57.4926 24.416C58.1994 25.4112 58.5528 26.7922 58.5528 28.5593C58.5528 30.3264 58.1994 31.7075 57.4926 32.7026C56.7951 33.6977 55.7255 34.1953 54.284 34.1953ZM54.284 32.3538C54.9443 32.3538 55.4279 32.0376 55.7348 31.4052C56.051 30.7728 56.2091 29.8242 56.2091 28.5593C56.2091 27.2945 56.051 26.3458 55.7348 25.7134C55.4279 25.081 54.9443 24.7648 54.284 24.7648C53.6237 24.7648 53.1354 25.081 52.8192 25.7134C52.5123 26.3458 52.3588 27.2945 52.3588 28.5593C52.3588 29.8242 52.5123 30.7728 52.8192 31.4052C53.1354 32.0376 53.6237 32.3538 54.284 32.3538ZM64.1008 34.1953C62.6685 34.1953 61.599 33.6977 60.8921 32.7026C60.1853 31.7075 59.8319 30.3264 59.8319 28.5593C59.8319 26.7922 60.1853 25.4112 60.8921 24.416C61.599 23.4209 62.6685 22.9233 64.1008 22.9233C65.5423 22.9233 66.6118 23.4209 67.3094 24.416C68.0162 25.4112 68.3696 26.7922 68.3696 28.5593C68.3696 30.3264 68.0162 31.7075 67.3094 32.7026C66.6118 33.6977 65.5423 34.1953 64.1008 34.1953ZM64.1008 32.3538C64.7611 32.3538 65.2447 32.0376 65.5516 31.4052C65.8678 30.7728 66.0259 29.8242 66.0259 28.5593C66.0259 27.2945 65.8678 26.3458 65.5516 25.7134C65.2447 25.081 64.7611 24.7648 64.1008 24.7648C63.4404 24.7648 62.9522 25.081 62.636 25.7134C62.329 26.3458 62.1756 27.2945 62.1756 28.5593C62.1756 29.8242 62.329 30.7728 62.636 31.4052C62.9522 32.0376 63.4404 32.3538 64.1008 32.3538Z" fill="#5B3303"/>
<path d="M22.9224 33.8744L22.5647 34.7329L22.5733 34.7365L22.5819 34.7399L22.9224 33.8744ZM21.5692 32.9677L22.252 32.3361L22.252 32.3361L21.5692 32.9677ZM20.8019 31.754L19.9311 32.0805L19.9334 32.0866L20.8019 31.754ZM20.509 30.4426V29.5126H19.5163L19.5809 30.5032L20.509 30.4426ZM22.6853 30.4426L23.6139 30.391L23.5651 29.5126H22.6853V30.4426ZM23.7594 32.1585L23.3004 32.9674L23.7594 32.1585ZM26.3124 32.0888L26.9332 32.7813L26.9345 32.7801L26.3124 32.0888ZM26.3542 30.1776L25.6966 30.8352L25.7028 30.8414L25.7091 30.8475L26.3542 30.1776ZM25.3777 29.6056L25.0715 30.4838L25.0776 30.4859L25.3777 29.6056ZM23.8571 29.0755L23.5432 29.951L23.5509 29.9537L23.8571 29.0755ZM22.4202 28.4477L21.9843 29.2693L21.9911 29.2728L22.4202 28.4477ZM21.3042 27.4851L20.5438 28.0208L20.5497 28.029L21.3042 27.4851ZM21.36 24.2765L20.6159 23.7184L20.6085 23.7286L21.36 24.2765ZM22.7271 23.2581L22.3841 22.3937L22.3793 22.3956L22.7271 23.2581ZM27.0239 23.3976L26.5552 24.201L26.5552 24.201L27.0239 23.3976ZM28.2375 24.6392L27.4057 25.0551L27.4104 25.0645L27.4152 25.0737L28.2375 24.6392ZM28.7119 26.1877V27.1178H29.7431L29.637 26.092L28.7119 26.1877ZM26.5356 26.1877L25.6079 26.254L25.6696 27.1178H26.5356V26.1877ZM26.3124 25.4484L25.4805 25.8643L25.4903 25.8838L25.5009 25.9028L26.3124 25.4484ZM23.4944 24.9601L22.8913 24.2521L22.8847 24.2577L22.8782 24.2635L23.4944 24.9601ZM23.5083 26.6202L22.9052 27.3282L22.9116 27.3336L22.918 27.3389L23.5083 26.6202ZM24.5407 27.1643L24.2351 28.0427L24.2372 28.0434L24.5407 27.1643ZM26.1171 27.7083L26.4207 26.8293L26.4205 26.8292L26.1171 27.7083ZM27.5261 28.3501L27.0553 29.1522L27.0628 29.1565L27.5261 28.3501ZM28.5863 29.3405L27.8098 29.8523L27.8098 29.8523L28.5863 29.3405ZM27.9446 33.3304L28.5428 34.0425L28.5483 34.0378L27.9446 33.3304ZM24.0943 35.6741H23.1642V36.6041H24.0943V35.6741ZM24.0943 33.163V32.2329H23.1642V33.163H24.0943ZM25.4893 33.163H26.4193V32.2329H25.4893V33.163ZM25.4893 35.6741V36.6041H26.4193V35.6741H25.4893ZM24.0943 23.9557H23.1642V24.8857H24.0943V23.9557ZM24.0943 21.4446V20.5145H23.1642V21.4446H24.0943ZM25.4893 21.4446H26.4193V20.5145H25.4893V21.4446ZM25.4893 23.9557V24.8857H26.4193V23.9557H25.4893ZM25.001 33.2792C24.2616 33.2792 23.6916 33.1777 23.2629 33.009L22.5819 34.7399C23.2879 35.0177 24.1036 35.1393 25.001 35.1393V33.2792ZM23.2801 33.016C22.822 32.8251 22.4895 32.5929 22.252 32.3361L20.8865 33.5992C21.3372 34.0864 21.9068 34.4588 22.5647 34.7329L23.2801 33.016ZM22.252 32.3361C21.9815 32.0438 21.7921 31.7391 21.6705 31.4213L19.9334 32.0866C20.1466 32.6431 20.4687 33.1475 20.8865 33.5992L22.252 32.3361ZM21.6728 31.4274C21.5338 31.0569 21.4584 30.7094 21.437 30.3821L19.5809 30.5032C19.6154 31.0315 19.7352 31.5582 19.9311 32.0805L21.6728 31.4274ZM20.509 31.3727H22.6853V29.5126H20.509V31.3727ZM21.7567 30.4942C21.7838 30.9824 21.9272 31.4436 22.1722 31.8693L23.7842 30.9412C23.6759 30.753 23.6239 30.5725 23.6139 30.391L21.7567 30.4942ZM22.1722 31.8693C22.4412 32.3363 22.8293 32.7 23.3004 32.9674L24.2185 31.3497C24.0014 31.2265 23.8687 31.0879 23.7842 30.9412L22.1722 31.8693ZM23.3004 32.9674C23.8219 33.2634 24.4244 33.3815 25.0568 33.3815V31.5215C24.6476 31.5215 24.3852 31.4443 24.2185 31.3497L23.3004 32.9674ZM25.0568 33.3815C25.7293 33.3815 26.4189 33.2424 26.9332 32.7813L25.6915 31.3963C25.6665 31.4188 25.519 31.5215 25.0568 31.5215V33.3815ZM26.9345 32.7801C27.4235 32.34 27.6609 31.7564 27.6609 31.1122H25.8009C25.8009 31.268 25.7593 31.3354 25.6902 31.3975L26.9345 32.7801ZM27.6609 31.1122C27.6609 30.5044 27.4506 29.9422 26.9993 29.5076L25.7091 30.8475C25.7601 30.8966 25.8009 30.9574 25.8009 31.1122H27.6609ZM27.0119 29.5199C26.6465 29.1546 26.1871 28.8989 25.6778 28.7253L25.0776 30.4859C25.3868 30.5913 25.5784 30.717 25.6966 30.8352L27.0119 29.5199ZM25.6839 28.7274L24.1633 28.1973L23.5509 29.9537L25.0715 30.4838L25.6839 28.7274ZM24.1709 28.2C23.7176 28.0375 23.2771 27.845 22.8493 27.6226L21.9911 29.2728C22.4933 29.534 23.0108 29.7601 23.5432 29.951L24.1709 28.2ZM22.8561 27.6262C22.5204 27.4481 22.2595 27.22 22.0586 26.9412L20.5497 28.029C20.9254 28.5501 21.4085 28.9637 21.9843 29.2692L22.8561 27.6262ZM22.0644 26.9495C21.9126 26.7339 21.8017 26.414 21.8017 25.9227H19.9417C19.9417 26.6961 20.1191 27.4179 20.5439 28.0208L22.0644 26.9495ZM21.8017 25.9227C21.8017 25.4324 21.9216 25.0848 22.1114 24.8245L20.6085 23.7286C20.1473 24.3611 19.9417 25.1109 19.9417 25.9227H21.8017ZM22.104 24.8345C22.3257 24.539 22.6372 24.2972 23.0749 24.1207L22.3793 22.3956C21.6638 22.6841 21.0639 23.1212 20.6159 23.7185L22.104 24.8345ZM23.0701 24.1226C23.5278 23.941 24.0777 23.8394 24.736 23.8394V21.9793C23.8876 21.9793 23.0982 22.1103 22.3841 22.3937L23.0701 24.1226ZM24.736 23.8394C25.6145 23.8394 26.1932 23.9898 26.5552 24.201L27.4925 22.5943C26.7385 22.1545 25.792 21.9793 24.736 21.9793V23.8394ZM26.5552 24.201C26.9812 24.4495 27.2471 24.7379 27.4057 25.0551L29.0694 24.2233C28.7258 23.5361 28.1825 22.9968 27.4925 22.5943L26.5552 24.201ZM27.4152 25.0737C27.6216 25.4643 27.7436 25.8658 27.7868 26.2834L29.637 26.092C29.5686 25.4308 29.3743 24.8 29.0599 24.2048L27.4152 25.0737ZM28.7119 25.2577H26.5356V27.1178H28.7119V25.2577ZM27.4633 26.1215C27.4347 25.7218 27.3194 25.3432 27.1238 24.9939L25.5009 25.9028C25.5658 26.0186 25.5993 26.1328 25.6079 26.254L27.4633 26.1215ZM27.1442 25.0324C26.9277 24.5994 26.5866 24.2748 26.1757 24.0481L25.2772 25.6767C25.4058 25.7477 25.4552 25.8137 25.4805 25.8643L27.1442 25.0324ZM26.1757 24.0481C25.7181 23.7956 25.1813 23.7092 24.6383 23.7092V25.5693C25.0068 25.5693 25.1954 25.6316 25.2772 25.6767L26.1757 24.0481ZM24.6383 23.7092C24.0218 23.7092 23.3818 23.8343 22.8913 24.2521L24.0975 25.6681C24.1092 25.6581 24.2318 25.5693 24.6383 25.5693V23.7092ZM22.8782 24.2635C22.4349 24.6556 22.2016 25.1798 22.2016 25.7692H24.0617C24.0617 25.7242 24.0694 25.7068 24.071 25.7032C24.0725 25.6999 24.0795 25.6842 24.1106 25.6567L22.8782 24.2635ZM22.2016 25.7692C22.2016 26.373 22.4304 26.9237 22.9052 27.3282L24.1114 25.9122C24.0853 25.8899 24.079 25.8767 24.0763 25.8706C24.0728 25.8628 24.0617 25.8343 24.0617 25.7692H22.2016ZM22.918 27.3389C23.2868 27.6418 23.7371 27.8695 24.2351 28.0427L24.8462 26.2859C24.4886 26.1615 24.2507 26.0264 24.0987 25.9015L22.918 27.3389ZM24.2372 28.0434L25.8137 28.5875L26.4205 26.8292L24.8441 26.2851L24.2372 28.0434ZM25.8134 28.5874C26.272 28.7458 26.685 28.9348 27.0553 29.1521L27.9969 27.548C27.5115 27.2631 26.9852 27.0243 26.4207 26.8293L25.8134 28.5874ZM27.0628 29.1565C27.3776 29.3374 27.6224 29.568 27.8098 29.8523L29.3628 28.8287C29.0108 28.2946 28.5487 27.865 27.9893 27.5436L27.0628 29.1565ZM27.8098 29.8523C27.9501 30.0653 28.0608 30.4048 28.0608 30.9448H29.9209C29.9209 30.1642 29.7619 29.4342 29.3628 28.8287L27.8098 29.8523ZM28.0608 30.9448C28.0608 31.694 27.8122 32.2208 27.3409 32.6229L28.5483 34.0378C29.4721 33.2495 29.9209 32.1859 29.9209 30.9448H28.0608ZM27.3464 32.6182C26.8713 33.0173 26.1315 33.2792 25.001 33.2792V35.1393C26.4003 35.1393 27.6228 34.8153 28.5428 34.0425L27.3464 32.6182ZM25.0243 35.6741V33.163H23.1642V35.6741H25.0243ZM24.0943 34.093H25.4893V32.2329H24.0943V34.093ZM24.5593 33.163V35.6741H26.4193V33.163H24.5593ZM25.4893 34.744H24.0943V36.6041H25.4893V34.744ZM25.0243 23.9557V21.4446H23.1642V23.9557H25.0243ZM24.0943 22.3746H25.4893V20.5145H24.0943V22.3746ZM24.5593 21.4446V23.9557H26.4193V21.4446H24.5593ZM25.4893 23.0256H24.0943V24.8857H25.4893V23.0256ZM30.6606 34H29.7305V34.93H30.6606V34ZM30.6606 32.1585L30.0983 31.4177L29.7305 31.6969V32.1585H30.6606ZM32.6834 30.5821L33.2673 31.3061L33.2742 31.3004L32.6834 30.5821ZM34.1621 29.2847L33.5254 28.6069L33.52 28.612L34.1621 29.2847ZM35.5432 27.7223L34.7741 27.1993L34.767 27.21L35.5432 27.7223ZM35.613 25.1275L34.9131 25.7399L34.9233 25.7516L34.9338 25.7628L35.613 25.1275ZM33.1856 25.2391L33.9137 25.8178L33.9207 25.8088L33.1856 25.2391ZM32.7531 26.6899V27.62H33.6832V26.6899H32.7531ZM30.6606 26.6899H29.7305V27.62H30.6606V26.6899ZM31.093 24.709L30.2639 24.2876L30.2639 24.2876L31.093 24.709ZM32.3765 23.3976L32.819 24.2156L32.8237 24.2131L32.3765 23.3976ZM37.2871 23.844L36.649 24.5208L36.659 24.53L37.2871 23.844ZM37.7195 28.2245L38.5082 28.7174L38.5116 28.7119L37.7195 28.2245ZM36.0594 30.1078L35.4377 29.4161L35.4328 29.4206L36.0594 30.1078ZM34.9992 31.0006L35.5714 31.7338L35.5738 31.7319L34.9992 31.0006ZM33.8552 31.8237L33.3437 31.047L32.9252 31.3226V31.8237H33.8552ZM33.8552 32.1585H32.9252V33.0886H33.8552V32.1585ZM38.6403 32.1585H39.5703V31.2285H38.6403V32.1585ZM38.6403 34V34.93H39.5703V34H38.6403ZM31.5906 34V32.1585H29.7305V34H31.5906ZM31.2229 32.8993C32 32.3095 32.6817 31.7782 33.2672 31.3061L32.0996 29.8582C31.5318 30.316 30.865 30.8358 30.0983 31.4177L31.2229 32.8993ZM33.2742 31.3004C33.8633 30.8158 34.3743 30.3679 34.8043 29.9575L33.52 28.612C33.1316 28.9828 32.6567 29.3998 32.0926 29.8639L33.2742 31.3004ZM34.7989 29.9626C35.4416 29.3589 35.9579 28.7824 36.3195 28.2346L34.767 27.21C34.5147 27.5922 34.1103 28.0574 33.5254 28.6069L34.7989 29.9626ZM36.3123 28.2452C36.7225 27.642 36.9476 26.974 36.9476 26.2575H35.0875C35.0875 26.564 34.9964 26.8725 34.7742 27.1993L36.3123 28.2452ZM36.9476 26.2575C36.9476 25.6012 36.7512 24.9828 36.2922 24.4921L34.9338 25.7628C35.0142 25.8488 35.0875 25.9837 35.0875 26.2575H36.9476ZM36.3129 24.5151C35.8305 23.9637 35.1617 23.751 34.4691 23.751V25.6111C34.7808 25.6111 34.8747 25.6961 34.9131 25.7399L36.3129 24.5151ZM34.4691 23.751C33.6801 23.751 32.9517 24.0226 32.4505 24.6694L33.9207 25.8088C33.9961 25.7115 34.1234 25.6111 34.4691 25.6111V23.751ZM32.4576 24.6604C32.0033 25.2319 31.8231 25.9398 31.8231 26.6899H33.6832C33.6832 26.2311 33.7913 25.9717 33.9137 25.8178L32.4576 24.6604ZM32.7531 25.7599H30.6606V27.62H32.7531V25.7599ZM31.5906 26.6899C31.5906 26.0563 31.7113 25.5452 31.9221 25.1303L30.2639 24.2876C29.8981 25.0074 29.7305 25.817 29.7305 26.6899H31.5906ZM31.9221 25.1303C32.1236 24.7338 32.4154 24.434 32.819 24.2156L31.934 22.5796C31.2029 22.9751 30.6391 23.5495 30.2639 24.2876L31.9221 25.1303ZM32.8237 24.2131C33.2294 23.9906 33.7772 23.8533 34.5109 23.8533V21.9933C33.552 21.9933 32.6768 22.1723 31.9293 22.5822L32.8237 24.2131ZM34.5109 23.8533C35.5561 23.8533 36.2226 24.1186 36.649 24.5207L37.9251 23.1674C37.0495 22.3418 35.8652 21.9933 34.5109 21.9933V23.8533ZM36.659 24.53C37.1043 24.9377 37.3475 25.477 37.3475 26.2435H39.2076C39.2076 25.0198 38.7904 23.9595 37.9151 23.1581L36.659 24.53ZM37.3475 26.2435C37.3475 26.7892 37.2084 27.2805 36.9274 27.7371L38.5116 28.7119C38.9746 27.9595 39.2076 27.1301 39.2076 26.2435H37.3475ZM36.9309 27.7316C36.6194 28.2299 36.1319 28.7923 35.4377 29.4161L36.6811 30.7995C37.4564 30.1027 38.0756 29.4096 38.5082 28.7174L36.9309 27.7316ZM35.4328 29.4206C35.1358 29.6914 34.8001 29.9743 34.4246 30.2693L35.5738 31.7319C35.9795 31.4132 36.3506 31.1009 36.686 30.7951L35.4328 29.4206ZM34.427 30.2675C34.0641 30.5507 33.703 30.8104 33.3437 31.047L34.3667 32.6005C34.7701 32.3349 35.1716 32.0458 35.5714 31.7338L34.427 30.2675ZM32.9252 31.8237V32.1585H34.7853V31.8237H32.9252ZM33.8552 33.0886H38.6403V31.2285H33.8552V33.0886ZM37.7102 32.1585V34H39.5703V32.1585H37.7102ZM38.6403 33.07H30.6606V34.93H38.6403V33.07ZM42.5839 33.8744L42.2273 34.7334L42.2343 34.7363L42.2413 34.7391L42.5839 33.8744ZM41.3841 33.0932L42.0515 32.4455L42.0515 32.4455L41.3841 33.0932ZM40.7006 32.0888L39.8401 32.4418L39.8434 32.4497L40.7006 32.0888ZM40.4495 31.0704V30.1404H39.4631L39.521 31.125L40.4495 31.0704ZM42.6536 31.0704L43.5751 30.9447L43.4654 30.1404H42.6536V31.0704ZM42.8908 31.6842L42.1062 32.1835L42.1141 32.196L42.1224 32.2081L42.8908 31.6842ZM43.4907 32.2004L43.0514 33.0203L43.0634 33.0265L43.4907 32.2004ZM45.8343 31.8098L45.0882 31.2545L45.0799 31.2659L45.8343 31.8098ZM43.6162 28.378L44.0592 29.1957L43.6162 28.378ZM43.0721 28.8104L42.3577 28.215L42.3542 28.2192L43.0721 28.8104ZM42.7792 29.2568V30.1869H43.3715L43.622 29.6501L42.7792 29.2568ZM40.6308 29.2568L39.706 29.1581L39.5961 30.1869H40.6308V29.2568ZM41.2865 23.1186V22.1886H40.4505L40.3617 23.0198L41.2865 23.1186ZM47.7595 23.1186H48.6895V22.1886H47.7595V23.1186ZM47.7595 24.8764V25.8064H48.6895V24.8764H47.7595ZM43.0582 24.8764V23.9464H42.2317L42.1346 24.7671L43.0582 24.8764ZM42.7513 27.4712L41.8277 27.3619L41.7048 28.4012H42.7513V27.4712ZM43.0861 27.4712V28.4012H43.5745L43.8517 27.9992L43.0861 27.4712ZM43.8394 26.8434L44.2355 27.685L44.2458 27.68L43.8394 26.8434ZM46.9225 27.0666L46.4439 27.8642L46.4548 27.8705L46.9225 27.0666ZM48.1083 28.3361L47.2792 28.7577L47.285 28.7687L48.1083 28.3361ZM48.0385 32.298L47.231 31.8366L47.231 31.8366L48.0385 32.298ZM46.6016 33.6791L47.0373 34.5008L47.0418 34.4984L46.6016 33.6791ZM44.3974 33.2374C43.76 33.2374 43.2794 33.1497 42.9265 33.0098L42.2413 34.7391C42.8742 34.9898 43.6026 35.0974 44.3974 35.0974V33.2374ZM42.9404 33.0155C42.5403 32.8494 42.2537 32.6538 42.0515 32.4455L40.7168 33.741C41.1284 34.165 41.6416 34.4903 42.2273 34.7334L42.9404 33.0155ZM42.0515 32.4455C41.8133 32.2 41.6555 31.9601 41.5577 31.7279L39.8434 32.4497C40.0433 32.9243 40.3412 33.354 40.7168 33.741L42.0515 32.4455ZM41.561 31.7358C41.4423 31.4464 41.3892 31.2084 41.3779 31.0158L39.521 31.125C39.5469 31.5648 39.6612 32.0057 39.8401 32.4418L41.561 31.7358ZM40.4495 32.0004H42.6536V30.1404H40.4495V32.0004ZM41.7321 31.1961C41.7811 31.5548 41.9164 31.8853 42.1062 32.1835L43.6754 31.1849C43.6048 31.074 43.582 30.9952 43.5751 30.9447L41.7321 31.1961ZM42.1224 32.2081C42.361 32.5582 42.6844 32.8236 43.0515 33.0202L43.9298 31.3806C43.7761 31.2982 43.6996 31.2195 43.6592 31.1603L42.1224 32.2081ZM43.0634 33.0265C43.4946 33.2495 43.9744 33.3397 44.4672 33.3397V31.4796C44.1974 31.4796 44.0261 31.4303 43.9179 31.3743L43.0634 33.0265ZM44.4672 33.3397C45.3014 33.3397 46.0799 33.0594 46.5888 32.3537L45.0799 31.2659C45.0121 31.3599 44.8792 31.4796 44.4672 31.4796V33.3397ZM46.5804 32.365C47.0246 31.7682 47.2108 31.0477 47.2108 30.2752H45.3507C45.3507 30.749 45.2393 31.0515 45.0882 31.2545L46.5804 32.365ZM47.2108 30.2752C47.2108 29.4769 47.006 28.7291 46.4924 28.1422L45.0926 29.367C45.23 29.5241 45.3507 29.7901 45.3507 30.2752H47.2108ZM46.4924 28.1422C45.9602 27.534 45.2348 27.2666 44.4393 27.2666V29.1266C44.797 29.1266 44.9737 29.2312 45.0926 29.367L46.4924 28.1422ZM44.4393 27.2666C44.0016 27.2666 43.5655 27.3477 43.1733 27.5602L44.0592 29.1957C44.1133 29.1664 44.2259 29.1266 44.4393 29.1266V27.2666ZM43.1733 27.5602C42.8631 27.7282 42.5841 27.9433 42.3577 28.215L43.7866 29.4058C43.8392 29.3427 43.9229 29.2695 44.0592 29.1957L43.1733 27.5602ZM42.3542 28.2192C42.1895 28.4192 42.0435 28.6341 41.9364 28.8635L43.622 29.6501C43.6451 29.6005 43.6943 29.5179 43.7901 29.4016L42.3542 28.2192ZM42.7792 28.3268H40.6308V30.1869H42.7792V28.3268ZM41.5556 29.3556L42.2113 23.2174L40.3617 23.0198L39.706 29.1581L41.5556 29.3556ZM41.2865 24.0487H47.7595V22.1886H41.2865V24.0487ZM46.8295 23.1186V24.8764H48.6895V23.1186H46.8295ZM47.7595 23.9464H43.0582V25.8064H47.7595V23.9464ZM42.1346 24.7671L41.8277 27.3619L43.6749 27.5804L43.9818 24.9856L42.1346 24.7671ZM42.7513 28.4012H43.0861V26.5411H42.7513V28.4012ZM43.8517 27.9992C43.9381 27.8739 44.0577 27.7686 44.2354 27.6849L43.4434 26.0019C42.9887 26.2159 42.6061 26.5291 42.3205 26.9432L43.8517 27.9992ZM44.2458 27.68C44.4034 27.6034 44.6698 27.5363 45.095 27.5363V25.6762C44.4971 25.6762 43.9264 25.7672 43.4331 26.0068L44.2458 27.68ZM45.095 27.5363C45.6647 27.5363 46.1018 27.6588 46.444 27.8641L47.401 26.2691C46.7202 25.8606 45.9389 25.6762 45.095 25.6762V27.5363ZM46.4548 27.8705C46.8051 28.0743 47.0779 28.3617 47.2793 28.7576L48.9373 27.9146C48.5806 27.213 48.0629 26.6541 47.3902 26.2627L46.4548 27.8705ZM47.285 28.7687C47.4921 29.163 47.6107 29.6469 47.6107 30.2473H49.4708C49.4708 29.3969 49.301 28.6067 48.9316 27.9035L47.285 28.7687ZM47.6107 30.2473C47.6107 30.8925 47.4736 31.412 47.231 31.8366L48.846 32.7595C49.273 32.0122 49.4708 31.1646 49.4708 30.2473H47.6107ZM47.231 31.8366C46.987 32.2637 46.6388 32.6034 46.1614 32.8599L47.0418 34.4984C47.8107 34.0853 48.4204 33.5042 48.846 32.7595L47.231 31.8366ZM46.1659 32.8575C45.7139 33.0972 45.1358 33.2374 44.3974 33.2374V35.0974C45.3703 35.0974 46.2617 34.9121 47.0373 34.5008L46.1659 32.8575ZM51.0754 32.7026L50.3171 33.2412L51.0754 32.7026ZM51.0754 24.416L51.8336 24.9546L51.8336 24.9546L51.0754 24.416ZM57.4926 24.416L56.731 24.9498L56.7344 24.9546L57.4926 24.416ZM57.4926 32.7026L56.7343 32.164L56.731 32.1688L57.4926 32.7026ZM55.7348 31.4052L54.9029 30.9893L54.8981 30.9992L55.7348 31.4052ZM55.7348 25.7134L54.8981 26.1195L54.903 26.1293L55.7348 25.7134ZM52.8192 25.7134L51.9873 25.2975L51.9825 25.3074L52.8192 25.7134ZM52.8192 31.4052L51.9824 31.8113L51.9873 31.8211L52.8192 31.4052ZM54.284 33.2653C53.0932 33.2653 52.3341 32.8686 51.8336 32.164L50.3171 33.2412C51.2303 34.5268 52.6102 35.1253 54.284 35.1253V33.2653ZM51.8336 32.164C51.2784 31.3824 50.9452 30.2161 50.9452 28.5593H49.0851C49.0851 30.4366 49.4587 32.0325 50.3171 33.2412L51.8336 32.164ZM50.9452 28.5593C50.9452 26.9025 51.2784 25.7362 51.8336 24.9546L50.3171 23.8775C49.4587 25.0861 49.0851 26.682 49.0851 28.5593H50.9452ZM51.8336 24.9546C52.3341 24.25 53.0932 23.8533 54.284 23.8533V21.9933C52.6102 21.9933 51.2303 22.5918 50.3171 23.8775L51.8336 24.9546ZM54.284 23.8533C55.4868 23.8533 56.2416 24.2516 56.731 24.9498L58.2542 23.8822C57.3486 22.5902 55.9643 21.9933 54.284 21.9933V23.8533ZM56.7344 24.9546C57.2895 25.7362 57.6228 26.9025 57.6228 28.5593H59.4829C59.4829 26.682 59.1093 25.0861 58.2508 23.8775L56.7344 24.9546ZM57.6228 28.5593C57.6228 30.2161 57.2895 31.3824 56.7344 32.164L58.2508 33.2412C59.1093 32.0325 59.4829 30.4366 59.4829 28.5593H57.6228ZM56.731 32.1688C56.2416 32.8671 55.4868 33.2653 54.284 33.2653V35.1253C55.9643 35.1253 57.3486 34.5284 58.2542 33.2364L56.731 32.1688ZM54.284 33.2839C54.7684 33.2839 55.237 33.1657 55.6509 32.8951C56.0613 32.6267 56.3605 32.2462 56.5715 31.8113L54.8981 30.9992C54.8023 31.1967 54.7061 31.2904 54.633 31.3383C54.5632 31.3839 54.4599 31.4238 54.284 31.4238V33.2839ZM56.5667 31.8211C56.9801 30.9944 57.1392 29.8717 57.1392 28.5593H55.2791C55.2791 29.7767 55.122 30.5512 54.903 30.9893L56.5667 31.8211ZM57.1392 28.5593C57.1392 27.247 56.9801 26.1243 56.5667 25.2975L54.903 26.1293C55.122 26.5674 55.2791 27.342 55.2791 28.5593H57.1392ZM56.5715 25.3074C56.3605 24.8725 56.0613 24.4919 55.6509 24.2235C55.237 23.9529 54.7684 23.8347 54.284 23.8347V25.6948C54.4599 25.6948 54.5632 25.7348 54.633 25.7803C54.7061 25.8282 54.8023 25.9219 54.8981 26.1195L56.5715 25.3074ZM54.284 23.8347C53.7994 23.8347 53.3313 23.953 52.917 24.2213C52.5063 24.4873 52.2037 24.8647 51.9873 25.2975L53.651 26.1293C53.7508 25.9297 53.8505 25.8328 53.9281 25.7826C54.002 25.7347 54.1083 25.6948 54.284 25.6948V23.8347ZM51.9825 25.3074C51.5829 26.1306 51.4288 27.249 51.4288 28.5593H53.2888C53.2888 27.3399 53.4416 26.5611 53.6559 26.1195L51.9825 25.3074ZM51.4288 28.5593C51.4288 29.8696 51.5829 30.988 51.9825 31.8113L53.6559 30.9992C53.4416 30.5576 53.2888 29.7787 53.2888 28.5593H51.4288ZM51.9873 31.8211C52.2037 32.2539 52.5063 32.6313 52.917 32.8973C53.3313 33.1657 53.7994 33.2839 54.284 33.2839V31.4238C54.1083 31.4238 54.002 31.3839 53.9281 31.3361C53.8505 31.2858 53.7508 31.1889 53.651 30.9893L51.9873 31.8211ZM60.8921 32.7026L60.1339 33.2412L60.8921 32.7026ZM60.8921 24.416L61.6504 24.9546L61.6504 24.9546L60.8921 24.416ZM67.3094 24.416L66.5478 24.9498L66.5511 24.9546L67.3094 24.416ZM67.3094 32.7026L66.5511 32.164L66.5478 32.1688L67.3094 32.7026ZM65.5516 31.4052L64.7197 30.9893L64.7149 30.9992L65.5516 31.4052ZM65.5516 25.7134L64.7148 26.1195L64.7198 26.1293L65.5516 25.7134ZM62.636 25.7134L61.804 25.2975L61.7992 25.3074L62.636 25.7134ZM62.636 31.4052L61.7992 31.8113L61.8041 31.8211L62.636 31.4052ZM64.1008 33.2653C62.91 33.2653 62.1508 32.8686 61.6504 32.164L60.1339 33.2412C61.0471 34.5268 62.427 35.1253 64.1008 35.1253V33.2653ZM61.6504 32.164C61.0952 31.3824 60.7619 30.2161 60.7619 28.5593H58.9019C58.9019 30.4366 59.2754 32.0325 60.1339 33.2412L61.6504 32.164ZM60.7619 28.5593C60.7619 26.9025 61.0952 25.7362 61.6504 24.9546L60.1339 23.8775C59.2754 25.0861 58.9019 26.682 58.9019 28.5593H60.7619ZM61.6504 24.9546C62.1508 24.25 62.91 23.8533 64.1008 23.8533V21.9933C62.427 21.9933 61.0471 22.5918 60.1339 23.8775L61.6504 24.9546ZM64.1008 23.8533C65.3035 23.8533 66.0583 24.2516 66.5478 24.9498L68.0709 23.8822C67.1653 22.5902 65.7811 21.9933 64.1008 21.9933V23.8533ZM66.5511 24.9546C67.1063 25.7362 67.4396 26.9025 67.4396 28.5593H69.2996C69.2996 26.682 68.9261 25.0861 68.0676 23.8775L66.5511 24.9546ZM67.4396 28.5593C67.4396 30.2161 67.1063 31.3824 66.5511 32.164L68.0676 33.2412C68.9261 32.0325 69.2996 30.4366 69.2996 28.5593H67.4396ZM66.5478 32.1688C66.0583 32.8671 65.3035 33.2653 64.1008 33.2653V35.1253C65.7811 35.1253 67.1653 34.5284 68.0709 33.2364L66.5478 32.1688ZM64.1008 33.2839C64.5852 33.2839 65.0538 33.1657 65.4677 32.8951C65.8781 32.6267 66.1773 32.2462 66.3883 31.8113L64.7149 30.9992C64.619 31.1967 64.5229 31.2904 64.4497 31.3383C64.38 31.3839 64.2767 31.4238 64.1008 31.4238V33.2839ZM66.3835 31.8211C66.7968 30.9944 66.956 29.8717 66.956 28.5593H65.0959C65.0959 29.7767 64.9388 30.5512 64.7198 30.9893L66.3835 31.8211ZM66.956 28.5593C66.956 27.247 66.7968 26.1243 66.3835 25.2975L64.7198 26.1293C64.9388 26.5674 65.0959 27.342 65.0959 28.5593H66.956ZM66.3883 25.3074C66.1773 24.8725 65.8781 24.4919 65.4677 24.2235C65.0538 23.9529 64.5852 23.8347 64.1008 23.8347V25.6948C64.2767 25.6948 64.38 25.7348 64.4497 25.7803C64.5229 25.8282 64.619 25.9219 64.7149 26.1195L66.3883 25.3074ZM64.1008 23.8347C63.6161 23.8347 63.1481 23.953 62.7338 24.2213C62.323 24.4873 62.0205 24.8647 61.8041 25.2975L63.4678 26.1293C63.5676 25.9297 63.6673 25.8328 63.7449 25.7826C63.8188 25.7347 63.925 25.6948 64.1008 25.6948V23.8347ZM61.7992 25.3074C61.3997 26.1306 61.2456 27.249 61.2456 28.5593H63.1056C63.1056 27.3399 63.2584 26.5611 63.4727 26.1195L61.7992 25.3074ZM61.2456 28.5593C61.2456 29.8696 61.3997 30.988 61.7992 31.8113L63.4727 30.9992C63.2584 30.5576 63.1056 29.7787 63.1056 28.5593H61.2456ZM61.8041 31.8211C62.0205 32.2539 62.323 32.6313 62.7338 32.8973C63.1481 33.1657 63.6161 33.2839 64.1008 33.2839V31.4238C63.925 31.4238 63.8188 31.3839 63.7449 31.3361C63.6673 31.2858 63.5676 31.1889 63.4678 30.9893L61.8041 31.8211Z" fill="white" mask="url(#path-23-outside-3_8072_128042)"/>
</svg>
