<svg width="90" height="92" viewBox="0 0 90 92" fill="none" xmlns="http://www.w3.org/2000/svg">
<path d="M36.3878 83.3824C55.9217 88.6165 76.0827 76.5083 81.4653 56.4202C86.8479 36.3321 75.442 15.7656 55.9081 10.5315C36.3742 5.29739 16.2132 17.4056 10.8306 37.4937C5.44798 57.5818 16.8538 78.1483 36.3878 83.3824Z" fill="#A56402" stroke="#5B3303" stroke-width="2"/>
<path d="M34.0928 81.0895C53.6268 86.3236 73.7878 74.2154 79.1704 54.1273C84.553 34.0392 73.1471 13.4726 53.6132 8.23852C34.0793 3.00442 13.9182 15.1126 8.53565 35.2007C3.15306 55.2888 14.5589 75.8554 34.0928 81.0895Z" fill="#FFB423" stroke="#5B3303" stroke-width="2"/>
<path d="M35.8744 74.4403C51.743 78.6923 68.1249 68.7545 72.5217 52.3453C76.9186 35.936 67.7004 19.1387 51.8317 14.8867C35.9631 10.6347 19.5812 20.5725 15.1843 36.9818C10.7875 53.391 20.0057 70.1883 35.8744 74.4403Z" fill="#FFCF23" stroke="#DF8D12" stroke-width="2"/>
<path fill-rule="evenodd" clip-rule="evenodd" d="M65.1752 24.25C62.0199 21.4332 58.2015 19.3046 53.8751 18.1453C38.5753 14.0458 22.716 23.6215 18.4525 39.5333C15.7036 49.7924 18.4461 60.1807 24.8424 67.3656C16.8392 60.221 13.1016 48.6488 16.1595 37.2364C20.4231 21.3246 36.2823 11.7489 51.5821 15.8485C57.0174 17.3048 61.6509 20.2912 65.1752 24.25Z" fill="#FFDD65"/>
<path d="M35.8232 11.484C25.1671 14.4251 16.5837 22.3623 12.7517 32.6172" stroke="#FFD179" stroke-width="2" stroke-linecap="round" stroke-linejoin="round"/>
<path d="M61.7373 73.3443C65.7831 70.6543 69.2271 67.1311 71.8244 63.0195" stroke="#FFD179" stroke-width="2" stroke-linecap="round" stroke-linejoin="round"/>
<path d="M24.3522 17.1289C24.3522 17.1289 20.9106 19.4233 18.6162 22.8649" stroke="#FFF3D2" stroke-width="2" stroke-linecap="round" stroke-linejoin="round"/>
<path d="M28.9401 22.8672C28.9401 22.8672 25.4985 25.1616 23.2041 28.6032" stroke="white" stroke-width="2" stroke-linecap="round" stroke-linejoin="round"/>
<mask id="path-9-outside-1_7305_57644" maskUnits="userSpaceOnUse" x="31.0625" y="37.1992" width="25" height="17" fill="black">
<rect fill="white" x="31.0625" y="37.1992" width="25" height="17"/>
<path d="M37.699 52.4159C36.8545 52.4159 36.1156 52.2992 35.4823 52.0659C34.8601 51.8326 34.3378 51.5159 33.9156 51.1159C33.5045 50.7159 33.199 50.2659 32.999 49.7659C32.799 49.2659 32.699 48.7437 32.699 48.1992H35.3323C35.3878 48.7548 35.6045 49.2492 35.9823 49.6826C36.3712 50.1048 36.9434 50.3159 37.699 50.3159C38.4101 50.3159 38.9434 50.127 39.299 49.7492C39.6545 49.3714 39.8323 48.9159 39.8323 48.3826C39.8323 47.6937 39.5545 47.1603 38.999 46.7826C38.4434 46.3937 37.6934 46.1992 36.749 46.1992H36.1656V44.3659L37.6323 42.7992C37.8323 42.5881 38.0323 42.3881 38.2323 42.1992C38.4434 42.0103 38.6601 41.8437 38.8823 41.6992V41.2992H33.4323V39.1992H41.9323V41.3992L38.9656 44.3159V44.7159C40.0656 44.8826 40.9323 45.2659 41.5656 45.8659C42.2101 46.4659 42.5323 47.2881 42.5323 48.3326C42.5323 49.1548 42.3323 49.8714 41.9323 50.4826C41.5323 51.0937 40.9712 51.5714 40.249 51.9159C39.5267 52.2492 38.6767 52.4159 37.699 52.4159ZM49.4604 52.4326C47.7493 52.4326 46.4715 51.8381 45.6271 50.6492C44.7826 49.4603 44.3604 47.8103 44.3604 45.6992C44.3604 43.5881 44.7826 41.9381 45.6271 40.7492C46.4715 39.5603 47.7493 38.9659 49.4604 38.9659C51.1826 38.9659 52.4604 39.5603 53.2937 40.7492C54.1382 41.9381 54.5604 43.5881 54.5604 45.6992C54.5604 47.8103 54.1382 49.4603 53.2937 50.6492C52.4604 51.8381 51.1826 52.4326 49.4604 52.4326ZM49.4604 50.2326C50.2493 50.2326 50.8271 49.8548 51.1937 49.0992C51.5715 48.3437 51.7604 47.2103 51.7604 45.6992C51.7604 44.1881 51.5715 43.0548 51.1937 42.2992C50.8271 41.5437 50.2493 41.1659 49.4604 41.1659C48.6715 41.1659 48.0882 41.5437 47.7104 42.2992C47.3437 43.0548 47.1604 44.1881 47.1604 45.6992C47.1604 47.2103 47.3437 48.3437 47.7104 49.0992C48.0882 49.8548 48.6715 50.2326 49.4604 50.2326Z"/>
</mask>
<path d="M37.699 52.4159C36.8545 52.4159 36.1156 52.2992 35.4823 52.0659C34.8601 51.8326 34.3378 51.5159 33.9156 51.1159C33.5045 50.7159 33.199 50.2659 32.999 49.7659C32.799 49.2659 32.699 48.7437 32.699 48.1992H35.3323C35.3878 48.7548 35.6045 49.2492 35.9823 49.6826C36.3712 50.1048 36.9434 50.3159 37.699 50.3159C38.4101 50.3159 38.9434 50.127 39.299 49.7492C39.6545 49.3714 39.8323 48.9159 39.8323 48.3826C39.8323 47.6937 39.5545 47.1603 38.999 46.7826C38.4434 46.3937 37.6934 46.1992 36.749 46.1992H36.1656V44.3659L37.6323 42.7992C37.8323 42.5881 38.0323 42.3881 38.2323 42.1992C38.4434 42.0103 38.6601 41.8437 38.8823 41.6992V41.2992H33.4323V39.1992H41.9323V41.3992L38.9656 44.3159V44.7159C40.0656 44.8826 40.9323 45.2659 41.5656 45.8659C42.2101 46.4659 42.5323 47.2881 42.5323 48.3326C42.5323 49.1548 42.3323 49.8714 41.9323 50.4826C41.5323 51.0937 40.9712 51.5714 40.249 51.9159C39.5267 52.2492 38.6767 52.4159 37.699 52.4159ZM49.4604 52.4326C47.7493 52.4326 46.4715 51.8381 45.6271 50.6492C44.7826 49.4603 44.3604 47.8103 44.3604 45.6992C44.3604 43.5881 44.7826 41.9381 45.6271 40.7492C46.4715 39.5603 47.7493 38.9659 49.4604 38.9659C51.1826 38.9659 52.4604 39.5603 53.2937 40.7492C54.1382 41.9381 54.5604 43.5881 54.5604 45.6992C54.5604 47.8103 54.1382 49.4603 53.2937 50.6492C52.4604 51.8381 51.1826 52.4326 49.4604 52.4326ZM49.4604 50.2326C50.2493 50.2326 50.8271 49.8548 51.1937 49.0992C51.5715 48.3437 51.7604 47.2103 51.7604 45.6992C51.7604 44.1881 51.5715 43.0548 51.1937 42.2992C50.8271 41.5437 50.2493 41.1659 49.4604 41.1659C48.6715 41.1659 48.0882 41.5437 47.7104 42.2992C47.3437 43.0548 47.1604 44.1881 47.1604 45.6992C47.1604 47.2103 47.3437 48.3437 47.7104 49.0992C48.0882 49.8548 48.6715 50.2326 49.4604 50.2326Z" fill="#5B3303"/>
<path d="M35.4823 52.0659L35.1312 53.0022L35.1366 53.0042L35.4823 52.0659ZM33.9156 51.1159L33.2182 51.8327L33.2279 51.8418L33.9156 51.1159ZM32.999 49.7659L33.9274 49.3945L33.9274 49.3945L32.999 49.7659ZM32.699 48.1992V47.1992H31.699V48.1992H32.699ZM35.3323 48.1992L36.3273 48.0997L36.2373 47.1992H35.3323V48.1992ZM35.9823 49.6826L35.2285 50.3397L35.2375 50.35L35.2467 50.36L35.9823 49.6826ZM38.999 46.7826L38.4254 47.6019L38.4366 47.6095L38.999 46.7826ZM36.1656 46.1992H35.1656V47.1992H36.1656V46.1992ZM36.1656 44.3659L35.4356 43.6825L35.1656 43.9708V44.3659H36.1656ZM37.6323 42.7992L36.9063 42.1115L36.9023 42.1158L37.6323 42.7992ZM38.2323 42.1992L37.5655 41.454L37.5555 41.463L37.5457 41.4722L38.2323 42.1992ZM38.8823 41.6992L39.4273 42.5377L39.8823 42.2419V41.6992H38.8823ZM38.8823 41.2992H39.8823V40.2992H38.8823V41.2992ZM33.4323 41.2992H32.4323V42.2992H33.4323V41.2992ZM33.4323 39.1992V38.1992H32.4323V39.1992H33.4323ZM41.9323 39.1992H42.9323V38.1992H41.9323V39.1992ZM41.9323 41.3992L42.6334 42.1123L42.9323 41.8184V41.3992H41.9323ZM38.9656 44.3159L38.2645 43.6028L37.9656 43.8967V44.3159H38.9656ZM38.9656 44.7159H37.9656V45.5758L38.8158 45.7046L38.9656 44.7159ZM41.5656 45.8659L40.8779 46.5919L40.8842 46.5978L41.5656 45.8659ZM41.9323 50.4826L41.0956 49.9349L41.0956 49.9349L41.9323 50.4826ZM40.249 51.9159L40.668 52.8239L40.6794 52.8185L40.249 51.9159ZM37.699 51.4159C36.944 51.4159 36.3268 51.3113 35.828 51.1275L35.1366 53.0042C35.9045 53.2871 36.765 53.4159 37.699 53.4159V51.4159ZM35.8334 51.1296C35.3186 50.9365 34.9157 50.6858 34.6034 50.3899L33.2279 51.8418C33.76 52.3459 34.4015 52.7286 35.1312 53.0022L35.8334 51.1296ZM34.613 50.3992C34.2956 50.0903 34.0721 49.7561 33.9274 49.3945L32.0705 50.1373C32.3258 50.7756 32.7134 51.3414 33.2183 51.8326L34.613 50.3992ZM33.9274 49.3945C33.7752 49.0139 33.699 48.6179 33.699 48.1992H31.699C31.699 48.8694 31.8227 49.5178 32.0705 50.1373L33.9274 49.3945ZM32.699 49.1992H35.3323V47.1992H32.699V49.1992ZM34.3373 48.2987C34.4141 49.0671 34.7187 49.7549 35.2285 50.3397L36.7361 49.0254C36.4903 48.7435 36.3616 48.4424 36.3273 48.0997L34.3373 48.2987ZM35.2467 50.36C35.8799 51.0474 36.7569 51.3159 37.699 51.3159V49.3159C37.1299 49.3159 36.8625 49.1621 36.7178 49.0051L35.2467 50.36ZM37.699 51.3159C38.5802 51.3159 39.4208 51.0789 40.0272 50.4346L38.5708 49.0639C38.466 49.1751 38.2399 49.3159 37.699 49.3159V51.3159ZM40.0272 50.4346C40.5626 49.8656 40.8323 49.1627 40.8323 48.3826H38.8323C38.8323 48.6691 38.7464 48.8773 38.5708 49.0639L40.0272 50.4346ZM40.8323 48.3826C40.8323 47.3726 40.3988 46.5252 39.5613 45.9556L38.4366 47.6095C38.7102 47.7955 38.8323 48.0147 38.8323 48.3826H40.8323ZM39.5724 45.9633C38.7945 45.4187 37.8204 45.1992 36.749 45.1992V47.1992C37.5664 47.1992 38.0923 47.3686 38.4255 47.6018L39.5724 45.9633ZM36.749 45.1992H36.1656V47.1992H36.749V45.1992ZM37.1656 46.1992V44.3659H35.1656V46.1992H37.1656ZM36.8956 45.0493L38.3623 43.4826L36.9023 42.1158L35.4356 43.6825L36.8956 45.0493ZM38.3582 43.487C38.5462 43.2885 38.7331 43.1017 38.9189 42.9262L37.5457 41.4722C37.3315 41.6745 37.1184 41.8877 36.9063 42.1115L38.3582 43.487ZM38.8991 42.9445C39.0746 42.7874 39.2508 42.6524 39.4273 42.5377L38.3373 40.8608C38.0693 41.035 37.8122 41.2333 37.5655 41.454L38.8991 42.9445ZM39.8823 41.6992V41.2992H37.8823V41.6992H39.8823ZM38.8823 40.2992H33.4323V42.2992H38.8823V40.2992ZM34.4323 41.2992V39.1992H32.4323V41.2992H34.4323ZM33.4323 40.1992H41.9323V38.1992H33.4323V40.1992ZM40.9323 39.1992V41.3992H42.9323V39.1992H40.9323ZM41.2312 40.6861L38.2645 43.6028L39.6667 45.029L42.6334 42.1123L41.2312 40.6861ZM37.9656 44.3159V44.7159H39.9656V44.3159H37.9656ZM38.8158 45.7046C39.7694 45.8491 40.429 46.1666 40.8779 46.5918L42.2534 45.1399C41.4356 44.3652 40.3618 43.916 39.1154 43.7272L38.8158 45.7046ZM40.8842 46.5978C41.2877 46.9735 41.5323 47.5096 41.5323 48.3326H43.5323C43.5323 47.0667 43.1324 45.9583 42.247 45.134L40.8842 46.5978ZM41.5323 48.3326C41.5323 48.9855 41.376 49.5065 41.0956 49.9349L42.769 51.0302C43.2886 50.2364 43.5323 49.3241 43.5323 48.3326H41.5323ZM41.0956 49.9349C40.8054 50.3783 40.3917 50.7399 39.8185 51.0133L40.6794 52.8185C41.5507 52.403 42.2592 51.8091 42.769 51.0302L41.0956 49.9349ZM39.8299 51.0079C39.2656 51.2684 38.5644 51.4159 37.699 51.4159V53.4159C38.789 53.4159 39.7879 53.2301 40.668 52.8238L39.8299 51.0079ZM45.6271 50.6492L44.8118 51.2283L45.6271 50.6492ZM45.6271 40.7492L46.4424 41.3283L46.4424 41.3283L45.6271 40.7492ZM53.2937 40.7492L52.4749 41.3232L52.4785 41.3283L53.2937 40.7492ZM53.2937 50.6492L52.4785 50.0701L52.4749 50.0752L53.2937 50.6492ZM51.1937 49.0992L50.2993 48.652L50.2941 48.6626L51.1937 49.0992ZM51.1937 42.2992L50.294 42.7358L50.2993 42.7464L51.1937 42.2992ZM47.7104 42.2992L46.8159 41.852L46.8108 41.8626L47.7104 42.2992ZM47.7104 49.0992L46.8107 49.5358L46.816 49.5464L47.7104 49.0992ZM49.4604 51.4326C48.009 51.4326 47.0649 50.9466 46.4424 50.0701L44.8118 51.2283C45.8781 52.7296 47.4896 53.4326 49.4604 53.4326V51.4326ZM46.4424 50.0701C45.761 49.1108 45.3604 47.6918 45.3604 45.6992H43.3604C43.3604 47.9289 43.8043 49.8098 44.8118 51.2283L46.4424 50.0701ZM45.3604 45.6992C45.3604 43.7067 45.761 42.2876 46.4424 41.3283L44.8118 40.1701C43.8043 41.5886 43.3604 43.4696 43.3604 45.6992H45.3604ZM46.4424 41.3283C47.0649 40.4518 48.009 39.9659 49.4604 39.9659V37.9659C47.4896 37.9659 45.8781 38.6689 44.8118 40.1701L46.4424 41.3283ZM49.4604 39.9659C50.9259 39.9659 51.8653 40.4535 52.4749 41.3232L54.1126 40.1752C53.0555 38.6672 51.4394 37.9659 49.4604 37.9659V39.9659ZM52.4785 41.3283C53.1599 42.2876 53.5604 43.7067 53.5604 45.6992H55.5604C55.5604 43.4696 55.1165 41.5886 54.109 40.1701L52.4785 41.3283ZM53.5604 45.6992C53.5604 47.6918 53.1599 49.1108 52.4785 50.0701L54.109 51.2283C55.1165 49.8098 55.5604 47.9289 55.5604 45.6992H53.5604ZM52.4749 50.0752C51.8653 50.9449 50.9259 51.4326 49.4604 51.4326V53.4326C51.4394 53.4326 53.0555 52.7313 54.1126 51.2232L52.4749 50.0752ZM49.4604 51.2326C50.0207 51.2326 50.5587 51.0961 51.0327 50.7862C51.5029 50.4787 51.8481 50.0412 52.0934 49.5358L50.2941 48.6626C50.1727 48.9128 50.0457 49.0419 49.9382 49.1122C49.8343 49.1802 49.689 49.2326 49.4604 49.2326V51.2326ZM52.0882 49.5464C52.5704 48.5819 52.7604 47.2614 52.7604 45.6992H50.7604C50.7604 47.1593 50.5726 48.1054 50.2993 48.652L52.0882 49.5464ZM52.7604 45.6992C52.7604 44.137 52.5704 42.8165 52.0882 41.852L50.2993 42.7464C50.5726 43.293 50.7604 44.2392 50.7604 45.6992H52.7604ZM52.0934 41.8626C51.8481 41.3572 51.5029 40.9197 51.0327 40.6122C50.5587 40.3024 50.0207 40.1659 49.4604 40.1659V42.1659C49.689 42.1659 49.8343 42.2183 49.9382 42.2862C50.0457 42.3565 50.1727 42.4857 50.2941 42.7358L52.0934 41.8626ZM49.4604 40.1659C48.8999 40.1659 48.3624 40.3024 47.8877 40.6099C47.4169 40.9148 47.0675 41.3489 46.816 41.852L48.6048 42.7464C48.7311 42.494 48.8623 42.3615 48.9748 42.2886C49.0835 42.2182 49.232 42.1659 49.4604 42.1659V40.1659ZM46.8108 41.8626C46.3445 42.8234 46.1604 44.1392 46.1604 45.6992H48.1604C48.1604 44.237 48.343 43.2862 48.6101 42.7358L46.8108 41.8626ZM46.1604 45.6992C46.1604 47.2592 46.3445 48.5751 46.8108 49.5358L48.6101 48.6626C48.343 48.1122 48.1604 47.1614 48.1604 45.6992H46.1604ZM46.816 49.5464C47.0675 50.0495 47.4169 50.4837 47.8877 50.7886C48.3624 51.096 48.8999 51.2326 49.4604 51.2326V49.2326C49.232 49.2326 49.0835 49.1802 48.9748 49.1099C48.8623 49.037 48.7311 48.9045 48.6048 48.652L46.816 49.5464Z" fill="white" mask="url(#path-9-outside-1_7305_57644)"/>
</svg>
