<svg width="80" height="74" viewBox="0 0 80 74" fill="none" xmlns="http://www.w3.org/2000/svg">
<g clip-path="url(#clip0_4611_58742)">
<mask id="path-1-outside-1_4611_58742" maskUnits="userSpaceOnUse" x="19.668" y="2" width="41" height="51" fill="black">
<rect fill="white" x="19.668" y="2" width="41" height="51"/>
<path fill-rule="evenodd" clip-rule="evenodd" d="M48.3346 4H56.4274L44.0469 25.6659L58.333 50.6667H43.333L41.4268 47.3307H48.333L40 32.748L31.667 47.3307H38.5742L36.668 50.6667H21.668L35.9536 25.6668L23.5726 4H31.6663L40.0005 18.5848L48.3346 4Z"/>
</mask>
<path fill-rule="evenodd" clip-rule="evenodd" d="M48.3346 4H56.4274L44.0469 25.6659L58.333 50.6667H43.333L41.4268 47.3307H48.333L40 32.748L31.667 47.3307H38.5742L36.668 50.6667H21.668L35.9536 25.6668L23.5726 4H31.6663L40.0005 18.5848L48.3346 4Z" fill="#DDD5D6"/>
<path d="M56.4274 4L57.8745 4.8269C58.1692 4.31106 58.1671 3.67731 57.8689 3.16346C57.5707 2.6496 57.0215 2.33333 56.4274 2.33333V4ZM48.3346 4V2.33333C47.7365 2.33333 47.1843 2.65381 46.8876 3.1731L48.3346 4ZM44.0469 25.6659L42.5998 24.839C42.307 25.3514 42.307 25.9804 42.5998 26.4928L44.0469 25.6659ZM58.333 50.6667V52.3333C58.9271 52.3333 59.4763 52.0171 59.7745 51.5032C60.0727 50.9893 60.0748 50.3556 59.7801 49.8398L58.333 50.6667ZM43.333 50.6667L41.8859 51.4936C42.1827 52.0129 42.7349 52.3333 43.333 52.3333V50.6667ZM41.4268 47.3307V45.6641C40.8326 45.6641 40.2834 45.9803 39.9852 46.4942C39.687 47.008 39.6849 47.6418 39.9797 48.1576L41.4268 47.3307ZM48.333 47.3307V48.9974C48.9271 48.9974 49.4763 48.6811 49.7745 48.1673C50.0727 47.6534 50.0748 47.0197 49.7801 46.5038L48.333 47.3307ZM40 32.748L41.4471 31.9211C41.1503 31.4018 40.5981 31.0813 40 31.0813C39.4019 31.0813 38.8497 31.4018 38.5529 31.9211L40 32.748ZM31.667 47.3307L30.2199 46.5038C29.9252 47.0197 29.9273 47.6534 30.2255 48.1673C30.5237 48.6811 31.0729 48.9974 31.667 48.9974V47.3307ZM38.5742 47.3307L40.0213 48.1576C40.3161 47.6418 40.3139 47.008 40.0157 46.4942C39.7175 45.9803 39.1683 45.6641 38.5742 45.6641V47.3307ZM36.668 50.6667V52.3333C37.2661 52.3333 37.8183 52.0129 38.115 51.4936L36.668 50.6667ZM21.668 50.6667L20.2209 49.8398C19.9261 50.3556 19.9282 50.9893 20.2265 51.5032C20.5247 52.0171 21.0739 52.3333 21.668 52.3333V50.6667ZM35.9536 25.6668L37.4007 26.4937C37.6935 25.9813 37.6935 25.3523 37.4007 24.8399L35.9536 25.6668ZM23.5726 4V2.33333C22.9785 2.33333 22.4293 2.6496 22.1311 3.16346C21.8329 3.67731 21.8308 4.31106 22.1255 4.8269L23.5726 4ZM31.6663 4L33.1134 3.1731C32.8167 2.65381 32.2644 2.33333 31.6663 2.33333V4ZM40.0005 18.5848L38.5534 19.4117C38.8502 19.9309 39.4024 20.2514 40.0005 20.2514C40.5986 20.2514 41.1508 19.9309 41.4476 19.4117L40.0005 18.5848ZM56.4274 2.33333H48.3346V5.66667H56.4274V2.33333ZM45.4939 26.4928L57.8745 4.8269L54.9803 3.1731L42.5998 24.839L45.4939 26.4928ZM42.5998 26.4928L56.8859 51.4936L59.7801 49.8398L45.4939 24.839L42.5998 26.4928ZM58.333 49H43.333V52.3333H58.333V49ZM44.7801 49.8398L42.8738 46.5038L39.9797 48.1576L41.8859 51.4936L44.7801 49.8398ZM41.4268 48.9974H48.333V45.6641H41.4268V48.9974ZM49.7801 46.5038L41.4471 31.9211L38.5529 33.5749L46.8859 48.1576L49.7801 46.5038ZM33.1141 48.1576L41.4471 33.5749L38.5529 31.9211L30.2199 46.5038L33.1141 48.1576ZM38.5742 45.6641H31.667V48.9974H38.5742V45.6641ZM38.115 51.4936L40.0213 48.1576L37.1271 46.5038L35.2209 49.8398L38.115 51.4936ZM21.668 52.3333H36.668V49H21.668V52.3333ZM34.5065 24.8399L20.2209 49.8398L23.115 51.4936L37.4007 26.4937L34.5065 24.8399ZM37.4007 24.8399L25.0197 3.1731L22.1255 4.8269L34.5065 26.4937L37.4007 24.8399ZM23.5726 5.66667H31.6663V2.33333H23.5726V5.66667ZM30.2193 4.8269L38.5534 19.4117L41.4476 17.7579L33.1134 3.1731L30.2193 4.8269ZM46.8876 3.1731L38.5534 17.7579L41.4476 19.4117L49.7817 4.8269L46.8876 3.1731Z" fill="#3D3D3D" mask="url(#path-1-outside-1_4611_58742)"/>
<mask id="path-3-outside-2_4611_58742" maskUnits="userSpaceOnUse" x="6.33496" y="-1.32812" width="67" height="29" fill="black">
<rect fill="white" x="6.33496" y="-1.32812" width="67" height="29"/>
<path fill-rule="evenodd" clip-rule="evenodd" d="M23.335 0.671875H8.33496L22.7526 25.9028C25.8981 22.904 29.8244 20.7169 34.1953 19.6775L23.335 0.671875ZM45.8077 19.6779C50.1785 20.7176 54.1046 22.905 57.2499 25.904L71.6683 0.671875H56.6683L45.8077 19.6779Z"/>
</mask>
<path fill-rule="evenodd" clip-rule="evenodd" d="M23.335 0.671875H8.33496L22.7526 25.9028C25.8981 22.904 29.8244 20.7169 34.1953 19.6775L23.335 0.671875ZM45.8077 19.6779C50.1785 20.7176 54.1046 22.905 57.2499 25.904L71.6683 0.671875H56.6683L45.8077 19.6779Z" fill="white"/>
<path d="M8.33496 0.671875V-0.994792C7.74084 -0.994792 7.19165 -0.678527 6.89344 -0.16467C6.59524 0.349188 6.59312 0.982935 6.88789 1.49877L8.33496 0.671875ZM23.335 0.671875L24.782 -0.155023C24.4853 -0.674315 23.9331 -0.994792 23.335 -0.994792V0.671875ZM22.7526 25.9028L21.3056 26.7297C21.5598 27.1747 22.0046 27.4779 22.5117 27.552C23.0188 27.626 23.5318 27.4627 23.9027 27.1091L22.7526 25.9028ZM34.1953 19.6775L34.5809 21.299C35.0918 21.1775 35.5156 20.8223 35.7245 20.3405C35.9334 19.8587 35.9029 19.3066 35.6424 18.8506L34.1953 19.6775ZM45.8077 19.6779L44.3606 18.851C44.1001 19.307 44.0697 19.859 44.2785 20.3408C44.4874 20.8226 44.9111 21.1778 45.422 21.2994L45.8077 19.6779ZM57.2499 25.904L56.0998 27.1102C56.4707 27.4639 56.9837 27.6272 57.4908 27.5532C57.9979 27.4791 58.4427 27.1759 58.697 26.7309L57.2499 25.904ZM71.6683 0.671875L73.1154 1.49877C73.4101 0.982935 73.408 0.349188 73.1098 -0.16467C72.8116 -0.678527 72.2624 -0.994792 71.6683 -0.994792V0.671875ZM56.6683 0.671875V-0.994792C56.0702 -0.994792 55.518 -0.674315 55.2212 -0.155023L56.6683 0.671875ZM8.33496 2.33854H23.335V-0.994792H8.33496V2.33854ZM24.1997 25.0759L9.78203 -0.155023L6.88789 1.49877L21.3056 26.7297L24.1997 25.0759ZM23.9027 27.1091C26.8402 24.3086 30.5044 22.2683 34.5809 21.299L33.8098 18.0561C29.1443 19.1655 24.9561 21.4994 21.6026 24.6965L23.9027 27.1091ZM21.8879 1.49877L32.7483 20.5044L35.6424 18.8506L24.782 -0.155023L21.8879 1.49877ZM45.422 21.2994C49.4984 22.269 53.1625 24.3095 56.0998 27.1102L58.4001 24.6978C55.0468 21.5004 50.8587 19.1662 46.1934 18.0565L45.422 21.2994ZM70.2212 -0.155023L55.8028 25.0771L58.697 26.7309L73.1154 1.49877L70.2212 -0.155023ZM56.6683 2.33854H71.6683V-0.994792H56.6683V2.33854ZM47.2548 20.5048L58.1154 1.49877L55.2212 -0.155023L44.3606 18.851L47.2548 20.5048Z" fill="#3D3D3D" mask="url(#path-3-outside-2_4611_58742)"/>
<path d="M10.833 2.33594L22.9163 23.1693" stroke="#D1D1D1" stroke-width="1.66667" stroke-linecap="round" stroke-linejoin="round"/>
<path d="M57.5003 2.33594L47.917 19.0026" stroke="#D1D1D1" stroke-width="1.66667" stroke-linecap="round" stroke-linejoin="round"/>
<circle cx="40.0013" cy="44.0013" r="24.1667" fill="#F3637D" stroke="#60040F" stroke-width="1.66667" stroke-linejoin="round"/>
<circle cx="40.0006" cy="44.0026" r="19.1667" fill="#FF8298"/>
<circle cx="40" cy="44.0039" r="20" stroke="#D74E67" stroke-width="1.66667" stroke-linejoin="round"/>
<path d="M18.334 43.9987C18.334 32.0325 28.0345 22.332 40.0007 22.332" stroke="#FF9BAD" stroke-width="1.66667" stroke-linecap="round" stroke-linejoin="round"/>
<circle cx="39.9987" cy="44.0026" r="15" fill="#FF6480" stroke="#D74E67" stroke-width="1.66667"/>
<path d="M26.667 44.0013C26.667 36.6375 32.6365 30.668 40.0003 30.668" stroke="#FFDCED" stroke-width="1.66667" stroke-linecap="round" stroke-linejoin="round"/>
<path d="M31.5015 41.1846C31.2016 41.2453 30.9592 41.4655 30.8699 41.7582C30.7807 42.0508 30.8589 42.3689 31.0738 42.5866L34.9307 46.4949L33.9744 51.3399C33.9127 51.6526 34.0347 51.9731 34.2888 52.1655C34.5428 52.358 34.8843 52.3887 35.1686 52.2447L40.0003 49.7966L44.832 52.2447C45.1163 52.3887 45.4579 52.358 45.7119 52.1655C45.9659 51.9731 46.0879 51.6526 46.0262 51.3399L45.07 46.4949L48.9268 42.5866C49.1417 42.3689 49.22 42.0508 49.1307 41.7582C49.0415 41.4655 48.799 41.2453 48.4992 41.1846L43.6537 40.2026L40.7174 35.2434C40.5674 34.99 40.2948 34.8346 40.0003 34.8346C39.7059 34.8346 39.4333 34.99 39.2833 35.2434L37.7208 37.8823L36.3469 40.2026L31.5015 41.1846Z" fill="#FFD6E9" stroke="#60040F" stroke-width="1.66667" stroke-linecap="round" stroke-linejoin="round"/>
</g>
<defs>
<clipPath id="clip0_4611_58742">
<rect width="80" height="74" fill="white"/>
</clipPath>
</defs>
</svg>
