<svg width="106" height="107" viewBox="0 0 106 107" fill="none" xmlns="http://www.w3.org/2000/svg">
<g clip-path="url(#clip0_4606_164580)">
<mask id="path-1-outside-1_4606_164580" maskUnits="userSpaceOnUse" x="26.7285" y="5.43359" width="53" height="67" fill="black">
<rect fill="white" x="26.7285" y="5.43359" width="53" height="67"/>
<path fill-rule="evenodd" clip-rule="evenodd" d="M64.2051 65.0777H55.0189L57.5523 69.5113H77.5059L58.5018 36.2542L74.9707 7.43367H64.2015L53.1172 26.8311L42.0329 7.43359H31.2656L47.7336 36.2525L28.7285 69.5113H48.6821L51.2155 65.0777H42.0312L53.1182 45.6756L64.2051 65.0777Z"/>
</mask>
<path fill-rule="evenodd" clip-rule="evenodd" d="M64.2051 65.0777H55.0189L57.5523 69.5113H77.5059L58.5018 36.2542L74.9707 7.43367H64.2015L53.1172 26.8311L42.0329 7.43359H31.2656L47.7336 36.2525L28.7285 69.5113H48.6821L51.2155 65.0777H42.0312L53.1182 45.6756L64.2051 65.0777Z" fill="#AF3838"/>
<path d="M55.0189 65.0777V63.0777C54.3059 63.0777 53.6469 63.4572 53.289 64.0738C52.9312 64.6904 52.9287 65.4509 53.2824 66.07L55.0189 65.0777ZM64.2051 65.0777V67.0777C64.918 67.0777 65.5771 66.6982 65.9349 66.0815C66.2928 65.4649 66.2953 64.7044 65.9416 64.0854L64.2051 65.0777ZM57.5523 69.5113L55.8159 70.5035C56.1719 71.1267 56.8346 71.5113 57.5523 71.5113V69.5113ZM77.5059 69.5113V71.5113C78.2188 71.5113 78.8779 71.1318 79.2357 70.5151C79.5936 69.8985 79.5961 69.138 79.2424 68.519L77.5059 69.5113ZM58.5018 36.2542L56.7654 35.2619C56.414 35.8768 56.414 36.6316 56.7654 37.2465L58.5018 36.2542ZM74.9707 7.43367L76.7072 8.42594C77.0609 7.80694 77.0584 7.04644 76.7006 6.42981C76.3427 5.81318 75.6837 5.43367 74.9707 5.43367V7.43367ZM64.2015 7.43367V5.43367C63.4838 5.43367 62.8211 5.81824 62.465 6.44139L64.2015 7.43367ZM53.1172 26.8311L51.3807 27.8234C51.7368 28.4465 52.3995 28.8311 53.1172 28.8311C53.8349 28.8311 54.4976 28.4465 54.8537 27.8234L53.1172 26.8311ZM42.0329 7.43359L43.7694 6.44132C43.4133 5.81817 42.7506 5.43359 42.0329 5.43359V7.43359ZM31.2656 7.43359V5.43359C30.5527 5.43359 29.8936 5.81311 29.5358 6.42974C29.178 7.04637 29.1754 7.80687 29.5291 8.42587L31.2656 7.43359ZM47.7336 36.2525L49.4701 37.2448C49.8214 36.6299 49.8214 35.8751 49.4701 35.2602L47.7336 36.2525ZM28.7285 69.5113L26.992 68.5191C26.6383 69.1381 26.6409 69.8986 26.9987 70.5152C27.3565 71.1318 28.0156 71.5113 28.7285 71.5113V69.5113ZM48.6821 69.5113V71.5113C49.3998 71.5113 50.0625 71.1268 50.4185 70.5036L48.6821 69.5113ZM51.2155 65.0777L52.952 66.07C53.3057 65.451 53.3032 64.6905 52.9454 64.0739C52.5875 63.4573 51.9285 63.0777 51.2155 63.0777V65.0777ZM42.0312 65.0777L40.2948 64.0855C39.941 64.7045 39.9436 65.465 40.3014 66.0816C40.6593 66.6982 41.3183 67.0777 42.0312 67.0777V65.0777ZM53.1182 45.6756L54.8547 44.6833C54.4986 44.0602 53.8359 43.6756 53.1182 43.6756C52.4005 43.6756 51.7378 44.0602 51.3817 44.6833L53.1182 45.6756ZM55.0189 67.0777H64.2051V63.0777H55.0189V67.0777ZM59.2888 68.519L56.7554 64.0854L53.2824 66.07L55.8159 70.5035L59.2888 68.519ZM77.5059 67.5113H57.5523V71.5113H77.5059V67.5113ZM56.7654 37.2465L75.7694 70.5035L79.2424 68.519L60.2383 35.2619L56.7654 37.2465ZM60.2383 37.2465L76.7072 8.42594L73.2342 6.44139L56.7654 35.2619L60.2383 37.2465ZM74.9707 5.43367H64.2015V9.43367H74.9707V5.43367ZM62.465 6.44139L51.3807 25.8388L54.8537 27.8234L65.938 8.42594L62.465 6.44139ZM40.2964 8.42587L51.3807 27.8234L54.8537 25.8388L43.7694 6.44132L40.2964 8.42587ZM31.2656 9.43359H42.0329V5.43359H31.2656V9.43359ZM49.4701 35.2602L33.0021 6.44132L29.5291 8.42587L45.9971 37.2448L49.4701 35.2602ZM45.9971 35.2602L26.992 68.5191L30.465 70.5036L49.4701 37.2448L45.9971 35.2602ZM28.7285 71.5113H48.6821V67.5113H28.7285V71.5113ZM50.4185 70.5036L52.952 66.07L49.479 64.0855L46.9456 68.5191L50.4185 70.5036ZM51.2155 63.0777H42.0312V67.0777H51.2155V63.0777ZM43.7677 66.07L54.8547 46.6679L51.3817 44.6833L40.2948 64.0855L43.7677 66.07ZM65.9416 64.0854L54.8547 44.6833L51.3817 46.6679L62.4686 66.07L65.9416 64.0854Z" fill="#3D3D3D" mask="url(#path-1-outside-1_4606_164580)"/>
<mask id="path-3-outside-2_4606_164580" maskUnits="userSpaceOnUse" x="8.99316" y="1" width="89" height="38" fill="black">
<rect fill="white" x="8.99316" y="1" width="89" height="38"/>
<path fill-rule="evenodd" clip-rule="evenodd" d="M30.9467 3H10.9932L30.1746 36.5676C34.3591 32.5787 39.5821 29.6697 45.3967 28.2875L30.9467 3ZM60.8372 28.2875C66.6517 29.6697 71.8747 32.5787 76.0592 36.5675L95.2407 3H75.2872L60.8372 28.2875Z"/>
</mask>
<path fill-rule="evenodd" clip-rule="evenodd" d="M30.9467 3H10.9932L30.1746 36.5676C34.3591 32.5787 39.5821 29.6697 45.3967 28.2875L30.9467 3ZM60.8372 28.2875C66.6517 29.6697 71.8747 32.5787 76.0592 36.5675L95.2407 3H75.2872L60.8372 28.2875Z" fill="#D14848"/>
<path d="M10.9932 3V1C10.2802 1 9.62119 1.37952 9.26334 1.99615C8.9055 2.61278 8.90296 3.37327 9.25668 3.99228L10.9932 3ZM30.9467 3L32.6832 2.00772C32.3271 1.38457 31.6644 1 30.9467 1V3ZM30.1746 36.5676L28.4381 37.5598C28.7432 38.0938 29.277 38.4576 29.8855 38.5466C30.4939 38.6355 31.1095 38.4395 31.5546 38.0152L30.1746 36.5676ZM45.3967 28.2875L45.8592 30.2332C46.4724 30.0875 46.9809 29.6613 47.2316 29.0831C47.4823 28.5049 47.4458 27.8424 47.1332 27.2952L45.3967 28.2875ZM60.8372 28.2875L59.1007 27.2952C58.788 27.8423 58.7515 28.5049 59.0022 29.0831C59.2529 29.6613 59.7615 30.0875 60.3746 30.2332L60.8372 28.2875ZM76.0592 36.5675L74.6793 38.0152C75.1244 38.4395 75.74 38.6354 76.3484 38.5465C76.9569 38.4576 77.4906 38.0937 77.7957 37.5598L76.0592 36.5675ZM95.2407 3L96.9772 3.99228C97.3309 3.37327 97.3284 2.61278 96.9705 1.99615C96.6127 1.37952 95.9536 1 95.2407 1V3ZM75.2872 3V1C74.5694 1 73.9068 1.38457 73.5507 2.00772L75.2872 3ZM10.9932 5H30.9467V1H10.9932V5ZM31.9111 35.5753L12.7297 2.00772L9.25668 3.99228L28.4381 37.5598L31.9111 35.5753ZM31.5546 38.0152C35.4895 34.2644 40.3981 31.5315 45.8592 30.2332L44.9341 26.3417C38.7662 27.808 33.2288 30.8931 28.7947 35.1199L31.5546 38.0152ZM29.2102 3.99228L43.6602 29.2797L47.1332 27.2952L32.6832 2.00772L29.2102 3.99228ZM60.3746 30.2332C65.8358 31.5315 70.7444 34.2643 74.6793 38.0152L77.4392 35.1199C73.0051 30.8931 67.4677 27.8079 61.2997 26.3417L60.3746 30.2332ZM93.5042 2.00772L74.3228 35.5752L77.7957 37.5598L96.9772 3.99228L93.5042 2.00772ZM75.2872 5H95.2407V1H75.2872V5ZM62.5737 29.2797L77.0236 3.99228L73.5507 2.00772L59.1007 27.2952L62.5737 29.2797Z" fill="#3D3D3D" mask="url(#path-3-outside-2_4606_164580)"/>
<path d="M15 5L31 32" stroke="#FF7E7E" stroke-width="2" stroke-linecap="round" stroke-linejoin="round"/>
<path d="M77 5L64 27" stroke="#FF7E7E" stroke-width="2" stroke-linecap="round" stroke-linejoin="round"/>
<path d="M53.5 92C71.4186 92 86 77.9271 86 60.5C86 43.0729 71.4186 29 53.5 29C35.5814 29 21 43.0729 21 60.5C21 77.9271 35.5814 92 53.5 92Z" fill="#FFB423" stroke="#5B3303" stroke-width="2" stroke-linejoin="round"/>
<circle cx="53.5" cy="60.5" r="25.5" fill="#FFDD65"/>
<circle cx="52.5" cy="60.5" r="26.5" stroke="#DF8D12" stroke-width="2" stroke-linejoin="round"/>
<path d="M24 60C24 44.536 37.4315 32 54 32" stroke="#FFCF72" stroke-width="2" stroke-linecap="round" stroke-linejoin="round"/>
<path d="M53 81C64.07 81 73 71.7972 73 60.5C73 49.2028 64.07 40 53 40C41.93 40 33 49.2028 33 60.5C33 71.7972 41.93 81 53 81Z" fill="#FFCF23" stroke="#DF8D12" stroke-width="2"/>
<path d="M35 60C35 50.6112 43.5066 43 54 43" stroke="#FFF4CD" stroke-width="2" stroke-linecap="round" stroke-linejoin="round"/>
<path d="M42.7914 56.822C42.4386 56.8973 42.1537 57.1567 42.0458 57.5009C41.9379 57.8451 42.0237 58.2208 42.2705 58.4839L47.4237 63.9807L46.1421 70.8157C46.0713 71.1936 46.2234 71.5787 46.5334 71.8062C46.8433 72.0337 47.2563 72.0633 47.5956 71.8824L54 68.4667L60.4044 71.8824C60.7437 72.0633 61.1567 72.0337 61.4666 71.8062C61.7766 71.5787 61.9287 71.1936 61.8579 70.8157L60.5763 63.9807L65.7295 58.4839C65.9763 58.2208 66.0621 57.8451 65.9542 57.5009C65.8463 57.1567 65.5614 56.8973 65.2086 56.822L58.7752 55.4495L54.8716 48.5097C54.6945 48.1949 54.3613 48 54 48C53.6387 48 53.3055 48.1949 53.1284 48.5097L51.0659 52.1764L49.2248 55.4495L42.7914 56.822Z" fill="#FFE9AF" stroke="#C37808" stroke-width="2" stroke-linecap="round" stroke-linejoin="round"/>
<path d="M43.5975 99.7618C65.1904 105.548 87.4823 92.1637 93.4344 69.9502C99.3865 47.7366 86.7731 24.9998 65.1802 19.214C43.5873 13.4282 21.2954 26.8122 15.3433 49.0257C9.39123 71.2392 22.0046 93.976 43.5975 99.7618Z" fill="#A56402" stroke="#5B3303" stroke-width="2"/>
<path d="M41.0545 97.2189C62.6475 103.005 84.9393 89.6207 90.8914 67.4072C96.8435 45.1937 84.2302 22.4569 62.6372 16.6711C41.0443 10.8853 18.7525 24.2692 12.8004 46.4827C6.84827 68.6963 19.4616 91.4331 41.0545 97.2189Z" fill="#FFB423" stroke="#5B3303" stroke-width="2"/>
<path d="M43.0285 89.8473C60.5577 94.5442 78.6607 83.5671 83.5203 65.431C88.3799 47.2949 78.1907 28.7369 60.6615 24.04C43.1324 19.343 25.0293 30.3201 20.1697 48.4563C15.3102 66.5924 25.4994 85.1504 43.0285 89.8473Z" fill="#FFCF23" stroke="#DF8D12" stroke-width="2"/>
<path fill-rule="evenodd" clip-rule="evenodd" d="M75.4811 34.3139C71.9834 31.1916 67.7507 28.8321 62.955 27.5471C45.9947 23.0026 28.4142 33.6175 23.6879 51.2562C20.6402 62.6304 23.6818 74.1478 30.7745 82.1127C21.9024 74.1927 17.759 61.3644 21.1489 48.7133C25.8752 31.0745 43.4556 20.4596 60.4159 25.0041C66.4395 26.6181 71.5747 29.9272 75.4811 34.3139Z" fill="#FFDD65"/>
<path d="M42.6406 19.9288C30.7409 23.207 21.1559 32.054 16.8767 43.4844" stroke="#FFD179" stroke-width="2" stroke-linecap="round" stroke-linejoin="round"/>
<path d="M71.3477 89.1254C75.7763 86.0569 79.5463 82.0378 82.3893 77.3477" stroke="#FFD179" stroke-width="2" stroke-linecap="round" stroke-linejoin="round"/>
<path d="M30.127 26.5547C30.127 26.5547 26.152 28.9102 23.502 32.4436" stroke="#FFF3D2" stroke-width="2" stroke-linecap="round" stroke-linejoin="round"/>
<path d="M35.2793 32.4453C35.2793 32.4453 31.3043 35.0953 28.6543 39.0703" stroke="white" stroke-width="2" stroke-linecap="round" stroke-linejoin="round"/>
<mask id="path-22-outside-3_4606_164580" maskUnits="userSpaceOnUse" x="39" y="49" width="25" height="19" fill="black">
<rect fill="white" x="39" y="49" width="25" height="19"/>
<path d="M45.8698 65.25C44.892 65.25 44.0642 65.1167 43.3865 64.85C42.7198 64.5722 42.1809 64.2111 41.7698 63.7667C41.3587 63.3222 41.0531 62.8389 40.8531 62.3167C40.6531 61.7833 40.5365 61.2611 40.5031 60.75H43.1031C43.1253 61.15 43.242 61.5333 43.4531 61.9C43.6642 62.2667 43.9753 62.5667 44.3865 62.8C44.7976 63.0333 45.3142 63.15 45.9365 63.15C46.6142 63.15 47.1142 63.0056 47.4365 62.7167C47.7698 62.4167 47.9365 62.0278 47.9365 61.55C47.9365 61.0944 47.7865 60.7222 47.4865 60.4333C47.1976 60.1444 46.8087 59.9167 46.3198 59.75L44.5031 59.1167C43.9142 58.9056 43.342 58.6556 42.7865 58.3667C42.242 58.0778 41.7976 57.6944 41.4531 57.2167C41.1087 56.7278 40.9365 56.1056 40.9365 55.35C40.9365 54.5722 41.1309 53.9167 41.5198 53.3833C41.9198 52.85 42.4642 52.4444 43.1531 52.1667C43.8531 51.8889 44.6531 51.75 45.5531 51.75C46.7087 51.75 47.6198 51.9444 48.2865 52.3333C48.9531 52.7222 49.4365 53.2167 49.7365 53.8167C50.0476 54.4056 50.2365 55.0222 50.3031 55.6667H47.7031C47.6809 55.3556 47.592 55.0611 47.4365 54.7833C47.292 54.4944 47.0587 54.2611 46.7365 54.0833C46.4142 53.9056 45.9809 53.8167 45.4365 53.8167C44.8253 53.8167 44.3698 53.9444 44.0698 54.2C43.7809 54.4556 43.6365 54.7778 43.6365 55.1667C43.6365 55.5889 43.7865 55.9278 44.0865 56.1833C44.3976 56.4389 44.8087 56.6556 45.3198 56.8333L47.2031 57.4833C47.8142 57.6944 48.3753 57.95 48.8865 58.25C49.4087 58.55 49.8309 58.9444 50.1531 59.4333C50.4753 59.9222 50.6365 60.5611 50.6365 61.35C50.6365 62.5389 50.2198 63.4889 49.3865 64.2C48.5531 64.9 47.3809 65.25 45.8698 65.25ZM44.7865 67V64H46.4531V67H44.7865ZM44.7865 53V50H46.4531V53H44.7865ZM52.6312 65V62.8C53.5535 62.1 54.359 61.4722 55.0479 60.9167C55.7368 60.35 56.3257 59.8333 56.8146 59.3667C57.5479 58.6778 58.0979 58.0556 58.4646 57.5C58.8424 56.9444 59.0312 56.3611 59.0312 55.75C59.0312 55.1944 58.8701 54.7444 58.5479 54.4C58.2368 54.0444 57.7812 53.8667 57.1812 53.8667C56.5035 53.8667 55.9924 54.0889 55.6479 54.5333C55.3035 54.9667 55.1312 55.5444 55.1312 56.2667H52.6312C52.6312 55.3667 52.8035 54.5778 53.1479 53.9C53.4924 53.2222 54.0035 52.7 54.6812 52.3333C55.3701 51.9556 56.2201 51.7667 57.2312 51.7667C58.6646 51.7667 59.7701 52.1333 60.5479 52.8667C61.3368 53.5889 61.7312 54.5444 61.7312 55.7333C61.7312 56.5889 61.509 57.3778 61.0646 58.1C60.6201 58.8111 59.959 59.5611 59.0812 60.35C58.7035 60.6944 58.2812 61.05 57.8146 61.4167C57.359 61.7722 56.9035 62.1 56.4479 62.4V62.8H62.1646V65H52.6312Z"/>
</mask>
<path d="M45.8698 65.25C44.892 65.25 44.0642 65.1167 43.3865 64.85C42.7198 64.5722 42.1809 64.2111 41.7698 63.7667C41.3587 63.3222 41.0531 62.8389 40.8531 62.3167C40.6531 61.7833 40.5365 61.2611 40.5031 60.75H43.1031C43.1253 61.15 43.242 61.5333 43.4531 61.9C43.6642 62.2667 43.9753 62.5667 44.3865 62.8C44.7976 63.0333 45.3142 63.15 45.9365 63.15C46.6142 63.15 47.1142 63.0056 47.4365 62.7167C47.7698 62.4167 47.9365 62.0278 47.9365 61.55C47.9365 61.0944 47.7865 60.7222 47.4865 60.4333C47.1976 60.1444 46.8087 59.9167 46.3198 59.75L44.5031 59.1167C43.9142 58.9056 43.342 58.6556 42.7865 58.3667C42.242 58.0778 41.7976 57.6944 41.4531 57.2167C41.1087 56.7278 40.9365 56.1056 40.9365 55.35C40.9365 54.5722 41.1309 53.9167 41.5198 53.3833C41.9198 52.85 42.4642 52.4444 43.1531 52.1667C43.8531 51.8889 44.6531 51.75 45.5531 51.75C46.7087 51.75 47.6198 51.9444 48.2865 52.3333C48.9531 52.7222 49.4365 53.2167 49.7365 53.8167C50.0476 54.4056 50.2365 55.0222 50.3031 55.6667H47.7031C47.6809 55.3556 47.592 55.0611 47.4365 54.7833C47.292 54.4944 47.0587 54.2611 46.7365 54.0833C46.4142 53.9056 45.9809 53.8167 45.4365 53.8167C44.8253 53.8167 44.3698 53.9444 44.0698 54.2C43.7809 54.4556 43.6365 54.7778 43.6365 55.1667C43.6365 55.5889 43.7865 55.9278 44.0865 56.1833C44.3976 56.4389 44.8087 56.6556 45.3198 56.8333L47.2031 57.4833C47.8142 57.6944 48.3753 57.95 48.8865 58.25C49.4087 58.55 49.8309 58.9444 50.1531 59.4333C50.4753 59.9222 50.6365 60.5611 50.6365 61.35C50.6365 62.5389 50.2198 63.4889 49.3865 64.2C48.5531 64.9 47.3809 65.25 45.8698 65.25ZM44.7865 67V64H46.4531V67H44.7865ZM44.7865 53V50H46.4531V53H44.7865ZM52.6312 65V62.8C53.5535 62.1 54.359 61.4722 55.0479 60.9167C55.7368 60.35 56.3257 59.8333 56.8146 59.3667C57.5479 58.6778 58.0979 58.0556 58.4646 57.5C58.8424 56.9444 59.0312 56.3611 59.0312 55.75C59.0312 55.1944 58.8701 54.7444 58.5479 54.4C58.2368 54.0444 57.7812 53.8667 57.1812 53.8667C56.5035 53.8667 55.9924 54.0889 55.6479 54.5333C55.3035 54.9667 55.1312 55.5444 55.1312 56.2667H52.6312C52.6312 55.3667 52.8035 54.5778 53.1479 53.9C53.4924 53.2222 54.0035 52.7 54.6812 52.3333C55.3701 51.9556 56.2201 51.7667 57.2312 51.7667C58.6646 51.7667 59.7701 52.1333 60.5479 52.8667C61.3368 53.5889 61.7312 54.5444 61.7312 55.7333C61.7312 56.5889 61.509 57.3778 61.0646 58.1C60.6201 58.8111 59.959 59.5611 59.0812 60.35C58.7035 60.6944 58.2812 61.05 57.8146 61.4167C57.359 61.7722 56.9035 62.1 56.4479 62.4V62.8H62.1646V65H52.6312Z" fill="#5B3303"/>
<path d="M43.3865 64.85L43.0018 65.7731L43.011 65.7769L43.0203 65.7806L43.3865 64.85ZM41.7698 63.7667L42.5039 63.0876L41.7698 63.7667ZM40.8531 62.3167L39.9168 62.6678L39.9193 62.6743L40.8531 62.3167ZM40.5031 60.75V59.75H39.4358L39.5052 60.8151L40.5031 60.75ZM43.1031 60.75L44.1016 60.6945L44.0491 59.75H43.1031V60.75ZM47.4365 62.7167L48.104 63.4612L48.1054 63.46L47.4365 62.7167ZM47.4865 60.4333L46.7793 61.1404L46.786 61.1471L46.7928 61.1537L47.4865 60.4333ZM46.3198 59.75L45.9906 60.6943L45.9971 60.6965L46.3198 59.75ZM44.5031 59.1167L44.1656 60.058L44.1739 60.0609L44.5031 59.1167ZM42.7865 58.3667L42.3177 59.25L42.3251 59.2539L42.7865 58.3667ZM41.4531 57.2167L40.6356 57.7927L40.6419 57.8015L41.4531 57.2167ZM41.5198 53.3833L40.7197 52.7833L40.7118 52.7942L41.5198 53.3833ZM43.1531 52.1667L42.7843 51.2372L42.7792 51.2392L43.1531 52.1667ZM48.2865 52.3333L47.7826 53.1971L48.2865 52.3333ZM49.7365 53.8167L48.842 54.2639L48.847 54.2739L48.8523 54.2838L49.7365 53.8167ZM50.3031 55.6667V56.6667H51.4119L51.2978 55.5638L50.3031 55.6667ZM47.7031 55.6667L46.7057 55.7379L46.772 56.6667H47.7031V55.6667ZM47.4365 54.7833L46.542 55.2305L46.5525 55.2515L46.5639 55.2719L47.4365 54.7833ZM44.0698 54.2L43.4213 53.4388L43.4142 53.4448L43.4072 53.451L44.0698 54.2ZM44.0865 56.1833L43.438 56.9446L43.4448 56.9504L43.4517 56.9561L44.0865 56.1833ZM45.3198 56.8333L44.9913 57.7778L44.9935 57.7786L45.3198 56.8333ZM47.2031 57.4833L47.5296 56.5381L47.5294 56.538L47.2031 57.4833ZM48.8865 58.25L48.3802 59.1125L48.3883 59.1171L48.8865 58.25ZM50.1531 59.4333L49.3182 59.9836H49.3182L50.1531 59.4333ZM49.3865 64.2L50.0297 64.9657L50.0356 64.9607L49.3865 64.2ZM44.7865 67H43.7865V68H44.7865V67ZM44.7865 64V63H43.7865V64H44.7865ZM46.4531 64H47.4531V63H46.4531V64ZM46.4531 67V68H47.4531V67H46.4531ZM44.7865 53H43.7865V54H44.7865V53ZM44.7865 50V49H43.7865V50H44.7865ZM46.4531 50H47.4531V49H46.4531V50ZM46.4531 53V54H47.4531V53H46.4531ZM45.8698 64.25C44.977 64.25 44.2813 64.1275 43.7526 63.9194L43.0203 65.7806C43.8472 66.1059 44.8071 66.25 45.8698 66.25V64.25ZM43.7711 63.9269C43.2118 63.6939 42.8004 63.4082 42.5039 63.0876L41.0357 64.4457C41.5614 65.014 42.2277 65.4505 43.0018 65.7731L43.7711 63.9269ZM42.5039 63.0876C42.172 62.7288 41.9378 62.3529 41.787 61.959L39.9193 62.6743C40.1684 63.3249 40.5453 63.9156 41.0357 64.4457L42.5039 63.0876ZM41.7894 61.9655C41.6201 61.5139 41.5273 61.0879 41.501 60.6849L39.5052 60.8151C39.5456 61.4343 39.6862 62.0528 39.9168 62.6678L41.7894 61.9655ZM40.5031 61.75H43.1031V59.75H40.5031V61.75ZM42.1047 60.8055C42.136 61.3703 42.3019 61.9046 42.5865 62.399L44.3197 61.401C44.1821 61.162 44.1146 60.9297 44.1016 60.6945L42.1047 60.8055ZM42.5865 62.399C42.8968 62.9378 43.3452 63.3589 43.8928 63.6697L44.8801 61.9303C44.6055 61.7745 44.4317 61.5955 44.3197 61.401L42.5865 62.399ZM43.8928 63.6697C44.4947 64.0113 45.1943 64.15 45.9365 64.15V62.15C45.4342 62.15 45.1004 62.0554 44.8801 61.9303L43.8928 63.6697ZM45.9365 64.15C46.7273 64.15 47.5188 63.9859 48.104 63.4612L46.7689 61.9721C46.7097 62.0252 46.5012 62.15 45.9365 62.15V64.15ZM48.1054 63.46C48.6645 62.9568 48.9365 62.2904 48.9365 61.55H46.9365C46.9365 61.7652 46.8751 61.8766 46.7675 61.9734L48.1054 63.46ZM48.9365 61.55C48.9365 60.8509 48.6953 60.2091 48.1801 59.713L46.7928 61.1537C46.8776 61.2353 46.9365 61.338 46.9365 61.55H48.9365ZM48.1936 59.7262C47.7718 59.3045 47.2389 59.0068 46.6425 58.8035L45.9971 60.6965C46.3784 60.8265 46.6233 60.9844 46.7793 61.1404L48.1936 59.7262ZM46.649 58.8057L44.8323 58.1724L44.1739 60.0609L45.9906 60.6943L46.649 58.8057ZM44.8406 58.1753C44.2942 57.9795 43.7634 57.7475 43.2478 57.4794L42.3251 59.2539C42.9206 59.5636 43.5343 59.8317 44.1657 60.058L44.8406 58.1753ZM43.2552 57.4833C42.8398 57.2629 42.5148 56.9794 42.2643 56.6319L40.6419 57.8015C41.0803 58.4095 41.6442 58.8926 42.3177 59.25L43.2552 57.4833ZM42.2706 56.6407C42.0729 56.3601 41.9365 55.9539 41.9365 55.35H39.9365C39.9365 56.2572 40.1445 57.0955 40.6356 57.7926L42.2706 56.6407ZM41.9365 55.35C41.9365 54.7451 42.0848 54.3057 42.3278 53.9725L40.7118 52.7942C40.177 53.5276 39.9365 54.3994 39.9365 55.35H41.9365ZM42.3198 53.9833C42.5981 53.6122 42.9876 53.3117 43.5271 53.0941L42.7792 51.2392C41.9409 51.5772 41.2414 52.0878 40.7198 52.7833L42.3198 53.9833ZM43.522 53.0962C44.0841 52.8731 44.7553 52.75 45.5531 52.75V50.75C44.5509 50.75 43.6221 50.9047 42.7843 51.2372L43.522 53.0962ZM45.5531 52.75C46.6132 52.75 47.3266 52.9311 47.7826 53.1971L48.7903 51.4696C47.913 50.9578 46.8041 50.75 45.5531 50.75V52.75ZM47.7826 53.1971C48.3073 53.5032 48.6415 53.8628 48.842 54.2639L50.6309 53.3695C50.2314 52.5706 49.599 51.9413 48.7903 51.4696L47.7826 53.1971ZM48.8523 54.2838C49.1053 54.7627 49.2553 55.2561 49.3084 55.7696L51.2978 55.5638C51.2176 54.7884 50.9899 54.0484 50.6206 53.3495L48.8523 54.2838ZM50.3031 54.6667H47.7031V56.6667H50.3031V54.6667ZM48.7006 55.5954C48.6677 55.1346 48.5348 54.698 48.309 54.2947L46.5639 55.2719C46.6492 55.4242 46.6941 55.5765 46.7057 55.7379L48.7006 55.5954ZM48.3309 54.3361C48.0836 53.8416 47.6935 53.4693 47.2195 53.2078L46.2534 54.9589C46.4238 55.053 46.5004 55.1473 46.542 55.2305L48.3309 54.3361ZM47.2195 53.2078C46.6952 52.9185 46.0747 52.8167 45.4365 52.8167V54.8167C45.8871 54.8167 46.1333 54.8926 46.2534 54.9589L47.2195 53.2078ZM45.4365 52.8167C44.7124 52.8167 43.9787 52.9639 43.4213 53.4388L44.7183 54.9612C44.7609 54.9249 44.9383 54.8167 45.4365 54.8167V52.8167ZM43.4072 53.451C42.9017 53.8982 42.6365 54.494 42.6365 55.1667H44.6365C44.6365 55.0615 44.6601 55.0129 44.7324 54.949L43.4072 53.451ZM42.6365 55.1667C42.6365 55.8581 42.8975 56.4841 43.438 56.9446L44.7349 55.4221C44.6754 55.3714 44.6365 55.3197 44.6365 55.1667H42.6365ZM43.4517 56.9561C43.8793 57.3073 44.4047 57.5738 44.9913 57.7778L45.6483 55.8888C45.2127 55.7373 44.9158 55.5705 44.7212 55.4106L43.4517 56.9561ZM44.9935 57.7786L46.8769 58.4286L47.5294 56.538L45.646 55.888L44.9935 57.7786ZM46.8766 58.4285C47.4308 58.62 47.931 58.8487 48.3803 59.1124L49.3927 57.3876C48.8196 57.0513 48.1976 56.7689 47.5296 56.5381L46.8766 58.4285ZM48.3883 59.1171C48.7791 59.3416 49.0844 59.629 49.3182 59.9836L50.9881 58.883C50.5774 58.2599 50.0383 57.7584 49.3846 57.3829L48.3883 59.1171ZM49.3182 59.9836C49.5013 60.2615 49.6365 60.6905 49.6365 61.35H51.6365C51.6365 60.4318 51.4494 59.583 50.9881 58.883L49.3182 59.9836ZM49.6365 61.35C49.6365 62.2744 49.3274 62.9358 48.7373 63.4393L50.0356 64.9607C51.1122 64.042 51.6365 62.8033 51.6365 61.35H49.6365ZM48.7433 63.4343C48.1491 63.9334 47.2364 64.25 45.8698 64.25V66.25C47.5254 66.25 48.9571 65.8666 50.0296 64.9657L48.7433 63.4343ZM45.7865 67V64H43.7865V67H45.7865ZM44.7865 65H46.4531V63H44.7865V65ZM45.4531 64V67H47.4531V64H45.4531ZM46.4531 66H44.7865V68H46.4531V66ZM45.7865 53V50H43.7865V53H45.7865ZM44.7865 51H46.4531V49H44.7865V51ZM45.4531 50V53H47.4531V50H45.4531ZM46.4531 52H44.7865V54H46.4531V52ZM52.6312 65H51.6312V66H52.6312V65ZM52.6312 62.8L52.0266 62.0035L51.6312 62.3036V62.8H52.6312ZM55.0479 60.9167L55.6757 61.6951L55.6832 61.689L55.0479 60.9167ZM56.8146 59.3667L56.1299 58.6378L56.1241 58.6433L56.8146 59.3667ZM58.4646 57.5L57.6376 56.9376L57.63 56.9492L58.4646 57.5ZM58.5479 54.4L57.7953 55.0585L57.8063 55.071L57.8176 55.0832L58.5479 54.4ZM55.6479 54.5333L56.4308 55.1556L56.4383 55.1459L55.6479 54.5333ZM55.1312 56.2667V57.2667H56.1312V56.2667H55.1312ZM52.6312 56.2667H51.6312V57.2667H52.6312V56.2667ZM53.1479 53.9L52.2564 53.4469L53.1479 53.9ZM54.6812 52.3333L55.1571 53.2129L55.1621 53.2101L54.6812 52.3333ZM60.5479 52.8667L59.8619 53.5943L59.8672 53.5993L59.8727 53.6043L60.5479 52.8667ZM61.0646 58.1L61.9126 58.63L61.9162 58.6241L61.0646 58.1ZM59.0812 60.35L58.4128 59.6062L58.4075 59.611L59.0812 60.35ZM57.8146 61.4167L58.4299 62.205L58.4324 62.203L57.8146 61.4167ZM56.4479 62.4L55.8979 61.5648L55.4479 61.8612V62.4H56.4479ZM56.4479 62.8H55.4479V63.8H56.4479V62.8ZM62.1646 62.8H63.1646V61.8H62.1646V62.8ZM62.1646 65V66H63.1646V65H62.1646ZM53.6312 65V62.8H51.6312V65H53.6312ZM53.2358 63.5965C54.1636 62.8923 54.9772 62.2583 55.6757 61.6951L54.4202 60.1383C53.7408 60.6861 52.9433 61.3077 52.0266 62.0035L53.2358 63.5965ZM55.6832 61.689C56.3855 61.1113 56.9938 60.578 57.5051 60.09L56.1241 58.6433C55.6576 59.0886 55.0881 59.5887 54.4126 60.1444L55.6832 61.689ZM57.4993 60.0955C58.2636 59.3775 58.8738 58.6954 59.2992 58.0508L57.63 56.9492C57.322 57.4157 56.8322 57.9781 56.1299 58.6378L57.4993 60.0955ZM59.2915 58.0623C59.7704 57.3581 60.0312 56.5815 60.0312 55.75H58.0312C58.0312 56.1407 57.9144 56.5308 57.6377 56.9377L59.2915 58.0623ZM60.0312 55.75C60.0312 54.9888 59.804 54.2789 59.2782 53.7168L57.8176 55.0832C57.9363 55.21 58.0312 55.4001 58.0312 55.75H60.0312ZM59.3005 53.7415C58.7506 53.1131 57.986 52.8667 57.1812 52.8667V54.8667C57.5765 54.8667 57.723 54.9758 57.7953 55.0585L59.3005 53.7415ZM57.1812 52.8667C56.2651 52.8667 55.4309 53.1809 54.8575 53.9208L56.4383 55.1459C56.5538 54.9969 56.7418 54.8667 57.1812 54.8667V52.8667ZM54.8651 53.9111C54.3422 54.5689 54.1312 55.3878 54.1312 56.2667H56.1312C56.1312 55.701 56.2647 55.3644 56.4307 55.1556L54.8651 53.9111ZM55.1312 55.2667H52.6312V57.2667H55.1312V55.2667ZM53.6312 56.2667C53.6312 55.4953 53.7783 54.8669 54.0394 54.353L52.2564 53.4469C51.8287 54.2887 51.6312 55.238 51.6312 56.2667H53.6312ZM54.0394 54.353C54.2905 53.859 54.6553 53.4843 55.1571 53.2129L54.2054 51.4538C53.3516 51.9157 52.6942 52.5855 52.2564 53.4469L54.0394 54.353ZM55.1621 53.2101C55.6672 52.9331 56.3412 52.7667 57.2312 52.7667V50.7667C56.099 50.7667 55.073 50.978 54.2004 51.4565L55.1621 53.2101ZM57.2312 52.7667C58.4984 52.7667 59.3256 53.0886 59.8619 53.5943L61.2339 52.1391C60.2147 51.1781 58.8308 50.7667 57.2312 50.7667V52.7667ZM59.8727 53.6043C60.4303 54.1148 60.7312 54.7902 60.7312 55.7333H62.7312C62.7312 54.2987 62.2433 53.063 61.2232 52.1291L59.8727 53.6043ZM60.7312 55.7333C60.7312 56.4056 60.5595 57.0128 60.2129 57.5759L61.9162 58.6241C62.4586 57.7428 62.7312 56.7722 62.7312 55.7333H60.7312ZM60.2166 57.57C59.8373 58.1769 59.2469 58.8566 58.4128 59.6062L59.7497 61.0938C60.6711 60.2656 61.403 59.4453 61.9126 58.63L60.2166 57.57ZM58.4075 59.611C58.0504 59.9367 57.6472 60.2764 57.1968 60.6303L58.4324 62.203C58.9153 61.8236 59.3566 61.4522 59.755 61.089L58.4075 59.611ZM57.1993 60.6284C56.7636 60.9684 56.3298 61.2804 55.8979 61.5648L56.9979 63.2352C57.4771 62.9196 57.9544 62.5761 58.4298 62.205L57.1993 60.6284ZM55.4479 62.4V62.8H57.4479V62.4H55.4479ZM56.4479 63.8H62.1646V61.8H56.4479V63.8ZM61.1646 62.8V65H63.1646V62.8H61.1646ZM62.1646 64H52.6312V66H62.1646V64Z" fill="white" mask="url(#path-22-outside-3_4606_164580)"/>
</g>
<defs>
<clipPath id="clip0_4606_164580">
<rect width="106" height="107" fill="white"/>
</clipPath>
</defs>
</svg>
