<svg width="90" height="92" viewBox="0 0 90 92" fill="none" xmlns="http://www.w3.org/2000/svg">
<path d="M36.3878 83.3824C55.9217 88.6165 76.0827 76.5083 81.4653 56.4202C86.8479 36.3321 75.442 15.7656 55.9081 10.5315C36.3742 5.29739 16.2132 17.4056 10.8306 37.4937C5.44798 57.5818 16.8538 78.1483 36.3878 83.3824Z" fill="#044473" stroke="#044473" stroke-width="2"/>
<path d="M34.0928 81.0895C53.6268 86.3236 73.7878 74.2154 79.1704 54.1273C84.553 34.0392 73.1471 13.4726 53.6132 8.23852C34.0793 3.00442 13.9182 15.1126 8.53565 35.2007C3.15306 55.2888 14.5589 75.8554 34.0928 81.0895Z" fill="#95AFC5" stroke="#044473" stroke-width="2"/>
<path d="M35.8744 74.4403C51.743 78.6923 68.1249 68.7545 72.5217 52.3453C76.9186 35.936 67.7004 19.1387 51.8317 14.8867C35.9631 10.6347 19.5812 20.5725 15.1843 36.9818C10.7875 53.391 20.0057 70.1883 35.8744 74.4403Z" fill="#D4E1EB" stroke="#718BAD" stroke-width="2"/>
<path fill-rule="evenodd" clip-rule="evenodd" d="M65.1752 24.25C62.0199 21.4332 58.2015 19.3046 53.8751 18.1453C38.5753 14.0458 22.716 23.6215 18.4525 39.5333C15.7036 49.7924 18.4461 60.1807 24.8424 67.3656C16.8392 60.221 13.1016 48.6488 16.1595 37.2364C20.4231 21.3246 36.2823 11.7489 51.5821 15.8485C57.0174 17.3048 61.6509 20.2912 65.1752 24.25Z" fill="#B3D2EA"/>
<path d="M35.8232 11.484C25.1671 14.4251 16.5837 22.3623 12.7517 32.6172" stroke="#B3D2EA" stroke-width="2" stroke-linecap="round" stroke-linejoin="round"/>
<path d="M61.7373 73.3443C65.7831 70.6543 69.2271 67.1311 71.8244 63.0195" stroke="#B3D2EA" stroke-width="2" stroke-linecap="round" stroke-linejoin="round"/>
<path d="M24.3522 17.1289C24.3522 17.1289 20.9106 19.4233 18.6162 22.8649" stroke="white" stroke-width="2" stroke-linecap="round" stroke-linejoin="round"/>
<path d="M28.9401 22.8672C28.9401 22.8672 25.4985 25.1616 23.2041 28.6032" stroke="white" stroke-width="2" stroke-linecap="round" stroke-linejoin="round"/>
<mask id="path-9-outside-1_7305_57686" maskUnits="userSpaceOnUse" x="32" y="36" width="25" height="17" fill="black">
<rect fill="white" x="32" y="36" width="25" height="17"/>
<path d="M33.9031 51V48.8C34.8253 48.1 35.6309 47.4722 36.3198 46.9167C37.0087 46.35 37.5976 45.8333 38.0865 45.3667C38.8198 44.6778 39.3698 44.0556 39.7365 43.5C40.1142 42.9444 40.3031 42.3611 40.3031 41.75C40.3031 41.1944 40.142 40.7444 39.8198 40.4C39.5087 40.0444 39.0531 39.8667 38.4531 39.8667C37.7753 39.8667 37.2642 40.0889 36.9198 40.5333C36.5753 40.9667 36.4031 41.5444 36.4031 42.2667H33.9031C33.9031 41.3667 34.0753 40.5778 34.4198 39.9C34.7642 39.2222 35.2753 38.7 35.9531 38.3333C36.642 37.9556 37.492 37.7667 38.5031 37.7667C39.9365 37.7667 41.042 38.1333 41.8198 38.8667C42.6087 39.5889 43.0031 40.5444 43.0031 41.7333C43.0031 42.5889 42.7809 43.3778 42.3365 44.1C41.892 44.8111 41.2309 45.5611 40.3531 46.35C39.9753 46.6944 39.5531 47.05 39.0865 47.4167C38.6309 47.7722 38.1753 48.1 37.7198 48.4V48.8H43.4365V51H33.9031ZM50.3979 51.2333C48.6868 51.2333 47.409 50.6389 46.5646 49.45C45.7201 48.2611 45.2979 46.6111 45.2979 44.5C45.2979 42.3889 45.7201 40.7389 46.5646 39.55C47.409 38.3611 48.6868 37.7667 50.3979 37.7667C52.1201 37.7667 53.3979 38.3611 54.2312 39.55C55.0757 40.7389 55.4979 42.3889 55.4979 44.5C55.4979 46.6111 55.0757 48.2611 54.2312 49.45C53.3979 50.6389 52.1201 51.2333 50.3979 51.2333ZM50.3979 49.0333C51.1868 49.0333 51.7646 48.6556 52.1312 47.9C52.509 47.1444 52.6979 46.0111 52.6979 44.5C52.6979 42.9889 52.509 41.8556 52.1312 41.1C51.7646 40.3444 51.1868 39.9667 50.3979 39.9667C49.609 39.9667 49.0257 40.3444 48.6479 41.1C48.2812 41.8556 48.0979 42.9889 48.0979 44.5C48.0979 46.0111 48.2812 47.1444 48.6479 47.9C49.0257 48.6556 49.609 49.0333 50.3979 49.0333Z"/>
</mask>
<path d="M33.9031 51V48.8C34.8253 48.1 35.6309 47.4722 36.3198 46.9167C37.0087 46.35 37.5976 45.8333 38.0865 45.3667C38.8198 44.6778 39.3698 44.0556 39.7365 43.5C40.1142 42.9444 40.3031 42.3611 40.3031 41.75C40.3031 41.1944 40.142 40.7444 39.8198 40.4C39.5087 40.0444 39.0531 39.8667 38.4531 39.8667C37.7753 39.8667 37.2642 40.0889 36.9198 40.5333C36.5753 40.9667 36.4031 41.5444 36.4031 42.2667H33.9031C33.9031 41.3667 34.0753 40.5778 34.4198 39.9C34.7642 39.2222 35.2753 38.7 35.9531 38.3333C36.642 37.9556 37.492 37.7667 38.5031 37.7667C39.9365 37.7667 41.042 38.1333 41.8198 38.8667C42.6087 39.5889 43.0031 40.5444 43.0031 41.7333C43.0031 42.5889 42.7809 43.3778 42.3365 44.1C41.892 44.8111 41.2309 45.5611 40.3531 46.35C39.9753 46.6944 39.5531 47.05 39.0865 47.4167C38.6309 47.7722 38.1753 48.1 37.7198 48.4V48.8H43.4365V51H33.9031ZM50.3979 51.2333C48.6868 51.2333 47.409 50.6389 46.5646 49.45C45.7201 48.2611 45.2979 46.6111 45.2979 44.5C45.2979 42.3889 45.7201 40.7389 46.5646 39.55C47.409 38.3611 48.6868 37.7667 50.3979 37.7667C52.1201 37.7667 53.3979 38.3611 54.2312 39.55C55.0757 40.7389 55.4979 42.3889 55.4979 44.5C55.4979 46.6111 55.0757 48.2611 54.2312 49.45C53.3979 50.6389 52.1201 51.2333 50.3979 51.2333ZM50.3979 49.0333C51.1868 49.0333 51.7646 48.6556 52.1312 47.9C52.509 47.1444 52.6979 46.0111 52.6979 44.5C52.6979 42.9889 52.509 41.8556 52.1312 41.1C51.7646 40.3444 51.1868 39.9667 50.3979 39.9667C49.609 39.9667 49.0257 40.3444 48.6479 41.1C48.2812 41.8556 48.0979 42.9889 48.0979 44.5C48.0979 46.0111 48.2812 47.1444 48.6479 47.9C49.0257 48.6556 49.609 49.0333 50.3979 49.0333Z" fill="#5B3303"/>
<path d="M33.9031 51H32.9031V52H33.9031V51ZM33.9031 48.8L33.2985 48.0035L32.9031 48.3036V48.8H33.9031ZM36.3198 46.9167L36.9476 47.6951L36.9551 47.689L36.3198 46.9167ZM38.0865 45.3667L37.4018 44.6378L37.396 44.6433L38.0865 45.3667ZM39.7365 43.5L38.9094 42.9376L38.9018 42.9492L39.7365 43.5ZM39.8198 40.4L39.0672 41.0585L39.0782 41.071L39.0895 41.0832L39.8198 40.4ZM36.9198 40.5333L37.7027 41.1556L37.7102 41.1459L36.9198 40.5333ZM36.4031 42.2667V43.2667H37.4031V42.2667H36.4031ZM33.9031 42.2667H32.9031V43.2667H33.9031V42.2667ZM34.4198 39.9L33.5283 39.447L33.5283 39.447L34.4198 39.9ZM35.9531 38.3333L36.4289 39.2129L36.434 39.2101L35.9531 38.3333ZM41.8198 38.8667L41.1338 39.5943L41.1391 39.5993L41.1445 39.6043L41.8198 38.8667ZM42.3365 44.1L43.1845 44.63L43.1881 44.6241L42.3365 44.1ZM40.3531 46.35L39.6847 45.6062L39.6794 45.611L40.3531 46.35ZM39.0865 47.4167L39.7017 48.205L39.7043 48.203L39.0865 47.4167ZM37.7198 48.4L37.1698 47.5648L36.7198 47.8612V48.4H37.7198ZM37.7198 48.8H36.7198V49.8H37.7198V48.8ZM43.4365 48.8H44.4365V47.8H43.4365V48.8ZM43.4365 51V52H44.4365V51H43.4365ZM34.9031 51V48.8H32.9031V51H34.9031ZM34.5077 49.5965C35.4355 48.8923 36.2491 48.2583 36.9475 47.6951L35.692 46.1383C35.0127 46.6861 34.2152 47.3077 33.2985 48.0035L34.5077 49.5965ZM36.9551 47.689C37.6573 47.1113 38.2657 46.578 38.7769 46.09L37.396 44.6433C36.9295 45.0886 36.36 45.5887 35.6845 46.1444L36.9551 47.689ZM38.7711 46.0955C39.5355 45.3775 40.1457 44.6954 40.5711 44.0508L38.9018 42.9492C38.5939 43.4157 38.1041 43.9781 37.4018 44.6378L38.7711 46.0955ZM40.5634 44.0623C41.0422 43.3581 41.3031 42.5815 41.3031 41.75H39.3031C39.3031 42.1407 39.1862 42.5308 38.9095 42.9377L40.5634 44.0623ZM41.3031 41.75C41.3031 40.9888 41.0759 40.2789 40.5501 39.7168L39.0895 41.0832C39.2082 41.21 39.3031 41.4001 39.3031 41.75H41.3031ZM40.5724 39.7415C40.0225 39.1131 39.2579 38.8667 38.4531 38.8667V40.8667C38.8484 40.8667 38.9949 40.9758 39.0672 41.0585L40.5724 39.7415ZM38.4531 38.8667C37.537 38.8667 36.7028 39.1809 36.1294 39.9208L37.7102 41.1459C37.8257 40.9969 38.0137 40.8667 38.4531 40.8667V38.8667ZM36.137 39.9111C35.6141 40.5689 35.4031 41.3878 35.4031 42.2667H37.4031C37.4031 41.701 37.5366 41.3644 37.7026 41.1556L36.137 39.9111ZM36.4031 41.2667H33.9031V43.2667H36.4031V41.2667ZM34.9031 42.2667C34.9031 41.4953 35.0502 40.8669 35.3113 40.353L33.5283 39.447C33.1005 40.2887 32.9031 41.238 32.9031 42.2667H34.9031ZM35.3113 40.353C35.5624 39.859 35.9272 39.4843 36.4289 39.2129L35.4773 37.4538C34.6235 37.9157 33.9661 38.5855 33.5283 39.447L35.3113 40.353ZM36.434 39.2101C36.9391 38.9331 37.6131 38.7667 38.5031 38.7667V36.7667C37.3709 36.7667 36.3449 36.978 35.4723 37.4565L36.434 39.2101ZM38.5031 38.7667C39.7702 38.7667 40.5974 39.0886 41.1338 39.5943L42.5058 38.1391C41.4866 37.1781 40.1027 36.7667 38.5031 36.7667V38.7667ZM41.1445 39.6043C41.7022 40.1148 42.0031 40.7902 42.0031 41.7333H44.0031C44.0031 40.2987 43.5152 39.063 42.495 38.1291L41.1445 39.6043ZM42.0031 41.7333C42.0031 42.4056 41.8313 43.0128 41.4848 43.5759L43.1881 44.6241C43.7305 43.7428 44.0031 42.7722 44.0031 41.7333H42.0031ZM41.4885 43.57C41.1092 44.1769 40.5188 44.8566 39.6847 45.6062L41.0216 47.0938C41.943 46.2656 42.6749 45.4453 43.1845 44.63L41.4885 43.57ZM39.6794 45.611C39.3222 45.9367 38.9191 46.2764 38.4686 46.6303L39.7043 48.203C40.1872 47.8236 40.6284 47.4522 41.0269 47.089L39.6794 45.611ZM38.4712 46.6284C38.0355 46.9684 37.6017 47.2804 37.1698 47.5648L38.2698 49.2352C38.749 48.9196 39.2263 48.5761 39.7017 48.205L38.4712 46.6284ZM36.7198 48.4V48.8H38.7198V48.4H36.7198ZM37.7198 49.8H43.4365V47.8H37.7198V49.8ZM42.4365 48.8V51H44.4365V48.8H42.4365ZM43.4365 50H33.9031V52H43.4365V50ZM46.5646 49.45L45.7493 50.0291L46.5646 49.45ZM46.5646 39.55L47.3799 40.1291L47.3799 40.1291L46.5646 39.55ZM54.2312 39.55L53.4124 40.124L53.416 40.1291L54.2312 39.55ZM54.2312 49.45L53.416 48.8709L53.4124 48.876L54.2312 49.45ZM52.1312 47.9L51.2368 47.4528L51.2316 47.4634L52.1312 47.9ZM52.1312 41.1L51.2315 41.5366L51.2368 41.5472L52.1312 41.1ZM48.6479 41.1L47.7534 40.6528L47.7483 40.6634L48.6479 41.1ZM48.6479 47.9L47.7482 48.3366L47.7535 48.3472L48.6479 47.9ZM50.3979 50.2333C48.9465 50.2333 48.0024 49.7474 47.3799 48.8709L45.7493 50.0291C46.8156 51.5304 48.4271 52.2333 50.3979 52.2333V50.2333ZM47.3799 48.8709C46.6985 47.9116 46.2979 46.4926 46.2979 44.5H44.2979C44.2979 46.7297 44.7418 48.6106 45.7493 50.0291L47.3799 48.8709ZM46.2979 44.5C46.2979 42.5074 46.6985 41.0884 47.3799 40.1291L45.7493 38.9709C44.7418 40.3894 44.2979 42.2703 44.2979 44.5H46.2979ZM47.3799 40.1291C48.0024 39.2526 48.9465 38.7667 50.3979 38.7667V36.7667C48.4271 36.7667 46.8156 37.4696 45.7493 38.9709L47.3799 40.1291ZM50.3979 38.7667C51.8634 38.7667 52.8028 39.2543 53.4124 40.124L55.0501 38.976C53.993 37.4679 52.3769 36.7667 50.3979 36.7667V38.7667ZM53.416 40.1291C54.0974 41.0884 54.4979 42.5074 54.4979 44.5H56.4979C56.4979 42.2703 56.054 40.3894 55.0465 38.9709L53.416 40.1291ZM54.4979 44.5C54.4979 46.4926 54.0974 47.9116 53.416 48.8709L55.0465 50.0291C56.054 48.6106 56.4979 46.7297 56.4979 44.5H54.4979ZM53.4124 48.876C52.8028 49.7457 51.8634 50.2333 50.3979 50.2333V52.2333C52.3769 52.2333 53.993 51.5321 55.0501 50.024L53.4124 48.876ZM50.3979 50.0333C50.9582 50.0333 51.4962 49.8968 51.9702 49.587C52.4404 49.2795 52.7856 48.842 53.0309 48.3366L51.2316 47.4634C51.1102 47.7136 50.9832 47.8427 50.8757 47.913C50.7718 47.9809 50.6265 48.0333 50.3979 48.0333V50.0333ZM53.0257 48.3472C53.5079 47.3827 53.6979 46.0622 53.6979 44.5H51.6979C51.6979 45.96 51.5101 46.9062 51.2368 47.4528L53.0257 48.3472ZM53.6979 44.5C53.6979 42.9378 53.5079 41.6173 53.0257 40.6528L51.2368 41.5472C51.5101 42.0938 51.6979 43.04 51.6979 44.5H53.6979ZM53.0309 40.6634C52.7856 40.158 52.4404 39.7205 51.9702 39.413C51.4962 39.1032 50.9582 38.9667 50.3979 38.9667V40.9667C50.6265 40.9667 50.7718 41.0191 50.8757 41.087C50.9832 41.1573 51.1102 41.2864 51.2316 41.5366L53.0309 40.6634ZM50.3979 38.9667C49.8374 38.9667 49.2999 39.1032 48.8252 39.4106C48.3544 39.7155 48.005 40.1497 47.7535 40.6528L49.5423 41.5472C49.6686 41.2948 49.7998 41.1622 49.9123 41.0894C50.021 41.019 50.1695 40.9667 50.3979 40.9667V38.9667ZM47.7483 40.6634C47.282 41.6241 47.0979 42.94 47.0979 44.5H49.0979C49.0979 43.0378 49.2805 42.087 49.5476 41.5366L47.7483 40.6634ZM47.0979 44.5C47.0979 46.06 47.282 47.3759 47.7483 48.3366L49.5476 47.4634C49.2805 46.913 49.0979 45.9622 49.0979 44.5H47.0979ZM47.7535 48.3472C48.005 48.8503 48.3544 49.2845 48.8252 49.5894C49.2999 49.8968 49.8374 50.0333 50.3979 50.0333V48.0333C50.1695 48.0333 50.021 47.981 49.9123 47.9106C49.7998 47.8378 49.6686 47.7052 49.5423 47.4528L47.7535 48.3472Z" fill="white" mask="url(#path-9-outside-1_7305_57686)"/>
</svg>
